<?xml version="1.0" encoding="UTF-8"?>
<svg id="Capa_1" xmlns="http://www.w3.org/2000/svg" version="1.1" viewBox="0 0 405.71 169.55">
  <!-- Generator: Adobe Illustrator 29.0.1, SVG Export Plug-In . SVG Version: 2.1.0 Build 192)  -->
  <defs>
    <style>
      .st0 {
        fill: #999;
      }
    </style>
  </defs>
  <g id="Capa_2">
    <g id="Capa_2-2">
      <path class="st0" d="M209.42,97.19h24.62c4.71-.07,9.35-1.1,13.65-3.03,4.16-1.86,7.7-4.85,10.24-8.63,2.54-3.89,3.84-8.46,3.74-13.1.34-5.27-2.01-10.36-6.24-13.53-4-2.71-8.59-4.42-13.39-4.99,4.24-1.33,8.12-3.64,11.3-6.74,3.59-3.59,5.56-8.5,5.44-13.58,0-6.72-2.48-11.23-7.57-13.46-5.47-2.16-11.31-3.23-17.19-3.17h-24.6c-.22.01-.39.19-.4.4v79.42c0,.22.18.4.4.4h0ZM250.08,74.58c.07,6.5-3.61,12.46-9.46,15.3-2.08,1.02-4.31,1.7-6.6,2.03h-13.86v-34.77h6.6c2.37-.03,4.75.13,7.1.47,11.04,1.63,16.27,7.28,16.27,16.96h-.05ZM242.2,47.88c-2.46,1.75-5.28,2.94-8.25,3.48-2.34.47-4.71.69-7.1.66h-6.69v-29.89h8.73c1.7,0,3.4.11,5.08.33,3.18.34,6.27,1.29,9.08,2.81,3.33,1.87,4.92,5.42,4.73,10.86.15,4.59-1.93,8.97-5.58,11.75Z"/>
      <path class="st0" d="M282.93,96.98c3.38,1.26,6.94,1.96,10.55,2.08h.47c5.33.08,10.6-1.14,15.35-3.57,4.31-2.24,7.91-5.62,10.43-9.77,2.35-3.77,3.62-8.11,3.67-12.56.2-4.46-1.07-8.85-3.62-12.51-2.73-3.31-6.32-5.81-10.38-7.21l-12.13-5.08c-7.1-3.15-10.64-7.85-10.64-14.38-.04-3.52,1.42-6.88,4.02-9.25,2.76-2.56,6.43-3.91,10.19-3.76,3.39-.17,6.72.94,9.34,3.1,2.17,1.84,3.86,4.19,4.9,6.84.06.16.21.26.38.26h1.06c.17.02.33-.09.38-.26,1.77-5.46,2.81-8.49,3.26-9.46.1-.14.1-.33,0-.47-2.21-1.8-4.73-3.18-7.45-4.04-9.27-3.13-19.47-1.77-27.6,3.67-5.18,3.55-7.97,9.2-8.3,16.79-.4,9.46,4.21,16.13,13.72,19.94l11.54,4.73c7.45,3.05,11.23,8.04,11.23,14.85.06,4.46-1.73,8.74-4.94,11.83-3.07,3.21-7.4,4.88-11.83,4.56-3.16-.34-6.23-1.26-9.06-2.72-3.64-2.37-6.61-5.63-8.66-9.46-.08-.12-.21-.19-.35-.19h-1.14c-.2,0-.38.15-.4.35-.32,3.53-1.05,7.02-2.18,10.38-.04.15,0,.32.12.43,2.36,2.12,5.1,3.78,8.06,4.9Z"/>
      <path class="st0" d="M338.84,97.64c3.31-.95,6.82-.95,10.12,0h.12c.08.02.16.02.24,0,.11-.07.17-.2.17-.33v-39.69h19.75c.47,0,1.54,0,3.24.19l5.16.4c.12.01.23-.03.31-.12.08-.09.13-.21.12-.33v-.19c0-.54,0-1.06-.19-1.47-.04-.49-.12-.97-.24-1.44,0-.47,0-.85.17-1.18s0-.4,0-.54,0-.85.19-1.32v-.17c.01-.12-.03-.23-.12-.31-.07-.09-.19-.15-.31-.14l-4.56.33-2.06.14c-1.7.18-3.4.27-5.11.26h-16.41v-28.48h3c13.84,0,22.82.54,27.48,1.66.11.05.23.05.33,0,.1-.08.16-.2.17-.33.04-1.14-.03-2.28-.21-3.41.2-1.26.29-2.53.28-3.81-.01-.22-.19-.39-.4-.4h-41.32c-.22,0-.4.18-.4.4v79.89c0,.12.06.24.17.31.08.09.22.12.33.07Z"/>
      <path class="st0" d="M360.45,138.22c-1.23-.28-2.52.12-3.38,1.04h0c-.28.3-.54.61-.78.95v-1.51c0-.22-.18-.4-.4-.4h-1.25c-.31-.06-.63-.08-.95-.07-.22.01-.39.19-.4.4v14.83c0,.14.07.26.19.33.11.06.24.06.35,0,.61-.25,1.3-.25,1.92,0h.14c.08.02.16.02.24,0,.1-.08.16-.2.17-.33v-8.61c-.05-.93.17-1.86.61-2.67.36-.65,1.06-1.03,1.8-.99.39-.01.77.12,1.06.38.12.08.28.08.4,0,.14-.04.24-.16.26-.31l.33-2.6c.02-.2-.11-.38-.31-.43Z"/>
      <path class="st0" d="M88.16,139.1h0c-1.15-.63-2.45-.94-3.76-.88-1.28,0-2.54.37-3.62,1.06-1.15.73-2.06,1.78-2.6,3.03-.65,1.35-.96,2.83-.92,4.33.05,1.38.38,2.73.97,3.97.53,1.08,1.35,1.99,2.37,2.63,1.09.67,2.34,1.02,3.62.99h.19c1.4.03,2.77-.39,3.9-1.21,1.1-.82,1.96-1.92,2.48-3.19.48-1.16.74-2.41.76-3.67.02-1.4-.29-2.78-.9-4.04-.53-1.22-1.39-2.27-2.48-3.03ZM87.12,150.57c-.55,1.04-1.59,1.73-2.77,1.82-1.26.03-2.42-.69-2.93-1.84-.62-1.27-.93-2.68-.9-4.09-.03-1.64.35-3.27,1.09-4.73.53-1.06,1.6-1.75,2.79-1.8h.33c1.19.03,2.25.79,2.65,1.92.66,1.36.99,2.86.97,4.38.02,1.57-.4,3.11-1.23,4.45v-.09Z"/>
      <path class="st0" d="M71.14,139.98c1.36,0,2.6.79,3.19,2.01.07.12.19.19.33.19h.21c.17,0,.32-.12.38-.28l.66-1.99c.05-.18-.03-.37-.19-.47-1.36-.84-2.94-1.26-4.54-1.21-2.11-.13-4.16.68-5.63,2.2-1.37,1.59-2.07,3.65-1.96,5.75-.01,1.44.27,2.86.83,4.19.62,1.14,1.52,2.09,2.63,2.77,1.22.7,2.61,1.04,4.02.99,1.63-.07,3.19-.66,4.45-1.7.08-.07.14-.17.14-.28l.14-1.47c0-.16-.07-.32-.21-.4h-.14c-.14-.09-.33-.09-.47,0-.53.57-1.14,1.07-1.8,1.49-.52.3-1.11.44-1.7.4-1.36.05-2.64-.62-3.36-1.77-.92-1.34-1.39-2.94-1.32-4.56-.05-1.51.38-3,1.21-4.26.69-1.05,1.89-1.66,3.15-1.58Z"/>
      <path class="st0" d="M56.24,138.22c-1.11-.08-2.21.27-3.07.97-.38.34-.73.7-1.06,1.09v-1.58c0-.22-.18-.4-.4-.4h-1.18c-.33-.08-.67-.13-1.02-.14-.22.01-.39.19-.4.4v14.83c0,.12.07.24.17.31.1.06.23.06.33,0h.28c.1.01.21.01.31,0h1.4c.2.07.41-.04.48-.24.01-.04.02-.09.02-.14v-7.54c0-4.73,1.87-5.25,3.29-5.25.73-.02,1.43.29,1.89.85.65,1.13.93,2.44.8,3.74v8.42c0,.12.07.24.17.31.08.02.16.02.24,0h.31c.12.01.24.01.35,0h.78c.1.01.21.01.31,0h.26c.2.07.41-.04.48-.24.01-.04.02-.09.02-.14v-9.22c.15-1.67-.29-3.34-1.23-4.73-.93-.9-2.2-1.37-3.5-1.28Z"/>
      <path class="st0" d="M309.58,138.22c-1.09-.06-2.16.28-3,.97-.38.34-.73.7-1.06,1.09v-1.58c-.01-.22-.19-.39-.4-.4h-1.09c-.33-.08-.67-.13-1.02-.14-.22,0-.4.18-.4.4v14.83c-.01.21.15.39.36.4.05,0,.09,0,.14-.02h.26c.1.01.21.01.31,0h.78c.12.01.24.01.35,0h.31c.1.06.23.06.33,0,.1-.07.16-.19.17-.31v-7.69c0-4.73,1.87-5.25,3.26-5.25.72-.03,1.42.28,1.89.83.62,1.15.86,2.46.71,3.76v8.42c0,.12.05.23.14.31.09.02.17.02.26,0h.35c.13.01.25.01.38,0h.88c.1.01.21.01.31,0h.28c.1.06.23.06.33,0,.1-.07.16-.19.17-.31v-9.22c.14-1.67-.3-3.35-1.25-4.73-.99-.98-2.35-1.47-3.74-1.35Z"/>
      <path class="st0" d="M280.37,138.22c-1.09-.06-2.16.28-3,.97-.38.34-.73.7-1.06,1.09v-1.58c-.01-.22-.19-.39-.4-.4h-1.18c-.33-.08-.67-.13-1.02-.14-.22,0-.4.18-.4.4v14.83c0,.12.05.23.14.31.11.06.24.06.35,0h.26c.1.01.21.01.31,0h1.44c.1.06.23.06.33,0,.1-.07.16-.19.17-.31v-7.62c0-4.73,1.87-5.25,3.26-5.25.72-.03,1.42.28,1.89.83.65,1.14.92,2.46.78,3.76v8.42c0,.12.05.23.14.31.09.02.17.02.26,0h.31c.12.02.24.02.35,0h.78c.1.01.21.01.31,0h.28c.1.06.23.06.33,0,.1-.07.16-.19.17-.31v-9.22c.14-1.67-.3-3.35-1.25-4.73-.94-.92-2.23-1.41-3.55-1.35Z"/>
      <path class="st0" d="M113.23,129.9c-.34-.02-.69.02-1.02.12-.39-.09-.78-.13-1.18-.12-.22,0-.4.18-.4.4v9.86c-.83-1.15-2.13-1.88-3.55-1.99h-.38c-1.75-.07-3.43.71-4.52,2.08-1.29,1.72-1.96,3.83-1.89,5.98-.1,1.95.39,3.89,1.4,5.56.98,1.58,2.75,2.49,4.61,2.37.27.04.55.04.83,0,.75-.06,1.46-.34,2.06-.8.56-.38,1.05-.85,1.44-1.4v1.68c.01.13.07.25.17.33.11.06.24.06.35,0h1.89c.1.06.23.06.33,0,.11-.07.17-.18.17-.31v-23.37c0-.19-.12-.36-.31-.4ZM110.63,145.72c.06,1.69-.32,3.37-1.09,4.87-.45.91-1.35,1.52-2.37,1.58h0c-.94-.01-1.82-.47-2.37-1.23-.8-1.34-1.17-2.89-1.04-4.45,0-4.16,1.18-6.27,3.52-6.27h.21c.57-.04,1.14.12,1.61.45.43.35.78.8,1.02,1.3.25.59.44,1.21.57,1.84.02.63,0,1.26-.07,1.89Z"/>
      <path class="st0" d="M299.95,151.92h-.19c-.09-.02-.17-.02-.26,0h-.21c-.12-.03-.22-.08-.31-.17v-.47c.02-.14.02-.28,0-.43v-7.28c.14-1.48-.33-2.95-1.3-4.07-.95-.92-2.23-1.4-3.55-1.32h-.66c-1.5.17-2.91.78-4.07,1.75-.09.07-.15.19-.14.31v1.68c0,.21.17.39.38.4h.19c.17,0,.33-.12.38-.28.19-.57.59-1.04,1.11-1.32.53-.33,1.15-.5,1.77-.47h.24c.68.06,1.3.39,1.75.9.63.62.95,1.49.88,2.37.03.48-.16.94-.52,1.25-.63.3-1.31.48-2.01.54h0l-1.35.24h-.21c-1.13.13-2.18.65-2.98,1.47-.63.89-.94,1.96-.88,3.05-.05,1.11.38,2.19,1.18,2.96.8.79,1.9,1.22,3.03,1.18.46-.01.92-.06,1.37-.14.97-.32,1.86-.86,2.58-1.58.32.91,1.22,1.48,2.18,1.4.67-.02,1.32-.19,1.92-.5.14-.07.22-.22.21-.38v-.57c.07-.21-.05-.44-.27-.5-.08-.03-.17-.02-.25,0ZM293.52,146.34l.26.38c.69-.17,1.37-.33,2.06-.45v3.93c-.57.9-1.46,1.57-2.48,1.87h-.4c-.46-.02-.91-.19-1.25-.5-.35-.3-.59-.71-.69-1.16v-.14c-.02-.07-.02-.14,0-.21.02-.19.02-.38,0-.57,0-.7.32-1.35.85-1.8.48-.43,1.06-.73,1.68-.9h.21l-.24-.45Z"/>
      <path class="st0" d="M372.18,139.1h0c-1.11-.67-2.39-1.01-3.69-.99-1.3,0-2.57.36-3.67,1.06-1.15.74-2.06,1.79-2.63,3.03-.66,1.34-.94,2.82-.83,4.3-.02,1.38.29,2.76.9,4,.52,1.08,1.34,1.99,2.37,2.63,1.08.66,2.33,1,3.59.99h.26c1.38.03,2.74-.39,3.86-1.21,1.08-.82,1.9-1.93,2.37-3.19,1.06-2.47,1.06-5.26,0-7.73-.56-1.18-1.44-2.17-2.53-2.89ZM372.37,146.2c.06,1.57-.36,3.12-1.21,4.45h0c-.53,1.02-1.53,1.7-2.67,1.82h0c-1.25,0-2.38-.71-2.91-1.84-1.26-2.84-1.19-6.1.19-8.89.55-1.08,1.63-1.77,2.84-1.82h.28c1.19.03,2.25.79,2.65,1.92.59,1.36.87,2.83.83,4.3v.07Z"/>
      <path class="st0" d="M384.1,145.32h-.12c-.12,0-.4,0-1.54-.59-.76-.22-1.49-.57-2.13-1.04-.41-.38-.65-.91-.66-1.47.02-.2.02-.41,0-.61.03-.46.26-.89.64-1.16.9-.73,2.23-.6,2.96.3.23.28.38.62.44.98.06.16.21.26.38.26h.35c.18,0,.34-.13.38-.31.19-.66.4-1.42.66-2.15.07-.18,0-.39-.17-.5-1.05-.55-2.22-.82-3.41-.78-1.25-.03-2.45.44-3.36,1.3-.93.9-1.45,2.14-1.44,3.43-.06.81.1,1.62.47,2.34.33.56.8,1.03,1.37,1.35.5.21,1.25.5,2.25.83.65.17,1.26.46,1.8.85.39.42.57.99.52,1.56,0,.61-.22,1.21-.61,1.68-.42.44-.98.7-1.58.73-.55-.02-1.08-.19-1.54-.5-.55-.46-1.02-1.01-1.37-1.63-.07-.14-.2-.22-.35-.21h-.21c-.19,0-.35.14-.38.33v.14c-.05.37-.13.73-.24,1.09,0,.33-.19.59-.26.78v.21c-.05.16,0,.34.14.45.57.36,1.21.63,1.87.78.6.19,1.22.28,1.84.28h0c1.49.03,2.93-.53,4-1.56,1.01-.96,1.55-2.32,1.47-3.71.03-1.48-.83-2.84-2.18-3.45Z"/>
      <path class="st0" d="M122.39,138.22h-.21c-1.72-.03-3.38.67-4.56,1.92-1.41,1.7-2.11,3.88-1.96,6.08-.06,2,.55,3.96,1.73,5.58,1.12,1.49,2.87,2.37,4.73,2.37h.4c1.85-.03,3.62-.72,4.99-1.96.09-.07.15-.19.14-.31v-1.54c0-.16-.09-.3-.24-.35-.14-.08-.31-.08-.45,0-.92,1.13-2.26,1.83-3.71,1.96-.35.04-.69.04-1.04,0-.98-.21-1.84-.8-2.37-1.66-.79-1.1-1.17-2.45-1.06-3.81h9.15c.2,0,.38-.15.4-.35.15-1.83-.24-3.66-1.11-5.27-.92-1.78-2.83-2.83-4.82-2.65ZM125.44,144.56h-6.55c.1-1.14.46-2.23,1.04-3.22.45-.9,1.36-1.46,2.37-1.47h.19c1.16,0,2.86.52,2.96,4.64v.05Z"/>
      <path class="st0" d="M324.53,139.98c1.37,0,2.61.77,3.19,2.01.07.12.19.19.33.19h.21c.17,0,.33-.12.38-.28l.61-2.01c.05-.18-.03-.36-.19-.45-1.33-.85-2.89-1.28-4.47-1.21-2.12-.15-4.19.66-5.65,2.2-1.38,1.59-2.11,3.64-2.03,5.75,0,1.45.32,2.87.92,4.19.59,1.16,1.49,2.13,2.6,2.81,2.69,1.53,6.03,1.28,8.47-.61.09-.07.15-.17.17-.28v-1.47c.02-.19-.09-.36-.26-.43h-.21c-.13-.08-.29-.08-.43,0-.5.57-1.07,1.06-1.7,1.47-.53.29-1.13.43-1.73.4-1.36.05-2.64-.62-3.36-1.77-.92-1.34-1.39-2.94-1.32-4.56-.04-1.49.35-2.96,1.14-4.23.71-1.14,1.99-1.79,3.33-1.7Z"/>
      <path class="st0" d="M46.56,151.92h-.19c-.09-.02-.19-.02-.28,0h-.21c-.12-.03-.23-.09-.33-.17-.01-.16-.01-.32,0-.47.02-.14.02-.28,0-.43v-7.28c.15-1.48-.33-2.96-1.32-4.07-.98-.93-2.32-1.4-3.67-1.28h-.64c-1.49.19-2.91.79-4.07,1.75-.11.07-.17.18-.17.31v1.68c.01.22.19.39.4.4h.33c.18,0,.33-.11.38-.28.19-.57.59-1.04,1.11-1.32.53-.33,1.15-.5,1.77-.47h.24c.69.07,1.34.38,1.82.88.57.65.87,1.5.83,2.37.04.48-.17.95-.54,1.25-.62.3-1.3.48-1.99.54h-.14l-1.32.24h-.24c-1.13.13-2.17.65-2.96,1.47-.66.87-1.01,1.94-.97,3.03-.02,1.1.41,2.17,1.18,2.96.81.79,1.9,1.21,3.03,1.18.47-.01.93-.06,1.4-.14,1.01-.33,1.92-.89,2.67-1.63.3.91,1.19,1.5,2.15,1.42.67-.02,1.32-.19,1.92-.5.13-.08.21-.22.21-.38v-.54c.04-.23-.12-.45-.35-.49-.02,0-.04,0-.05,0ZM41.19,146.53l1.23-.26v3.93c-.54.89-1.38,1.55-2.37,1.87h-.33c-.48.02-.95-.17-1.28-.52-.35-.28-.61-.66-.73-1.09.02-.09.02-.19,0-.28h0c.03-.19.03-.38,0-.57.01-.7.33-1.36.88-1.8.48-.42,1.04-.73,1.66-.9h.35l.59-.38Z"/>
      <path class="st0" d="M30.39,143.12c-.69-.57-1.5-.99-2.37-1.21.74-.37,1.39-.87,1.94-1.49.88-1.06,1.34-2.41,1.3-3.78.26-1.55-.5-3.1-1.89-3.83-1.34-.59-2.79-.9-4.26-.9h-5.77c-.21-.01-.39.15-.4.35,0,0,0,.02,0,.02v21.1c0,.22.18.4.4.4h5.82c1.17-.05,2.32-.34,3.38-.85,1.05-.54,1.94-1.36,2.55-2.37.64-1.11.97-2.38.95-3.67.11-1.46-.51-2.87-1.66-3.78ZM22.2,143.12h1.28c.54-.03,1.08.02,1.61.14,2.08.08,3.69,1.82,3.62,3.9,0,.1-.01.19-.02.29.06.83-.16,1.66-.61,2.37h0c-.31.67-.84,1.22-1.49,1.56-.44.25-.92.41-1.42.47h-2.96v-8.73ZM26.93,140.14c-.59.44-1.27.75-1.99.92-.51.13-1.03.19-1.56.19h-1.18v-7.43h2.29c.2-.01.39-.01.59,0,.71.09,1.4.32,2.03.66.77.66,1.16,1.67,1.02,2.67.1,1.15-.36,2.28-1.23,3.03l.02-.05Z"/>
      <path class="st0" d="M345.01,138.22h-.26c-1.72-.03-3.38.67-4.56,1.92-2.56,3.44-2.66,8.12-.24,11.66,1.12,1.49,2.87,2.36,4.73,2.37h.4c1.85-.02,3.62-.72,4.99-1.96.09-.06.15-.17.14-.28v-1.54c0-.16-.09-.31-.24-.38-.14-.09-.31-.09-.45,0-.94,1.14-2.31,1.85-3.78,1.96-.35.03-.69.03-1.04,0-.96-.25-1.8-.83-2.37-1.66-.78-1.12-1.16-2.47-1.09-3.83h9.2c.1.04.21.04.31,0,.08-.08.12-.18.12-.28.08-1.82-.3-3.64-1.11-5.27-.92-1.75-2.78-2.8-4.75-2.7ZM342.5,141.35c.43-.86,1.29-1.42,2.25-1.47h.26c1.94,0,2.93,1.58,3,4.73h-6.55c.11-1.16.47-2.29,1.04-3.31v.05Z"/>
      <path class="st0" d="M335,138.22h-.54c-.2-.02-.39-.02-.59,0h-1.06c-.22,0-.4.18-.4.4v14.83c0,.12.05.23.14.31.11.05.24.05.35,0h.26c.1.01.21.01.31,0h.85c.1.01.21.01.31,0h.28c.08.02.16.02.24,0,.1-.07.16-.19.17-.31v-14.76c.03-.21-.1-.42-.31-.47Z"/>
      <path class="st0" d="M146.11,141.61l-2.91-1.32c-1.46-.58-2.4-2-2.37-3.57-.01-.83.31-1.62.9-2.2.55-.62,1.35-.97,2.18-.95.74-.04,1.46.23,1.99.76.49.49.87,1.08,1.11,1.73.06.16.21.26.38.26h.19c.18,0,.33-.11.38-.28.24-.71.43-1.28.54-1.7.06-.27.14-.53.24-.78.09-.14.09-.31,0-.45-.54-.51-1.17-.9-1.87-1.16-2.28-.92-4.89-.55-6.81.99-1.39,1.17-2.15,2.92-2.08,4.73-.27,2.42,1.11,4.72,3.38,5.61l2.74,1.25c1.51.56,2.47,2.04,2.37,3.64.06,1.04-.26,2.06-.9,2.89-.61.74-1.53,1.14-2.48,1.09-.74-.09-1.46-.32-2.1-.69-.82-.62-1.47-1.44-1.92-2.37-.08-.12-.21-.2-.35-.21h-.26c-.21,0-.39.17-.4.38-.05.92-.22,1.83-.52,2.7-.07.13-.07.29,0,.43,1.28,1.2,2.97,1.89,4.73,1.92,1.35.04,2.69-.3,3.86-.99,1.11-.64,2.02-1.57,2.63-2.7.55-1.07.85-2.25.85-3.45.05-1.23-.25-2.44-.88-3.5-.65-.92-1.55-1.63-2.6-2.03Z"/>
      <path class="st0" d="M239.69,145.32h0l-1.63-.61c-.75-.23-1.46-.58-2.1-1.04-.41-.4-.63-.95-.61-1.51v-.52c.06-.47.28-.9.64-1.21.4-.3.88-.46,1.37-.47.9,0,1.56.57,2.1,1.77.07.14.2.23.35.24h.26c.2.01.38-.13.4-.33.14-.72.34-1.44.59-2.13.05-.19-.02-.39-.19-.5-1.04-.56-2.21-.83-3.38-.78-1.26-.04-2.49.43-3.41,1.3-.94.89-1.47,2.13-1.47,3.43-.08.81.08,1.64.45,2.37.33.57.8,1.03,1.37,1.35.5.21,1.23.5,2.25.83.65.15,1.27.44,1.8.85.38.43.56.99.52,1.56.02.62-.21,1.23-.64,1.68-.4.45-.96.71-1.56.73-.54-.02-1.06-.2-1.49-.52-.59-.43-1.08-.98-1.44-1.61-.06-.13-.19-.22-.33-.21h-.21c-.19,0-.36.14-.4.33h0c0,.35-.14.76-.24,1.11-.08.21-.14.42-.19.64.02.12.02.24,0,.35-.04.17.02.35.17.45.56.37,1.19.63,1.84.78.61.18,1.24.28,1.87.28h0c1.49,0,2.92-.56,4-1.58.98-.98,1.51-2.31,1.47-3.69-.03-1.43-.86-2.72-2.15-3.33Z"/>
      <path class="st0" d="M211.22,132.05c-.32.39-.48.87-.47,1.37-.02.49.15.96.47,1.32.32.4.81.63,1.32.61.49.02.96-.19,1.28-.57.35-.37.53-.86.52-1.37.01-.51-.17-1.01-.52-1.4-.61-.71-1.69-.79-2.4-.18-.07.06-.14.13-.2.2Z"/>
      <path class="st0" d="M213.68,138.22h-2.2c-.22,0-.4.18-.4.4v14.83c-.01.21.15.39.36.4.05,0,.09,0,.14-.02h.26c.1.01.21.01.31,0h.85c.1.01.21.01.31,0h.28c.08.02.16.02.24,0,.1-.07.16-.19.17-.31v-14.83c.03-.21-.1-.42-.31-.47Z"/>
      <path class="st0" d="M266.49,132.05c-.36.37-.56.86-.57,1.37.01.5.22.97.57,1.32.59.7,1.63.79,2.33.2.07-.06.14-.13.2-.2.35-.37.53-.86.52-1.37,0-.51-.18-1.01-.52-1.4-.59-.68-1.62-.76-2.3-.17-.08.07-.16.15-.23.24Z"/>
      <path class="st0" d="M268.93,138.22h-.35c-.26-.02-.52-.02-.78,0-.24.01-.49.01-.73,0h-.4c-.22.01-.39.19-.4.4v14.83c0,.12.07.24.17.31.1.06.23.06.33,0h.28c.1.01.21.01.31,0h1.49c.09.02.17.02.26,0,.09-.07.15-.19.14-.31v-14.76c.04-.22-.09-.43-.31-.47Z"/>
      <path class="st0" d="M262.33,131.91h-9.74c-.21,0-.39.17-.4.38v21.29c0,.12.07.24.17.31.08.03.16.03.24,0h0c.39-.12.8-.18,1.21-.19.34,0,.68.06.99.19.12.06.26.06.38,0,.11-.07.17-.2.17-.33v-10.24h4.35c.27-.02.54-.02.8,0h.57c.33,0,.78.14.97-.14.07-.12.07-.28,0-.4v-.21c.02-.14.02-.28,0-.43.02-.15.02-.3,0-.45v-.21c.07-.12.07-.28,0-.4-.08-.12-.21-.19-.35-.19-.53,0-1.06.05-1.58.14h-4.75v-7.1h.4c2.13-.09,4.27.06,6.36.45.11.06.24.06.35,0,.11-.08.17-.2.17-.33v-1.94c-.06-.1-.17-.17-.28-.19Z"/>
      <path class="st0" d="M227.84,139.1h0c-1.15-.63-2.45-.94-3.76-.88-1.29-.02-2.55.35-3.62,1.06-1.17.73-2.09,1.78-2.67,3.03-.65,1.34-.95,2.84-.85,4.33.02,1.37.34,2.73.92,3.97.52,1.08,1.34,2,2.37,2.63,1.09.68,2.36,1.03,3.64.99h.19c1.4.02,2.76-.4,3.9-1.21,1.08-.81,1.9-1.91,2.37-3.17.52-1.16.77-2.42.76-3.69.02-1.39-.27-2.77-.83-4.04-.51-1.21-1.35-2.26-2.41-3.03ZM227.84,146.2c.04,1.56-.36,3.1-1.16,4.45-.54.97-1.5,1.63-2.6,1.77h0c-1.24,0-2.38-.72-2.91-1.84-.6-1.28-.9-2.68-.9-4.09-.04-1.65.35-3.28,1.14-4.73.52-1.08,1.6-1.77,2.79-1.8h.26c1.22,0,2.31.77,2.72,1.92.55,1.35.81,2.8.78,4.26l-.12.07Z"/>
      <path class="st0" d="M173.19,138.22c-1.23-.28-2.52.12-3.38,1.04h0c-.31.32-.6.66-.85,1.02v-1.58c0-.22-.18-.4-.4-.4h-1.18c-.33-.09-.67-.13-1.02-.14-.22.01-.39.19-.4.4v14.83c0,.14.07.26.19.33.07.02.14.02.21,0h.14c.29-.12.61-.19.92-.19.34-.01.68.05.99.19.12.06.26.06.38,0,.1-.08.16-.2.17-.33v-8.54c-.03-.94.21-1.86.69-2.67.36-.65,1.06-1.03,1.8-.99.37-.02.73.12.99.38.12.08.28.08.4,0,.14-.04.24-.16.26-.31l.4-2.6c.02-.2-.11-.38-.31-.43Z"/>
      <path class="st0" d="M332.55,132.05c-.32.39-.48.87-.47,1.37-.02.49.15.96.47,1.32.32.4.81.63,1.32.61.5.02.97-.2,1.28-.59.35-.36.54-.85.52-1.35.01-.51-.17-1.01-.52-1.4-.59-.71-1.65-.81-2.36-.22-.09.07-.17.15-.24.24Z"/>
      <path class="st0" d="M203.2,139.98c1.37,0,2.61.77,3.19,2.01.07.12.19.19.33.19h.33c.17,0,.31-.11.38-.26l.66-2.01c.06-.18,0-.37-.17-.47-1.39-.87-3.02-1.29-4.66-1.21-2.12-.15-4.19.66-5.65,2.2-1.38,1.59-2.11,3.64-2.03,5.75,0,1.44.32,2.87.92,4.19.61,1.15,1.5,2.12,2.6,2.81,2.72,1.49,6.06,1.19,8.47-.76.09-.07.15-.17.17-.28v-1.47c.02-.19-.09-.36-.26-.43h-.21c-.13-.08-.29-.08-.43,0-.5.57-1.07,1.06-1.7,1.47-.53.29-1.13.43-1.73.4-1.36.05-2.64-.62-3.36-1.77-.92-1.34-1.39-2.94-1.32-4.56.01-1.45.44-2.87,1.23-4.09.7-1.11,1.93-1.76,3.24-1.7Z"/>
      <path class="st0" d="M157.67,138.22h-.28c-1.72-.03-3.38.66-4.56,1.92-1.43,1.69-2.14,3.87-1.99,6.08-.04,2,.61,3.95,1.82,5.53,1.12,1.49,2.87,2.37,4.73,2.37h.4c1.85-.03,3.62-.73,4.99-1.96.09-.07.15-.19.14-.31v-1.54c0-.16-.09-.3-.24-.35-.14-.09-.31-.09-.45,0-.93,1.12-2.27,1.82-3.71,1.96-.35.04-.69.04-1.04,0-.98-.2-1.84-.8-2.37-1.66-.8-1.1-1.18-2.45-1.06-3.81h9.11c.21.01.39-.14.4-.35,0,0,0,0,0,0,.16-1.83-.22-3.67-1.11-5.27-.92-1.75-2.81-2.77-4.78-2.6ZM160.75,144.56h-6.55c.1-1.14.46-2.23,1.04-3.22.43-.86,1.29-1.42,2.25-1.47h.19c1.28,0,2.98.52,3.07,4.64v.05Z"/>
      <path class="st0" d="M189.74,132.05c-.33.38-.51.87-.5,1.37-.02.49.16.97.5,1.32.31.4.79.63,1.3.61.5.01.98-.2,1.3-.59.33-.34.52-.8.52-1.28,0-.51-.17-1.01-.5-1.4-.59-.74-1.66-.86-2.39-.27-.08.07-.16.14-.23.22Z"/>
      <path class="st0" d="M186.01,138.39h-.24c-.5,0-.95-.19-1.06.14s-.24.71-.43,1.25l-.52,1.66c-.38,1.3-.83,2.63-1.4,4.04s-1.09,2.67-1.73,4.07c-1.75-4.56-2.96-8.16-3.71-10.97-.05-.18-.22-.3-.4-.31h-1.18c-.46-.06-.93-.08-1.4-.05-.23.02-.41.22-.39.45,0,.03,0,.06.02.09l1.61,4.19c.5,1.28.95,2.46,1.35,3.55l.31.85c.66,1.84,1.42,3.97,2.15,6.27.07.21.29.32.5.26h.24c.09.01.19.01.28,0h.92c.16-.01.31-.11.38-.26v-.38c.28-.76.71-1.92,1.28-3.52.4-1.21.78-2.37,1.14-3.17.17-.47.33-.9.47-1.28.31-.83.57-1.49.8-2.08l.19-.47.66-1.61c.26-.64.59-1.4.95-2.37.06-.12.06-.26,0-.38.05-.14-.12-.14-.78.02Z"/>
      <path class="st0" d="M192.18,138.22h-2.2c-.22.01-.39.19-.4.4v14.83c0,.12.07.24.17.31.1.06.23.06.33,0h.28c.1.01.21.01.31,0h.85c.1.01.21.01.31,0h.26c.09.02.17.02.26,0,.09-.07.15-.19.14-.31v-14.76c.04-.22-.09-.43-.31-.47Z"/>
      <rect class="st0" x="8.39" y="111.67" width="388.93" height="5.75" rx=".4" ry=".4"/>
    </g>
  </g>
</svg>