<?xml version="1.0" encoding="UTF-8"?>
<svg id="Capa_1" xmlns="http://www.w3.org/2000/svg" version="1.1" viewBox="0 0 600 169.55">
  <!-- Generator: Adobe Illustrator 29.0.1, SVG Export Plug-In . SVG Version: 2.1.0 Build 192)  -->
  <defs>
    <style>
      .st0 {
        fill: #999;
      }
    </style>
  </defs>
  <path class="st0" d="M348.94,98.07h-17l8.5-22.57,8.5,22.57ZM428.49,123.66h26.74v-62.62h-23.04v32.97l-24.22-32.97h-29.21v51.07l-19.37-51.07h-37.42l-14.07,37.02h-22.85c-1.15,7.33-5.35,11.33-12.72,11.33-8.5,0-13.25-6.69-13.25-17.1s4.8-16.95,13.25-16.95c6.94,0,11.4,3.76,12.36,9.77h25.35v-1.69c0-13.82-11.76-25.25-37.44-25.25-27.7,0-38.24,14.09-38.24,34.19v1.37c-3.46-4.3-10.13-6.79-21.15-8.4l-16.03-2.32c-6.05-.9-9.82-1.61-9.82-4.64,0-2.59,2.4-5.35,8.93-5.35,7.2,0,11.33,2.86,11.33,7.5h25.78v-1.34c0-12.5-12.27-20.71-36.39-20.71s-35.67,9.21-35.67,22.13c0,10.09,6.48,15.97,21.75,18.12l18.15,2.61c6.48.88,8.59,2.22,8.59,4.88,0,3.57-3.34,5.54-10.8,5.54-8.4,0-12.27-3.66-12.27-8.74h-27.1v1.42c0,13.92,12.89,21.98,38.24,21.98,23.4,0,36.99-5.28,39.22-18.56,4.8,11.41,15.7,18.63,35.48,18.63,15,0,23.43-4.15,28.47-10.43l-2.86,7.57h24l3.43-8.99h29.45l3.41,8.99h43.21v-36l26.79,36.02ZM531.06,98.07h-17.02l8.52-22.57,8.5,22.57ZM565.26,123.66l-23.76-62.62h-37.45l-19.37,51.07v-51.07h-23.6v62.62h43.33l3.41-8.99h29.45l3.43,8.99h24.56Z"/>
  <path class="st0" d="M101.18,66.17l-.58.34h.17l.41-.24M81.78,70.81l.86.17c.17.7.78,1.19,1.49,1.2.8-.01,1.45-.65,1.49-1.47.3-.03.61-.03.91,0-.09.14-.16.29-.22.44-.29,1.17-1.38,1.95-2.57,1.83-1.04-.25-1.82-1.12-1.97-2.2M78.16,80c-1.81.09-3.59.43-5.3,1.03-3.19.98-5.95,1.81-8.81-.64-.35-.35-.67-.73-.94-1.15,3.7,1.47,7.77,1.68,11.59.61,1.15-.25,2.33-.2,3.46.15M112.41,85.71c.07-.91.07-1.83,0-2.74-.41-4.65-3.03-8.8-7.01-11.11h0c1.48-1.79,2.55-3.91,3.12-6.18l.22-.88h-.91c-2.13-.23-4.28.17-6.19,1.15h0l5.62-14.04c-.25-.04-.5-.04-.74,0-1.63.06-2.94,1.37-3.02,3.03,0,.57.15,1.12.43,1.61-1.11-1.08-2.88-1.03-3.94.1-1.06,1.13-1.02,2.93.1,4.01.5.48,1.16.76,1.85.78.14.02.27.02.41,0-.86,1.93-2.92,3.01-4.97,2.59-1.91-.59-3.47-2-4.27-3.86h0c.46.32,1,.49,1.56.49,1.55,0,2.81-1.28,2.81-2.86s-1.26-2.86-2.81-2.86c-.41,0-.81.09-1.18.27,1.03-1.16.94-2.95-.2-4-1.14-1.05-2.9-.96-3.93.2-.96,1.08-.96,2.72,0,3.8-.36-.17-.75-.27-1.15-.27-1.55,0-2.81,1.28-2.81,2.86s1.26,2.86,2.81,2.86c.55,0,1.08-.17,1.54-.49h0c-.8,1.79-2.31,3.16-4.15,3.76-2.05.41-4.1-.66-4.97-2.59.14.02.29.02.43,0,1.55,0,2.8-1.29,2.8-2.87,0-1.58-1.27-2.85-2.82-2.84-.74,0-1.44.3-1.97.83.21-.48.31-.99.29-1.51.01-1.77-1.38-3.21-3.12-3.22h0c-.24-.04-.48-.04-.72,0l6,15.02h18.6l.24-.15-.26.17c-1.05.72-2,1.59-2.81,2.59l1.25,1.03c2.07-2.48,5.04-3.99,8.23-4.18-1.02,3.53-3.73,6.29-7.2,7.33l.34,1.64c1.66-.34,3.21-1.11,4.49-2.25h0c2.93,1.53,5.1,4.24,5.98,7.47-1.47-.81-3.18-1.03-4.8-.63l-1.49.37,1.15,1.03c3.29,2.6,5.27,6.56,5.4,10.79-.02,1.59-.32,3.16-.89,4.64-1-2.2-3.1-3.67-5.47-3.83-.52-.04-1.04-.04-1.56,0l.82,1.29c1.44,2.05,2.28,4.49,2.4,7.01.02.82-.08,1.65-.29,2.44-.73,2.35-2.22,4.38-4.22,5.76v-.2c.16-3.32-1.77-6.37-4.8-7.6-.24-.12-1.18-.42-1.18-.42l.34,1.49c.38,1.6.58,3.24.6,4.88.1,2.17-.52,4.3-1.78,6.06-1.41,1.73-3.39,2.88-5.57,3.25.34-1.17.55-2.37.62-3.59v-1.76c-.12-2.88-.53-5.73-1.22-8.52l-.31-1.29c-1.32.91-2.33,2.21-2.88,3.74-.71,2.11-1.13,4.32-1.25,6.55-2.14-1.95-3.5-4.64-3.82-7.55v-.73c.07-2.67.99-5.23,2.62-7.33l1.7-1.93c-.89.16-1.77.39-2.64.66-1.7.58-3.24,1.55-4.51,2.83-.12-.53-.18-1.07-.19-1.61.18-2.93,1.95-5.51,4.58-6.69l5.23-2.25-5.64.68c-2.1.41-4.27-.04-6.05-1.25-.31-.35-.55-.76-.72-1.2,2.48,1.19,5.4.95,7.66-.64,3.31-2.17,4.03-3.52,4.13-3.76v-.71c-.14-1.37-.84-2.15-4.13-3.05-1.51-.45-2.84-1.36-3.82-2.61l-.24-.24c-2.4-1.93-5.59-.76-7.59.27.45-2.39,1.93-4.45,4.03-5.62,1.87-.58,3.9-.29,5.54.78-.13,2.15,1.28,4.07,3.34,4.57,1.95.31,3.82-.92,4.34-2.86.04-.16.13-.32.24-.44.3.07.57.24.77.49l1.18-1.05c-.37-.39-.81-.69-1.3-.9-1.23-.74-2.7-.95-4.08-.59h0c-.89.33-1.87.33-2.76,0,.35-.51.74-1,1.18-1.44.29-.29.63-.55.98-.76h-2.4c-.42.43-.79.91-1.08,1.44-1.97-1.13-4.32-1.35-6.46-.61-2.64,1.1-4.49,4.03-5.47,8.72l-.43,2.08,1.68-1.25s4.8-3.42,7.32-1.42c1.23,1.54,2.91,2.65,4.8,3.15,2.86.76,2.9,1.25,2.95,1.64-.42.62-.95,1.16-1.56,1.59l-.65-.98c-1.86-2.57-5.04-3.77-8.09-3.05h0c-4.34,1.32-9.03.7-12.89-1.71l-2.81-2.05,1.32,2.93c.65,1.54,1.58,2.94,2.74,4.13,3.53,3.03,6.98,2,10.32.98,2.78-.83,5.42-1.64,8.14-.15l.82.44-.96.66c-1.98,1.37-4.53,1.57-6.7.51-1.42-.46-1.92-.68-1.92-.68v.95c.03,1.28.51,2.5,1.37,3.44,1.32,1.19,3.04,1.82,4.8,1.76-1.97,1.6-3.14,4-3.19,6.57,0,1.22.24,2.43.7,3.57l.46,1.32.89-1.07c.74-.81,1.54-1.55,2.4-2.22-.89,1.79-1.36,3.76-1.37,5.76v.83c.49,3.9,2.52,7.42,5.62,9.77l1.32,1.12v-1.54c-.02-3.02.56-6.01,1.7-8.79.5,2.13.78,4.31.84,6.5.04.54.04,1.09,0,1.64-.12,1.14-.34,2.27-.65,3.37-.24.79-.58,1.55-1.01,2.25h1.44c3.12-.16,6.04-1.63,8.07-4.05,1.47-2.06,2.21-4.56,2.11-7.11,0-1.11-.1-2.21-.29-3.3,1.4,1.28,2.16,3.14,2.06,5.06.03.57.03,1.14,0,1.71l-.24,1.54,1.15-.56c3.02-1.68,5.29-4.49,6.31-7.84.22-.9.34-1.83.34-2.76-.04-2.17-.61-4.31-1.66-6.2,1.53.79,2.65,2.21,3.07,3.91.19.6.33,1.21.41,1.83,0,0,.65-.98.94-1.49,1.26-2.23,1.92-4.76,1.92-7.33-.06-4.02-1.7-7.85-4.54-10.65,1.32.16,2.53.84,3.36,1.9.55.76,1.02,1.58,1.39,2.44M93.59,89.03c.04,1.5-.42,2.98-1.32,4.18l-1.08,1.69s1.58-.29,1.9-.39c1.83-.47,3.43-1.61,4.49-3.2,1-1.77,1.39-3.84,1.1-5.86.95,1.44,1.42,3.15,1.34,4.88v2.22c.52-.53,1-1.1,1.44-1.71,3.02-4.32,2.47-10.25-1.3-13.92l-.55,1.78c2.19,2.46,2.9,5.94,1.85,9.09-.32-2.17-1.64-4.05-3.55-5.06-.47-.21-.95-.39-1.44-.54l.36,1.51c.77,2.25.57,4.72-.53,6.81-.4.66-.94,1.22-1.58,1.64.92-2.09.62-4.52-.77-6.33-.12-.17-1.3-1.32-1.3-1.32v1.86c.04,1.65-.69,3.23-1.97,4.25.42-1.3.31-2.72-.31-3.93l-1.42.78c.64,1.41.3,3.07-.84,4.1l-1.51,1.49s1.44,0,1.9-.12c2.27-.17,4.25-1.65,5.09-3.81M85.58,77.68c2.4,0,2.76,3.44,5.35,2.76.46-.13.9-.33,1.3-.61-1.63.68-2.93-.73-4.06-1.71-.7-.66-1.72-.83-2.59-.44M104.78,67.91c-1.88.47-3.6,1.42-5.02,2.76l.53,1.17c1.97-.58,3.61-2,4.49-3.88M144.29,67.54c-1.38,1.47-2.72,2.96-4.03,4.47-2.01-11.76-8.04-22.42-17.04-30.09,1.97-.39,3.91-.83,5.86-1.34,7.5,7.29,12.78,16.61,15.22,26.86M137.47,75.19c-11.92,14.49-21.25,31-27.56,48.77-11.84,5.26-25.3,5.26-37.13,0-6.35-17.73-15.7-34.18-27.63-48.62,1.5-13.01,8.21-24.81,18.56-32.6,9.11,1.64,18.35,2.46,27.6,2.44,9.34.02,18.67-.8,27.87-2.44,10.3,7.79,16.97,19.56,18.43,32.53M115.15,40.07c-7.88,1.26-15.85,1.89-23.84,1.88-7.94-.01-15.86-.67-23.69-1.95,14.64-8.87,32.88-8.87,47.53,0M59.53,41.75c-9.08,7.69-15.17,18.43-17.16,30.28-1.34-1.54-2.69-3.05-4.06-4.52,2.45-10.35,7.79-19.76,15.39-27.08,1.94.51,3.89.95,5.83,1.37M44.77,80.66v-.51c9.99,12.58,18.01,26.65,23.79,41.71-14.67-8.34-23.77-24.1-23.79-41.2M74.17,128.21c5.48,2.09,11.29,3.15,17.14,3.13,5.87.01,11.69-1.04,17.19-3.13-.62,1.98-1.22,3.91-1.78,5.91-10.05,2.95-20.72,2.95-30.77,0-.55-1.98-1.13-3.88-1.78-5.84M114.14,121.83c5.74-15.06,13.72-29.13,23.64-41.74v.56c0,17.06-9.03,32.8-23.64,41.18M147.98,68.52l-.19-.88c-2.56-11.56-8.52-22.04-17.09-30.06l-.65-.61-.86.22c-3.07.81-6.19,1.49-9.34,2.1-17.07-12.21-39.84-12.21-56.91,0-3.12-.64-6.26-1.32-9.36-2.1l-.86-.22-.62.61c-8.6,8-14.59,18.5-17.16,30.06l-.19.88.6.64c2.23,2.44,4.39,4.76,6.48,7.33,0,1.42-.19,2.81-.19,4.27.06,19.56,11.19,37.34,28.59,45.67,1.06,3.08,2.02,6.13,2.9,9.26l.24.85.82.29c11.18,3.47,23.12,3.47,34.3,0l.84-.27.24-.88c.86-3.15,1.85-6.25,2.93-9.35,17.38-8.34,28.49-26.12,28.54-45.67,0-1.47,0-2.88-.19-4.3,2.06-2.44,4.22-4.88,6.43-7.2l.72-.64Z"/>
</svg>