<?xml version="1.0" encoding="UTF-8"?>
<svg id="Capa_1" xmlns="http://www.w3.org/2000/svg" version="1.1" viewBox="0 0 600 169.55">
  <!-- Generator: Adobe Illustrator 29.0.1, SVG Export Plug-In . SVG Version: 2.1.0 Build 192)  -->
  <defs>
    <style>
      .st0 {
        fill: #999;
      }
    </style>
  </defs>
  <path class="st0" d="M547.7,155.12l-10.63-13.22h-2.08v17.74h2.53v-13.22l10.63,13.22h2.08v-17.74h-2.53v13.22ZM78.81,113.37h68.32v-10.9H49.82c-3.05,0-5.53,2.44-5.53,5.45s2.48,5.45,5.53,5.45h28.99ZM152.9,113.37h93.94v-10.9h-93.94v10.9ZM347.1,102.47h-94.48v10.9h94.48v-10.9h0ZM352.88,113.37h94.21v-10.9h-94.21v10.9ZM550.18,102.47h-97.31v10.9h97.31c3.05,0,5.53-2.44,5.53-5.45s-2.48-5.45-5.53-5.45ZM48.61,159.62h2.53v-7.17h8.9v-2.18h-8.9v-6.18h0s9.99-.01,9.99-.01v-2.21h-12.52v17.74ZM74.4,141.69c-5.44,0-9.44,3.88-9.44,9.08s4.05,9.08,9.44,9.08,9.4-3.86,9.4-9.08-3.96-9.08-9.4-9.08ZM74.4,157.58c-3.97,0-6.91-2.88-6.91-6.81s2.99-6.81,6.91-6.81,6.87,2.88,6.87,6.81-2.9,6.81-6.87,6.81ZM102.3,155.12l-10.63-13.22h-2.08v17.74h2.53v-13.22l10.63,13.22h2.08v-17.74h-2.53v13.22h0ZM119.53,141.89h-7.47v17.74h7.47c5.69,0,9.58-3.6,9.58-8.87s-3.87-8.87-9.58-8.87ZM119.38,157.43h-4.78v-13.33h4.78c4.38,0,7.19,2.69,7.19,6.66s-2.81,6.67-7.19,6.67ZM142.89,141.69c-5.44,0-9.44,3.88-9.44,9.08s4.05,9.08,9.44,9.08,9.4-3.86,9.4-9.08-3.95-9.08-9.4-9.08ZM142.89,157.58c-3.97,0-6.91-2.88-6.91-6.81s2.99-6.81,6.91-6.81,6.87,2.88,6.87,6.81-2.9,6.81-6.87,6.81ZM159.38,146.66c0-1.54,1.29-2.81,4.31-2.81,1.58,0,3.32.46,4.87,1.44l.84-2.03c-1.47-1.01-3.63-1.58-5.71-1.58-4.66,0-6.8,2.34-6.8,5.07,0,6.59,10.74,3.86,10.74,8.18,0,1.54-1.32,2.74-4.38,2.74-2.28,0-4.55-.85-5.86-2.05l-.94,1.97c1.43,1.32,4.09,2.24,6.8,2.24,4.69,0,6.87-2.34,6.87-5.05,0-6.51-10.74-3.79-10.74-8.13ZM192.48,143.95c1.94,0,3.62.66,4.99,2.1l1.65-1.6c-1.62-1.82-4-2.77-6.74-2.77-5.4,0-9.4,3.82-9.4,9.08s4,9.08,9.37,9.08c2.77,0,5.15-.97,6.77-2.79l-1.65-1.6c-1.37,1.44-3.03,2.13-4.99,2.13-4,0-6.97-2.88-6.97-6.81s2.97-6.81,6.97-6.81ZM212.26,141.69c-5.44,0-9.44,3.88-9.44,9.08s4.05,9.08,9.44,9.08,9.4-3.86,9.4-9.08-3.96-9.08-9.4-9.08ZM212.26,157.58c-3.97,0-6.91-2.88-6.91-6.81s2.99-6.81,6.91-6.81,6.87,2.88,6.87,6.81-2.9,6.81-6.87,6.81ZM244.21,141.89l-7.3,12.46-7.4-12.46h-2.08v17.74h2.43v-12.84l6.41,10.7h1.16l6.41-10.77.03,12.92h2.43l-.03-17.74h-2.08ZM265.92,151.88c0,3.93-1.82,5.71-5.02,5.71s-4.99-1.78-4.99-5.71v-9.99h-2.53v10.09h-.01c0,5.15,2.81,7.85,7.5,7.85s7.5-2.71,7.5-7.85v-10.09h-2.46v9.99h0ZM288.2,155.12l-10.63-13.22h-2.08v17.74h2.53v-13.22l10.63,13.22h2.08v-17.74h-2.53v13.22ZM300.48,151.69h8.9v-2.15h-8.9v-5.44h9.99v-2.21h-12.52v17.74h12.87v-2.21h0s-10.34-.01-10.34-.01v-5.73h0ZM318.13,146.66c0-1.54,1.29-2.81,4.31-2.81,1.58,0,3.32.46,4.87,1.44l.84-2.03c-1.47-1.01-3.63-1.58-5.71-1.58-4.66,0-6.8,2.34-6.8,5.07,0,6.59,10.74,3.86,10.74,8.18,0,1.54-1.32,2.74-4.38,2.74-2.28,0-4.55-.85-5.86-2.05l-.94,1.97c1.43,1.32,4.09,2.24,6.8,2.24,4.69,0,6.87-2.34,6.87-5.05,0-6.51-10.74-3.79-10.74-8.13ZM350.65,141.89h-7.47v17.74h7.47c5.69,0,9.58-3.6,9.58-8.87s-3.87-8.87-9.58-8.87ZM350.51,157.43h-4.78v-13.33h4.78c4.38,0,7.19,2.69,7.19,6.66s-2.81,6.67-7.19,6.67ZM368.54,151.69h8.9v-2.15h-8.9v-5.44h9.99v-2.21h-12.52v17.74h12.87v-2.21h0s-10.34-.01-10.34-.01v-5.73h0ZM393.59,159.63h2.53v-17.74h-2.53v17.74ZM416.07,155.12l-10.63-13.22h-2.07v17.74h2.53v-13.22l10.63,13.22h2.08v-17.74h-2.53v13.22h0ZM432.09,156.46l-6.38-14.56h-2.74l7.8,17.74h2.5l7.78-17.74h-2.51l-6.44,14.56ZM447.74,151.69h8.9v-2.15h-8.9v-5.44h9.99v-2.21h-12.52v17.74h12.87v-2.21h0s-10.34-.01-10.34-.01v-5.73h0ZM478.4,148.07c0-3.86-2.79-6.18-7.4-6.18h-6.91v17.74h2.53v-5.4h4.38c.38,0,.77-.01,1.12-.04l3.82,5.44h2.77l-4.21-5.96c2.48-.89,3.89-2.86,3.89-5.6ZM470.93,152.1h-4.31v-7.99h4.31c3.25,0,4.94,1.44,4.94,3.97h0c0,2.55-1.71,4.02-4.94,4.02ZM485.71,146.66c0-1.54,1.29-2.81,4.31-2.81,1.58,0,3.32.46,4.87,1.44l.84-2.03c-1.47-1.01-3.63-1.58-5.71-1.58-4.66,0-6.8,2.34-6.8,5.07,0,6.59,10.74,3.86,10.74,8.18,0,1.54-1.32,2.74-4.38,2.74-2.28,0-4.55-.85-5.85-2.05l-.94,1.97c1.43,1.32,4.09,2.24,6.8,2.24,4.69,0,6.87-2.34,6.87-5.05,0-6.51-10.74-3.79-10.74-8.13ZM502.04,159.63h2.53v-17.74h-2.53v17.74ZM524.43,137.16h-3.09l-3.44,3.29h2.28l4.25-3.29ZM519.79,141.69c-5.44,0-9.44,3.88-9.44,9.08s4.05,9.08,9.44,9.08,9.4-3.86,9.4-9.08-3.96-9.08-9.4-9.08ZM519.79,157.58c-3.97,0-6.91-2.88-6.91-6.81s2.99-6.81,6.91-6.81,6.87,2.88,6.87,6.81-2.9,6.81-6.87,6.81ZM61.78,35.83l17.78,29.23h6.33l17.87-30.01.09,36.42h13.18l-.17-60.71h-11.53l-22.37,37.73L60.21,10.77h-11.62v60.71h13.18v-35.64h0ZM195.78,60.19h-.01s-33.04.01-33.04.01v-14.05h28.19v-10.93h-28.19v-13.18h31.92v-11.28h-45.88v60.69h47.01v-11.27ZM253.46,72.5c8.68,0,17.87-2.69,24.55-7.72v-24.63h-12.84v17.78c-3.56,1.91-7.12,2.6-10.93,2.6-11.62,0-19.68-7.9-19.68-19.43s8.06-19.43,19.86-19.43c6.15,0,11.27,2.18,15.7,6.85l9.02-8.33c-5.88-6.84-14.74-10.49-25.41-10.49-19.34,0-33.39,13.09-33.39,31.39s14.05,31.4,33.13,31.4ZM320.16,58.46h28.19s5.38,13.02,5.38,13.02h14.74l-27.14-60.71h-13.87l-27.08,60.69h14.4l5.38-13ZM334.3,24.55l9.62,23.24h-19.24l9.62-23.24ZM415.84,72.26c9.35,9.89,15.7,13.18,24.71,13.18,6.68,0,12.4-2.6,16.39-7.46h.01s-6.25-7.47-6.25-7.47c-2.85,3.05-6.15,4.52-9.89,4.52-3.05,0-5.65-1.13-8.59-4.25,12.93-4.16,21.68-15.43,21.68-29.66,0-18.12-14.05-31.39-33.22-31.39s-33.22,13.36-33.22,31.39c0,16.49,11.71,29.05,28.36,31.14ZM420.69,21.68c10.84,0,18.99,7.9,18.99,19.43s-8.15,19.43-18.99,19.43-18.99-7.9-18.99-19.43,8.15-19.43,18.99-19.43ZM495.02,35.83l17.78,29.23h6.33l17.87-30.01.09,36.42h13.18l-.18-60.71h-11.53l-22.37,37.73-22.72-37.73h-11.62v60.71h13.18v-35.64h0Z"/>
</svg>