<?xml version="1.0" encoding="UTF-8"?>
<svg id="Capa_1" xmlns="http://www.w3.org/2000/svg" version="1.1" viewBox="0 0 460 169.55">
  <!-- Generator: Adobe Illustrator 29.0.1, SVG Export Plug-In . SVG Version: 2.1.0 Build 192)  -->
  <defs>
    <style>
      .st0 {
        fill: #999;
      }
    </style>
  </defs>
  <path class="st0" d="M154.23,52.51c2.61.66,4.68,1.21,6.31,1.87,1.52.55,2.5,1.32,3.16,2.09.65.77.87,1.87.87,3.29,0,2.19-.76,3.73-2.29,4.5-1.63.88-4.14,1.32-7.4,1.32-1.96,0-3.81-.22-5.66-.55-1.85-.33-3.59-.77-5.23-1.43l-.76-.33v5.71l.33.11c2.94,1.21,6.97,1.87,11.76,1.87s8.82-.99,11.32-2.85c2.61-1.98,3.92-4.83,3.92-8.34,0-1.98-.44-3.62-1.09-5.16-.76-1.54-2.07-2.85-3.92-3.95-1.74-1.1-4.35-1.98-7.51-2.74-2.61-.66-4.57-1.21-6.1-1.76-1.31-.55-2.29-1.21-2.83-1.87-.54-.66-.76-1.65-.76-2.85,0-2.09.76-3.62,2.29-4.5,1.63-.88,4.03-1.32,7.18-1.32,1.74,0,3.48.11,5.12.44,1.63.22,3.16.66,4.57,1.21l.76.33v-5.6l-.44-.11c-1.09-.33-2.5-.77-4.46-1.1-1.96-.33-4.03-.44-6.31-.44-4.9,0-8.6.99-11.1,2.96-2.5,1.98-3.7,4.83-3.7,8.23,0,2.96.87,5.38,2.72,7.13,1.96,1.43,5.01,2.85,9.25,3.84Z"/>
  <path class="st0" d="M186.02,70.4h3.48l8.27-27.87,7.18,25.46c.44,1.43,1.74,2.41,3.16,2.41h3.59l9.14-39.84h-5.99l-6.86,29.96-7.51-26.89c-.54-1.76-2.18-3.07-4.03-3.07h-1.85v4.72l-7.62,25.24-6.2-27.44c-.33-1.54-1.63-2.63-3.27-2.63h-3.37l8.6,37.2c.44,1.76,1.74,2.74,3.27,2.74Z"/>
  <path class="st0" d="M230.11,30.67h-2.83v39.84h6.1v-36.54c.11-1.87-1.42-3.29-3.27-3.29Z"/>
  <path class="st0" d="M264.4,68.1c2.61-1.98,3.92-4.83,3.92-8.34,0-1.98-.44-3.62-1.09-5.16-.76-1.54-2.07-2.85-3.92-3.95-1.74-1.1-4.35-1.98-7.51-2.74-2.61-.66-4.57-1.21-6.1-1.76-1.31-.55-2.29-1.21-2.83-1.87-.54-.66-.76-1.65-.76-2.85,0-2.09.76-3.62,2.29-4.5,1.63-.88,4.03-1.32,7.18-1.32,1.74,0,3.48.11,5.12.44,1.63.22,3.16.66,4.57,1.21l.76.33v-5.6l-.44-.11c-1.09-.33-2.5-.77-4.46-1.1-1.96-.33-4.03-.44-6.31-.44-4.9,0-8.6.99-11.1,2.96-2.5,1.98-3.7,4.83-3.7,8.23,0,2.96.87,5.38,2.72,7.13,1.74,1.76,4.9,3.18,9.14,4.17,2.61.66,4.68,1.21,6.31,1.87,1.52.55,2.5,1.32,3.16,2.09.65.77.87,1.87.87,3.29,0,2.19-.76,3.73-2.29,4.5-1.63.88-4.14,1.32-7.4,1.32-1.96,0-3.81-.22-5.66-.55-1.85-.33-3.59-.77-5.23-1.43l-.76-.33v5.71l.33.11c2.94,1.21,6.97,1.87,11.76,1.87,5.12-.22,8.93-1.21,11.43-3.18Z"/>
  <path class="st0" d="M283.88,52.51c2.61.66,4.68,1.21,6.32,1.87,1.52.55,2.5,1.32,3.16,2.09.65.77.87,1.87.87,3.29,0,2.19-.76,3.73-2.29,4.5-1.63.88-4.14,1.32-7.4,1.32-1.96,0-3.81-.22-5.66-.55-1.85-.33-3.59-.77-5.23-1.43l-.76-.33v5.71l.33.11c2.94,1.21,6.97,1.87,11.76,1.87s8.82-.99,11.32-2.85c2.61-1.98,3.92-4.83,3.92-8.34,0-1.98-.44-3.62-1.09-5.16-.76-1.54-2.07-2.85-3.92-3.95-1.74-1.1-4.35-1.98-7.51-2.74-2.61-.66-4.57-1.21-6.1-1.76-1.31-.55-2.28-1.21-2.83-1.87-.54-.66-.76-1.65-.76-2.85,0-2.09.76-3.62,2.29-4.5,1.63-.88,4.03-1.32,7.19-1.32,1.74,0,3.48.11,5.11.44,1.63.22,3.16.66,4.57,1.21l.76.33v-5.6l-.44-.11c-1.09-.33-2.5-.77-4.46-1.1-1.96-.33-4.03-.44-6.32-.44-4.9,0-8.6.99-11.1,2.96-2.5,1.98-3.7,4.83-3.7,8.23,0,2.96.87,5.38,2.72,7.13,1.85,1.43,4.9,2.85,9.25,3.84Z"/>
  <path class="st0" d="M186.78,84.34l-17.85,36.87-17.85-36.87c-.65-1.32-2.07-2.19-3.59-2.19h-5.23v52.35c0,2.19,1.74,3.95,3.92,3.95h3.05v-45.1l17.2,35.34h4.79l17.09-35.34v41.15c0,2.19,1.74,3.95,3.92,3.95h3.05v-56.3h-5.23c-1.2,0-2.61.88-3.27,2.19Z"/>
  <path class="st0" d="M235.88,82.14h-33.85v56.41h37.77v-1.65c0-2.19-1.74-3.95-3.92-3.95h-26.67v-19.75h21.23v-5.6h-21.23v-19.86h30.7v-1.76c-.11-2.09-1.85-3.84-4.03-3.84Z"/>
  <path class="st0" d="M268.64,82.14h-21.88v56.41h21.88c8.27,0,14.26-2.19,17.96-6.69,3.7-4.5,5.55-11.52,5.55-21.18,0-10.21-1.85-17.45-5.66-21.84-3.81-4.5-9.8-6.69-17.85-6.69ZM283.01,124.5c-1.31,3.18-3.27,5.38-5.88,6.58-2.61,1.21-5.88,1.76-9.8,1.76h-13.5v-45.1h13.5c4.25,0,7.62.66,10.23,1.98,2.61,1.32,4.46,3.62,5.66,6.91,1.2,3.29,1.74,8.01,1.74,13.94s-.65,10.65-1.96,13.94Z"/>
  <path class="st0" d="M302.17,82.14h-3.16v56.41h7.08v-52.46c0-2.19-1.74-3.95-3.92-3.95Z"/>
  <path class="st0" d="M339.73,81.27c-6.2,0-11.32,1.21-15.24,3.73-3.92,2.52-6.86,6.04-8.71,10.54-1.85,4.5-2.83,9.88-2.83,16.02,0,5.6.98,10.54,2.94,14.71,1.96,4.17,4.9,7.46,8.93,9.77,3.92,2.3,8.93,3.51,15.02,3.51,3.26,0,6.2-.22,8.82-.66,2.61-.44,5.12-.99,7.29-1.65v-6.37c-2.29.88-4.79,1.54-7.51,1.98-2.72.44-5.33.66-7.95.66-7.08,0-12.19-1.87-15.46-5.6-3.27-3.73-4.9-9.11-4.9-16.02,0-5.05.66-9.33,1.96-12.95,1.31-3.62,3.37-6.37,6.31-8.34,2.94-1.98,6.97-2.85,11.97-2.85,2.94,0,5.66.22,8.27.77,2.61.55,5.12,1.21,7.4,2.09v-6.26c-2.29-.77-4.79-1.43-7.4-1.98-2.72-.88-5.66-1.1-8.93-1.1Z"/>
  <path class="st0" d="M386.21,82.14h-5.66l-21.23,56.41h7.4l5.88-15.47h24.27l5.88,15.47h7.3l-20.25-53.77c-.44-1.65-1.96-2.63-3.59-2.63ZM373.8,117.26l10.88-28.97,10.89,28.97h-21.77Z"/>
  <path class="st0" d="M446.08,132.85h-25.8v-46.75c0-2.19-1.74-3.95-3.92-3.95h-3.16v56.41h36.79v-1.65c0-2.3-1.74-4.06-3.92-4.06Z"/>
  <path class="st0" d="M50.71,71.06H15.33c-2.94,0-5.33-2.41-5.33-5.38V30.01h35.38c2.94,0,5.33,2.41,5.33,5.38v35.67ZM117.66,65.68V30.01h-35.38c-2.94,0-5.33,2.41-5.33,5.38v35.67h35.38c2.94,0,5.33-2.41,5.33-5.38ZM50.71,133.06v-35.56H15.33c-2.94,0-5.33,2.41-5.33,5.38v35.67h35.38c2.94-.11,5.33-2.52,5.33-5.49ZM117.66,102.78c0-2.96-2.39-5.38-5.33-5.38h-35.38v35.67c0,2.96,2.39,5.38,5.33,5.38h35.38v-35.67Z"/>
</svg>