<?xml version="1.0" encoding="UTF-8"?>
<svg id="Capa_1" xmlns="http://www.w3.org/2000/svg" version="1.1" viewBox="0 0 480 169.55">
  <!-- Generator: Adobe Illustrator 29.0.1, SVG Export Plug-In . SVG Version: 2.1.0 Build 192)  -->
  <defs>
    <style>
      .st0 {
        fill: #999;
      }
    </style>
  </defs>
  <path class="st0" d="M12.7,98.71l42.34-26.82c9.43-5.87,18.86-1.26,18.86,9.22v31.23c0,3.56,2.52,6.08,6.29,6.08h8.18c26.41,0,49.25-19.07,49.25-51.56,0-33.53-26.41-54.7-57.43-54.7H14.8c-4.61,0-8.8,4.19-8.8,8.8v74.82c0,3.14,3.98,4.61,6.71,2.94"/>
  <path class="st0" d="M5.99,119.46v7.34c0,16.56,14.46,30.6,31.23,30.6h17.4c5.45,0,9.43-3.78,9.43-9.22v-60.99c0-4.19-4.4-6.5-7.97-4.19l-46.52,29.55c-2.72,1.68-3.56,3.78-3.56,6.92"/>
  <path class="st0" d="M211.88,80.88c0,9.36-5.24,15.51-17.47,15.51h-8.11v14.53h-11.32v-45.74h19.43c12.1,0,17.47,6.08,17.47,15.7M200.43,80.88c0-4.38-1.96-6.41-6.74-6.41h-7.39v12.82h7.39c4.78,0,6.74-2.42,6.74-6.41"/>
  <path class="st0" d="M240.86,72.83v11.19c-1.37-.26-2.75-.39-4.06-.33-5.43,0-7.79,3.21-8.12,9.29v-.13l-.07,18.06h-10.86v-37.82h8.12l2.23,7.53c1.83-4.97,5.76-8.12,10.4-8.05,1.18,0,1.77.07,2.36.26"/>
  <path class="st0" d="M244.92,91.87c0-12.11,6.09-19.37,18.71-19.37s18.65,7.26,18.65,19.37-6.15,19.63-18.65,19.63-18.71-7.33-18.71-19.63M270.96,91.8c0-7.2-2.23-10.6-7.33-10.6s-7.46,3.4-7.46,10.6,2.29,10.99,7.46,10.99,7.33-3.6,7.33-10.99"/>
  <path class="st0" d="M321.74,73.09l-12.43,37.82h-12.3l-12.43-37.82h10.99l6.61,22.84c.39,1.7.72,3.46.98,5.1.26-1.64.52-3.4.91-5.1l6.67-22.84h10.99Z"/>
  <path class="st0" d="M325.6,62.88h10.86v7h-10.86v-7ZM325.6,73.09h10.86v37.82h-10.86v-37.82Z"/>
  <path class="st0" d="M379.59,85.85v25.06h-10.92v-22.25c0-4.78-1.77-6.94-5.76-6.94-4.32,0-6.87,2.55-7.19,8.25v20.94h-10.86v-37.82h8.05l1.96,6.67c2.1-4.97,6.35-7.19,11.91-7.19,8.24,0,12.82,4.38,12.82,13.28"/>
  <path class="st0" d="M385.67,92c0-12.04,6.61-19.5,19.23-19.5,6.02,0,9.95,1.83,13.35,4.19l-3.46,8.96c-2.49-2.62-5.43-3.99-9.03-3.99-4.91,0-8.83,3.21-8.83,10.27s4.25,10.4,8.83,10.4c3.6,0,6.54-1.44,9.03-3.99l3.46,8.96c-3.41,2.29-7.33,4.19-13.35,4.19-12.3,0-19.23-7.46-19.23-19.5"/>
  <path class="st0" d="M423.36,62.88h10.86v7h-10.86v-7ZM423.36,73.09h10.86v37.82h-10.86v-37.82Z"/>
  <path class="st0" d="M474.01,87.36v23.55h-8.05l-1.96-6.94c-1.83,4.64-5.89,7.53-12.1,7.53-8.18,0-11.39-4.65-11.39-10.66,0-10.54,10.6-11.71,22.77-12.89v-.13c0-4.71-3.21-6.54-8.18-6.54-3.6,0-7.59,1.57-10.53,4.51l-4.32-8.05c3.53-2.62,8.96-5.1,16.04-5.1,12.3,0,17.67,5.23,17.73,14.72M463.28,96.58v-2.68c-7,.78-11.84,1.51-11.84,5.76,0,2.36,1.18,3.86,4.32,3.86,3.4,0,7.26-1.96,7.53-6.93"/>
  <path class="st0" d="M203.52,122.34v34.82h-5.62l-18.01-27.2c.15,1.69.35,3.88.35,6.56v20.64h-5.57v-34.82h6.27l17.36,26.26c-.15-1.99-.35-4.03-.35-6.82v-19.44h5.57Z"/>
  <polygon class="st0" points="237.29 151.88 237.29 157.15 212.47 157.15 212.47 122.34 236.74 122.34 236.74 127.61 218.04 127.61 218.04 136.61 233.85 136.61 233.85 141.88 218.04 141.88 218.04 151.88 237.29 151.88"/>
  <polygon class="st0" points="267.92 127.41 256.98 127.41 256.98 157.15 251.41 157.15 251.41 127.41 240.37 127.41 240.37 122.34 267.92 122.34 267.92 127.41"/>
</svg>