<?xml version="1.0" encoding="UTF-8"?>
<svg id="Capa_1" xmlns="http://www.w3.org/2000/svg" version="1.1" viewBox="0 0 500 169.55">
  <!-- Generator: Adobe Illustrator 29.0.1, SVG Export Plug-In . SVG Version: 2.1.0 Build 192)  -->
  <defs>
    <style>
      .st0 {
        fill: #999;
      }
    </style>
  </defs>
  <g>
    <g>
      <polygon class="st0" points="375.41 68.41 375.41 78.28 341.33 78.28 341.33 89.14 375.41 89.14 375.41 100.98 341.33 100.98 341.33 111.84 375.41 111.84 375.41 122.2 329.97 122.2 329.97 105.92 310.7 105.92 310.7 68.41 375.41 68.41"/>
      <path class="st0" d="M130.18,68.41l9.38,26.65c1.52-3.01,5.52-25.65,6.64-26.43.45-.32,7.11-.41,7.39-.17l8.69,26.11,7.66-26.16h8.4l-13.28,53.5c-.37.54-12.55.5-12.95-.02l-6.62-17.96-3.67,18.05-14.29.14-16.37-53.72h19.02Z"/>
      <path class="st0" d="M418.87,89.14v-20.72h8.89v53.05c0,.05-.69.74-.74.74h-14.82l-22.97-22.21v22.21h-8.89v-53.79h15.06c7.65,7.08,15.39,14.18,23.46,20.72Z"/>
      <path class="st0" d="M267.74,89.14v-20.72h8.89v53.79h-15.56c-1.6,0-19.11-20.84-22.97-22.21v22.21h-8.89v-53.79h15.06l23.46,20.72Z"/>
      <path class="st0" d="M223.28,68.41v9.13c0,.05-.69.74-.74.74h-17.29c-1.7,3.96-2.91,8.5-3.7,12.83h21.73v9.13c0,.05-.69.74-.74.74h-22.47l-3.46,12.83h25.93c1.12,0,1.12,8.39,0,8.39h-52.11l13.34-53.79h39.51Z"/>
      <path class="st0" d="M302.31,68.41v45.4h22.47c1.12,0,1.12,8.39,0,8.39h-41.73v-53.79h19.26Z"/>
      <path class="st0" d="M456.9,107.39c-1.32,0-3.37.03-4.61.03-.78,0,0-2.48-3.05-2.52-2.27-.03-4.7,1.62-2.4,3.42,2.34,1.83,8.22,1.35,10.01,4.8,5.5,10.65-16.14,13.78-16.24,2.65,1.23,0,2.93.08,4.12.08,1.84,0,.53,3.53,5.97,2.83,2.16-.28,2.61-2.34,1.28-3.66-2.16-2.16-10.29-.95-10.85-6.96-.83-8.8,15.34-9.38,15.78-.68Z"/>
      <path class="st0" d="M478.08,101.6c-1.45,0-4.74.04-5.8.04l-6.99,21.05c2.87,0,4.46,0,4.46,0l1.42-4.63h7.54s1.29,4.59,1.29,4.59c0,0,2.35.06,5.06.06l-6.97-21.09ZM472.7,113.81l2.34-8.38,2.6,8.38h-4.94Z"/>
      <rect class="st0" x="459.37" y="116.77" width="4.45" height="5.43"/>
    </g>
    <path class="st0" d="M107.71,87.66c0,5.09.02,10.2,0,15.3-.02,6.41.02,12.83,0,19.25h-26.67c1.19-6.58,3.94-12.87,5.93-19.25,1.6-5.12,3.34-10.2,4.94-15.3,1.37-4.35,2.56-8.92,3.95-13.32,2.04-6.43,4.41-12.96,6.42-19.25.38-1.17,1.57-8.23,2.28-8.42.78-.21,2.23.19,3.16.02,0,2.79-.02,5.6,0,8.39.04,6.41,0,12.83,0,19.25,0,4.43,0,8.89,0,13.32ZM68.2,46.7c.77,3.07,10,27.96,13.58,36.52,2.14-5.7,3.94-11.58,5.81-17.39.91-2.84,5.35-16.02,5.8-19.13h-25.19ZM36.1,46.7c.24,3.58,1.97,6.96,2.96,10.36,2.53,8.69,5.09,17.4,7.42,26.15.7-.05.78-.73,1-1.22,3.27-7.12,5.78-17.28,8.37-24.94,1.15-3.4,3.06-6.79,3.46-10.36h-23.22ZM64.74,106.9c-2.49-6.42-4.53-13.26-7.36-19.54-.26-.58.23-.89-1.02-.69-2.49,6.96-5.27,13.82-7.91,20.72-1.87,4.9-4.02,9.74-5.43,14.81h27.65c-1.42-5.29-3.95-10.22-5.93-15.3ZM34.12,122.2c-.41-4.96-2.84-9.65-4.44-14.31-1.59-4.62-3.36-9.21-4.94-13.82-1.91-5.6-4.03-11.23-5.93-16.78-2.64-7.74-5.33-15.93-7.9-23.68-.65-1.94-.52-5.47-2.47-6.91-.02,2.3,0,4.61,0,6.91-.04,7.89,0,15.8,0,23.68,0,5.59,0,11.19,0,16.78,0,4.6-.01,9.22,0,13.82.01,4.76,0,9.55,0,14.31h25.68Z"/>
  </g>
  <rect class="st0" x="486.57" y="116.77" width="4.45" height="5.43"/>
</svg>