<?xml version="1.0" encoding="UTF-8"?>
<svg id="Capa_1" xmlns="http://www.w3.org/2000/svg" version="1.1" viewBox="0 0 442.86 169.55">
  <!-- Generator: Adobe Illustrator 29.0.1, SVG Export Plug-In . SVG Version: 2.1.0 Build 192)  -->
  <defs>
    <style>
      .st0 {
        fill: #999;
      }
    </style>
  </defs>
  <path class="st0" d="M279.1,63.37h-40.27c-11.54-16.45-28.7-23.68-48.02-15.37-16.71,7.19-27.75,23.08-25.66,41.67,4.15,37.04,47.8,50.86,72.2,21.42.38-.46.99-1.14,1.08-1.73h-40.67v-32.89h84.95l.4-.4V9.75l.4-.4h39.73v77.82l.8-.41,58.07-76.47c.19-.24,1.01-.94,1.2-.94h45.08l-1.23,2.11-110.58,148.86-.31.39h-31.82v-59.11c-.45.07-.48.52-.61.86-1,2.61-1.57,5.85-2.6,8.64-10.59,28.74-34.32,49.17-65.68,50.68-31.21,1.5-58.8-10.13-75.33-37.04-13.45-21.9-13.54-41.46-6.28-65.65,1.13-3.76,2.75-7.43,3.61-11.23h-33.98v112.71l-.4.4h-38.26l-.41-.92c.49-35.56-.6-71.17,0-106.72.03-1.76.92-3.9-.39-5.47H23.32V9.62h123.08v24.6c1.36-1.07,2.19-2.72,3.34-4.01,10.07-11.3,24.86-18.41,39.69-21.04,34.05-6.03,63.47,5.79,81.33,35.4,3.48,5.77,6.6,12.3,8.35,18.8Z"/>
</svg>