<?xml version="1.0" encoding="UTF-8"?>
<svg id="Capa_1" xmlns="http://www.w3.org/2000/svg" version="1.1" viewBox="0 0 405.71 169.55">
  <!-- Generator: Adobe Illustrator 29.0.1, SVG Export Plug-In . SVG Version: 2.1.0 Build 192)  -->
  <defs>
    <style>
      .st0 {
        fill: #999;
      }
    </style>
  </defs>
  <path class="st0" d="M280.98,101.58c-1.59,0-3.18,1.27-3.81,2.86q0,.32-.32.64h0c0,.32-.32.64-.32,1.27-7.62,28.27-20.64,35.89-23.5,38.11-30.49,16.83-49.86-3.81-49.86-3.81-12.39-11.12-20.64-32.39-20.64-56.85,0-2.86,0-6.03.32-8.89h101.63c0-31.12-12.39-54.31-30.17-63.84-14.61-7.94-34.94-6.99-34.94-6.99-35.57,0-64.79,36.21-64.79,80.67s29.22,80.67,65.11,80.67c0,0,48.27,5.08,65.11-58.44v-.64c.32-2.54-1.59-4.76-3.81-4.76ZM200.63,23.45c6.99-7.94,14.29-11.43,24.77-11.43,17.47,0,27.31,14.93,30.49,32.08.95,5.4,2.22,11.12,2.22,22.23h-73.68c4.45-27,9.53-34.94,16.2-42.87Z"/>
  <path class="st0" d="M384.52,12.65c-5.08-4.45-11.43-6.67-19.37-6.67-12.07,0-21.6,6.03-28.9,17.47V7.25h-57.8c-1.59,0-2.54,1.27-2.54,2.86s1.27,2.86,2.54,2.86l11.12.64c10.16.95,16.83,7.3,16.83,16.51v125.13c0,2.22-2.86,4.13-6.03,4.13l-16.51.64c-.95,0-1.91.95-1.91,1.91s.95,1.91,1.91,1.91h76.22c.95,0,1.91-.95,1.91-1.91s-.95-1.91-1.91-1.91l-17.15-.64c-3.49,0-6.35-1.91-6.35-4.13V38.38c.95-3.49,2.22-6.67,3.81-9.21,4.76-8.26,10.48-12.39,17.15-12.39,5.4,0,7.94,1.59,7.94,5.4,0,.95-.95,2.54-3.18,4.76-2.22,2.22-3.18,5.08-3.18,8.57,0,3.81,1.59,6.67,4.45,9.21,2.86,2.54,6.67,3.81,10.8,3.49,5.4,0,9.53-1.91,13.02-5.4,3.49-3.49,5.08-7.94,5.08-13.34-.32-6.67-2.86-12.39-7.94-16.83Z"/>
  <path class="st0" d="M172.69,6.94h-46.69c-1.27,0-2.54,1.27-2.54,2.54s1.27,2.54,2.54,2.54h13.02c1.59,0,2.86,1.27,2.86,2.86,0,.64-.32.64-.32,1.27h0l-32.71,100.68L68.2,18.37l-.32-1.27c-.32-.32,0-.95,0-1.27,0-1.91,2.22-3.81,4.13-3.81h16.83c1.27,0,2.54-1.27,2.54-2.54s-1.27-2.54-2.54-2.54H15.8c-1.27,0-2.54,1.27-2.54,2.54s1.27,2.54,2.54,2.54h14.61c3.49,0,5.08,1.27,6.03,4.45l2.54,6.03,57.17,138.79c.95,1.91,1.59,3.18,2.86,3.18,1.59,0,2.22-.95,2.86-3.18L149.82,18.05c.32-.64.32-1.27.64-1.59h0c1.59-2.54,4.45-4.45,7.62-4.45h14.61c1.27,0,2.54-1.27,2.54-2.54-.32-1.59-1.27-2.54-2.54-2.54Z"/>
</svg>