<?xml version="1.0" encoding="UTF-8"?>
<svg id="Capa_1" xmlns="http://www.w3.org/2000/svg" version="1.1" viewBox="0 0 330 169.55">
  <!-- Generator: Adobe Illustrator 29.0.1, SVG Export Plug-In . SVG Version: 2.1.0 Build 192)  -->
  <defs>
    <style>
      .st0 {
        fill: #999;
      }
    </style>
  </defs>
  <path class="st0" d="M219.7,66.08c-1.95-1.45-5-2.33-7.96-2.28-3.22.05-6.3,1.08-8.43,2.79v-20.32h-10.06v66.28h10.06v-34.6c0-2.42,2.02-5.07,5.77-5.23,1.67-.07,3.98.66,5.16,2.41,1.25,1.86,1.18,4.33,1.18,7.02v30.39s10.04,0,10.04,0v-30.76c-.01-9.08-1.19-12.31-5.75-15.69M137.93,88.84c0,6.49-.21,8.31-.26,8.88-.35,3.6-1.88,7.4-6.08,7.4s-5.88-4.07-6.06-7.58c-.01-.02-.26-2.22-.26-8.7s.26-9.2.26-9.23c.05-3.66,1.95-7.33,6.06-7.33s6.01,3.66,6.08,7.28c.01.07.26,2.78.26,9.28M147.66,81.01c-1.43-14.17-9.47-17.21-16.07-17.21-9.36,0-15.05,5.95-16.08,17.19-.09.89-.22,2.54-.27,7.84-.04,3.86.21,7.01.26,7.81.63,10.49,6.67,16.96,16.1,16.96s15.44-6.57,16.1-16.96c.05-.74.26-3.96.26-7.81,0-1.74-.16-6.49-.29-7.81h0ZM242.21,82.87c.07-2.19.07-2.65.12-3.29.29-3.97,2.06-7.25,6.13-7.29,4.82-.04,5.95,4.69,6.13,7.3.09,1.38.19,2.29.17,3.27h-12.55ZM254.64,96.15s.01.74-.1,1.64c-.29,2.34-1.2,7.34-6.1,7.34-4.17,0-5.78-3.78-6.05-7.56-.05-1.07-.25-2.27-.24-6.34h22.42s.04-3.34-.02-5.34c-.04-.79-.07-2.1-.26-4.86-.31-4.25-1.9-8.89-4.33-11.9-2.81-3.47-6.8-5.31-11.51-5.31-9.05,0-14.72,5.9-15.82,17.2-.1,1.02-.26,2.42-.26,7.84,0,3.86.22,7.08.26,7.81.61,10.32,6.71,16.96,15.83,16.96s15.2-6.46,15.85-17.46h-9.67Z"/>
  <path class="st0" d="M83.43,12.44h163.37l62.48,73.1-62.46,72.09H83.43L20.73,85.29,83.43,12.44ZM250.76,4.32H79.49L10,85.03l69.5,80.2h171.26l69.24-79.94L250.76,4.32Z"/>
  <path class="st0" d="M85.45,55.26h4.76c5.17,0,7.97,2.74,8.1,7.64.01.36.05.77.05,1.53,0,.89-.01,1.22-.05,1.55-.29,2.91-1.56,7.99-7.63,7.99h-5.25v-18.7ZM109.26,108.43l-1.03-16.27c-.45-7.28-2.34-11.57-6.11-13.76,2.72-1.64,6.24-5.68,6.2-14.12-.05-12.87-8.04-17.38-17.43-17.48h-15.35v65.74h9.92v-30.08h5.52c3.2,0,6.8,2.79,7.34,10.64l1.03,15.4c.09,2.18.5,4.04.5,4.04h9.93s-.42-1.81-.51-4.1ZM177.03,95.7c-.04.72-.09,1.38-.12,1.85-.29,3.67-1.57,7.58-6.06,7.58-4.19,0-5.84-4.23-6.15-7.35-.19-1.9-.14-3.36-.17-8.93-.05-6.5.16-8.17.26-9.23.36-4.1,1.95-7.29,6.06-7.32,4.24-.02,6.01,3.66,6.06,7.28,0,.04.09.92.15,2.84h9.94c-.04-.67-.06-1.22-.09-1.54-1.13-13.74-9.5-17.06-16.1-17.06-9.35,0-15.05,5.95-16.08,17.19-.09.89-.22,2.54-.27,7.84-.05,3.86.2,7.01.26,7.81.64,10.49,6.67,16.94,16.1,16.96,9.77.04,15.17-5.93,16.1-16.96.02-.4.09-.68.06-.95h-9.94Z"/>
</svg>