<?xml version="1.0" encoding="UTF-8"?>
<svg id="Capa_1" xmlns="http://www.w3.org/2000/svg" version="1.1" viewBox="0 0 328.19 363.08">
  <!-- Generator: Adobe Illustrator 29.0.1, SVG Export Plug-In . SVG Version: 2.1.0 Build 192)  -->
  <defs>
    <style>
      .st0 {
        fill: #999;
      }

      .st1 {
        fill: #fefefe;
      }
    </style>
  </defs>
  <g>
    <polygon class="st0" points="218.38 267.3 228.2 297.3 238.3 267.3 250.42 267.3 250.42 307.68 242.34 307.68 242.34 277.68 232.17 307.71 223.92 307.62 214.63 278.26 215.2 307.68 207.12 307.68 207.12 267.3 218.38 267.3"/>
    <path class="st0" d="M225.6,102.3h23.67c.99,36-12.21,76.6-47.54,91.83-22.91,9.87-54.74,8.39-75.98-5.05-28.42-17.98-37.94-54.85-37-86.77h23.67c9.73-33.72,48.48-49.75,80.47-36.26,15.11,6.37,28.55,20.2,32.71,36.26Z"/>
    <path class="st0" d="M178.7,266.88c-14.4,1.74-18.2,17.47-14.34,29.58,5.2,16.28,31.3,16.14,36.12-.32,4.85-16.56-3.02-31.52-21.78-29.26ZM191.72,294.31c-2.68,9.43-16.82,8.91-18.87-1.14-1.17-5.74-1.01-17.3,6.4-18.82,12.68-2.6,15.17,10.46,12.47,19.96Z"/>
    <path class="st0" d="M70.66,267.33l-10.15.03-13.91,40.32h8.95c1.11-3.34,1.89-6.03,3.11-8.89l15.02.02,2.37,8.87h9.23l-14.62-40.35ZM61.03,290.95l4.63-16.16,4.12,11.53,1.65,4.63h-10.4Z"/>
    <path class="st0" d="M115.31,269.61l-2.9,6.92c-3.69-2.67-17.75-4.46-14.13,3.45,1.17,2.56,12.4,5.52,15.41,10.56,5.12,8.57-1.1,16.8-10.23,17.71-2.95.29-11.92-.16-14.15-2.01-1.27-1.05-.57-6.45-.57-8.37,3.74,1.72,17.94,6.66,17.93-.87,0-4.02-6.82-5.71-9.8-7.54-4.7-2.89-7.71-5.47-7.59-11.5.26-13.17,17.21-12.9,26.02-8.35Z"/>
    <path class="st0" d="M317.98,276.53c-3.75-1.69-15.19-5.25-14.48,2.03.49,4.99,13.26,6.5,16.13,12.77,3.68,8.05-1.61,15.85-10.08,16.86-3.06.37-12.34-.02-14.67-1.95-1.26-1.05-.25-6.51-.56-8.37,3.56,2.16,18.09,6.38,17.94-.88-.08-4.09-8.91-6.59-12.01-8.8-2.6-1.86-4.84-4.09-5.3-7.39-1.75-12.62,9.4-15.6,19.59-13.23,8.18,1.9,5.29,2.34,3.45,8.95Z"/>
    <polygon class="st0" points="26.96 300.76 43.13 300.76 43.13 307.68 17.72 307.68 17.72 268.16 26.96 268.16 26.96 300.76"/>
    <polygon class="st0" points="145.91 267.3 145.91 300.76 162.08 300.76 162.08 307.68 137.25 307.68 137.25 267.3 145.91 267.3"/>
    <path class="st0" d="M253.57,243.02c9.51-.37,15.88-9.09,11.72-17.97-2.05-4.36-6.49-6.79-11.11-6.79h-17.61v39.81c0,.11,2.31.11,2.31,0v-15h11.26c.92,0,11,11.48,12.73,13.26,1.81,1.85,1.08,1.73,4.88,1.73l-14.18-15.04ZM238.88,240.18v-19.03h17.03c1.41,0,2.99,1,3.4,1.22,5.35,3.04,6.13,11.79,1.48,15.76-.52.45-2.14,2.05-5.28,2.05h-16.63Z"/>
    <path class="st0" d="M90.48,218.26c1.9-.33,2.96.63,4.02,2.04l24.27,33.15v-34.33c0-1.09,2.89-1.09,2.89,0v38.94l-2.48-.12c-9.47-11.02-17.13-23.77-26.4-35.07v35.19c0,.12-2.31.12-2.31,0v-39.81Z"/>
    <path class="st0" d="M208.74,217.85c-23.84,1.92-23.54,37.45-2.92,40.66,32.82,5.09,32.42-43.03,2.92-40.66ZM207.56,256.18c-19.02-2.76-18.74-32.81-.58-35.46,28.4-4.15,27.22,39.34.58,35.46Z"/>
    <path class="st0" d="M299.38,217.85c-23.58,2.26-23.8,37.44-1.82,40.72,31.49,4.69,31.35-43.57,1.82-40.72ZM299.81,256.32c-20.68-1.49-20.52-32.74-2.18-35.61,27.32-4.28,28.14,37.49,2.18,35.61Z"/>
    <path class="st0" d="M147.02,219.18c-.65-1.15-2.15-1.13-3.33-.82l-17.98,39.7c.89-.15,2.76.32,3.38-.07.48-.3,2.96-8.94,4.51-9.64l23.8-.03c.71,2,3.62,12.23,6.99,9.74l-17.37-38.88ZM134.36,245.38l10.69-23.67,10.68,23.67h-21.37Z"/>
    <path class="st0" d="M68.79,219.45c-.67-1.23-1.87-1.54-3.14-.91-1.95.95-15.61,34.96-17.89,39.52.8-.11,2.18.29,2.79-.09.65-.4,3.92-8.62,4.56-9.25,3.07,0,23.89-.1,23.89-.1,0,0,3.3,8.88,4.07,9.35.61.38,1.99-.02,2.79.09l-17.07-38.61ZM56.41,245.38l10.68-23.08,10.11,23.08h-20.79Z"/>
    <path class="st0" d="M20.81,223.65c-1.83,1.93-2.27,5.49-1.01,7.84,4.09,7.62,28.89,3.18,27.34,17.58-1.18,10.98-18.11,11.39-25.76,7.38-1.04-.55-5.95-4.34-5.95-5.01,0-.2,1.31-1.5,1.93-1.4.35.06,3.88,3.46,5.57,4.27,7.15,3.41,23.35,2.82,21.32-8.04-1.8-9.64-28.35-3.54-27.72-18.5.48-11.38,18.54-11.93,25.98-6.88.47.32,2.92,2.64,2.91,2.85s-1.3,1.5-1.93,1.39c-.27-.05-3.21-2.57-4.41-3.12-4.76-2.19-14.43-2.41-18.28,1.64Z"/>
    <path class="st0" d="M191.53,218.26v2.88h-14.44v36.92h-2.89v-36.92h-14.44c-.19-.75.11-2.88.87-2.88h30.89Z"/>
    <path class="st0" d="M275.83,258.07h-2.89v-39.9c.81,0,1.28-.02,2.89-.02v39.92Z"/>
    <path class="st1" d="M103.76,161.15c-9.42-17.42-12.99-36.74-12.7-56.54h23.1c5.5-22.89,27.82-39.64,51.07-40.99,26.36-1.53,52.06,15.08,58.64,40.99h23.1c.04,18.24-3.41,37.3-11.55,53.65l-.89.84-46.24-24.31c-5-1.4-10.17,2.86-13.65,5.87l40.33,41.09-.33,1.31c-.22.17-.35.74-1.73,1.73-.71.53-1.15.64-1.32.31l-48.47-48.77c-2.98-2.15-5.53-1.76-8.79-.53l-49.4,26.03-1.16-.7Z"/>
    <path class="st0" d="M212.89,184.8c-35.38,25.37-88.12,15.23-109.13-23.65l50.1-26.39c3.73-1.49,6.54-1.72,9.98.69l49.06,49.35Z"/>
    <path class="st0" d="M235.41,158.26c-5.68,11.42-11.13,17.16-20.79,24.81l-41.9-42.7c4.82-3.2,9.54-8.37,15.95-6.65l46.74,24.55Z"/>
    <path class="st0" d="M171.89,108.65c-4.45-.58-8.22.86-7.48,6.01.25,1.73,2.21,3.43,1.65,5.14-.19.57-2.43,1.85-3.31,3.08-.56.78-1.15,2.16-1.52,3.09-1.12,2.78.3,4.34-3.48,4.28-4.63-.07-9.33-3.31-10.07-8.08-.45-2.87-.37-11.39-.04-14.39.35-3.14,2.36-6.04,4.99-7.72.79-.5,2.41-.58,2.49-.68,1.52-1.77-5.19-5.07-3.3-10.48,2.65-7.57,14.11-5.09,13.13,3.24-.42,3.57-4.61,4.5-4.07,6.92.1.44,3.72,1.66,4.61,2.41.66.56,3.12,4.03,3.51,4.86,1.79.43,2.76,1.2,2.89,2.31Z"/>
    <path class="st0" d="M169.01,106.34c1.28-4.17,4.39-7.05,8.66-8.08-12.8-10.02,6.83-19.93,9.1-8.8.96,4.69-1.32,5.67-3.9,8.8,2.82.49,5.73,3.01,6.78,5.64,1.05,2.62,1.17,14.08.69,17.12-.78,4.98-6.13,8.76-11.06,8.28-5.94-.59-3.71-2.46-4.48-5.82-.17-.75-2.37-.54-2.38-3-.01-2.79,2.36-2.1,2.99-2.97,1.09-1.5.58-5.97-.61-7.43-.89-1.1-1.84-1.01-2.91-1.42s-2.74-.54-2.85-.63c-.27-.21.11-1.37-.03-1.68Z"/>
  </g>
  <path class="st0" d="M66.84,276.21c-.25-.59-.39-1.34-1.18-1.42l4.12,11.53c-.98-3.43-1.67-7.09-2.94-10.11ZM273.55,276.22c-.27-.56-.35-1.33-1.13-1.42l4.12,11.54c-.95-3.48-1.65-7.22-2.99-10.12ZM267.75,290.95h.04l4.63-16.15s-.02-.01-.04-.01l-4.63,16.16Z"/>
  <path class="st0" d="M277.42,267.33l-10.15.03-13.91,40.33h8.95c1.11-3.34,1.89-6.04,3.11-8.89l15.02.02,2.37,8.87h9.23l-14.62-40.36ZM267.79,290.96h0s4.63-16.16,4.63-16.16l4.12,11.54,1.65,4.62h-10.4Z"/>
</svg>