<?xml version="1.0" encoding="UTF-8"?>
<svg id="Capa_1" xmlns="http://www.w3.org/2000/svg" version="1.1" viewBox="0 0 600 169.55">
  <!-- Generator: Adobe Illustrator 29.0.1, SVG Export Plug-In . SVG Version: 2.1.0 Build 192)  -->
  <defs>
    <style>
      .st0 {
        fill: #999;
      }
    </style>
  </defs>
  <path class="st0" d="M406.19,67.96c.54-.05.93-.49.88-1.02h0c-.05-.54-.49-.93-1.02-.88s-.93.49-.88,1.02h0c.05.49.54.88,1.02.88M345.89,37.2c0,1.51,1.22,2.78,2.78,2.78s2.78-1.22,2.78-2.78-1.22-2.78-2.78-2.78c-1.51,0-2.78,1.27-2.78,2.78h0M363.44,43.15c0,1.51,1.22,2.78,2.78,2.78s2.78-1.22,2.78-2.78-1.22-2.78-2.78-2.78h0c-1.51,0-2.78,1.22-2.78,2.78t0,0h0M297.44,115.34c0,1.51,1.22,2.78,2.78,2.78s2.78-1.22,2.78-2.78-1.22-2.78-2.78-2.78h0c-1.51.05-2.73,1.27-2.78,2.78h0M311.09,126.8c0,1.51,1.22,2.78,2.78,2.78s2.78-1.22,2.78-2.78-1.22-2.78-2.78-2.78h0c-1.51.05-2.78,1.27-2.78,2.78M328.44,132.16c0,1.51,1.22,2.78,2.78,2.78s2.78-1.22,2.78-2.78-1.22-2.78-2.78-2.78h0c-1.51,0-2.73,1.22-2.78,2.78h0M346.28,131.96c.05,1.51,1.32,2.73,2.83,2.68,1.51-.05,2.73-1.32,2.68-2.83-.05-1.51-1.27-2.68-2.73-2.68s-2.78,1.22-2.78,2.73v.1h0M363.44,126.5c0,1.51,1.27,2.78,2.83,2.73,1.51,0,2.78-1.27,2.73-2.83,0-1.51-1.22-2.73-2.73-2.73h0c-1.51,0-2.78,1.22-2.78,2.73t-.05.1M377.09,115.54c0,1.51,1.22,2.78,2.78,2.78s2.78-1.22,2.78-2.78-1.22-2.78-2.78-2.78h0c-1.51-.05-2.73,1.22-2.78,2.78t0,0M376.94,54.07c0,1.51,1.27,2.73,2.78,2.73s2.73-1.27,2.73-2.78-1.22-2.73-2.78-2.73-2.73,1.27-2.73,2.78h0M357.54,46.76c0-1.95-1.61-3.51-3.56-3.51s-3.51,1.61-3.51,3.56,1.56,3.51,3.51,3.51,3.56-1.61,3.56-3.56h0M369.39,54.07c0-1.95-1.61-3.51-3.56-3.51s-3.51,1.61-3.51,3.56,1.56,3.51,3.51,3.51c2-.05,3.56-1.61,3.56-3.56h0M378.65,64.45c0-1.95-1.56-3.56-3.56-3.56s-3.56,1.56-3.56,3.56,1.56,3.56,3.56,3.56h0c1.95,0,3.51-1.56,3.56-3.56t0,0h0M353.3,24.87c.05-.54-.34-.97-.83-1.02-.54-.05-.97.34-1.02.88-.05.54.34.97.88,1.02.49.05.93-.34.97-.88t0,0h0M376.9,33.45c.05-.49-.34-.97-.83-1.02h0c-.54,0-.93.44-.93.97,0,.44.34.83.78.93.49.05.97-.34.97-.88M395.47,46.76c.05-.54-.34-.97-.88-1.02h0c-.49-.05-.97.34-1.02.83h0c-.1.54.24,1.02.73,1.12.54.1,1.02-.24,1.12-.78.05-.05.05-.1.05-.15M363.34,34.47c.05-.97-.73-1.85-1.71-1.9s-1.85.73-1.9,1.71c-.05.97.68,1.8,1.66,1.9.97.1,1.85-.63,1.95-1.61v-.1h0M381.38,43.44c.1-.97-.63-1.85-1.61-1.95h-.05c-.97-.15-1.9.49-2.05,1.46-.15.97.49,1.9,1.46,2.05h.29c.97.1,1.85-.63,1.9-1.61v-.1h0M393.61,56.21c-.97-.05-1.85.73-1.9,1.71-.05.97.73,1.85,1.71,1.9s1.8-.68,1.9-1.66-.63-1.85-1.61-1.95h-.1M339.95,29.5c-1.02,0-1.8.78-1.8,1.8s.78,1.8,1.8,1.8,1.8-.78,1.8-1.8h0c0-.93-.78-1.75-1.8-1.8t0,0M331.22,34.47c-1.51,0-2.78,1.22-2.78,2.78s1.22,2.78,2.78,2.78,2.78-1.22,2.78-2.78h0c-.05-1.51-1.27-2.73-2.78-2.78h0M313.67,40.37c-1.51,0-2.78,1.22-2.78,2.78s1.22,2.78,2.78,2.78,2.78-1.22,2.78-2.78h0c0-1.51-1.22-2.78-2.78-2.78M288.03,82.1c-1.51,0-2.78,1.22-2.78,2.78s1.22,2.78,2.78,2.78,2.78-1.22,2.78-2.78h0c0-1.46-1.22-2.73-2.78-2.78h0M291.45,65.86c-1.51,0-2.78,1.22-2.78,2.78s1.22,2.78,2.78,2.78,2.78-1.22,2.78-2.78h0c.05-1.51-1.17-2.78-2.68-2.83h0M300.37,51.29c-1.51,0-2.78,1.22-2.78,2.78s1.22,2.78,2.78,2.78,2.78-1.22,2.78-2.78h0c-.05-1.51-1.27-2.73-2.78-2.78M339.95,128.6c1.95,0,3.56-1.56,3.56-3.51s-1.56-3.56-3.51-3.56-3.56,1.56-3.56,3.51h0c0,1.95,1.56,3.51,3.51,3.56M339.95,48.22c1.95,0,3.56-1.56,3.56-3.51s-1.56-3.56-3.51-3.56-3.56,1.56-3.56,3.51h0c0,1.95,1.56,3.51,3.51,3.56M325.91,50.27c1.95,0,3.56-1.56,3.56-3.51s-1.56-3.56-3.51-3.56-3.56,1.56-3.56,3.51h0c-.05,1.95,1.51,3.56,3.51,3.56t0,0h0M314.01,57.53c1.95,0,3.56-1.56,3.56-3.51s-1.56-3.56-3.51-3.56-3.56,1.56-3.56,3.51h0c0,1.95,1.56,3.56,3.51,3.56h0M304.66,68.01c1.95.1,3.61-1.41,3.7-3.36.1-1.95-1.41-3.61-3.36-3.7-1.95-.1-3.61,1.41-3.7,3.36v.05h0c0,1.95,1.56,3.51,3.51,3.56h0M300.95,81.07c1.95,0,3.56-1.56,3.56-3.51s-1.56-3.56-3.51-3.56-3.56,1.56-3.56,3.51h0c0,1.95,1.56,3.51,3.51,3.56h0M327.61,25.75c.54-.05.93-.49.88-1.02-.05-.54-.49-.93-1.02-.88-.54.05-.88.49-.83,1.02v.05c0,.49.44.88.97.83t0,0h0M304.02,34.33c.54-.05.88-.49.88-.97h0c-.05-.54-.49-.93-1.02-.88s-.88.49-.88.97h0c.05.54.49.88,1.02.88M406.19,108.27c.54,0,.93-.44.93-.93,0-.54-.44-.93-.93-.93h-.19c-.54.05-.88.49-.88.97h0c.05.54.49.93,1.02.88M394.83,123.97c.54-.05.88-.54.88-1.02-.05-.54-.49-.93-1.02-.88-.54.05-.93.49-.88,1.02.05.54.49.93,1.02.88h0M376.02,137.23c.54-.05.88-.49.88-.97h0c0-.54-.44-.93-.93-.97-.54,0-.93.44-.97.93h0v.19c.05.54.49.93,1.02.83t0,0h0M352.47,145.71c.54-.05.93-.49.88-1.02-.05-.54-.49-.93-1.02-.88h0c-.54.05-.93.49-.88,1.02.05.54.49.93,1.02.88M327.61,145.71c.54-.05.93-.49.88-1.02-.05-.54-.49-.93-1.02-.88h0c-.54.05-.93.49-.88,1.02.05.54.49.93,1.02.88h0M304.02,137.13c.54-.05.88-.49.88-.97h0c-.05-.54-.49-.93-1.02-.88-.54.05-.88.49-.88.97h0c.05.54.49.93,1.02.88M285.4,123.82c.54-.05.93-.49.88-1.02h0c-.05-.54-.49-.93-1.02-.88-.54.05-.93.49-.88,1.02h0c.05.54.49.93,1.02.88M273.75,108.27c.54,0,.93-.44.93-.93,0-.54-.44-.93-.93-.93h-.19c-.54.1-.83.58-.73,1.12.1.44.44.78.93.78M285.5,47.54c.54-.05.93-.49.88-1.02h0c-.05-.54-.49-.93-1.02-.88-.54.05-.93.49-.88,1.02h0c.05.54.49.93,1.02.88M318.45,35.98c.97-.15,1.66-1.02,1.56-2-.15-.93-.93-1.61-1.85-1.56-.97.15-1.66,1.02-1.51,2,.15.88.88,1.56,1.75,1.56h0M300.37,45c.93-.05,1.66-.83,1.61-1.75-.05-.93-.83-1.66-1.75-1.61-.93.05-1.66.83-1.61,1.75.05.88.73,1.56,1.61,1.61h.15M284.52,58.11c0,.93.78,1.71,1.71,1.71h.24c.97,0,1.8-.83,1.75-1.8,0-.97-.83-1.8-1.8-1.75h-.19c-1.02.05-1.8.88-1.71,1.85M400.68,92.24c-.97.1-1.71.97-1.66,1.95.1.97.97,1.71,1.95,1.66h0c.97-.1,1.71-.97,1.66-1.95-.1-1.02-.97-1.75-1.95-1.66h0M393.71,109.64c-.97.15-1.66,1.02-1.56,2,.1.93.93,1.61,1.85,1.56.97-.15,1.66-1.02,1.51-2-.15-.88-.88-1.56-1.75-1.56h0M379.87,124.46c-.97,0-1.8.83-1.75,1.8,0,.97.83,1.8,1.8,1.75h.19c.97-.05,1.75-.88,1.71-1.9,0-.93-.78-1.71-1.71-1.71h-.24M361.44,133.47c-.97.05-1.75.88-1.71,1.9h0c.05.97.88,1.75,1.85,1.71s1.75-.88,1.71-1.85h0v-.15c-.05-.97-.88-1.75-1.85-1.71h0M339.75,136.4c-.97.05-1.75.88-1.71,1.85s.88,1.75,1.85,1.71h.15c.97-.15,1.66-1.02,1.56-2-.15-.93-.93-1.56-1.85-1.56M318.94,134.01c-.97.1-1.71.97-1.61,1.95s.97,1.71,1.95,1.61,1.71-.93,1.66-1.9c-.05-.97-.88-1.75-1.9-1.71t-.1.05h0M300.17,124.55c-.97.05-1.75.88-1.71,1.85s.88,1.75,1.85,1.71h.15c.97-.15,1.66-1.02,1.56-2-.15-.93-.93-1.61-1.85-1.56M286.18,109.73c-.97.15-1.66,1.02-1.56,2,.1.93.93,1.61,1.85,1.56.97-.15,1.66-1.02,1.51-2-.15-.88-.88-1.56-1.75-1.56h0M278.48,75.37c-.97.15-1.66,1.02-1.56,2,.1.93.93,1.61,1.85,1.56.97-.15,1.66-1.02,1.51-2-.15-.88-.88-1.56-1.75-1.56h0M329.56,122.75c0-1.95-1.56-3.51-3.51-3.51s-3.51,1.56-3.51,3.51,1.56,3.51,3.51,3.51h0c1.9,0,3.51-1.56,3.51-3.51h0M353.84,119.19c-1.95,0-3.56,1.56-3.56,3.51s1.56,3.56,3.51,3.56,3.56-1.56,3.56-3.51h0c.05-1.95-1.51-3.51-3.51-3.56t0,0h0M365.93,112.22c-1.95-.05-3.56,1.51-3.61,3.46-.05,1.95,1.51,3.56,3.46,3.61,1.95.05,3.56-1.51,3.61-3.46v-.05c.05-1.95-1.56-3.56-3.51-3.61h-.1M378.6,105.1c0-1.95-1.61-3.51-3.56-3.51s-3.51,1.61-3.51,3.56,1.56,3.51,3.51,3.51c1.95-.05,3.56-1.61,3.56-3.56h0M314.11,112.03c-1.95,0-3.56,1.56-3.56,3.51s1.56,3.56,3.51,3.56,3.56-1.56,3.56-3.51h0c0-1.95-1.56-3.51-3.51-3.56h0M304.8,101.59c-1.95,0-3.56,1.56-3.56,3.51s1.56,3.56,3.51,3.56,3.56-1.56,3.56-3.51v-.05h0c0-1.95-1.61-3.56-3.51-3.51h0M446.11,71.23h21.84v29.1h7.65v-29.1h19.89l1.85-5.07h-49.38l-1.85,5.07ZM269.22,66.16h-7.65v34.17h34.95l1.9-5.07h-29.2v-29.1ZM340.48,66.16l18.47,33.83h8.19l-18.47-33.73-8.19-.1ZM312.55,99.99h8.19l18.47-33.73h-8.19l-18.47,33.73ZM422.76,91.55l-32.17-25.25h-7.7v33.73h7.65v-25.4l32.17,25.4h7.65v-33.78h-7.65l.05,25.3ZM577.73,80.59h-23.5c-2.34.19-4.44-1.51-4.63-3.85h0v-1.32c.05-2.34,1.95-4.14,4.24-4.14h32.03l1.85-5.07h-35.83c-6.43,0-9.75,4.34-9.8,8.68v2.24c0,4.39,3.36,8.92,9.99,8.92h23.5c2.34-.19,4.44,1.51,4.63,3.85h0v1.27c-.05,2.34-1.95,4.19-4.29,4.14h-31.98l-1.85,5.07h35.83c6.43,0,9.75-4.34,9.8-8.68v-2.24c0-4.39-3.36-8.92-9.99-8.92M47.96,80.54h-23.54c-2.34.19-4.44-1.51-4.63-3.85h0v-1.27c.05-2.34,1.95-4.14,4.24-4.14h32.03l1.95-5.07H22.08c-6.43.15-9.75,4.44-9.8,8.77v2.24c0,4.39,3.36,8.92,9.99,8.92h23.5c2.34-.19,4.44,1.51,4.63,3.85h0v1.27c-.05,2.34-1.95,4.19-4.29,4.14H14.13l-1.85,5.02h35.83c6.43,0,9.75-4.34,9.8-8.68v-2.34c0-4.39-3.36-8.92-9.99-8.92M513.53,99.99h7.65v-33.73h-7.65v33.73ZM74.63,71.23h21.79v29.1h7.65v-29.1h19.89l1.85-5.07h-49.33l-1.85,5.07ZM179.53,71.23l1.85-5.07h-38.8v34.17h37l1.85-5.07h-31.15v-9.6h21.79l1.85-4.97h-23.69v-9.46h29.3ZM212.14,95.31h29.2l-1.9,5.07h-34.95v-34.12h7.65v29.05Z"/>
</svg>