<?xml version="1.0" encoding="UTF-8"?>
<svg id="Capa_1" xmlns="http://www.w3.org/2000/svg" version="1.1" viewBox="0 0 500 169.55">
  <!-- Generator: Adobe Illustrator 29.0.1, SVG Export Plug-In . SVG Version: 2.1.0 Build 192)  -->
  <defs>
    <style>
      .st0 {
        fill: #999;
      }
    </style>
  </defs>
  <g>
    <path class="st0" d="M79.13,79.77c-5.07,4.69-11.7,6.27-18.4,4.55-.81-.21-1.53-.56-2.3-.85.3-.19.18-.68.18-.99.07-5.71.02-11.47-.1-17.16-.44-.98-5.2-1.74-6.3-1.8-4.14-.21-8.01,1.49-10.81,4.49-.32.35-.49.93-.63,1.08-2.8,3.16-5.67,6.27-9.01,8.98-2.34,1.91-4.64,3.63-7.44,4.88-7.59,3.4-15.99,2.66-22.08-3.2,2.05-2.32,4.33-4.53,6.56-6.72.28-.27.63-.44.91-.71,5.86-5.74,12.04-12.5,18.18-17.8,1.13-.97,2.22-1.63,3.52-2.33,6.62-3.6,15.42-2.91,21.34,1.8l26.31,25.51.07.25ZM58.61,82.49c.07-5.71.02-11.47-.1-17.16-.44-.98-5.2-1.74-6.3-1.8-4.14-.21-8.01,1.49-10.81,4.49-.32.35-.49.93-.63,1.08,4.76,5.95,10.38,11.63,17.65,14.38.3-.19.18-.68.18-.99Z"/>
    <path class="st0" d="M47.62,88.15c-.17.79-.17,1.34-.54,2.16-.4.89-.99,1.48-1.62,2.16-3.01,3.22-6.91,3.21-9.91,0-.66-.71-1.19-1.22-1.62-2.16-.37-.82-.37-1.37-.54-2.16-.2-.95-.39-1.2-.36-2.34.02-.88.16-1.34.36-2.16.22-.9.34-1.17.72-1.98.42-.88.58-1.22,1.26-1.98,2.91-3.26,7.34-3.21,10.27,0,.66.73.85,1.13,1.26,1.98.39.8.51,1.07.72,1.98.17.73.34,1.4.36,2.16.03,1.13-.16,1.39-.36,2.34Z"/>
    <path class="st0" d="M8.17,98.21c-.12-.11-.23-.23-.34-.34.02.02.05.04.09.06,0,0,.02.01.03.02.03.02.06.04.09.06,0,0,.02.01.03.02,0,0,.02.02.03.02,0,0,.01.01.02.02,0,0,0,.01.01.02,0,0,0,0,0,0,0,0,.01.02.02.02,0,0,0,0,0,0,0,0,0,.02.01.02,0,.02.02.04.02.07Z"/>
    <path class="st0" d="M79.14,92.2c.06.23-2.56,2.75-2.97,3.14-2.05,2-4.17,3.94-6.22,5.93-1.91,1.86-3.84,3.72-5.76,5.57-2.16,2.09-4.31,4.21-6.49,6.29-2.44,2.33-4.06,4.3-7.02,6.11-2.95,1.8-4.6,2.38-8.11,2.7-3.1.27-5.29.1-8.28-.9-4.6-1.54-6.37-3.65-9.73-6.83-5.48-5.19-10.81-10.55-16.21-15.82-.06-.05-.12-.12-.18-.17,0-.03-.01-.05-.02-.07,0-.01-.01-.02-.01-.03h-.01s-.01-.02-.01-.03l-.02-.02h0s-.02-.03-.03-.04-.02-.01-.03-.02c-.03-.02-.06-.04-.09-.06-.01,0-.01-.01-.02-.02-.04-.02-.07-.03-.09-.05-.01-.01-.01-.02-.02-.02-1.49-1.46-3.09-2.79-4.5-4.32-.36-.38-1.3-.77-1-1.43.32-.69,2.29-1.74,2.98-2.16,6.89-4.22,13.7-3.71,20.71,0,1.62.86,3.04,1.77,4.51,2.87,1.57,1.19,2.91,2.41,4.32,3.78,1.4,1.36,2.52,2.68,3.78,4.13.63.73,1.36,1.41,1.98,2.16.5-.55,1.12-1.07,1.62-1.62,2.68-2.92,4.45-5.02,7.57-7.55,2.49-2.01,4.05-3.13,7.02-4.49,2.22-1.02,4.52-1.97,7.03-2.16,2-.15,3.82.02,5.76.36,3.76.68,6.72,2.23,9.55,4.77Z"/>
  </g>
  <path class="st0" d="M280.52,77.27s0-.06,0,0h0ZM418.87,96.69c-3.76,1.44-8.06,2.22-12.08,2.43.17,1.24.68,2.78,1.44,3.77.02.02.03.04.05.05l.13.13v.18c3.46,4.27,9.89,2.82,14.56,1.68,2.32-.57,4.56-1.44,6.87-2.04.7,2.44,1.3,4.92,1.98,7.37.16.58,1.19,2.95.88,3.39-2.47.99-4.93,1.97-7.51,2.67-10.39,2.8-24.21,3.42-31.38-6.06-1.62-2.14-2.69-4.42-3.42-7.01-.69-2.46-.91-4.48-1.08-7.01-.13-1.88-.27-3.81-.18-5.75.1-2.12.42-4.23.9-6.29.63-2.72,1.51-4.95,2.88-7.37,1.55-2.73,2.85-4.28,5.22-6.29,8.11-6.88,25.05-9.23,32.24,0,1.52,1.95,2.07,3.89,2.52,6.29.05.29.36,1.11.36,1.35v3.41c0,.79-.5,1.89-.72,2.61-.89,2.93-1.84,4.32-3.96,6.47-2.93,2.97-5.52,4.23-9.37,5.75-.07.03-.18.2-.35.27ZM406.43,84.38c-.2,1.03-.48,2.3-.54,3.33-.02.37-.2,1.18.27,1.17,1.77-.02,4.51-.67,6.1-1.47,1.28-.64,3.18-2.16,3.9-3.39,1.1-1.89,1.44-5.43-.36-7.01-1.62-1.41-4.56-.92-6.12.36-1.95,1.6-2.79,4.64-3.24,7.01ZM302.32,114.02l-12.89,3.95c-1.24-.06-3.73-5.46-4.14-6.65-.09-.27-.04-.56-.09-.71-.29-.89-.67-1.75-.81-2.69-.48.98-.99,1.93-1.53,2.87-5.88,10.33-20.97,8.73-27.56,0-1.77-2.34-2.62-4.38-3.42-7.19-.75-2.62-1.3-5.35-1.44-8.09-.15-2.75-.07-5.91.36-8.63.54-3.38,1.51-5.87,3.06-8.81,1.62-3.06,2.95-4.88,5.58-7.19,10.63-9.3,24.66-5.7,37.18-3.08.21.14.1,2.74.1,3.26.02,2.03,0,4.08,0,6.11,0,2.51-.02,5.03,0,7.55.02,2.87-.07,5.76,0,8.63.07,2.99.17,6.42.72,9.34.47,2.5,1.46,4.99,2.34,7.37l2.52,3.95ZM269.17,103.42c1.31,2.55,3.95,3.27,6.29,1.51.84-.64,1.3-1.49,2-2.23v-.18l.16-.16h0s.02-.01.02-.02c1.26-2.92,2.34-5.77,2.7-8.98.31-2.75.15-5.83.18-8.63.02-2.16-.26-5.16,0-7.19.01-.1-.04-.21.04-.31-.02.03-.03.04-.04.03,0-.06,0,0,0,0h0c-.79-.14-1.54-.24-2.34-.38-.18-.05-.21-.05-.36-.06-2.08-.16-4.4,0-6.12,1.26-2.57,1.86-3.47,5.82-3.78,8.81-.29,2.73-.28,5.86-.18,8.63.09,2.43.31,5.71,1.44,7.91ZM375,47.72c-.67,1.69-1.03,3.57-1.48,5.36-.07.26,0,.57-.05.75-.64,2.54-1.34,5.15-1.98,7.73-.73,2.93-1.47,5.86-2.16,8.81-.71,3-1.54,5.96-2.16,8.98-.62,3.01-.96,5.98-1.44,8.98-.03.16-.26.51-.31.85-.21,1.33-.35,2.67-.59,4l-1.08-4.31c-.37-2.67-.99-5.29-1.62-7.91-.66-2.77-1.56-5.42-2.34-8.09-.78-2.68-1.53-5.4-2.34-8.09-.82-2.74-1.69-5.51-2.52-8.27-.88-2.91-1.65-5.86-2.69-8.72l-13.77-.09c-1.04,2.88-1.75,5.88-2.63,8.82-.79,2.63-1.56,5.27-2.34,7.91-.85,2.87-1.7,5.74-2.52,8.63-.8,2.83-1.64,5.57-2.34,8.45-.72,2.93-1.33,5.86-1.98,8.8-.18.83-.5,1.65-.54,2.52-.27.05-.22-.34-.27-.54-.11-.47-.18-.97-.27-1.44-.47-2.64-.92-5.27-1.44-7.91-.54-2.75-1.17-5.4-1.8-8.09-.64-2.75-1.3-5.51-1.98-8.27-.73-2.95-1.6-5.88-2.34-8.8-.05-.19.02-.49-.05-.75-.78-3.1-1.6-6.19-2.3-9.31h-16.93c.89,3.43,1.94,6.83,2.88,10.24.8,2.88,1.74,5.8,2.52,8.63.75,2.71,1.4,5.53,2.16,8.27.75,2.7,1.6,5.41,2.34,8.09.73,2.62,1.43,5.28,2.16,7.91.77,2.75,1.58,5.54,2.34,8.27.81,2.92,1.52,5.88,2.34,8.81.85,3.01,1.66,6.04,2.5,9.06,4.57.23,9.26.06,13.87.09.91-3.04,1.77-6.12,2.72-9.15.9-2.87,1.81-5.75,2.7-8.63.93-2.99,1.8-6.01,2.7-8.99.88-2.92,1.97-5.76,2.7-8.8.66-2.75,1.04-5.67,1.62-8.45.21-1.02.72-2.13.72-3.23.26-.04.24.31.3.5.26.8.41,1.72.59,2.55.6,2.7,1.12,5.4,1.8,8.09.68,2.69,1.54,5.26,2.34,7.91.8,2.65,1.71,5.27,2.52,7.91.84,2.7,1.67,5.39,2.52,8.09.76,2.4,1.59,4.83,2.34,7.19.05.16,0,.46.08.72.45,1.4.9,2.8,1.34,4.21,4.57.24,9.27.05,13.88.1.35-1.69.8-3.37,1.27-5.02.67-2.39,1.31-4.8,1.98-7.19.75-2.68,1.42-5.43,2.16-8.09.78-2.8,1.56-5.65,2.34-8.45.82-2.94,1.7-6.02,2.52-8.98.83-3,1.87-5.98,2.7-8.98.81-2.92,1.53-5.88,2.34-8.81.71-2.58,1.45-5.15,2.16-7.73.56-2.02,1.28-4.03,1.62-6.11h-16.84ZM277.62,102.36s.02-.01.02-.02l-.02.02ZM495.59,112.05l-1.08-7.37c-2.25.52-4.44.88-6.73.52-.41-.06-.77-.41-1.19-.34-1.78-1.83-1.23-5.11-1.26-7.55-.04-2.81.01-5.63,0-8.45-.01-2.87,0-5.75,0-8.63,0-2.81,0-5.63,0-8.44,0-2.87,0-5.75,0-8.63,0-2.99,0-5.99,0-8.98,0-3.83.08-7.68-.09-11.5l-16.12,2.7c0,2.93,0,5.87,0,8.8,0,2.99,0,5.99,0,8.98,0,2.87,0,5.75,0,8.63,0,2.81,0,5.63,0,8.44,0,2.87,0,5.75,0,8.63,0,2.81-.02,5.63,0,8.45.02,2.59-.13,5.34,0,7.91.15,2.83.63,4.67,2.16,7.01,1.16,1.78,2.22,2.84,4.17,3.84,5.85,3,14.69,1.3,20.51-1.15v-1.26l-.36-1.62ZM200,108.99c-.2-1.31-.46-2.63-.54-3.95-4.68.77-5.44.26-5.58-4.31-.09-2.86.01-5.76,0-8.63-.01-2.81,0-5.63,0-8.45,0-2.87,0-5.75,0-8.63,0-3.17,0-6.35,0-9.52h-16.21c-.33,3.14-.17,6.36-.18,9.52,0,2.87,0,5.75,0,8.63,0,2.81,0,5.63,0,8.45,0,2.87-.03,5.75,0,8.63.03,3.04-.14,5.28.54,8.27.44,1.93.63,2.82,1.98,4.41,4.87,5.75,14.51,4.84,20.69,1.85.25-.4-.55-5.37-.69-6.26ZM408.23,102.88s.03.04.05.05l-.05-.05ZM194.78,49.87c-.15-12.44-17.84-12.08-18.19,0-.18,6.06,3.82,9.69,9.83,9.35,5.32-.3,8.43-4.16,8.37-9.35ZM235.13,65.69c-.6,1.96-1.14,3.99-1.8,5.93-.98,2.88-1.95,5.74-2.88,8.63-.99,3.05-1.99,6.06-2.88,9.16-.69,2.38-1.51,4.74-1.98,7.19l-1.98-6.65c-.63-2.94-1.64-5.76-2.52-8.63-.82-2.65-1.64-5.27-2.52-7.91-.86-2.57-1.69-5.15-2.52-7.73h-17.11c.68,2.65,1.93,5.16,2.88,7.73,1.02,2.75,2.04,5.51,3.06,8.27,1.03,2.75,2.03,5.52,3.06,8.27,1.01,2.7,2.05,5.39,3.06,8.09.98,2.62,1.9,5.28,2.88,7.91.88,2.34,1.81,4.67,2.7,7.01.25.65,1.31,4.21,1.61,4.41l14.3.06c.3-.1,1.5-3.83,1.73-4.47.88-2.32,1.66-4.7,2.52-7.01.98-2.61,2.07-5.27,3.06-7.91,1.08-2.87,2.17-5.75,3.24-8.63,1.14-3.05,2.28-6.11,3.42-9.16,1.03-2.75,2.04-5.51,3.06-8.27.78-2.09,1.71-4.14,2.34-6.29h-16.75ZM154.43,47.72c-.63,1.7-1.03,3.51-1.62,5.21-.83,2.38-1.7,4.79-2.52,7.19-1,2.92-1.91,5.9-2.88,8.81-.94,2.78-1.96,5.64-2.88,8.45-.94,2.85-2,5.7-2.88,8.63-.9,2.98-1.66,5.99-2.52,8.98-.12.4-.39.79-.36,1.26-.11.18-.29-.37-.36-.54-.79-1.98-1.54-5.35-2.16-7.55-.82-2.9-1.63-5.75-2.52-8.63-.92-2.96-1.92-5.87-2.88-8.8-.9-2.76-1.78-5.52-2.7-8.27-.88-2.63-1.83-5.27-2.7-7.91-.75-2.26-1.37-4.58-2.16-6.83h-17.83c.59,2.34,1.68,4.56,2.52,6.83.98,2.63,1.9,5.28,2.88,7.91,1.05,2.82,2.19,5.63,3.24,8.45,1.07,2.88,2.17,5.75,3.24,8.63,1.08,2.88,2.16,5.75,3.24,8.63.94,2.49,1.76,5.05,2.7,7.55.99,2.64,2.07,5.27,3.06,7.91.94,2.49,1.75,5.06,2.7,7.55.75,1.98,1.57,3.94,2.27,5.94l14.37-.04c.41-.14,1.97-5.09,2.28-5.91.95-2.52,1.93-5.03,2.88-7.55,1.08-2.87,2.16-5.75,3.24-8.63,1.1-2.93,2.14-5.88,3.24-8.81,1.08-2.87,2.17-5.75,3.24-8.63,1.07-2.87,2.17-5.75,3.24-8.63,1.09-2.93,2.15-5.87,3.24-8.81.89-2.4,1.82-4.78,2.7-7.19.64-1.75,1.33-3.47,1.98-5.21h-17.29ZM465.51,114.12c-.11-2.05-.76-4.19-1.08-6.21-.08-.48-.16-2.85-.38-3.03-2.41,0-4.92,1.08-7.28.17-2.15-.84-1.84-3.53-1.88-5.4-.07-2.75.01-5.52,0-8.27-.01-2.99,0-5.99,0-8.98,0-2.87,0-5.75,0-8.63,0-2.81,0-5.63,0-8.45,0-2.75,0-5.51,0-8.27,0-2.51.01-5.03,0-7.55-.01-2.15,0-4.31,0-6.47l-.54-.18c-5.24.6-10.42,1.81-15.66,2.52-.03,1.37,0,2.75,0,4.12-.02,2.51,0,5.03,0,7.55,0,2.75,0,5.51,0,8.27,0,2.81,0,5.63,0,8.45,0,2.87,0,5.75,0,8.63,0,2.99-.01,5.99,0,8.98,0,2.75-.03,5.51,0,8.27.03,2.84-.19,5.47.36,8.27,2.22,11.35,15.31,10.93,24.09,7.95.42-.14,2-.64,2.21-.85.25-.24.2-.59.18-.9ZM454.43,42.69l-.09.18.54.18c.06-.43-.03-.4-.45-.36ZM408.29,102.94l-.05-.05s.03.04.05.05ZM408.29,102.94l.13.13s-.08-.09-.13-.13ZM277.46,102.52l.16-.16s-.15.08-.16.16ZM277.62,102.36s.02-.01.02-.02l-.02.02Z"/>
</svg>