<?xml version="1.0" encoding="UTF-8"?>
<svg id="Capa_1" xmlns="http://www.w3.org/2000/svg" version="1.1" viewBox="0 0 600 169.55">
  <!-- Generator: Adobe Illustrator 29.0.1, SVG Export Plug-In . SVG Version: 2.1.0 Build 192)  -->
  <defs>
    <style>
      .st0 {
        fill: #999;
      }
    </style>
  </defs>
  <path class="st0" d="M438.05,45.68h-47.02c-7.32.88-14.42,5.22-18.13,11.88-4.97,9.76-5.1,22.19-5.45,34,1.14,12.02,2.67,24.24,14.43,29.34l8.17,2.28h48.35l.12,20.2h-51.7c-17.16-.3-33.97-10.91-40.56-26.19-9.15-22.95-8.74-57.13,7.27-76.29,12.47-13.55,31.07-15.83,49.91-15.33h34.6v20.12Z"/>
  <polygon class="st0" points="125.61 84.73 73.7 137.56 21.37 137.56 71.54 84.73 20 31.15 72.75 31.15 125.61 84.73"/>
  <polygon class="st0" points="194.33 85.06 143.18 137.78 90.44 137.78 141.04 85.06 89.5 31.55 142.24 31.55 194.33 85.06"/>
  <path class="st0" d="M319.89,49.6c-2.75-5.17-6.77-10.94-11.82-14.85-18.92-13.76-48.22-13.58-70.15-6.6-14.2,5.27-25.42,18.6-28.04,32.91-4.47,20.95-3.48,46.02,7.31,63.55,11.21,18.58,34.46,21.96,55.6,21.41,19.46-.53,40.34-8.33,47.75-26.81,8.46-19.94,8.47-49.57-.64-69.6M297.63,103.81c-2.46,8.71-8.05,17.25-17.24,20.2-13.38,3.61-29.5,3.09-38.15-8.88-8.67-13.41-8.39-33.92-5.14-50.09,2.46-8.92,8.89-17.46,18.5-20.01,14.21-3.4,30.55-1.22,38.17,11.99,6.57,13.01,7.11,31.86,3.85,46.8"/>
  <path class="st0" d="M558.97,94.09l-29.96-68.63h-26.36l-50.1,117.69h26.15l10.71-27.86h51.7l11.67,27.95h27.21c-6.8-16.53-14.23-33.25-21.03-49.15M497.36,93.94l17.38-44.74,18.07,44.74h-35.45Z"/>
</svg>