<?xml version="1.0" encoding="UTF-8"?>
<svg id="Capa_1" xmlns="http://www.w3.org/2000/svg" version="1.1" viewBox="0 0 550 169.55">
  <!-- Generator: Adobe Illustrator 29.0.1, SVG Export Plug-In . SVG Version: 2.1.0 Build 192)  -->
  <defs>
    <style>
      .st0 {
        fill: #999;
      }
    </style>
  </defs>
  <path class="st0" d="M99.33,161.15c-42.1,0-76.36-34.27-76.36-76.39S57.24,8.4,99.33,8.4s76.36,34.27,76.36,76.36-34.27,76.36-76.36,76.36v.03ZM99.33,22.76c-34.19,0-62.01,27.82-62.01,62.01s27.82,62.04,62.04,62.04,62.04-27.82,62.04-62.04-27.85-62.01-62.07-62.01Z"/>
  <path class="st0" d="M122.63,105.96h-39.81v16.35h39.81v-16.35Z"/>
  <path class="st0" d="M103.01,76.59h-20.18v16.35h20.18v-16.35Z"/>
  <path class="st0" d="M103.01,47.22h-20.18v16.37h20.18v-16.37Z"/>
  <path class="st0" d="M214.65,46.61h13.98v61.85h23.08v13.61h-37.06V46.61Z"/>
  <path class="st0" d="M301.11,93.68c0-4.71-1.54-8.65-4.55-11.9-3.01-3.22-6.95-4.82-11.8-4.74-4.95-.08-9.03,1.57-12.19,4.9-3.17,3.35-4.74,7.46-4.74,12.43,0,4.66,1.62,8.55,4.93,11.71,3.3,3.17,7.22,4.71,11.77,4.66,4.9.05,8.89-1.54,11.96-4.82,3.06-3.27,4.61-7.3,4.61-12.14v-.11h.03ZM313.97,122.07h-12.43v-7.67h-.21c-1.73,2.45-3.97,4.47-6.76,6.04-2.8,1.54-5.7,2.64-8.68,3.17-.61.08-1.22.13-1.89.19-.64.08-1.25.11-1.89.11-4.37,0-8.31-.85-11.85-2.5-3.51-1.68-6.55-3.97-8.97-6.9-2.24-2.74-3.99-5.86-5.22-9.43-1.23-3.51-1.84-7.3-1.84-11.24s.56-7.59,1.7-10.92c1.12-3.33,2.98-6.47,5.56-9.37,2.85-3.35,6.04-5.8,9.56-7.4,3.49-1.6,7.32-2.4,11.5-2.4,3.86,0,7.46.83,10.7,2.48,3.28,1.68,6.04,4.13,8.28,7.32v-8.07h12.43v56.58Z"/>
  <path class="st0" d="M324.14,46.61h13.58v45.53l18.16-26.65h16.06l-20.42,27.69,23.78,28.89h-18.16l-19.41-26.47v26.47h-13.58V46.61Z"/>
  <path class="st0" d="M416.85,93.68c0-4.71-1.52-8.65-4.55-11.9-3.04-3.22-6.98-4.82-11.8-4.74-4.98-.08-9.03,1.57-12.19,4.9-3.17,3.35-4.77,7.46-4.77,12.43,0,4.66,1.65,8.55,4.95,11.71,3.3,3.17,7.24,4.71,11.8,4.66,4.87.05,8.89-1.54,11.96-4.82,3.06-3.27,4.61-7.3,4.61-12.14v-.11ZM429.71,122.07h-12.46v-7.67h-.21c-1.7,2.45-3.94,4.47-6.74,6.04-2.8,1.54-5.67,2.64-8.68,3.17-.61.08-1.23.13-1.89.19-.64.08-1.28.11-1.89.11-4.37,0-8.31-.85-11.85-2.5-3.51-1.68-6.55-3.97-8.97-6.9-2.24-2.74-3.99-5.86-5.22-9.43-1.22-3.51-1.84-7.3-1.84-11.24s.56-7.59,1.68-10.92c1.15-3.33,2.98-6.47,5.56-9.37,2.88-3.35,6.04-5.8,9.53-7.4,3.51-1.6,7.35-2.4,11.5-2.4,3.86,0,7.48.83,10.7,2.48,3.28,1.68,6.04,4.13,8.28,7.32v-8.07h12.46v56.55l.03.03Z"/>
  <path class="st0" d="M489.86,65.49v56.55h-12.46v-6.04h-.21c-1.41,2.82-3.41,4.79-5.94,6.04-2.5,1.22-5.32,1.84-8.47,1.84-3.33,0-6.55-.61-9.67-1.89-3.09-1.28-5.83-3.22-8.2-5.88-2.5-2.72-4.07-5.59-4.61-8.6-.53-3.04-.8-6.36-.8-9.96v-32.06h13.55v27.77c0,.91,0,1.81.05,2.72.03.91.08,1.86.16,2.8.13,1.09.32,2.18.56,3.22.21,1.04.56,2.02.96,2.9.96,1.84,2.29,3.27,3.97,4.26,1.73,1.04,3.62,1.54,5.75,1.54,4.58,0,7.59-1.52,9.11-4.55,1.49-3.01,2.34-6.34,2.53-9.93.08-.51.11-.96.11-1.44v-29.31h13.58l.03.03Z"/>
  <path class="st0" d="M505.3,77.55h-6.66v-12.06h6.66v-18.88h13.55v18.88h8.18v12.06h-8.18v44.52h-13.55v-44.52Z"/>
</svg>