<?xml version="1.0" encoding="UTF-8"?>
<svg id="Capa_1" xmlns="http://www.w3.org/2000/svg" version="1.1" viewBox="0 0 550 169.55">
  <!-- Generator: Adobe Illustrator 29.0.1, SVG Export Plug-In . SVG Version: 2.1.0 Build 192)  -->
  <defs>
    <style>
      .st0 {
        fill: #999;
      }
    </style>
  </defs>
  <g id="Capa_11" data-name="Capa_1">
    <g>
      <g>
        <g>
          <path class="st0" d="M99.21,59.86c5.46-6.59,6.93-15.77,3.72-23.74-4.67-11.6-17.09-17-30.17-13.12-8.46,2.51-14.9,7.9-18.61,15.59-4.22,8.73-4.37,19.36-.43,29.18,2.17,5.38,5.63,10.17,10.01,13.86l.55.46c.95-1.48,2.25-4.88,2.23-8.02l-1.07-1.18c-2.07-2.28-3.64-4.98-4.81-7.89-3.12-7.75-3.04-16.41.22-23.15,2.42-5.01,6.47-8.77,11.72-10.88.74-.29,1.51-.56,2.3-.8,10.88-3.22,18.45,2.07,21.14,8.75,3.09,7.67-.29,16.58-7.68,20.27-1.11.55-1.61,1.88-1.15,3.04l1.06,2.63c.44,1.11,1.63,1.7,2.82,1.43,3.74-.9,7.84.95,9.09,4.07.71,1.76.54,3.78-.47,5.66-1.05,1.94-2.84,3.5-5.08,4.39-4.99,2.01-10.42,2.33-15.7.93l-.91-.24c-.25,2.39-1.36,5.67-2.12,7.15l1.07.29c4.86,1.3,9.81,1.46,14.6.53,1.98-.39,3.93-.96,5.83-1.73,4.03-1.62,7.26-4.56,9.09-8.27,1.85-3.75,2.06-7.83.59-11.48-1.38-3.42-4.21-6.17-7.87-7.7h0Z"/>
          <path class="st0" d="M73.85,59.67c-1.82-4.53-4.39-8.58-7.61-12.04-1.05-1.13-2.4-2.4-3.33-3.19-1.17.77-2.51,5.95-1.9,8.55l.48.56c2.3,2.63,4.12,5.63,5.44,8.91,2.69,6.68,2.72,13.98.1,20.53-2.62,6.54-7.57,11.56-13.93,14.12-4.55,1.83-9.47.3-10.96-3.42-1.26-3.13.42-7.27,3.74-9.23,1.05-.62,1.49-1.88,1.05-2.99l-1.06-2.63c-.46-1.15-1.75-1.76-2.93-1.39-7.89,2.46-16.49-1.63-19.58-9.31-2.68-6.68-.89-15.75,9.19-20.95,5.43-2.8,11.17-3.41,16.7-1.78.11-2.08,1.23-5.04,2.33-7.07-.59-.17-1.75-.49-2.35-.62-6.73-1.47-13.61-.51-20.11,2.85-12.13,6.26-17.34,18.75-12.67,30.35,3.21,7.97,10.63,13.57,19.13,14.54-1.58,3.64-1.72,7.58-.34,11,2.63,6.55,10,9.97,17.39,8.52,1.1-.21,2.2-.54,3.28-.97,8.22-3.31,14.63-9.76,18.02-18.15,3.39-8.38,3.37-17.69-.06-26.2h0Z"/>
        </g>
        <g>
          <path class="st0" d="M176.74,48.85c2.72,0,5.07-.9,6.99-2.68,1.95-1.81,2.95-4.11,2.95-6.8s-.99-5.1-2.93-6.95c-1.92-1.83-4.28-2.75-7-2.75s-5.08.93-6.97,2.77c-1.9,1.85-2.86,4.19-2.86,6.94s.96,4.97,2.87,6.78c1.88,1.79,4.22,2.7,6.95,2.7h0Z"/>
          <path class="st0" d="M186.22,92.2c-.51-.08-1.71-.24-1.71-3.42v-28.23c0-2.33-1.45-3.78-3.78-3.78h-8.32c-2.33,0-3.78,1.45-3.78,3.78v29.94c0,12.36,7.2,14.95,13.28,14.95,4.76-.1,7.17-1.53,7.17-4.24v-5.47c0-1.92-1.05-3.24-2.85-3.54Z"/>
        </g>
        <path class="st0" d="M235.97,38.77c.86-1.95.43-3.75-1.14-4.83-3.63-2.79-8.23-4.21-13.67-4.21-7.17,0-12.69,2.13-16.4,6.34-3.65,4.14-5.51,9.81-5.51,16.82v48.75c0,2.33,1.4,3.78,3.67,3.78h8.32c2.27,0,3.67-1.45,3.67-3.78v-31.64h10.39c2.26,0,3.67-1.41,3.67-3.67v-5.81c0-2.33-1.4-3.78-3.67-3.78h-10.39v-3.29c0-3.15.68-5.61,2.02-7.3,1.26-1.59,3.02-2.37,5.37-2.37s4.37.68,6.52,2.07c.96.74,1.83.75,2.38.63.58-.13,1.4-.53,2.02-1.76l2.75-5.96h0Z"/>
        <path class="st0" d="M283.85,75.83c0-9.39-4.29-28.41-24.7-28.41-19.13,0-25.96,16.25-25.96,29,0,15.88,10.15,26.5,21.49,28.53s21.94-3.17,23.8-4.24c1.88-1.08,1.85-2.42,1.22-4.06-1.08-2.81-1.73-4.29-2.48-6.31-.71-1.9-2.46-2.31-3.94-1.63-8.45,3.89-24.06,5.05-24.38-8.43h30.82c2.58,0,4.12-1.67,4.12-4.46h0ZM268.56,69.88h-19.8c0-5.37,3.58-8.96,10.47-8.96,5.46,0,9.33,3.19,9.33,8.96h0Z"/>
        <path class="st0" d="M157.41,91.92h-15.94c-1.13,0-2.05-.92-2.05-2.05v-54.82c0-2.2-1.41-3.57-3.68-3.57h-8.44c-2.27,0-3.68,1.37-3.68,3.57v58.17c0,6.75,5.49,12.23,12.23,12.23h21.45c2.27,0,3.68-1.37,3.68-3.57v-6.38c0-1.97-1.6-3.57-3.57-3.57h0Z"/>
        <g>
          <path class="st0" d="M321.11,79.27c-.58.41-1,.41-1.26,0-1.69-2.57-4.3-3.83-7.84-3.79-1.99-.03-3.55.39-4.68,1.26-1.13.88-1.71,1.99-1.75,3.34,0,1.08.36,1.98,1.09,2.71s1.66,1.27,2.81,1.65c1.15.37,2.42.71,3.82,1.01,1.4.31,2.79.69,4.17,1.16,1.38.47,2.65,1.05,3.79,1.72s2.08,1.67,2.81,2.99c.73,1.31,1.09,2.9,1.09,4.76,0,2.8-1.11,5.18-3.34,7.13-2.23,1.96-5.5,2.94-9.81,2.94-2.09,0-4.01-.24-5.75-.73-1.73-.49-3.15-1.12-4.22-1.9s-1.92-1.46-2.5-2.07-1.07-1.21-1.44-1.82c-.31-.51-.22-.95.25-1.31l2.43-2.28c.51-.51.95-.51,1.31,0,2.53,3.24,5.83,4.86,9.92,4.86,2.02,0,3.62-.41,4.78-1.24,1.16-.83,1.75-1.95,1.75-3.37,0-1.18-.36-2.16-1.09-2.94-.73-.78-1.67-1.35-2.84-1.72s-2.45-.71-3.85-1.01c-1.4-.31-2.79-.68-4.17-1.11-1.38-.44-2.65-.99-3.82-1.65-1.16-.66-2.11-1.65-2.84-2.96-.73-1.31-1.09-2.9-1.09-4.76,0-2.84,1.13-5.21,3.39-7.13,2.26-1.92,5.36-2.89,9.31-2.89,1.96,0,3.72.21,5.29.63,1.57.42,2.84.97,3.82,1.65.98.68,1.74,1.3,2.28,1.87.54.58.98,1.15,1.31,1.72.34.54.24,1-.3,1.36l-2.84,1.92h0Z"/>
          <path class="st0" d="M334.01,105.84c-.64,0-.96-.32-.96-.96v-33.5c0-.64.32-.96.96-.96h20.14c.64,0,.96.32.96.96v3.24c0,.64-.32.96-.96.96h-14.73v10.12h11.58c.64,0,.96.32.96.96v3.24c0,.61-.34.91-1.01.91h-11.53v9.87h14.73c.64,0,.96.32.96.96v3.24c0,.64-.32.96-.96.96h-20.14Z"/>
          <path class="st0" d="M390.39,93.29c0,3.57-1.12,6.61-3.37,9.11-2.25,2.5-5.56,3.74-9.94,3.74-4.73,0-8.5-1.53-11.33-4.58-2.84-3.05-4.25-7.5-4.25-13.33s1.38-10.4,4.15-13.49c2.77-3.09,6.55-4.63,11.33-4.63,1.96,0,3.73.29,5.31.89s2.82,1.3,3.72,2.13c.89.83,1.65,1.79,2.28,2.89s1.05,2.03,1.29,2.81.41,1.52.51,2.23c.1.51-.22.83-.96.96l-3.85.61c-.61.1-.98-.12-1.11-.66-.1-.58-.25-1.15-.46-1.72-.2-.58-.54-1.24-1.01-2s-1.2-1.38-2.18-1.85c-.98-.47-2.13-.71-3.44-.71-2.7,0-4.88,1.04-6.55,3.11-1.67,2.07-2.5,5.22-2.5,9.44s.88,7.25,2.63,9.29,3.95,3.06,6.58,3.06c2.47,0,4.27-.68,5.41-2.02,1.15-1.35,1.72-3.1,1.72-5.26v-.96h-7.23c-.61,0-.91-.32-.91-.96v-2.84c0-.64.32-.96.96-.96h12.2c.68,0,1.01.32,1.01.96v4.76h0Z"/>
          <path class="st0" d="M419.48,71.38c0-.64.3-.96.91-.96h4.46c.64,0,.96.32.96.96v19.83c0,5.29-1.23,9.11-3.67,11.43-2.45,2.33-5.71,3.49-9.79,3.49s-7.36-1.16-9.84-3.49c-2.48-2.33-3.72-6.14-3.72-11.43l.05-19.83c0-.64.32-.96.96-.96h4.46c.61,0,.91.32.91.96v20.34c0,5.87,2.4,8.81,7.18,8.81s7.13-2.94,7.13-8.81v-20.34h0Z"/>
          <path class="st0" d="M465.23,104.77c0,.41-.27.73-.81.96-.58.2-1.43.31-2.58.31-1.96,0-3.59-.47-4.88-1.41s-2.28-2.09-2.96-3.44c-.68-1.35-1.3-2.7-1.87-4.05s-1.31-2.5-2.23-3.44c-.91-.95-2.06-1.41-3.44-1.41h-4.3v12.6c0,.64-.32.96-.96.96h-4.46c-.64,0-.96-.32-.96-.96v-33.5c0-.64.32-.96.96-.96h11.28c4.32,0,7.57.88,9.76,2.63,2.19,1.75,3.29,4.54,3.29,8.35,0,2.4-.61,4.35-1.85,5.87-1.23,1.52-2.71,2.58-4.42,3.19.81.61,1.58,1.55,2.33,2.81.74,1.26,1.34,2.43,1.8,3.52.46,1.08,1.1,2.04,1.92,2.89s1.78,1.28,2.86,1.31h.76c.51,0,.76.29.76.86v2.94h0ZM447.26,87.47c2.23,0,4.04-.51,5.44-1.55,1.4-1.03,2.1-2.47,2.1-4.32s-.61-3.32-1.85-4.4c-1.23-1.08-2.96-1.62-5.19-1.62h-5.62v11.89s5.11,0,5.11,0Z"/>
          <path class="st0" d="M474.16,101.59c-2.95-3.04-4.43-7.5-4.43-13.41s1.48-10.39,4.43-13.46c2.95-3.07,6.7-4.61,11.26-4.61s8.26,1.53,11.21,4.61c2.95,3.07,4.42,7.55,4.42,13.46s-1.46,10.37-4.4,13.41c-2.94,3.04-6.68,4.56-11.23,4.56s-8.31-1.52-11.26-4.56h0ZM491.97,97.64c1.7-2.02,2.55-5.18,2.55-9.46s-.85-7.48-2.55-9.49c-1.7-2.01-3.89-3.01-6.55-3.01s-4.85,1-6.55,3.01c-1.7,2.01-2.55,5.17-2.55,9.49s.85,7.44,2.55,9.46c1.7,2.02,3.89,3.04,6.55,3.04s4.85-1.01,6.55-3.04Z"/>
          <path class="st0" d="M531.21,79.27c-.58.41-1,.41-1.26,0-1.69-2.57-4.3-3.83-7.84-3.79-1.99-.03-3.55.39-4.68,1.26-1.13.88-1.71,1.99-1.75,3.34,0,1.08.36,1.98,1.09,2.71s1.66,1.27,2.81,1.65c1.15.37,2.42.71,3.82,1.01,1.4.31,2.79.69,4.17,1.16s2.65,1.05,3.79,1.72,2.08,1.67,2.81,2.99c.73,1.31,1.09,2.9,1.09,4.76,0,2.8-1.11,5.18-3.34,7.13-2.23,1.96-5.5,2.94-9.81,2.94-2.09,0-4.01-.24-5.75-.73-1.74-.49-3.15-1.12-4.22-1.9s-1.92-1.46-2.5-2.07-1.07-1.21-1.44-1.82c-.31-.51-.22-.95.25-1.31l2.43-2.28c.51-.51.95-.51,1.31,0,2.53,3.24,5.83,4.86,9.92,4.86,2.02,0,3.62-.41,4.78-1.24s1.75-1.95,1.75-3.37c0-1.18-.36-2.16-1.09-2.94-.73-.78-1.67-1.35-2.84-1.72-1.16-.37-2.45-.71-3.85-1.01-1.4-.31-2.79-.68-4.17-1.11-1.38-.44-2.65-.99-3.82-1.65s-2.11-1.65-2.84-2.96c-.73-1.31-1.09-2.9-1.09-4.76,0-2.84,1.13-5.21,3.39-7.13,2.26-1.92,5.36-2.89,9.31-2.89,1.96,0,3.72.21,5.29.63,1.57.42,2.84.97,3.82,1.65.98.68,1.74,1.3,2.28,1.87.54.58.98,1.15,1.31,1.72.34.54.24,1-.3,1.36l-2.84,1.92h0Z"/>
        </g>
      </g>
      <g>
        <path class="st0" d="M145.14,121.29c.35,0,.53.18.53.53v1.46c0,.33-.19.49-.56.49h-8.64v23.28c0,.35-.18.53-.53.53h-1.88c-.35,0-.53-.18-.53-.53v-23.28h-8.86c-.33,0-.49-.16-.49-.49v-1.46c0-.35.18-.53.53-.53h20.43Z"/>
        <path class="st0" d="M163.01,147.12c0,.38-.44.56-1.31.56-1.88,0-2.82-.99-2.82-2.97v-.45c-.48,1.03-1.23,1.87-2.27,2.53s-2.36,1-3.96,1c-3.83,0-5.75-2.14-5.75-6.42v-11.38c0-.35.18-.53.53-.53h1.8c.35,0,.53.18.53.53v11.04c0,2.9,1.26,4.36,3.79,4.36,1.58,0,2.81-.6,3.7-1.8.89-1.2,1.33-2.34,1.33-3.42v-10.18c0-.35.16-.53.49-.53h1.88c.33,0,.49.18.49.53v13.59c0,1.08.38,1.69,1.13,1.84.3.08.45.29.45.64v1.05h0Z"/>
        <path class="st0" d="M178.52,131.76c-.3,0-.45-.16-.45-.49v-1.28c0-.35.16-.53.49-.53h2.14v-2.93c0-1.95.5-3.5,1.5-4.64s2.48-1.71,4.43-1.71c1.7,0,3.1.48,4.21,1.43.25.18.3.41.15.71l-.64,1.24c-.13.28-.3.3-.53.08-.85-.7-1.83-1.05-2.93-1.05s-1.88.36-2.48,1.07-.9,1.71-.9,2.99v2.82h6.12c.33,0,.49.18.49.53v1.28c0,.33-.15.49-.45.49h-6.16v15.28c0,.35-.18.53-.53.53h-1.8c-.33,0-.49-.18-.49-.53v-15.28h-2.18Z"/>
        <path class="st0" d="M196.25,145.33c-1.43-1.64-2.14-3.91-2.14-6.82s.71-5.18,2.14-6.82c1.43-1.64,3.35-2.46,5.78-2.46s4.36.82,5.8,2.46c1.44,1.64,2.16,3.91,2.16,6.82s-.71,5.18-2.14,6.82c-1.43,1.64-3.37,2.46-5.82,2.46s-4.36-.82-5.78-2.46ZM205.76,143.62c.94-1.18,1.41-2.88,1.41-5.11s-.47-3.93-1.41-5.11c-.94-1.18-2.18-1.76-3.74-1.76s-2.76.59-3.7,1.76-1.41,2.88-1.41,5.11.46,3.93,1.39,5.11,2.17,1.76,3.72,1.76,2.8-.59,3.74-1.76Z"/>
        <path class="st0" d="M216.9,133.45c0-1.1-.39-1.71-1.16-1.84-.25-.08-.38-.23-.38-.45v-1.2c0-.4.41-.6,1.24-.6.78,0,1.43.23,1.97.69s.81,1.17.81,2.12v1.2c.33-1.2.96-2.19,1.92-2.97s2.23-1.16,3.83-1.16c.63,0,1.28.1,1.95.3.28.13.35.3.23.53l-.79,1.76c-.15.28-.34.36-.56.26-.48-.18-1-.26-1.58-.26-1.45,0-2.58.57-3.4,1.71-.81,1.14-1.23,2.37-1.26,3.7v9.8c0,.35-.15.53-.45.53h-1.84c-.35,0-.53-.18-.53-.53v-13.59h0Z"/>
        <path class="st0" d="M259.33,143.59c0,1.23.36,1.84,1.09,1.84.3,0,.45.2.45.6v1.05c0,.4-.44.6-1.31.6-2.08,0-3.12-1.25-3.12-3.76v-7.62c0-1.4-.35-2.53-1.05-3.38s-1.75-1.28-3.15-1.28c-1.33,0-2.38.49-3.15,1.46-.78.98-1.23,2.12-1.35,3.42v7.06c0,1.23.36,1.84,1.09,1.84.3,0,.45.2.45.6v1.05c0,.4-.43.6-1.28.6-2.08,0-3.12-1.25-3.12-3.76v-7.62c0-1.4-.36-2.53-1.07-3.38-.71-.85-1.77-1.28-3.17-1.28-1.5,0-2.67.59-3.49,1.76-.83,1.18-1.24,2.45-1.24,3.83v9.8c0,.35-.15.53-.45.53h-1.84c-.35,0-.53-.18-.53-.53v-13.67c0-1.05-.38-1.64-1.13-1.76-.28-.05-.41-.26-.41-.64v-1.05c0-.38.43-.56,1.28-.56.78,0,1.43.24,1.97.73s.81,1.16.81,2.01v1.2c.33-1.18.97-2.15,1.93-2.91s2.25-1.15,3.85-1.15,2.78.36,3.76,1.09,1.66,1.69,2.07,2.89c.53-1.25,1.2-2.23,2.03-2.93.83-.7,2.07-1.05,3.72-1.05,2.18,0,3.79.66,4.83,1.97,1.04,1.31,1.56,3.01,1.56,5.09v7.28h0Z"/>
        <path class="st0" d="M281.79,147.08c0,.38-.43.56-1.28.56s-1.53-.23-2.05-.69c-.51-.46-.77-1.16-.77-2.08v-.56c-1.23,2.33-3.34,3.49-6.35,3.49-1.8,0-3.21-.42-4.22-1.26s-1.52-1.97-1.52-3.4c0-3.25,2.34-4.88,7.02-4.88h4.81v-2.7c0-2.6-1.38-3.91-4.13-3.91-1.3,0-2.31.29-3.02.86-.71.58-1.07,1.34-1.07,2.29,0,.45.06.84.19,1.16.03.13,0,.22-.08.28-.08.06-.2.09-.38.09h-1.43c-.65,0-.98-.66-.98-1.99,0-1.5.6-2.73,1.8-3.68s2.88-1.43,5.03-1.43c4.58,0,6.87,2.13,6.87,6.38v7.92c0,1.15.36,1.78,1.09,1.88.3.05.45.2.45.45v1.2ZM277.43,140.29h-4.81c-1.33,0-2.35.23-3.06.68s-1.07,1.09-1.07,1.92.32,1.51.96,1.97c.64.46,1.51.69,2.61.69,1.25,0,2.32-.38,3.21-1.13s1.47-1.5,1.75-2.25l.41-1.09v-.79h0Z"/>
        <path class="st0" d="M314.95,147.12c0,.38-.43.56-1.28.56-.8,0-1.47-.24-2.01-.71s-.81-1.15-.81-2.03v-.64c-.65,1.2-1.44,2.08-2.37,2.63-1.03.58-2.22.86-3.57.86-2,0-3.71-.78-5.13-2.33-1.41-1.55-2.12-3.84-2.12-6.87s.71-5.5,2.14-7.04c1.43-1.54,3.23-2.31,5.41-2.31.73,0,1.41.09,2.05.28s1.14.39,1.5.62.69.49,1,.81.5.54.6.69.18.28.23.38v-11.19c0-.35.16-.53.49-.53h1.8c.35,0,.53.18.53.53v22.61c0,1.23.36,1.89,1.09,1.99.3.08.45.24.45.49v1.2h0ZM310.59,135.41c-.03-.18-.12-.44-.28-.79s-.42-.76-.77-1.24-.88-.88-1.58-1.22-1.49-.51-2.37-.51c-1.48,0-2.7.59-3.66,1.78-.96,1.19-1.45,2.9-1.45,5.13s.49,3.92,1.48,5.09c.99,1.16,2.21,1.75,3.66,1.75.9,0,1.7-.19,2.38-.56.69-.38,1.2-.85,1.54-1.43.34-.58.58-1.04.73-1.39.15-.35.25-.65.3-.9v-5.71h0Z"/>
        <path class="st0" d="M323.13,138.52v.38c.08,2.35.67,4.02,1.78,5.01s2.37,1.48,3.77,1.48c1.8,0,3.27-.66,4.39-1.99.33-.35.56-.45.71-.3l.98,1.01c.23.23.26.45.11.68-1.48,2-3.65,3-6.53,3-2.28,0-4.19-.76-5.75-2.27-1.55-1.51-2.33-3.85-2.33-7s.69-5.43,2.07-6.97c1.38-1.54,3.34-2.31,5.9-2.31,2.38,0,4.11.73,5.18,2.2,1.08,1.46,1.61,3.61,1.61,6.44,0,.43-.21.64-.64.64h-11.27ZM332.33,136.53c0-1.48-.34-2.66-1.01-3.55s-1.75-1.33-3.23-1.33c-1.35,0-2.46.4-3.32,1.2s-1.38,2.03-1.56,3.68h9.12Z"/>
        <path class="st0" d="M357.19,147.57c-.25,0-.44-.19-.56-.56l-6.42-16.94c-.08-.15-.06-.29.06-.41.11-.13.26-.19.43-.19h1.99c.3,0,.5.14.6.41l5.14,14.46,5.26-14.46c.1-.28.3-.41.6-.41h1.8c.18,0,.32.06.43.19s.13.26.06.41l-6.42,16.94c-.13.38-.31.56-.56.56h-2.4Z"/>
        <path class="st0" d="M375.44,125.14c-.4.39-.89.58-1.46.58s-1.06-.19-1.46-.58-.6-.86-.6-1.41.2-1.06.6-1.45.89-.58,1.46-.58,1.06.19,1.46.58.6.87.6,1.45-.2,1.02-.6,1.41ZM376.87,147.12c0,.38-.44.56-1.31.56-2.05,0-3.08-1.25-3.08-3.76v-14.08c0-.33.16-.49.49-.49h1.84c.35,0,.53.18.53.53v13.71c0,1.13.36,1.74,1.09,1.84.3.08.45.24.45.49v1.2h0Z"/>
        <path class="st0" d="M388.7,147.57c-.25,0-.44-.19-.56-.56l-6.42-16.94c-.08-.15-.06-.29.06-.41.11-.13.26-.19.43-.19h1.99c.3,0,.5.14.6.41l5.14,14.46,5.26-14.46c.1-.28.3-.41.6-.41h1.8c.18,0,.32.06.43.19s.13.26.06.41l-6.42,16.94c-.13.38-.31.56-.56.56h-2.4Z"/>
        <path class="st0" d="M406.95,125.14c-.4.39-.89.58-1.46.58s-1.06-.19-1.46-.58-.6-.86-.6-1.41.2-1.06.6-1.45.89-.58,1.46-.58,1.06.19,1.46.58.6.87.6,1.45-.2,1.02-.6,1.41ZM408.37,147.12c0,.38-.44.56-1.31.56-2.05,0-3.08-1.25-3.08-3.76v-14.08c0-.33.16-.49.49-.49h1.84c.35,0,.53.18.53.53v13.71c0,1.13.36,1.74,1.09,1.84.3.08.45.24.45.49v1.2h0Z"/>
        <path class="st0" d="M415.06,133.45c0-1.1-.39-1.71-1.16-1.84-.25-.08-.38-.23-.38-.45v-1.2c0-.4.41-.6,1.24-.6.78,0,1.43.23,1.97.69.54.46.81,1.17.81,2.12v1.2c.33-1.2.96-2.19,1.92-2.97s2.23-1.16,3.83-1.16c.63,0,1.28.1,1.95.3.28.13.35.3.23.53l-.79,1.76c-.15.28-.34.36-.56.26-.48-.18-1-.26-1.58-.26-1.45,0-2.58.57-3.4,1.71-.81,1.14-1.23,2.37-1.26,3.7v9.8c0,.35-.15.53-.45.53h-1.84c-.35,0-.53-.18-.53-.53v-13.59h0Z"/>
      </g>
    </g>
  </g>
</svg>