<?xml version="1.0" encoding="UTF-8"?>
<svg id="Capa_1" xmlns="http://www.w3.org/2000/svg" version="1.1" viewBox="0 0 500 169.55">
  <!-- Generator: Adobe Illustrator 29.0.1, SVG Export Plug-In . SVG Version: 2.1.0 Build 192)  -->
  <defs>
    <style>
      .st0 {
        fill: #999;
      }
    </style>
  </defs>
  <g id="Grupo_3">
    <path id="Trazado_1" class="st0" d="M334.59,51.35l-18.41,51.32-18.53-51.32h-13.13l-18.99,51.88-18.53-51.88h-21.52l32.42,89.63h13.76l19.34-49.91,18.53,49.91h13.9l32.73-89.63h-21.56Z"/>
    <path id="Trazado_2" class="st0" d="M118.93,51.35l-18.53,51.32-18.53-51.32h-13.02l-19.04,51.88-18.39-51.88H9.91l32.42,89.63h13.76l19.25-49.91,18.57,49.91h13.9l32.75-89.63h-21.63Z"/>
    <path id="Trazado_3" class="st0" d="M206.7,51.35h-35.46v19.92h15.54v69.71h19.92v-69.71h15.54v-19.92h-15.54Z"/>
    <g id="Grupo_2">
      <g id="Grupo_1">
        <path id="Trazado_4" class="st0" d="M392.4,50.51c8.13-.02,16.12,2.1,23.16,6.16,7.06,3.93,12.91,9.71,16.93,16.72,4,6.91,6.1,14.76,6.07,22.74.07,8.13-2.05,16.12-6.11,23.16-3.94,6.99-9.7,12.79-16.68,16.77-7.09,4.03-15.12,6.11-23.28,6.04-12.06.17-23.66-4.68-32.01-13.39-8.71-8.51-13.51-20.25-13.25-32.42-.28-12.99,5.19-25.45,14.96-34.02,8.15-7.66,18.93-11.9,30.11-11.83M392.65,69.11c-6.88-.17-13.5,2.6-18.2,7.62-4.93,5.26-7.55,12.27-7.27,19.48-.34,7.31,2.26,14.45,7.2,19.85,4.72,5.01,11.35,7.76,18.23,7.55,6.92.19,13.6-2.59,18.34-7.64,4.96-5.33,7.6-12.41,7.32-19.69.3-7.21-2.3-14.25-7.2-19.55-4.77-5.02-11.47-7.76-18.39-7.53"/>
        <path id="Trazado_5" class="st0" d="M470.17,51.35h15.54v19.92h-15.54v49.79h-19.92v-49.79h-15.49v-19.92h35.41Z"/>
        <rect id="Rectángulo_1" class="st0" x="470.17" y="121.06" width="19.92" height="19.92"/>
        <rect id="Rectángulo_2" class="st0" x="145.21" y="51.32" width="19.92" height="89.65"/>
        <rect id="Rectángulo_3" class="st0" x="145.24" y="27.49" width="19.92" height="19.92"/>
      </g>
    </g>
  </g>
</svg>