<?xml version="1.0" encoding="UTF-8"?>
<svg id="Capa_1" xmlns="http://www.w3.org/2000/svg" version="1.1" viewBox="0 0 328.19 363.08">
  <!-- Generator: Adobe Illustrator 29.0.1, SVG Export Plug-In . SVG Version: 2.1.0 Build 192)  -->
  <defs>
    <style>
      .st0, .st1 {
        fill: #fff;
      }

      .st1 {
        opacity: .8;
      }

      .st2 {
        fill: #999;
      }

      .st3 {
        fill: #097752;
      }
    </style>
  </defs>
  <path class="st0" d="M164.03,26.56c82.3,0,155.06,66.35,155.06,155.46s-73.99,154.5-155.06,154.5S9.1,272.31,9.1,182.02,81.98,26.56,164.03,26.56Z"/>
  <path class="st2" d="M164.04,33.45C85.63,33.45,15.99,95.72,15.99,182s70.78,147.63,148.05,147.63,148.17-63.13,148.17-147.63S242.68,33.45,164.04,33.45ZM248.8,178.95l33.31-31.35c3.7,15.86,4.74,17.15,4.74,34.18,0,11.47-1.47,22.27-4.17,32.34l-33.88-35.17Z"/>
  <g>
    <path class="st0" d="M262.21,214.93l-26.06-27.23v27.26h-16.93v-68.64h17.04v24.92l38.42-43.23c-21.51-42.09-61.46-69.21-110.62-69.21-73.68,0-122.66,61.86-122.66,122.99,0,76.02,64.38,122.56,122.65,122.56,49.4,0,103-33.23,118.43-89.41h-20.26ZM99.71,214.92h-46.68v-68.67h16.97v55.18h29.71v13.49ZM127.27,214.89h-16.98v-68.65h16.98v68.65ZM118.81,135.86c-6.58,0-11.92-5.43-11.92-12.13s5.34-12.13,11.92-12.13,11.92,5.43,11.92,12.13-5.33,12.13-11.92,12.13ZM202.66,214.87h-18.91l-23.95-46.73v46.73h-15.89v-68.55h18.85l23.57,47.08.02-47.08h16.31v68.55Z"/>
    <path class="st1" d="M282.67,214.12h.01s-.21.8-.21.8c.07-.26.16-.54.2-.8Z"/>
    <path class="st3" d="M281.77,111.81h0s.03.06.05.09l-.04-.09h-.01Z"/>
    <path class="st3" d="M292.04,133.39l-.04-.09s.03.06.04.1h0Z"/>
  </g>
</svg>