<?xml version="1.0" encoding="UTF-8"?>
<svg id="Capa_1" xmlns="http://www.w3.org/2000/svg" version="1.1" viewBox="0 0 328.19 363.08">
  <!-- Generator: Adobe Illustrator 29.0.1, SVG Export Plug-In . SVG Version: 2.1.0 Build 192)  -->
  <defs>
    <style>
      .st0 {
        fill: #fff;
      }

      .st1 {
        fill: #999;
      }
    </style>
  </defs>
  <g id="Capa_11" data-name="Capa_1">
    <g>
      <polygon class="st1" points="311.33 7.28 16.86 7.28 16.86 301.75 186.59 301.75 195.85 292.49 302.07 292.49 302.07 186.26 311.33 177 311.33 7.28"/>
      <g>
        <g>
          <polygon class="st1" points="299.99 173.6 299.99 19.18 27.82 19.18 27.82 291.54 182.05 291.54 299.99 173.6"/>
          <g>
            <path class="st0" d="M202.84,121.44v-3.78h-29.11v3.78h1.89c3.02,0,4.91.57,6.05,1.51.76.76,1.13,2.08,1.13,3.78v47.82c0,5.1-.76,8.32-2.46,10.02-1.13,1.13-2.65,1.7-4.73,1.7s-4.16-.95-6.8-2.27c-.57-.38-1.13-.57-1.89-.95-.38-.19-1.13-.38-2.08-.38s-2.46.38-3.21,1.13c-.76.76-1.13,1.7-1.13,2.84,0,3.02,3.78,5.1,9.07,5.1,6.8,0,12.29-1.89,16.25-5.86,5.29-5.29,7.94-13.99,7.94-26.46v-32.51c0-3.21,1.13-5.29,7.18-5.29h1.89v-.19Z"/>
            <path class="st0" d="M220.23,144.68l7.75-16.82,7.56,16.82h-15.31ZM263.51,169.44c-4.54,0-5.67-2.08-7.75-6.62l-20.22-45.36h-12.1l.76,1.13c.38.57.38,1.13.38,1.32,0,.38,0,1.32-.95,2.84l-18.33,40.26c-2.08,4.35-2.84,6.05-9.07,6.24h-.76v3.97h24.76v-4.16h-1.13c-1.13,0-2.08.19-3.02.19-2.65,0-4.16-.38-4.91-1.13-.38-.38-.57-.76-.57-1.32s0-.95.76-2.65l6.8-14.55h19.66c1.13,2.46,6.62,14.55,6.62,14.55.76,1.7.95,2.65.95,2.84,0,.57,0,.76-.38,1.13-.76.76-2.65,1.13-5.67,1.13h-4.54v3.97h30.43v-3.97h-1.89l.19.19Z"/>
            <path class="st0" d="M134.61,144.68l7.75-16.82,7.56,16.82h-15.31ZM153.7,169.63h-4.35v3.97h30.43v-3.97h-1.89c-4.54,0-5.67-2.08-7.75-6.62l-20.22-45.36h-12.1l.76,1.13c.38.57.38,1.13.38,1.32,0,.38,0,1.32-.95,2.84l-15.88,34.97c-3.78,7.18-11.91,11.34-23.25,11.34s-14.74-2.46-19.66-7.37c-4.73-4.73-7.18-10.96-7.18-18.71s2.65-12.29,7.56-16.44c4.54-3.78,10.96-5.86,17.58-5.86,10.02,0,17.58,4.35,22.3,13.04v.38h4.16l-1.13-14.18h-.95c-.76.38-1.32.38-1.89.38-.95,0-1.89,0-2.84-.38h-.95c-6.99-1.51-13.8-2.84-19.66-3.02-11.34-.38-21.36,3.97-28.73,12.29-4.73,5.29-6.99,11.15-6.99,17.39s4.16,15.12,11.53,20.22c6.62,4.54,15.12,6.8,25.89,6.8h36.67v-4.16h-1.13c-1.13,0-2.08.19-3.02.19-2.65,0-4.16-.38-4.91-1.13-.38-.38-.57-.76-.57-1.32s0-.95.76-2.65l6.8-14.55h19.66c1.13,2.46,6.62,14.55,6.62,14.55.76,1.7.95,2.65.95,2.84,0,.57,0,.76-.38,1.13-.76.76-2.65,1.13-5.67,1.13"/>
            <path class="st0" d="M185.07,66.81l7.56,16.82h-15.31s7.75-16.82,7.75-16.82ZM177.14,108.2h-1.13c-1.13,0-2.08.19-3.02.19-2.65,0-4.16-.38-4.91-1.13-.38-.38-.57-.76-.57-1.32s0-.95.76-2.65l6.8-14.55h19.85c1.13,2.46,6.62,14.55,6.62,14.55.76,1.7.95,2.65.95,2.84,0,.57,0,.76-.38,1.13-.76.76-2.65,1.13-5.67,1.13h-4.35v3.97h30.43v-3.97h-1.89c-4.54,0-5.67-2.08-7.94-6.62l-20.22-45.36h-12.1l.76,1.13c.38.57.38,1.13.38,1.32,0,.38,0,1.32-.95,2.84l-16.44,36.29s-3.78,9.83-12.29,9.83h-13.04c-2.65,0-4.16-.38-4.91-1.13s-1.13-2.08-1.13-4.35v-36.29c0-3.4,1.32-5.48,7.75-5.48s1.7,0,2.65,0h.95v-3.97h-31.75v3.97h1.89c3.02,0,4.91.57,6.05,1.7.76.76,1.13,2.08,1.13,3.78v36.67c0,1.7-.38,2.84-1.13,3.59-1.13,1.13-3.02,1.51-6.05,1.51h-1.89v4.16h64.83v-4.16.38Z"/>
            <polygon class="st1" points="191.12 282.47 290.92 282.47 290.92 182.67 191.12 282.47"/>
            <path class="st0" d="M72.81,205.17c-.76-2.27-1.51-3.59-2.46-3.59-1.7,0-4.16,4.73-4.16,10.96s.38,2.08.95,2.08c.95,0,2.46-1.7,4.73-4.73l.95-4.91v.19ZM64.3,218.96c-1.89,0-3.4-1.89-3.4-5.29s1.7-7.18,4.91-10.77c2.08-2.27,4.16-3.4,5.29-3.4s1.51.38,2.46,1.32l1.7-7.75v-.76c0-.38,0-.57-.38-.57s-.76,0-1.51.38l-.57-1.13c4.35-1.89,6.8-2.84,7.37-2.84s.76.38.76.57v1.32l-5.1,24.57v.38c0,.19,0,.38.38.38s1.32-.76,2.46-2.27l.76.76c-2.46,3.59-4.73,5.29-6.62,5.29s-1.89-.76-1.89-2.46,0-2.08.57-3.78c-3.02,4.16-5.29,6.24-6.8,6.24"/>
            <path class="st0" d="M92.27,202.9c0-1.13-.38-1.7-1.32-1.7-1.51,0-2.65,2.46-3.78,7.56,3.21-.76,5.1-3.21,5.1-5.86M86.41,219.15c-3.4,0-5.1-2.08-5.1-6.05s1.32-6.62,3.78-9.45c2.46-2.84,5.1-4.16,7.56-4.16s3.97,1.51,3.97,3.4c0,3.21-3.21,5.29-9.83,6.99,0,.95-.19,1.7-.19,2.27,0,2.46,1.13,3.97,3.21,3.97s3.02-.76,4.91-1.89l.57.76c-3.4,2.65-6.24,3.97-8.88,3.97"/>
            <path class="st0" d="M120.25,202.33h-.38c-4.35,0-7.75,4.35-7.75,9.45s.95,3.02,1.89,3.02,1.51-.57,2.65-1.51l1.7-1.51,1.89-9.26v-.19ZM115.71,215.75c-2.27,2.08-3.59,3.02-4.91,3.02s-2.84-1.51-2.84-4.35c0-4.73,2.46-8.88,6.8-12.29,2.46-1.89,5.48-2.84,8.88-2.84s1.32,0,2.27,0l-3.21,14.55v.95q0,.38.38.38c.38,0,1.32-.76,2.84-2.27l.76.76c-3.21,3.02-5.29,4.73-6.99,4.73s-2.08-.95-2.08-2.84,0-1.51.19-2.46l-2.27,2.08.19.57Z"/>
            <path class="st0" d="M142.36,204.6c0-.57-.19-.76-.57-.76-.95,0-2.65,2.27-5.86,6.24l-1.32,6.05c-.57,2.27-.57,2.65-2.27,2.65h-1.7c-.95,0-1.32-.38-1.32-.57s0-.95.19-1.7l4.91-23.06v-.95c0-.57,0-.95-.57-.95s-.95,0-1.51.38l-.38-1.13c4.54-1.7,7.18-2.84,7.75-2.84s.57.19.57.57v.76l-3.78,17.77c3.78-5.1,7.18-7.56,9.45-7.56s2.08.95,2.08,2.65,0,1.32-.38,2.08l-2.65,9.83v.95c0,.38,0,.57.38.57s1.51-.95,3.02-2.84l.95.76c-2.65,3.59-4.91,5.29-7.37,5.29s-2.08-.76-2.08-2.27.19-2.08.57-3.4l1.89-7.56v-1.32"/>
            <path class="st0" d="M158.8,217.26c1.89,0,4.54-4.16,4.54-9.83s-.95-5.86-2.46-5.86-4.35,3.97-4.35,10.21.95,5.48,2.46,5.48M155.59,203.09c2.65-2.27,5.48-3.4,7.75-3.4s5.1,2.27,5.1,6.43-.95,5.48-2.65,7.94c-2.65,3.4-6.24,5.29-9.64,5.29s-5.1-2.27-5.1-6.62,1.51-7.18,4.54-9.83"/>
            <path class="st0" d="M170.71,205.35c2.84-3.97,5.29-6.05,6.8-6.05s1.32.57,1.32,1.89-.38,4.16-1.13,8.32h0c2.65-6.62,4.54-10.02,6.99-10.02s1.7.57,1.7,1.89c0,2.27-.95,3.59-2.46,3.59s-.76,0-1.13,0c-2.46,0-4.16,3.97-5.86,11.91v1.13c-.38.57-.76.95-1.51.95h-2.27c-.95,0-1.32-.19-1.32-.76s0-.19,0-.38l1.51-9.45c.38-2.08.57-3.4.57-3.78s0-.76-.19-.76c-.38,0-1.13.76-2.27,2.27l-.95-.57.19-.19Z"/>
            <path class="st0" d="M186.21,205.35c2.84-3.97,5.29-6.05,6.8-6.05s1.32.57,1.32,1.89-.38,4.16-1.13,8.32h0c2.65-6.62,4.54-10.02,6.99-10.02s1.7.57,1.7,1.89c0,2.27-.95,3.59-2.46,3.59s-.76,0-1.13,0c-2.46,0-4.16,3.97-5.86,11.91v1.13c-.38.57-.76.95-1.51.95h-2.27c-.95,0-1.32-.19-1.32-.76s0-.19,0-.38l1.51-9.45c.38-2.08.57-3.4.57-3.78s0-.76-.19-.76c-.38,0-1.13.76-2.27,2.27l-.95-.57.19-.19Z"/>
            <path class="st0" d="M207.19,217.26c1.89,0,4.54-4.16,4.54-9.83s-.95-5.86-2.46-5.86-4.35,3.97-4.35,10.21.95,5.48,2.27,5.48M203.98,203.09c2.65-2.27,5.48-3.4,7.75-3.4s5.1,2.27,5.1,6.43-.95,5.48-2.65,7.94c-2.65,3.4-6.24,5.29-9.64,5.29s-5.1-2.27-5.1-6.62,1.51-7.18,4.54-9.83"/>
            <path class="st0" d="M58.63,258.09c2.27-.19,3.4-.57,4.35-2.08.57-.95,1.51-2.84,2.46-6.05.57-1.89.76-3.78.76-5.86,0-6.99-.95-10.58-2.08-10.58s-1.32.57-2.08,1.7l-1.13-.57c1.89-3.21,4.16-5.1,6.24-5.1s4.16,3.97,4.16,11.34,0,3.59-.38,6.62c2.65-6.05,4.35-9.83,4.35-12.1s-.95-1.89-.95-3.02c0-1.7,1.32-2.84,3.02-2.84s2.84,1.13,2.84,2.65c0,2.84-3.02,6.62-6.8,12.85-3.97,6.8-5.48,10.77-5.48,11.72s.76.95,2.27,1.13v1.13h-11.91v-1.13l.38.19Z"/>
            <path class="st0" d="M89.63,243.91c1.32,0,2.27.95,3.59,2.08.95.76,1.7,1.13,2.46,1.13s1.32-.38,1.32-1.32-.95-1.89-2.46-3.4c-2.27-2.46-3.78-3.97-3.78-6.43s3.4-6.05,7.37-6.05,3.78,1.13,3.78,3.02-.95,2.65-2.46,2.65-1.7-.57-2.27-1.51-.57-1.89-1.7-1.89-1.13.57-1.13,1.32c0,1.32,1.32,2.65,3.21,4.73,1.32,1.51,2.65,2.65,2.65,4.91,0,3.59-3.21,6.43-8.32,6.43s-4.35-1.13-4.35-2.84.95-2.65,2.46-2.65"/>
            <path class="st0" d="M112.31,233.14c0-1.13-.38-1.7-1.32-1.7-1.51,0-2.65,2.46-3.78,7.56,3.21-.76,5.1-3.21,5.1-5.86M106.64,249.39c-3.4,0-5.1-2.08-5.1-6.05s1.32-6.62,3.78-9.45c2.46-2.84,5.1-4.16,7.56-4.16s3.97,1.32,3.97,3.4c0,3.21-3.21,5.29-9.83,6.99,0,.95-.19,1.7-.19,2.27,0,2.46,1.13,3.97,3.21,3.97s3.02-.76,4.91-1.89l.57.76c-3.4,2.65-6.24,3.97-8.88,3.97"/>
            <path class="st0" d="M115.9,254.87c0,1.7,2.27,3.21,5.86,3.21s4.91-.76,4.91-1.51c0-1.32-3.21-1.89-6.99-5.48-2.46.76-3.78,2.27-3.78,3.97M124.59,244.1c.76,0,1.32-.57,1.89-1.7,1.13-2.46,1.7-5.1,1.7-7.37s-.57-3.59-1.89-3.59-3.97,3.59-3.97,8.88.95,3.97,2.27,3.97M117.22,239.38c0-2.46,1.32-5.1,3.97-6.99,2.08-1.7,4.91-2.65,7.75-2.65s3.4.19,5.48.57v2.65h-2.27c.57,1.13.95,2.27.95,3.59,0,3.4-2.27,6.62-6.62,8.32-2.27.95-3.97.95-3.97,1.89s1.13,1.51,3.4,2.84c3.02,1.89,5.29,3.02,5.29,5.29s-3.97,4.54-10.4,4.54-9.83-1.7-9.83-3.4,2.65-3.78,7.94-6.05c0-.38-.19-.76-.19-1.13,0-1.32.95-2.46,2.84-3.02-2.84-1.13-4.35-3.4-4.35-6.24"/>
            <path class="st0" d="M137.26,249.58c-1.13,0-1.7-.76-1.7-2.08s0-1.51.38-3.02l1.7-8.51c0-.95.19-1.32.19-1.51,0-.38,0-.57-.38-.57s-.95.76-2.08,2.46l-.95-.57c2.65-3.78,4.35-5.67,6.8-5.67s2.08.76,2.08,2.27-.19,1.89-.57,3.78l-1.51,6.8v1.32c0,.57.19.76.57.76.76,0,3.21-2.65,6.05-8.32l.76-3.4c.57-2.27.57-2.65,2.27-2.65h1.51c.95,0,1.32.19,1.32.57s0,1.13-.19,1.7l-2.27,11.15v.95c0,.38,0,.57.38.57.57,0,1.32-.76,2.65-2.46l.76.76c-3.02,3.97-5.86,5.86-7.75,5.86s-1.7-.57-1.7-1.89,0-1.32.19-2.27l.95-4.91c-4.16,6.24-7.75,9.07-9.64,9.07"/>
            <path class="st0" d="M155.59,235.78c2.84-3.97,5.29-6.05,6.8-6.05s1.32.57,1.32,1.89-.38,4.16-1.13,8.32h0c2.65-6.62,4.54-10.02,6.99-10.02s1.7.57,1.7,1.89c0,2.46-.95,3.59-2.46,3.59s-.76,0-1.13,0c-2.46,0-4.16,3.97-5.86,11.91v1.13c-.38.57-.76.95-1.51.95h-2.27c-.95,0-1.32-.19-1.32-.76s0-.19,0-.38l1.51-9.45c.38-2.08.57-3.4.57-3.78s0-.76-.19-.76c-.38,0-1.13.76-2.27,2.27l-.95-.57.19-.19Z"/>
            <path class="st0" d="M176.57,247.69c1.89,0,4.54-4.16,4.54-9.83s-.95-5.86-2.46-5.86-4.35,3.97-4.35,10.21.95,5.48,2.46,5.48M173.36,233.33c2.65-2.27,5.48-3.4,7.75-3.4s5.1,2.27,5.1,6.43-.95,5.48-2.65,7.94c-2.65,3.4-6.24,5.29-9.64,5.29s-5.1-2.27-5.1-6.62,1.51-7.18,4.54-9.83"/>
          </g>
        </g>
        <g>
          <path class="st1" d="M132.91,336.52v-14.18c8.88,0,12.29-.38,13.8,10.4h.95v-12.1h-24.19v1.7h4.16v31.38h-4.73v1.7h24.95v-12.85h-1.32c-1.32,9.64-3.78,11.15-10.58,11.15h-3.21v-15.12h1.89c3.02,0,4.91,1.89,5.48,7.18h1.13v-15.69h-1.13s-.19,6.8-5.67,6.62h-1.7l.19-.19Z"/>
          <path class="st1" d="M123.08,337.09h-13.61v1.51h4.73v11.34c-.76,2.84-4.91,3.97-6.24,3.97-8.69,0-8.13-12.85-8.13-16.25s-.38-16.25,8.13-16.25,9.07,5.86,10.4,11.15h.95v-12.66s-4.16,3.02-4.16,2.84c0,0-1.89-2.84-7.18-2.84-10.4,0-14.18,10.4-13.99,17.58,0,6.62,3.02,17.77,13.99,17.77s5.86-1.7,7.18-3.78l4.35,3.4v-16.63h3.78v-1.51l-.19.38Z"/>
          <path class="st1" d="M282.98,342.38c-1.32,9.64-3.78,11.15-10.58,11.15h-.38v-31.38h4.35v-1.7h-14.36v1.7h4.35v31.38h-3.4l-12.85-33.83h-1.89l-10.58,30.81s-.76,2.65-2.65,3.02c-1.7,0-1.51-.76-1.51-1.13v-5.86c0-1.51,0-5.1-1.7-6.8-1.89-1.89-4.91-1.89-4.91-2.08,0,0,7.94-1.7,7.94-9.07s-3.59-7.75-9.64-8.13h-17.2v1.7h4.35v31.38h-4.35v1.7h14.18v-1.7h-4.35v-15.12h5.86c10.21.76-1.7,16.63,11.72,16.63h8.51v-1.7c-.38,0-3.59,0-3.78-2.08,0-1.51,2.08-7.18,2.08-7.18h11.53l3.59,9.26h-3.97v1.7h31.38v-12.85h-1.32l-.38.19ZM223.25,336.71h-5.67v-14.55h7.18c4.16.57,4.35,5.48,4.35,6.99,0,3.78-1.51,7.37-6.05,7.37M242.72,342.76l4.91-14.93,5.29,14.93h-10.4.19Z"/>
          <path class="st1" d="M190.75,322.16c8.88,0,12.29-.38,13.8,10.58h.95v-12.1h-35.34v1.7h.95c1.32,0,4.16,0,4.35,2.65h0v20.03l-16.63-24.38h-9.07v1.7h1.51c1.7,0,4.35,0,4.35,2.65v25.52c0,2.46-3.78,3.4-5.29,3.4h0v1.32h12.29v-1.32c-1.51,0-5.29-.95-5.29-3.4v-22.49c6.62,9.45,18.9,27.22,19.09,27.22h.57v-30.24c0-2.65,3.21-2.65,4.35-2.65h4.16v31.38h-4.73v1.7h24.95v-12.85h-1.32c-1.32,9.64-3.78,11.15-10.58,11.15h-3.21v-15.12h1.89c3.02,0,4.91,1.89,5.48,7.18h1.13v-15.69h-1.13s-.19,6.8-5.67,6.62h-1.7v-14.18l.19-.38Z"/>
          <polygon class="st1" points="299.99 322.16 299.99 320.46 285.82 320.46 285.82 322.16 290.35 322.16 290.35 353.53 285.82 353.53 285.82 355.24 299.99 355.24 299.99 353.53 295.64 353.53 295.64 322.16 299.99 322.16"/>
          <path class="st1" d="M77.34,352.02l1.32-.57h0c1.89-.76,2.08-1.13,2.08-2.46v-4.91c1.32,3.59,2.65,6.05,5.29,6.05h2.27c0-.19-.76-.95-.76-.95-.38-.57-.76-.95-.95-1.32,0,0-.19-.38-.38-.57-.57-.95-2.08-1.32-3.4-.76-.57-1.13-1.13-2.46-1.7-4.35v-.38c-.19-.19-.38-.57-.57-.76h0c-.38-.95-.95-1.89-1.32-2.65-.57-.76-.95-1.51-1.51-2.08-1.32-1.7-3.21-2.65-5.48-3.02-1.51-.19-2.65-.38-3.97-.38h-.95c-.57,0-1.89,0-3.21-.19-.95,0-1.7,0-2.46-.19v-1.32h8.88c2.27,0,3.97-.95,4.91-3.02,2.27,0,3.97-1.13,4.91-3.02h.38c2.46,0,4.16-1.13,5.1-3.21l.38-.95h-30.24c-2.08,0-3.78,1.32-4.35,3.4h0c-.57-1.32-1.51-2.65-2.65-3.4-1.7-.95-3.59-1.32-5.1-.95-.57,0-.95.38-1.32.57s-.76.57-1.13,1.13c-.38.57-.76,1.13-.95,1.7l-.38.38-.38.76h0c-.38.95-.95,1.7-1.32,2.27s-.38.95-.38,1.13c0,.38.19.57.38.76h0v.76c0,.76.76,1.32,1.51,1.32s1.13-.38,1.7-.57c.19,0,.76-.57.95-.57s.38.19.38.38c0,.57-.76.95-1.51,1.13h-1.32c-.95.19-1.32.76-1.32,1.13s.19.57.38.76h0l.38.38-1.32,2.08c-.95-.95-2.08-1.32-3.02-1.32-.57,0-1.13,0-1.51.57,0,0-.19.19-.38.38h0c-.95,0-1.89.57-2.27,1.13-.38.76-.38,1.89.19,2.84l-3.21.95v15.69h60.48v-3.21h-10.96l-.19-.57ZM85.09,347.68c0,.19.19.38.38.57,0,.19.19.38.38.57-.95,0-1.7-.57-2.27-1.51.57-.19,1.32,0,1.7.38M72.05,334.26c1.89.38,3.59,1.13,4.73,2.65.19.38.57.57.76.95-3.21-.38-4.35-.95-6.24-3.78h.76M70.54,329.53h-6.24c.57-.38.95-1.13,1.32-1.7h8.32c-.76,1.13-1.89,1.7-3.59,1.7M75.45,326.51h-6.24c.57-.57.95-1.13,1.32-1.89h8.32c-.76,1.32-1.89,1.89-3.59,1.89M75.83,321.78h8.32c-.76,1.13-1.89,1.7-3.4,1.7h-6.24c.57-.38.95-.95,1.32-1.7M42.19,322.16c.19-.19.57-.57.95-.76.38-.19.76-.38,1.13-.57h2.08l-2.27,1.32h-1.7M39.54,331.8h1.13c1.32,0,2.65-.57,2.84-1.89,0-.95-.57-1.89-1.51-1.89s-1.13.38-1.7.76c-.38.19-.76.57-.95.57s-.38,0-.38-.19,0,0,0,0l.76-.95-.57-.38s-.38-.19-.38-.38h0c.19-.38.57-.57.76-1.13,0-.19.19-.38.57-.38s.57.19.57.57.19.38.38.38.38,0,.57-.38c0,0,.57-.57.38-.76-.38-.38-1.89.38-1.51-1.13h0c0-.38.95-.95,2.27-.95s.57,0,.95,0h.19l3.21-1.89h0c0,.95-.38,2.08-1.32,2.65h-.38c0,.19.19,1.7.19,1.7-.76.19-1.32.95-1.32,1.7v.95c0,.38,0,.95.19,1.51,0,1.51-2.08,2.46-3.78,2.46h0s-1.13,0-1.51-.38v-.19M31.98,336.52c.19-.38.76-.76,1.51-.57h.57v-.38s0-.19.19-.38c0,0,.38-.19.57-.19.76,0,1.7.57,2.46,1.32.38.38.57.57.76.95v.38l.38.57c.19-.38.57-.76.76-1.13h0l-.19-.38h0l-.19-.38,1.7-2.65h.95c2.27,0,4.73-1.32,4.73-3.59h0c0-.57,0-1.32-.19-1.7v-.76c0-.19.38-.57.76-.57h.76l-.38-1.89c1.13-.76,1.7-2.08,1.7-3.21,1.13.95,1.89,2.46,2.08,3.97,0,.38,0,1.13-.19,1.7v.38h0c-.19,1.13-.57,2.27-.95,2.84v.57l.19.19c.76.57,1.32.76,1.32,1.89s-1.13,2.27-2.27,2.46h-1.51c0,.19,1.32,1.13,1.32,1.13.38.19.57.76.57,1.13,0,.76-.76,1.51-1.51,1.51h-.57v.38c-.57,1.51-1.13,2.27-2.84,2.46v-3.78l-1.13.95c-.38.38-.95.57-1.51.76v-1.32l-7.18-1.89-2.46.57c-.57-.57-.76-1.51-.57-1.7M29.9,352.02l5.1-1.32,5.1,1.32h-10.21ZM40.86,350.89l-5.86-1.51-5.86,1.51v-10.58l5.86-1.51,5.86,1.51v10.58ZM43.7,348.81c-.57.76-.57,1.89-.19,3.21h-1.32v-10.21c.38,0,.95-.19,1.51-.38v2.46h.57c1.13,0,1.89,0,2.65-.57v4.35h0c-1.13,0-2.08.38-2.46,1.13M57.31,349.19c-.38.57-.95,1.51-.57,2.84h-7.75c.76,0,1.51-.19,1.89-.76.57-.57.57-1.32.57-1.7,0,0,0-.19.38-.38l.76-.38-.38-.57c-.57-.95-.38-3.21,0-4.35h0c2.65,0,4.35-.57,6.05-1.13.38,0,.95-.38,1.51-.38h0s.57,0,1.32-.38l2.46,4.16h0c.19.38.38.57,0,1.13l-1.32,1.32-2.08-.38h0c-.95,0-1.89.19-2.46.95M57.87,352.02c-.19-.95,0-1.51.19-2.08.38-.38.95-.57,1.32-.57l2.46.38h.38l1.7-1.89h0c.38-.38,1.13-1.32.19-2.65l-2.27-3.78h1.13s1.13,0,2.27.76c0,.38.38.76.57,1.32.57.95,1.13,2.08,1.13,2.65,0,0,.19.57-.38,1.13l-4.35,4.54h-4.91l.57.19ZM72.62,352.02h-8.13l3.4-3.59c.76-.76.95-1.51.57-2.46,0-.57-.57-1.51-1.13-2.46,1.32.57,3.4,1.13,7.75,1.51.57,0,.57.19.76.76v1.89l-2.08.57c-.76,0-1.32.57-1.7,1.32-.38.76-.19,1.7.19,2.65M73.56,349.94c0-.38.38-.57.76-.57l3.4-.76-.38-3.02h0c0-.38-.38-1.7-1.89-1.7-6.05-.57-7.37-1.32-8.88-2.27h0c-1.51-.95-3.02-.95-3.21-.95-1.7,0-3.78.76-3.97.76-.57,0-.95.38-1.51.38-1.89.57-3.4,1.13-6.24,1.13h-.57v.38c0,.38-.95,3.4,0,5.29-.76.57-.57,1.13-.57,1.13v.95c-.38.38-1.32.38-2.27.38h-.57c-.57.95-1.7,1.13-2.46.95-.38-.95-.38-1.7,0-2.27s1.13-.57,1.51-.57h0c.76,0,1.51-.57,1.51-1.51v-5.29c.19-.38.38-.76.57-1.32,1.32-.19,2.27-1.32,2.27-2.65s0-.95-.38-1.51c1.13-.57,2.27-1.7,2.27-3.4s-.76-2.27-1.51-2.84c.19-.57.57-1.7.76-2.65l1.13-3.78c.38-1.51,1.7-2.46,3.21-2.46h18.52c-.76,1.13-1.89,1.7-3.4,1.7h-11.15l-.57,1.32h10.02c-.76,1.32-1.89,1.89-3.59,1.89h-7.18l-.57,1.32h6.43c-.76,1.13-1.89,1.7-3.59,1.7h-3.97l-.57,1.32h4.16v.76c0,.76-.76,1.51-1.51,1.51s-.57,0-.95-.19c0,0-.38,0-.57-.19l-.95.95s.38,0,.57.19h0c.76.38,1.32.57,1.89.57s1.51-.38,1.89-.76c.76,0,1.89,0,3.02.19,1.32,0,2.65.19,3.21.19h2.46c2.46,4.16,3.78,4.73,8.69,5.29.38.57.76,1.32.95,1.89v7.94h0v.57c0,.19-.95.57-1.13.57l-4.16,1.51c-.57-.76-.76-1.51-.57-2.08"/>
          <polygon class="st1" points="39.54 342.01 35.57 341.06 35.57 342.19 39.54 343.33 39.54 342.01"/>
          <polygon class="st1" points="30.47 343.33 34.25 342.19 34.25 341.06 30.47 342.01 30.47 343.33"/>
          <polygon class="st1" points="30.47 345.97 34.25 344.84 34.25 343.52 30.47 344.65 30.47 345.97"/>
          <polygon class="st1" points="39.54 344.65 35.57 343.52 35.57 344.84 39.54 345.97 39.54 344.65"/>
          <polygon class="st1" points="39.54 347.11 35.57 346.16 35.57 347.49 39.54 348.43 39.54 347.11"/>
          <polygon class="st1" points="30.47 348.43 34.25 347.49 34.25 346.16 30.47 347.11 30.47 348.43"/>
        </g>
      </g>
    </g>
  </g>
</svg>