<?xml version="1.0" encoding="UTF-8"?>
<svg id="Capa_1" xmlns="http://www.w3.org/2000/svg" version="1.1" viewBox="0 0 600 169.55">
  <!-- Generator: Adobe Illustrator 29.0.1, SVG Export Plug-In . SVG Version: 2.1.0 Build 192)  -->
  <defs>
    <style>
      .st0 {
        fill: #999;
      }
    </style>
  </defs>
  <g>
    <path class="st0" d="M275.78,13.18c-42.77,5.73-38.56,73.6-3.7,79.56,25.12,4.32,42.99-5.67,46.03-31.76,3.4-29.45-10.08-52.14-42.33-47.8ZM273.89,76.29c-28.81-14.2-2.71-66.81,21.82-42.86,15.53,15.17,3.02,55.08-21.82,42.86Z"/>
    <path class="st0" d="M106.08,10.86c.81,8.8-4.05,14.53-11.18,14.53-8.18,0-18.46.35-26.22.35-6.06,0-9.62,5.21-7.6,12.7,4.12,15.32,49.14,2.57,44.84,37.19-1.32,10.64-12.79,17.56-22.71,17.56h-41.16v-14.64h32.01c10.56,0,13.55-1.03,13.55-3.82,0-12.87-26.83-14.44-33.4-18.4-13.54-8.17-14.42-33.33-.03-41.57,1.27-.73,5.7-3.9,10.73-3.9h41.16Z"/>
    <path class="st0" d="M215.85,38.3h14.64v64.94c0,7.56-14.13,15.55-21.04,15.55h-32.01c-1.23-24.08,41.51,2.87,38.41-25.61-10.75,3.2-25.68,3.26-33.92-5.4-1.18-1.25-6.31-9.51-6.31-10.15v-39.33c28.33-1.41,2.87,38.66,23.72,44.98,6.22,1.89,16.53-3.82,16.53-9.31v-35.67Z"/>
    <path class="st0" d="M131.65,93.2h-12.76V15.44c0-3.23,9.59-5.81,12.81-4.57v46.53c9.15-7.43,23.51-19.15,23.51-19.15l14.9.08-19.93,19.45,21.76,35.39c-5.29,0-16.67-.13-16.67-.13,0,0-11.38-17.25-17.13-25.89-3.63,2.5-6.45,4.53-6.45,4.53"/>
    <path class="st0" d="M521.36,71.23h34.76c2.01-22.9-8.45-39.19-33.04-33.94-29.31,6.27-19.28,55.89-.8,55.89h35.67c-2.51-21.59-35-.46-36.59-21.95ZM543.31,60.25l-23.78-.02c3.77-16.52,20.34-16.56,23.78.02Z"/>
    <path class="st0" d="M382.33,93.19c-28.11,3.66-2.27-44.16-26.66-45.72-26.31-1.67-.14,50.09-28.22,45.72v-37.5c0-4.86,3.97-8.28,5-9.64,9.11-12.02,29.94-12.85,41.38-3.82,2.46,1.94,8.5,6.44,8.5,13.45v37.5Z"/>
    <path class="st0" d="M406.11,10.86v77.75c0,3.23-9.59,5.81-12.81,4.57V10.86h12.81Z"/>
    <path class="st0" d="M431.72,93.19h-14.64v-54.88c5.12-2.21,14.64,3.42,14.64,8.23v46.65Z"/>
    <path class="st0" d="M431.27,14.97c8.73,8.6-8.81,23.25-15.12,10.54-5.47-11.01,8.58-16.97,15.12-10.54Z"/>
  </g>
  <path class="st0" d="M496.61,93.19c-28.11,3.66-2.27-44.16-26.66-45.72-26.31-1.67-.14,50.09-28.22,45.72v-37.5c0-4.86,3.97-8.28,5-9.64,9.11-12.02,29.94-12.85,41.38-3.82,2.46,1.94,8.5,6.44,8.5,13.45v37.5Z"/>
  <g>
    <path class="st0" d="M43.57,127.04h6.26c3.09,0,7.46.32,11.33,3.59,2.81,2.35,5.25,6.26,5.25,11.79,0,6.45-3.18,9.9-5.39,11.79-2.81,2.39-5.76,3.55-11.24,3.55h-6.22v-30.72ZM46.98,154.54h2.99c2.44,0,5.8-.28,8.8-2.76,2.3-1.93,4.15-4.97,4.15-9.35,0-7.37-5.16-12.16-12.94-12.16h-2.99v24.27Z"/>
    <path class="st0" d="M86.49,138.65h3.32v19.11h-3.32v-2.67c-1.1,1.43-3.18,3.22-6.54,3.22-4.84,0-9.3-3.41-9.3-10.13s4.42-10,9.3-10c3.68,0,5.67,2.03,6.54,3.18v-2.72ZM74.05,148.19c0,4.1,2.3,7.18,6.26,7.18s6.36-3.36,6.36-7.14c0-4.93-3.41-7.09-6.36-7.09-3.27,0-6.26,2.4-6.26,7.05Z"/>
    <path class="st0" d="M99.47,141.69v16.08h-3.32v-16.08h-2.03v-3.04h2.03v-6.91h3.32v6.91h3.32v3.04h-3.32Z"/>
    <path class="st0" d="M120.56,138.65h3.32v19.11h-3.32v-2.67c-1.1,1.43-3.18,3.22-6.54,3.22-4.84,0-9.3-3.41-9.3-10.13s4.42-10,9.3-10c3.68,0,5.67,2.03,6.54,3.18v-2.72ZM108.13,148.19c0,4.1,2.3,7.18,6.26,7.18s6.36-3.36,6.36-7.14c0-4.93-3.41-7.09-6.36-7.09-3.27,0-6.26,2.4-6.26,7.05Z"/>
    <path class="st0" d="M145.11,143.99c-1.75-2.21-4.28-2.85-5.99-2.85-3.55,0-6.77,2.49-6.77,7.14s3.32,7.09,6.72,7.09c1.98,0,4.42-.87,6.17-2.99v3.96c-2.07,1.52-4.28,1.98-6.08,1.98-5.94,0-10.22-4.24-10.22-9.99s4.33-10.13,10.22-10.13c3.04,0,5.02,1.2,5.94,1.84v3.96Z"/>
    <path class="st0" d="M167.25,152.88c-.55,1.06-1.38,2.21-2.35,3.09-1.75,1.57-3.92,2.35-6.36,2.35-4.61,0-9.44-2.9-9.44-9.99,0-5.71,3.5-10.13,9.26-10.13,3.73,0,6.08,1.84,7.23,3.5,1.2,1.7,1.89,4.65,1.8,7.19h-14.88c.05,3.96,2.76,6.49,6.08,6.49,1.57,0,2.81-.46,3.91-1.38.88-.74,1.57-1.7,1.98-2.63l2.76,1.52ZM163.98,146.11c-.55-2.99-2.81-4.97-5.62-4.97s-5.11,2.12-5.62,4.97h11.24Z"/>
    <path class="st0" d="M175.77,157.77h-3.32v-33.58h3.32v17.13c2.26-2.81,5.16-3.13,6.54-3.13,5.99,0,9.3,4.97,9.3,10.13s-3.36,9.99-9.17,9.99c-3.09,0-5.25-1.38-6.68-3.22v2.67ZM188.21,148.32c0-4.7-3.18-7.19-6.26-7.19s-6.36,2.53-6.36,7.14c0,3.91,2.49,7.09,6.4,7.09s6.22-3.22,6.22-7.05Z"/>
    <path class="st0" d="M200.08,141.69v16.08h-3.32v-16.08h-2.03v-3.04h2.03v-6.91h3.32v6.91h3.32v3.04h-3.32Z"/>
    <path class="st0" d="M223.48,152.88c-.55,1.06-1.38,2.21-2.35,3.09-1.75,1.57-3.92,2.35-6.36,2.35-4.61,0-9.44-2.9-9.44-9.99,0-5.71,3.5-10.13,9.26-10.13,3.73,0,6.08,1.84,7.23,3.5,1.2,1.7,1.89,4.65,1.8,7.19h-14.88c.05,3.96,2.76,6.49,6.08,6.49,1.57,0,2.81-.46,3.91-1.38.88-.74,1.57-1.7,1.98-2.63l2.76,1.52ZM220.21,146.11c-.55-2.99-2.81-4.97-5.62-4.97s-5.11,2.12-5.62,4.97h11.24Z"/>
    <path class="st0" d="M228.68,138.65h3.32v2.07c.32-.51,1.75-2.53,4.33-2.53,1.01,0,2.12.37,2.95.78l-1.57,2.99c-.74-.51-1.43-.64-1.93-.64-1.34,0-2.17.55-2.67,1.2-.55.74-1.1,2.03-1.1,5.16v10.09h-3.32v-19.11Z"/>
    <path class="st0" d="M277.49,146.53c-.83,1.15-2.03,2.63-3.92,4.56l5.16,6.68h-4.24l-3.32-4.28c-2.67,2.67-6.4,4.84-9.9,4.84-5.02,0-8.89-3.64-8.89-8.52,0-3.32,1.75-5.34,2.76-6.36,1.61-1.61,4.51-3.41,5.16-3.82-2.07-2.67-3.04-4.51-3.04-6.59,0-3.22,2.26-6.49,6.68-6.49s6.49,3.09,6.49,6.17c0,1.43-.41,3.46-2.86,5.57-.78.69-.51.32-2.49,1.98l6.4,8.24c1.66-1.75,2.63-2.85,3.5-4.05l2.49,2.07ZM262.29,142.15c-2.26,1.38-3.45,2.4-4.33,3.18-.87.78-2.16,2.03-2.16,4.42,0,3.04,2.26,5.43,5.43,5.43s6.72-3.13,7.88-4.24l-6.82-8.8ZM263.12,137.78l2.03-1.57c1.75-1.38,2.07-2.49,2.07-3.55,0-2.16-1.7-3.18-3.32-3.18-1.89,0-3.41,1.43-3.41,3.36,0,1.34.64,2.21,1.24,3.04l1.38,1.89Z"/>
    <path class="st0" d="M317.37,133.82c-.97-.97-2.44-2.12-4.01-2.86-1.61-.74-3.5-1.2-5.3-1.2-7.09,0-12.34,5.71-12.34,12.8,0,8.34,6.77,12.53,12.39,12.53,2.07,0,4.1-.6,5.71-1.43,1.75-.87,2.99-2.03,3.55-2.58v4.24c-3.41,2.44-6.96,2.99-9.26,2.99-9.12,0-15.89-6.91-15.89-15.8s6.86-15.98,16.07-15.98c1.84,0,5.39.23,9.07,3.04v4.24Z"/>
    <path class="st0" d="M326.11,124.19v33.58h-3.32v-33.58h3.32Z"/>
    <path class="st0" d="M331.18,148.28c0-5.8,4.28-10.09,10.13-10.09s10.13,4.28,10.13,10.09-4.33,10.04-10.13,10.04-10.13-4.24-10.13-10.04ZM334.58,148.28c0,4.7,3.32,7.09,6.72,7.09s6.73-2.44,6.73-7.09-3.22-7.14-6.73-7.14-6.72,2.49-6.72,7.14Z"/>
    <path class="st0" d="M359.82,149.8c0,1.34,0,2.9.92,4.1.51.64,1.52,1.47,3.36,1.47s2.86-.83,3.36-1.47c.92-1.2.92-2.76.92-4.1v-11.15h3.32v11.51c0,2.35-.23,4.1-1.75,5.76-1.7,1.8-3.96,2.39-5.85,2.39s-4.15-.6-5.85-2.39c-1.52-1.66-1.75-3.41-1.75-5.76v-11.51h3.32v11.15Z"/>
    <path class="st0" d="M392.61,124.19h3.32v33.58h-3.32v-2.67c-1.1,1.43-3.18,3.22-6.54,3.22-4.84,0-9.3-3.41-9.3-10.13s4.42-10,9.3-10c3.68,0,5.67,2.03,6.54,3.18v-17.18ZM380.17,148.19c0,4.1,2.3,7.18,6.26,7.18s6.36-3.36,6.36-7.14c0-4.93-3.41-7.09-6.36-7.09-3.27,0-6.26,2.4-6.26,7.05Z"/>
    <path class="st0" d="M427.46,133.12c-.41-.83-1.11-1.75-1.8-2.3-.6-.46-1.7-1.06-3.45-1.06-3.04,0-5.16,1.89-5.16,4.74,0,1.2.32,1.89,1.15,2.67.92.92,2.07,1.43,3.22,1.93l2.95,1.29c1.8.78,3.45,1.61,4.74,2.9,1.57,1.57,2.21,3.36,2.21,5.57,0,5.67-4.19,9.44-9.72,9.44-2.03,0-4.56-.41-6.68-2.49-1.52-1.47-2.44-3.59-2.86-5.43l3.32-.92c.23,1.61.97,2.99,1.84,3.92,1.34,1.33,2.86,1.7,4.42,1.7,4.19,0,6.17-2.99,6.17-6.08,0-1.38-.41-2.58-1.52-3.59-.88-.83-2.07-1.38-3.68-2.12l-2.76-1.29c-1.2-.55-2.72-1.2-4.1-2.53-1.34-1.29-2.12-2.72-2.12-5.02,0-4.75,3.64-7.92,8.61-7.92,1.89,0,3.41.37,4.93,1.38,1.24.83,2.3,2.07,2.99,3.41l-2.72,1.8Z"/>
    <path class="st0" d="M453.71,152.88c-.55,1.06-1.38,2.21-2.35,3.09-1.75,1.57-3.92,2.35-6.36,2.35-4.61,0-9.44-2.9-9.44-9.99,0-5.71,3.5-10.13,9.26-10.13,3.73,0,6.08,1.84,7.23,3.5,1.2,1.7,1.89,4.65,1.8,7.19h-14.88c.05,3.96,2.76,6.49,6.08,6.49,1.57,0,2.81-.46,3.91-1.38.88-.74,1.57-1.7,1.98-2.63l2.76,1.52ZM450.44,146.11c-.55-2.99-2.81-4.97-5.62-4.97s-5.11,2.12-5.62,4.97h11.24Z"/>
    <path class="st0" d="M458.91,138.65h3.32v2.07c.32-.51,1.75-2.53,4.33-2.53,1.01,0,2.12.37,2.95.78l-1.57,2.99c-.74-.51-1.43-.64-1.93-.64-1.34,0-2.17.55-2.67,1.2-.55.74-1.1,2.03-1.1,5.16v10.09h-3.32v-19.11Z"/>
    <path class="st0" d="M474.43,138.65l5.71,12.9,5.71-12.9h3.68l-9.4,20.36-9.4-20.36h3.69Z"/>
    <path class="st0" d="M494.69,129.07c1.29,0,2.35,1.06,2.35,2.35s-1.06,2.35-2.35,2.35-2.35-1.06-2.35-2.35,1.06-2.35,2.35-2.35ZM496.35,138.65v19.11h-3.32v-19.11h3.32Z"/>
    <path class="st0" d="M517.58,143.99c-1.75-2.21-4.28-2.85-5.99-2.85-3.55,0-6.77,2.49-6.77,7.14s3.32,7.09,6.72,7.09c1.98,0,4.42-.87,6.17-2.99v3.96c-2.07,1.52-4.28,1.98-6.08,1.98-5.94,0-10.22-4.24-10.22-9.99s4.33-10.13,10.22-10.13c3.04,0,5.02,1.2,5.94,1.84v3.96Z"/>
    <path class="st0" d="M539.73,152.88c-.55,1.06-1.38,2.21-2.35,3.09-1.75,1.57-3.92,2.35-6.36,2.35-4.61,0-9.44-2.9-9.44-9.99,0-5.71,3.5-10.13,9.26-10.13,3.73,0,6.08,1.84,7.23,3.5,1.2,1.7,1.89,4.65,1.8,7.19h-14.88c.05,3.96,2.76,6.49,6.08,6.49,1.57,0,2.81-.46,3.92-1.38.88-.74,1.57-1.7,1.98-2.63l2.76,1.52ZM536.46,146.11c-.55-2.99-2.81-4.97-5.62-4.97s-5.11,2.12-5.62,4.97h11.24Z"/>
    <path class="st0" d="M552.8,143.07c-.46-1.11-1.43-1.93-2.67-1.93s-2.3.69-2.3,2.17c0,1.38.92,1.8,3.09,2.72,2.76,1.15,4.05,2.03,4.79,2.95.83,1.01,1.01,2.03,1.01,3.09,0,4.01-2.9,6.26-6.59,6.26-.78,0-5.07-.09-6.68-4.88l2.86-1.2c.37,1.01,1.47,3.13,3.87,3.13,2.17,0,3.13-1.61,3.13-3.04,0-1.8-1.29-2.4-3.09-3.18-2.3-1.01-3.78-1.75-4.65-2.81-.74-.92-.88-1.84-.88-2.81,0-3.36,2.35-5.34,5.57-5.34,1.01,0,3.73.18,5.25,3.46l-2.72,1.43Z"/>
  </g>
</svg>