<?xml version="1.0" encoding="UTF-8"?>
<svg id="Capa_1" xmlns="http://www.w3.org/2000/svg" version="1.1" viewBox="0 0 700 169.55">
  <!-- Generator: Adobe Illustrator 29.0.1, SVG Export Plug-In . SVG Version: 2.1.0 Build 192)  -->
  <defs>
    <style>
      .st0 {
        fill: #fff;
      }

      .st1 {
        fill: #999;
      }
    </style>
  </defs>
  <g id="Layer_2">
    <g id="IOL_-_originales">
      <path class="st1" d="M84.77,68.6c-8.93,0-16.18,7.24-16.18,16.18s7.25,16.18,16.18,16.18v.04c.55.03,1.09.03,1.64,0,8.95-.45,15.83-8.07,15.38-17.02-.45-8.94-8.07-15.83-17.02-15.38ZM84.77,68.6c-8.93,0-16.18,7.24-16.18,16.18s7.25,16.18,16.18,16.18v.04c.55.03,1.09.03,1.64,0,8.95-.45,15.83-8.07,15.38-17.02-.45-8.94-8.07-15.83-17.02-15.38ZM84.77,0C37.95,0,0,37.96,0,84.78s37.95,84.78,84.77,84.78,84.78-37.96,84.78-84.78S131.6,0,84.77,0ZM43.27,111.96c0,1.38-1.12,2.51-2.51,2.51h-10.79c-1.39,0-2.51-1.13-2.51-2.51v-25.2c0-1.39,1.12-2.51,2.51-2.51h10.79c1.39,0,2.51,1.12,2.51,2.51v25.2ZM35.36,73.95c-5.57,0-10.08-4.51-10.08-10.09s4.51-10.08,10.08-10.08,10.09,4.51,10.09,10.08-4.51,10.09-10.09,10.09ZM84.77,115.74h-.08c-.22,0-.44,0-.66-.01-16.77-.37-30.24-14.09-30.22-30.95,0-17.11,13.86-30.98,30.96-31v.2c14.94,1.34,26.78,13.18,28.12,28.12,1.53,17.05-11.06,32.12-28.12,33.64ZM142.13,111.96c0,1.38-1.13,2.51-2.51,2.51h-10.79c-1.39,0-2.51-1.13-2.51-2.51v-55.55c0-1.38,1.12-2.51,2.51-2.51h10.79c1.38,0,2.51,1.13,2.51,2.51v55.55ZM84.77,68.6c-8.93,0-16.18,7.24-16.18,16.18s7.25,16.18,16.18,16.18v.04c.55.03,1.09.03,1.64,0,8.95-.45,15.83-8.07,15.38-17.02-.45-8.94-8.07-15.83-17.02-15.38ZM84.77,68.6c-8.93,0-16.18,7.24-16.18,16.18s7.25,16.18,16.18,16.18v.04c.55.03,1.09.03,1.64,0,8.95-.45,15.83-8.07,15.38-17.02-.45-8.94-8.07-15.83-17.02-15.38ZM84.77,68.6c-8.93,0-16.18,7.24-16.18,16.18s7.25,16.18,16.18,16.18v.04c.55.03,1.09.03,1.64,0,8.95-.45,15.83-8.07,15.38-17.02-.45-8.94-8.07-15.83-17.02-15.38Z"/>
      <path class="st0" d="M84.69,115.74h-.66.66Z"/>
      <path class="st1" d="M252.44,114.46c-1.75.05-3.21-1.34-3.25-3.09,0-.01,0-.03,0-.04v-22.44c.21-2.58-.69-5.12-2.47-7-1.82-1.94-4.43-2.96-7.08-2.76-2.72-.16-5.37.88-7.25,2.84-1.96,2.28-2.94,5.24-2.72,8.23v21.33c.02,1.75-1.38,3.19-3.13,3.21,0,0,0,0,0,0h-3.83c-1.73.07-3.18-1.28-3.25-3,0-.03,0-.06,0-.09v-38.83c-.05-1.75,1.34-3.21,3.09-3.25,0,0,0,0,0,0h3.62c1.69-.09,3.14,1.19,3.25,2.88v.54c1.1-.97,2.32-1.8,3.62-2.47,2.68-1.24,5.61-1.85,8.56-1.77,4.98-.26,9.81,1.76,13.13,5.48,3.25,3.95,4.9,8.97,4.65,14.08v22.93c.07,1.73-1.28,3.18-3,3.25-.03,0-.06,0-.09,0h-3.83l-.04-.04Z"/>
      <path class="st1" d="M283.07,114.46c-1.83-.01-3.46-1.14-4.12-2.84l-13.55-37.63c-.08-.44-.08-.88,0-1.32-.04-.83.29-1.63.91-2.18.54-.58,1.3-.91,2.1-.91h3.34c1.37.02,2.6.82,3.17,2.06l9.72,28.82,9.59-28.82c.22-.6.63-1.12,1.15-1.48.6-.46,1.34-.71,2.1-.7h3.71c.79,0,1.54.32,2.1.86.59.59.92,1.39.91,2.22v1.07l-13.51,37.84c-.66,1.7-2.29,2.83-4.12,2.84l-3.5.16Z"/>
      <path class="st1" d="M329.02,115.33c-5.31.22-10.47-1.81-14.21-5.6-3.78-4.07-5.92-9.39-6.01-14.95v-5.52c.08-5.49,2.14-10.77,5.81-14.86,3.74-3.8,8.91-5.85,14.25-5.64,5.63-.28,11.09,1.99,14.86,6.18,3.73,4.65,5.59,10.52,5.23,16.47v1.44c.05,1.73-1.32,3.17-3.05,3.21-.01,0-.03,0-.04,0h-26.68c.17,2.73,1.18,5.35,2.88,7.49,1.63,2.13,4.2,3.32,6.88,3.21,1.91.04,3.79-.44,5.44-1.4,1.24-.74,2.34-1.68,3.25-2.8.42-.63.97-1.16,1.61-1.56.64-.25,1.33-.36,2.02-.33h3.54c.76,0,1.5.24,2.1.7.68.5,1.08,1.3,1.07,2.14-.19,1.99-1.08,3.84-2.51,5.23-1.89,1.98-4.16,3.57-6.67,4.65-3.08,1.33-6.4,1.99-9.76,1.94ZM338.94,87.66c-.13-2.57-1.08-5.02-2.72-7-1.81-2.07-4.46-3.21-7.21-3.09-2.75-.16-5.41.96-7.21,3.05-1.65,2.05-2.58,4.58-2.64,7.21l19.76-.16Z"/>
      <path class="st1" d="M361.14,114.46c-1.75.05-3.21-1.34-3.25-3.09,0-.01,0-.03,0-.04v-38.42c-.03-.86.28-1.71.86-2.35.6-.66,1.46-1.02,2.35-.99h3.38c.9-.04,1.77.29,2.43.91.57.6.9,1.39.91,2.22,2.81-2.2,6.32-3.31,9.88-3.13h3.17c1.69-.09,3.14,1.19,3.25,2.88v3.38c.03.84-.28,1.66-.86,2.26-.61.66-1.49,1.02-2.39.99h-4.61c-4.75.29-8.4,4.31-8.23,9.06v23.1c.05.89-.32,1.76-.99,2.35-.65.58-1.48.9-2.35.91l-3.54-.04Z"/>
      <path class="st1" d="M405.48,114.46c-9.26,0-13.92-5.23-13.92-15.56v-38.33c-.05-.85.25-1.68.82-2.31.62-.63,1.47-.97,2.35-.95h3.54c1.73-.07,3.18,1.28,3.25,3,0,.03,0,.06,0,.09v9.18h8.69c1.74-.02,3.19,1.35,3.25,3.09v2.96c.02.89-.34,1.74-.99,2.35-.62.56-1.43.87-2.26.86h-8.69v19.56c-.13,1.89.25,3.79,1.11,5.48.78,1.09,2.09,1.66,3.42,1.48h4.94c1.68-.07,3.1,1.23,3.17,2.91,0,.11,0,.23,0,.34v2.68c.04.84-.25,1.65-.82,2.26-.61.65-1.46,1.01-2.35.99l-5.52-.08Z"/>
      <path class="st1" d="M426.4,114.46c-1.73.05-3.17-1.32-3.21-3.05,0-.03,0-.06,0-.08v-38.5c-.09-1.7,1.21-3.16,2.91-3.25.11,0,.23,0,.34,0h3.58c1.74-.02,3.19,1.35,3.25,3.09v38.58c0,1.75-1.38,3.19-3.13,3.25h-3.75v-.04Z"/>
      <path class="st1" d="M428.21,65.59c-3.23,0-5.85-2.62-5.85-5.85,0-3.23,2.62-5.85,5.85-5.85,3.23,0,5.85,2.62,5.85,5.85h0c.02,3.21-2.56,5.82-5.76,5.85-.03,0-.06,0-.08,0Z"/>
      <path class="st1" d="M202.45,114.46c-1.75.05-3.21-1.34-3.25-3.09,0,0,0,0,0,0v-38.54c-.05-1.75,1.34-3.21,3.09-3.25,0,0,0,0,0,0h3.58c1.75-.05,3.21,1.34,3.25,3.09,0,.01,0,.03,0,.04v38.54c.02,1.75-1.38,3.19-3.13,3.21-.01,0-.03,0-.04,0h-3.62.12Z"/>
      <path class="st1" d="M204.22,65.59c-3.23.05-5.88-2.54-5.93-5.76-.05-3.23,2.54-5.88,5.76-5.93,3.23-.05,5.88,2.54,5.93,5.76,0,.03,0,.05,0,.08h0c0,3.2-2.57,5.8-5.76,5.85Z"/>
      <path class="st1" d="M446.7,114.46c-1.75.05-3.21-1.34-3.25-3.09,0,0,0,0,0,0v-38.46c-.04-.87.29-1.73.91-2.35.58-.66,1.43-1.02,2.31-.99h3.42c.89-.05,1.75.28,2.39.91.59.59.92,1.39.95,2.22,2.81-2.21,6.32-3.32,9.88-3.13h3.17c1.69-.09,3.14,1.19,3.25,2.88v3.38c0,.84-.3,1.64-.86,2.26-.61.66-1.49,1.02-2.39.99h-4.61c-4.77.24-8.44,4.29-8.23,9.06v23.1c.05.89-.32,1.76-.99,2.35-.65.58-1.48.9-2.35.91l-3.58-.04Z"/>
      <path class="st1" d="M481.74,109.98c-3.42-3.95-5.28-9.02-5.23-14.25v-7.29c-.04-5.21,1.81-10.26,5.23-14.21,7.9-7.35,20.14-7.35,28.04,0,3.45,3.92,5.31,8.98,5.23,14.21v7.29c.07,5.23-1.79,10.3-5.23,14.25-7.9,7.35-20.14,7.35-28.04,0ZM505.66,106.52c2.71-3.1,4.17-7.09,4.12-11.2v-3.21c.06-1.07.06-2.14,0-3.21.08-4.12-1.39-8.11-4.12-11.2-5.57-5.26-14.28-5.26-19.85,0-2.71,3.09-4.16,7.09-4.08,11.2v6.42c-.06,4.11,1.41,8.1,4.12,11.2,5.57,5.26,14.28,5.26,19.85,0h-.04Z"/>
      <path class="st1" d="M526.16,114.09c-.35-.38-.53-.89-.49-1.4v-41.17c-.07-.98.66-1.82,1.64-1.89,0,0,0,0,0,0h1.73c.98-.07,1.82.66,1.89,1.64,0,0,0,0,0,0v4.12c1.58-2.11,3.61-3.85,5.93-5.11,2.7-1.23,5.64-1.82,8.61-1.73,4.97-.28,9.8,1.74,13.09,5.48,3.16,3.96,4.78,8.93,4.57,14v24.7c.07.98-.66,1.82-1.64,1.89,0,0,0,0,0,0h-1.52c-.98.07-1.82-.66-1.89-1.64,0,0,0,0,0,0v-24.38c.23-3.93-.98-7.81-3.42-10.91-2.53-2.7-6.15-4.12-9.84-3.87-3.76-.12-7.39,1.38-9.96,4.12-2.61,2.98-3.94,6.87-3.71,10.83v24c.05.99-.7,1.83-1.69,1.89h-1.69c-.59.06-1.19-.15-1.61-.58Z"/>
      <path class="st1" d="M577.05,114.09c-.38-.36-.57-.88-.54-1.4v-56.74c-.07-.98.66-1.82,1.64-1.89,0,0,0,0,0,0h1.73c.99-.05,1.83.7,1.89,1.69v56.9c.07.99-.66,1.85-1.65,1.94h-1.73c-.5,0-.98-.17-1.36-.49Z"/>
      <path class="st1" d="M595.75,114.22c-.35-.36-.55-.85-.54-1.36v-41.17c-.05-.97.68-1.81,1.65-1.89h1.73c.99-.05,1.83.7,1.89,1.69v41.59c.03.98-.71,1.81-1.69,1.89h-1.77c-.51-.06-.97-.33-1.28-.74Z"/>
      <path class="st1" d="M614.4,114.09c-.36-.38-.55-.88-.54-1.4v-41.17c-.05-.99.7-1.83,1.69-1.89h1.69c.99-.07,1.85.66,1.94,1.65v4.12c1.58-2.11,3.61-3.85,5.93-5.11,2.7-1.23,5.64-1.82,8.61-1.73,4.97-.25,9.78,1.77,13.09,5.48,3.16,3.96,4.78,8.93,4.57,14v24.7c.07.98-.66,1.82-1.64,1.89,0,0,0,0,0,0h-1.73c-.99.05-1.85-.7-1.94-1.69-.02-.07-.02-.14,0-.21v-24.13c.24-3.94-.99-7.83-3.46-10.91-2.52-2.69-6.12-4.11-9.8-3.87-3.76-.13-7.39,1.37-9.96,4.12-2.64,2.95-3.97,6.84-3.71,10.79v24.13c.05.99-.7,1.83-1.69,1.89h-1.69c-.53,0-1.03-.24-1.36-.66Z"/>
      <path class="st1" d="M667.6,110.06c-3.54-4.02-5.57-9.14-5.72-14.49v-6.92c.19-5.34,2.19-10.45,5.68-14.49,3.41-3.67,8.26-5.65,13.26-5.43,5.36-.29,10.56,1.92,14.08,5.97,3.61,4.7,5.41,10.55,5.06,16.47v1.32c.04.53-.17,1.05-.58,1.4-.38.35-.89.53-1.4.49h-30.96v.86c.09,2.63.72,5.2,1.85,7.58,1.07,2.25,2.7,4.19,4.73,5.64,2.08,1.44,4.56,2.17,7.08,2.1,2.72.14,5.42-.5,7.78-1.85,1.61-.96,3.01-2.24,4.12-3.75.32-.49.71-.94,1.15-1.32.45-.2.95-.29,1.44-.25h1.36c.48-.03.95.11,1.32.41.34.29.53.71.54,1.15-.24,1.69-1.07,3.24-2.35,4.36-1.71,1.8-3.75,3.25-6.01,4.28-2.89,1.28-6.02,1.93-9.18,1.89-5,.21-9.85-1.77-13.26-5.43ZM694.73,89.47v-.58c.15-4.01-1.2-7.93-3.79-10.99-2.55-2.9-6.27-4.49-10.13-4.32-3.82-.19-7.52,1.41-10.01,4.32-2.56,3.08-3.9,6.99-3.79,10.99v.37l27.71.21Z"/>
      <circle class="st1" cx="597.85" cy="57.89" r="3.95"/>
    </g>
  </g>
</svg>