<?xml version="1.0" encoding="UTF-8"?>
<svg id="Capa_1" xmlns="http://www.w3.org/2000/svg" version="1.1" viewBox="0 0 700 169.55">
  <!-- Generator: Adobe Illustrator 29.0.1, SVG Export Plug-In . SVG Version: 2.1.0 Build 192)  -->
  <defs>
    <style>
      .st0 {
        fill: #999;
      }
    </style>
  </defs>
  <g id="Logo_Nación_Servicios_Color">
    <g id="Logo_Nación_Servicios_Color-2">
      <g id="Grupo_8729">
        <g id="Grupo_8728">
          <g id="Grupo_4">
            <path id="Trazado_17" class="st0" d="M64.59,52.14c-.11-.06-.27-.12-.31-.16-.11-.02-.22,0-.31.04l-15.96,7.79c-.12.05-.1.1.02.1h32.27c.13,0,.14-.04.02-.1l-15.73-7.68Z"/>
            <path id="Trazado_18" class="st0" d="M64.15,28.63c-31.01-.01-56.15,25.12-56.16,56.12-.01,31.01,25.12,56.15,56.12,56.16,31.01.01,56.15-25.12,56.16-56.12h0v-.02c-.04-30.98-25.14-56.09-56.12-56.14M95.79,117.39c0,.09-.08.16-.17.17h-62.94c-.09,0-.17-.07-.17-.17h0v-6.34c0-.09.07-.17.17-.18h62.93c.09.01.16.09.17.18v6.34ZM53.39,100.82v-31.88h7.23v31.9h7.06v-31.89h7.21v31.89h7.22v-31.89h7.2v31.89h3.2v6.5c0,.09-.07.17-.17.17h-56.38c-.09,0-.17-.07-.17-.17h0v-6.5h3.18v-31.89h7.19v31.88h7.22ZM97.9,62.2l-2,3.51c-.08.12-.21.19-.35.2h-62.76c-.14-.01-.26-.09-.33-.2l-2.01-3.51c-.05-.11-.01-.25.1-.31l33.43-17.77c.12-.06.27-.06.39,0l33.42,17.78c.11.05.16.17.11.28v.02"/>
            <path id="Trazado_19" class="st0" d="M147.5,105.33c.87-.21,1.74-.36,2.63-.46,1.13-.15,2.26-.23,3.4-.23v-38.89c-1.14,0-2.27-.08-3.4-.21-.88-.11-1.76-.26-2.63-.46v-5.27h14.13l21.57,30.27c1.23,1.68,2.35,3.29,3.35,4.81.71,1,1.35,2.05,1.91,3.14h.15c-.06-.51-.1-1.42-.16-2.72-.05-1.3-.09-2.9-.09-4.83v-24.71c-1.12,0-2.24-.08-3.35-.21-.87-.11-1.74-.26-2.6-.46v-5.27h19.24v5.26c-.86.2-1.73.35-2.6.46-1.09.13-2.18.21-3.28.21v44.86h-7.47l-22.81-31.96c-.55-.77-1.09-1.53-1.63-2.32s-1-1.52-1.41-2.21-.76-1.28-1.08-1.8-.51-.86-.62-1.06h-.13c.14.87.22,1.76.23,2.64.06,1.29.07,2.55.07,3.77v26.98c1.03.06,2.12.14,3.32.28.89.07,1.77.21,2.64.42v5.26h-19.37v-5.26Z"/>
            <path id="Trazado_20" class="st0" d="M214.08,111.5c-1.47.01-2.94-.22-4.34-.68-1.27-.43-2.44-1.12-3.44-2.02-.98-.9-1.76-2-2.29-3.22-.58-1.36-.86-2.83-.83-4.3-.08-2.14.52-4.25,1.72-6.03,1.17-1.65,2.71-2.99,4.49-3.93,1.99-1.04,4.12-1.75,6.33-2.13,2.37-.44,4.78-.66,7.2-.66h1.37v-3.1c.17-1.74-.38-3.48-1.52-4.8-1.45-1.13-3.27-1.66-5.1-1.49-1.8-.01-3.58.35-5.23,1.08-1.61.73-3.11,1.68-4.46,2.82l-3.58-5.04c3.85-3.49,8.9-5.37,14.1-5.25,3.73-.29,7.43.8,10.41,3.06,2.32,2.03,3.45,5.35,3.45,9.98v15.49c0,.71.02,1.36.05,1.94s.07,1.16.11,1.72c1.08.1,2.06.18,2.97.24s1.72.07,2.39.07v5.34c-1.13.1-2.81.2-5.08.3s-4.75.16-7.43.16c-.19-.66-.32-1.33-.39-2.02-.1-.92-.15-1.85-.14-2.78h-.17c-1.16,1.48-2.6,2.73-4.23,3.66-1.94,1.1-4.15,1.66-6.38,1.6M216.15,105.41c1.68.05,3.35-.34,4.83-1.14,1.3-.71,2.43-1.7,3.3-2.9v-7.72h-1.37c-2.89-.11-5.76.42-8.42,1.56-2.13.99-3.43,3.2-3.25,5.54-.12,1.39.49,2.75,1.61,3.58.96.67,2.1,1.03,3.27,1.05"/>
            <path id="Trazado_21" class="st0" d="M257.32,111.5c-2.64.05-5.26-.43-7.71-1.41-2.15-.88-4.09-2.22-5.67-3.93-1.57-1.72-2.78-3.74-3.54-5.94-.84-2.41-1.25-4.94-1.22-7.49-.04-2.88.44-5.75,1.41-8.46.86-2.36,2.22-4.5,3.98-6.29,1.68-1.7,3.7-3.02,5.93-3.89,2.38-.91,4.91-1.36,7.45-1.33,2.3-.05,4.58.26,6.78.91,1.46.41,2.85,1.05,4.11,1.91v10.91h-5.78c-.09-.39-.15-.79-.2-1.19-.08-.53-.15-1.12-.19-1.74s-.1-1.31-.15-1.98-.07-1.34-.07-1.95c-1.43-.54-2.96-.8-4.49-.76-3.02-.09-5.89,1.36-7.6,3.85-.88,1.28-1.53,2.7-1.92,4.19-.43,1.71-.64,3.46-.63,5.22-.01,1.74.21,3.47.67,5.15.41,1.5,1.1,2.91,2.04,4.15.87,1.16,1.98,2.12,3.26,2.8,1.41.71,2.97,1.07,4.54,1.03,1.04.01,2.07-.09,3.09-.31.86-.17,1.71-.42,2.52-.76.65-.27,1.29-.57,1.91-.91.52-.31.95-.56,1.25-.77l2.67,5.5c-.53.38-1.09.72-1.68,1.03-.85.44-1.74.82-2.64,1.14-1.16.41-2.36.73-3.57.95-1.5.27-3.03.4-4.55.39"/>
            <path id="Trazado_22" class="st0" d="M272.58,105.33c.82-.2,1.64-.36,2.48-.46,1.05-.15,2.11-.23,3.17-.23v-25.25c-1.16-.1-2.24-.17-3.24-.23s-1.8-.07-2.41-.07v-5.26c1.17-.17,3.04-.3,5.63-.43s5.44-.19,8.57-.19l-.31,6.03v25.39c1.05,0,2.09.09,3.12.27,1.08.18,1.9.33,2.43.43v5.26h-19.44v-5.26ZM282.42,67.8c-1.41.03-2.76-.52-3.75-1.53-2.02-2.01-2.03-5.28-.01-7.3,0,0,0,0,0,0h.01c.98-1.02,2.34-1.57,3.75-1.54,2.87-.04,5.23,2.25,5.27,5.12.02,1.39-.52,2.73-1.49,3.72-.99,1.02-2.36,1.58-3.78,1.53"/>
            <path id="Trazado_23" class="st0" d="M311.31,111.5c-2.79.08-5.57-.49-8.11-1.64-2.14-1-4.03-2.47-5.52-4.3-1.44-1.8-2.51-3.88-3.12-6.11-1.34-4.56-1.33-9.4.03-13.95.66-2.29,1.73-4.43,3.15-6.34,1.47-1.92,3.35-3.5,5.49-4.62,2.5-1.25,5.28-1.87,8.08-1.79,2.79-.07,5.57.49,8.12,1.64,2.17,1.01,4.1,2.49,5.65,4.32,1.48,1.81,2.59,3.88,3.28,6.11,1.4,4.52,1.4,9.35,0,13.87-.7,2.3-1.81,4.46-3.28,6.36-1.51,1.95-3.44,3.54-5.65,4.65-2.52,1.26-5.31,1.87-8.12,1.8M311.45,105.39c1.48.05,2.94-.31,4.24-1.02,1.18-.69,2.17-1.65,2.9-2.8.8-1.29,1.37-2.72,1.68-4.2.35-1.7.52-3.44.51-5.18,0-1.74-.18-3.48-.56-5.18-.33-1.5-.91-2.93-1.71-4.23-.73-1.17-1.73-2.15-2.92-2.86-1.31-.74-2.79-1.11-4.29-1.08-1.46-.05-2.91.31-4.19,1.03-1.16.68-2.14,1.64-2.85,2.78-.78,1.28-1.32,2.69-1.6,4.16-.33,1.69-.5,3.42-.5,5.14,0,1.74.17,3.48.54,5.19.31,1.51.85,2.95,1.63,4.28.7,1.19,1.68,2.19,2.86,2.9,1.3.73,2.77,1.1,4.26,1.05M314,59.32h10.97l-10.54,9.99h-7.06l6.63-9.99Z"/>
            <path id="Trazado_24" class="st0" d="M332.31,105.32c.83-.2,1.67-.36,2.51-.46,1.06-.15,2.13-.23,3.2-.23v-25.24c-1.16-.09-2.26-.17-3.28-.23s-1.82-.07-2.43-.07v-5.26c1.16-.17,3.01-.31,5.56-.43s5.34-.2,8.39-.2l-.31,5.8h.14c1.33-1.79,2.99-3.32,4.89-4.5,3.67-2,8.03-2.3,11.95-.84,1.31.56,2.47,1.42,3.38,2.51.88,1.11,1.53,2.38,1.92,3.74.41,1.49.62,3.03.62,4.57v20.13c1.06,0,2.11.09,3.15.28,1.09.18,1.89.32,2.41.42v5.26h-19.07v-5.25c.51-.1,1.27-.21,2.29-.39,1.03-.16,2.08-.26,3.12-.31v-18.75c.11-1.7-.34-3.4-1.29-4.81-1.12-1.22-2.76-1.84-4.41-1.68-1.86-.03-3.67.59-5.13,1.75-1.41,1.11-2.66,2.39-3.74,3.83v19.66c1.03.06,2.05.17,3.1.31s1.8.29,2.33.39v5.26h-19.31v-5.26Z"/>
            <path id="Trazado_25" class="st0" d="M408.18,111.5c-3.37.07-6.73-.35-9.98-1.26-2.02-.5-3.94-1.36-5.65-2.55v-12.05h6.49c.04.31.11.79.18,1.43s.17,1.34.2,2.1.09,1.57.14,2.37.09,1.51.09,2.11c1.16.46,2.36.81,3.58,1.03,1.6.31,3.23.45,4.87.43,1.32.02,2.63-.19,3.87-.62,1.07-.37,2.07-.93,2.94-1.65.78-.66,1.41-1.48,1.86-2.39.42-.88.64-1.85.65-2.83.04-1.23-.27-2.45-.91-3.51-.65-1.02-1.5-1.9-2.49-2.6-1.11-.8-2.31-1.49-3.57-2.03-1.35-.59-2.74-1.18-4.16-1.8-1.71-.67-3.38-1.44-5.01-2.29-1.5-.79-2.88-1.77-4.11-2.94-1.21-1.17-2.17-2.58-2.83-4.13-.74-1.84-1.09-3.8-1.04-5.78-.03-1.98.41-3.95,1.29-5.73.82-1.66,1.98-3.13,3.41-4.3,1.53-1.24,3.29-2.17,5.19-2.71,2.09-.63,4.27-.94,6.46-.92,3.23-.09,6.45.31,9.56,1.21,1.82.51,3.55,1.28,5.15,2.29v11.97h-6.49c-.04-.31-.1-.77-.18-1.38s-.16-1.28-.2-2.02-.09-1.51-.11-2.29-.05-1.49-.05-2.1c-1.11-.43-2.26-.76-3.43-.96-1.41-.23-2.84-.34-4.27-.33-2.13-.11-4.22.57-5.88,1.9-1.44,1.21-2.25,3.01-2.2,4.88-.03,1.02.21,2.03.68,2.93.48.87,1.12,1.63,1.9,2.25.9.71,1.88,1.31,2.91,1.8,1.11.53,2.33,1.08,3.65,1.63,1.9.77,3.74,1.59,5.53,2.44,1.75.83,3.38,1.88,4.85,3.14,1.42,1.22,2.59,2.71,3.44,4.39.91,1.94,1.35,4.07,1.29,6.21.09,4.07-1.69,7.96-4.81,10.57-1.64,1.36-3.52,2.38-5.55,3.01-2.35.74-4.8,1.1-7.27,1.08"/>
            <path id="Trazado_26" class="st0" d="M449.82,111.5c-2.66.05-5.31-.42-7.8-1.37-2.17-.85-4.12-2.17-5.72-3.87-1.6-1.7-2.81-3.73-3.55-5.94-.84-2.46-1.25-5.05-1.22-7.66-.05-2.82.39-5.64,1.29-8.31.79-2.32,2.04-4.45,3.69-6.26,1.59-1.73,3.54-3.08,5.72-3.97,2.34-.93,4.84-1.39,7.36-1.36,4.16-.26,8.22,1.38,11.03,4.46,2.71,3.37,4.08,7.62,3.86,11.94,0,.52-.02,1.18-.04,2.02-.02.68-.08,1.35-.19,2.02h-24.11c-.1,3.23.94,6.4,2.94,8.95,2.05,2.25,5.01,3.44,8.05,3.24,1.94.05,3.87-.3,5.68-1.02,1.3-.53,2.54-1.18,3.71-1.96l2.75,5.41c-.56.32-1.24.68-2.04,1.12-.9.49-1.84.89-2.81,1.22-1.23.41-2.5.73-3.78.95-1.59.27-3.2.4-4.81.39M456.32,87.7c0-1.2-.13-2.41-.41-3.58-.26-1.05-.69-2.04-1.28-2.94-.56-.85-1.34-1.53-2.25-1.98-1.05-.51-2.21-.76-3.38-.73-2.3-.11-4.53.82-6.07,2.52-1.59,1.89-2.54,4.24-2.72,6.7h16.11Z"/>
            <path id="Trazado_27" class="st0" d="M469.51,105.32c.83-.21,1.68-.36,2.53-.46,1.06-.15,2.13-.23,3.2-.23v-25.24c-1.17-.09-2.27-.17-3.28-.23s-1.83-.07-2.44-.07v-5.26c1.18-.17,3.04-.31,5.59-.43s5.38-.2,8.43-.2l-.37,6.57h.15c.85-1.79,2.06-3.39,3.55-4.69.8-.7,1.72-1.26,2.7-1.68,1.07-.44,2.21-.66,3.36-.65.99-.03,1.97.07,2.93.3.54.15,1.07.35,1.57.61l-1.92,7.25c-.4-.22-.82-.4-1.26-.53-.77-.23-1.58-.33-2.39-.3-1.12-.02-2.22.24-3.21.75-.92.49-1.77,1.09-2.53,1.8-.65.62-1.24,1.3-1.77,2.02-.38.47-.7.98-.96,1.52v18.45c.52,0,1.08.03,1.72.07s1.26.1,1.87.17c.58.04,1.15.12,1.72.23.54.09.93.17,1.17.21v5.26h-20.35v-5.26Z"/>
            <path id="Trazado_28" class="st0" d="M502.54,79.54l-2.45-.31c-.59-.06-1.17-.16-1.74-.3v-5.26h17.07v5.26c-.63.14-1.27.24-1.91.3l-2.58.31,6.1,17.16c.25.76.56,1.65.92,2.67.31.87.56,1.76.76,2.67h.17c.12-.91.36-1.81.69-2.67.34-1.02.65-1.88.91-2.6l6.04-17.24-2.68-.31c-.65-.06-1.29-.16-1.92-.3v-5.25h16.42v5.26c-1.49.33-3,.54-4.52.62l-11.74,31.04h-7.64l-11.89-31.05Z"/>
            <path id="Trazado_29" class="st0" d="M541.05,105.33c.82-.2,1.64-.36,2.48-.46,1.05-.15,2.11-.23,3.17-.23v-25.25c-1.16-.1-2.23-.17-3.24-.23s-1.79-.07-2.4-.07v-5.26c1.16-.17,3.04-.3,5.61-.43s5.43-.19,8.57-.19l-.31,6.03v25.39c1.04,0,2.08.09,3.11.27,1.08.18,1.89.33,2.44.43v5.26h-19.45v-5.25ZM550.88,67.8c-1.4.03-2.76-.52-3.73-1.53-2.02-1.99-2.04-5.24-.05-7.26,0,0,0,0,0,0l.05-.05c.98-1.01,2.33-1.56,3.73-1.53,1.42-.05,2.79.51,3.78,1.53,2.01,2.03,2.01,5.29,0,7.32-.98,1.03-2.36,1.58-3.78,1.53"/>
            <path id="Trazado_30" class="st0" d="M582.09,111.5c-2.64.05-5.26-.43-7.71-1.41-2.16-.88-4.1-2.22-5.68-3.93-1.56-1.72-2.77-3.75-3.54-5.94-.84-2.4-1.25-4.94-1.22-7.49-.04-2.88.43-5.75,1.41-8.46.86-2.36,2.22-4.5,3.97-6.29,1.68-1.7,3.7-3.03,5.93-3.89,2.38-.91,4.91-1.36,7.45-1.33,2.29-.05,4.58.25,6.77.91,1.47.41,2.86,1.06,4.12,1.91v10.91h-5.78c-.05-.26-.12-.66-.19-1.19s-.14-1.12-.18-1.74-.11-1.31-.17-1.98-.08-1.34-.08-1.95c-1.43-.55-2.95-.81-4.48-.76-1.54-.04-3.07.32-4.43,1.03-1.27.68-2.35,1.64-3.17,2.83-.87,1.28-1.51,2.7-1.91,4.19-.44,1.71-.66,3.46-.65,5.22-.01,1.74.21,3.47.66,5.15.42,1.5,1.11,2.9,2.04,4.15.88,1.16,2,2.11,3.29,2.8,1.4.71,2.96,1.07,4.54,1.03,1.03.01,2.06-.09,3.07-.31.87-.17,1.72-.42,2.54-.76.65-.27,1.28-.58,1.9-.91.54-.31.97-.56,1.25-.77l2.68,5.5c-.54.38-1.1.72-1.68,1.03-1.96,1.01-4.05,1.71-6.22,2.09-1.5.27-3.02.4-4.54.39"/>
            <path id="Trazado_31" class="st0" d="M599.24,105.33c.82-.2,1.65-.36,2.49-.46,1.04-.15,2.09-.23,3.14-.23v-25.25c-1.13-.1-2.22-.17-3.23-.23s-1.79-.07-2.41-.07v-5.26c1.17-.17,3.05-.3,5.61-.43s5.44-.19,8.57-.19l-.29,6.03v25.39c1.05,0,2.09.09,3.12.27,1.08.18,1.89.33,2.44.43v5.26h-19.46v-5.26ZM609.07,67.8c-2.85.06-5.21-2.21-5.27-5.06-.03-1.42.53-2.79,1.54-3.79,2.03-2.08,5.35-2.12,7.43-.09,1.01.99,1.58,2.34,1.58,3.75,0,2.85-2.3,5.17-5.15,5.18h-.13"/>
            <path id="Trazado_32" class="st0" d="M639.86,111.5c-2.79.07-5.55-.49-8.09-1.64-2.14-.99-4.03-2.47-5.52-4.3-1.44-1.81-2.5-3.89-3.12-6.11-.65-2.28-.98-4.64-.98-7.02,0-2.35.35-4.68,1.02-6.94.67-2.29,1.74-4.43,3.17-6.34,1.46-1.92,3.33-3.5,5.47-4.62,2.5-1.25,5.28-1.86,8.07-1.78,2.8-.07,5.59.49,8.15,1.63,2.17,1.01,4.09,2.47,5.63,4.3,1.49,1.8,2.6,3.87,3.27,6.11,1.43,4.52,1.43,9.36,0,13.88-.68,2.31-1.79,4.47-3.27,6.36-1.51,1.95-3.43,3.54-5.63,4.65-2.53,1.26-5.32,1.87-8.15,1.8M640.03,105.38c1.49.04,2.96-.31,4.27-1.02,1.16-.7,2.14-1.65,2.87-2.78.8-1.29,1.36-2.71,1.65-4.19.37-1.7.55-3.44.53-5.19.02-1.74-.17-3.48-.57-5.18-.32-1.5-.89-2.93-1.7-4.23-.74-1.17-1.74-2.15-2.93-2.87-1.31-.74-2.79-1.11-4.29-1.07-1.46-.04-2.9.31-4.17,1.03-1.16.68-2.15,1.64-2.86,2.78-.78,1.28-1.32,2.69-1.59,4.16-.34,1.69-.51,3.42-.5,5.14-.02,1.74.16,3.48.53,5.19.3,1.5.85,2.95,1.63,4.27.69,1.2,1.67,2.2,2.85,2.92,1.3.73,2.77,1.1,4.26,1.05"/>
            <path id="Trazado_33" class="st0" d="M676.96,111.5c-2.64.02-5.27-.25-7.84-.81-1.87-.34-3.65-1.02-5.27-2.01v-9.68h5.88c.07.3.12.6.15.91.06.46.09.97.17,1.53l.14,1.68c.06.46.09.92.09,1.38.99.33,2.01.58,3.04.76,1.18.22,2.38.32,3.58.31,1.85.08,3.68-.34,5.31-1.21,1.25-.66,2.02-1.96,2.01-3.37.02-.78-.22-1.55-.69-2.17-.52-.64-1.15-1.17-1.87-1.56-.86-.5-1.76-.91-2.7-1.22-1.02-.37-2.09-.71-3.21-1.08-1.32-.4-2.65-.88-4-1.41-1.3-.52-2.52-1.22-3.62-2.09-1.09-.88-1.98-1.97-2.64-3.21-.73-1.49-1.08-3.13-1.02-4.79-.15-3.08,1.24-6.04,3.71-7.9,3-2,6.57-2.98,10.17-2.78,1.47,0,2.94.09,4.4.3,1.34.21,2.56.45,3.66.73.95.24,1.89.55,2.8.92.58.24,1.14.5,1.69.8v9.68h-5.94c-.16-.77-.27-1.55-.32-2.33-.09-1.1-.17-2.16-.21-3.17-.87-.25-1.8-.47-2.78-.66-1.04-.21-2.11-.31-3.17-.31-1.7-.11-3.39.32-4.83,1.23-1.05.72-1.67,1.92-1.65,3.19-.02.75.22,1.48.7,2.06.5.59,1.12,1.08,1.8,1.45.84.43,1.71.81,2.6,1.14l3.14.98c1.38.47,2.8.96,4.21,1.49,1.36.5,2.64,1.2,3.8,2.06,1.13.85,2.07,1.92,2.76,3.16.75,1.43,1.12,3.03,1.08,4.64.03,1.68-.35,3.33-1.11,4.83-.76,1.41-1.83,2.64-3.13,3.58-1.44,1.03-3.06,1.79-4.78,2.22-1.97.53-4,.79-6.04.77"/>
          </g>
        </g>
      </g>
    </g>
  </g>
</svg>