<?xml version="1.0" encoding="UTF-8"?>
<svg id="Capa_1" xmlns="http://www.w3.org/2000/svg" version="1.1" viewBox="0 0 550 169.55">
  <!-- Generator: Adobe Illustrator 29.0.1, SVG Export Plug-In . SVG Version: 2.1.0 Build 192)  -->
  <defs>
    <style>
      .st0 {
        fill: #999;
      }
    </style>
  </defs>
  <path class="st0" d="M459.73,103.49c0,14.94,11.63,20.75,24.83,20.75,8.65,0,21.85-2.51,21.85-13.99,0-12.11-16.82-14.15-33.33-18.55-16.66-4.4-33.47-10.84-33.47-31.91,0-22.94,21.69-33.95,41.96-33.95,23.41,0,44.95,10.22,44.95,36.15h-23.89c-.79-13.52-10.37-16.98-22.16-16.98-7.85,0-16.98,3.31-16.98,12.73,0,8.64,5.35,9.74,33.48,16.97,8.18,2.05,33.32,7.23,33.32,32.68,0,20.59-16.18,35.99-46.68,35.99-24.83,0-48.09-12.26-47.77-39.92h23.89Z"/>
  <path class="st0" d="M19.7,28.82h34.74l26.25,77.18h.31l24.82-77.18h34.73v112.21h-23.1V61.5h-.31l-27.51,79.53h-19.01l-27.5-78.73h-.31v78.73h-23.11V28.82Z"/>
  <path class="st0" d="M187.21,28.82h25.31l41.96,112.21h-25.61l-8.49-24.99h-41.97l-8.8,24.99h-24.99l42.59-112.21ZM184.85,97.66h29.07l-14.15-41.18h-.31l-14.61,41.18Z"/>
  <path class="st0" d="M332.01,128.31c-7.22,9.76-18.67,15.49-30.81,15.4-34.73,0-55.16-25.93-55.16-58.31s20.43-59.25,55.16-59.25c22.95,0,44.64,14.15,47.3,39.61h-23.58c-2.06-11.35-12.21-19.41-23.73-18.86-22.15,0-30.5,18.86-30.5,38.5s8.33,37.56,30.5,37.56c16.04,0,25.31-8.64,26.72-24.2h-24.83v-18.39h47.15v60.66h-15.72l-2.5-12.73Z"/>
  <g>
    <path class="st0" d="M385.8,140.8h32.95l17.09-81.81h-32.94l-17.1,81.81Z"/>
    <path class="st0" d="M442.57,25.85h-32.95l-4.67,22.41h32.94l4.67-22.41Z"/>
    <path class="st0" d="M357.59,79.61v61.42h23.08l17.14-82.03h-35.93l-4.3,20.62Z"/>
    <path class="st0" d="M404.55,25.85h-35.92l-4.67,22.41h35.92l4.66-22.41Z"/>
  </g>
</svg>