<?xml version="1.0" encoding="UTF-8"?>
<svg id="Capa_1" xmlns="http://www.w3.org/2000/svg" version="1.1" viewBox="0 0 600 169.55">
  <!-- Generator: Adobe Illustrator 29.0.1, SVG Export Plug-In . SVG Version: 2.1.0 Build 192)  -->
  <defs>
    <style>
      .st0 {
        fill: #999;
      }
    </style>
  </defs>
  <path class="st0" d="M158.87,29.03h17.1c0,30.83,0,61.64,0,92.45.04.69,0,1.49.46,2.06.62.64,1.59.58,2.41.62h10.51c0,4.71,0,9.42,0,14.14h-16.96c-3.61-.03-7.48-1.04-9.92-3.86-2.89-3.34-3.5-7.96-3.59-12.23,0-31.06,0-62.12,0-93.18h0Z"/>
  <path class="st0" d="M31.33,40.92h16.07v17.84h17.1v13.1c-5.7,0-11.4,0-17.1,0,0,16.53-.02,33.07,0,49.6-.07,1.3.86,2.67,2.25,2.67,4.94.07,9.89,0,14.83.03v14.14h-20.53c-3.51-.02-7.17-1.18-9.59-3.82-3.21-3.49-4.04-8.44-4.1-13.02-.01-16.54-.01-33.09,0-49.63h-11.87v-13.09h11.88c.35-5.95.7-11.9,1.04-17.84Z"/>
  <path class="st0" d="M299.07,64c9.85-7.36,23.18-9.21,34.92-5.97,7.75,2.14,14.52,7.26,19.01,13.88,2,2.94,3.65,6.12,4.91,9.45-4.76,2.04-9.53,4.08-14.29,6.11-2.05-4.6-4.99-8.98-9.22-11.85-5.29-3.61-12.23-4.3-18.31-2.58-5.11,1.49-9.47,4.87-12.19,9.45-3.58,5.91-4.59,13.08-3.91,19.87.63,6.31,3.15,12.61,7.86,16.99,4.09,3.79,9.49,5.82,15.06,5.67,5.1-.02,10.07-1.65,14.19-4.67,3.33-2.41,6.06-5.54,8.45-8.86,3.97,2.68,7.94,5.35,11.91,8.02-3.1,5.25-6.92,10.21-11.85,13.86-4.33,3.19-9.34,5.34-14.63,6.29-9.47,1.74-19.7.95-28.23-3.79-5.37-2.95-9.92-7.2-13.23-12.35-3.82-5.85-5.98-12.69-6.63-19.63-.76-8.02.31-16.25,3.49-23.67,2.71-6.44,7.09-12.04,12.68-16.23Z"/>
  <path class="st0" d="M390.04,60.52c13.15-6.33,29.68-5.11,41.62,3.36,8.13,5.68,13.83,14.48,16.33,24.02-5.69.02-11.38-.02-17.07.02-2.1-5.09-5.88-9.51-10.78-12.06-7.91-4.14-18-4.02-25.69.58-4.42,2.7-7.89,6.7-9.94,11.46h-16.96c3.05-12.02,11.3-22.05,22.49-27.38Z"/>
  <path class="st0" d="M492.79,58.53c5.79-2.3,12.17-2.67,18.19-1.04,5.81,1.57,10.7,5.79,13.49,11.08,1.29,2.29,2.14,4.81,2.94,7.31l.8-.06c2.16-5.8,5.63-11.34,10.82-14.87,5.9-4.08,13.45-5.07,20.43-4.1,5.98.83,11.67,3.92,15.38,8.73,4.92,6.26,6.68,14.42,6.76,22.24,0,16.81,0,33.64,0,50.47h-17.12v-48.56c-.08-4.15-.69-8.45-2.86-12.06-1.67-2.78-4.38-4.78-7.52-5.56-5.87-1.45-12.53-.1-17,4.07-4.89,4.48-7.08,11.27-7.07,17.77v44.33h-17.1v-47.8c-.03-4.41-.52-9.04-2.82-12.9-1.66-2.77-4.36-4.76-7.5-5.51-6.05-1.42-12.99-.05-17.45,4.49-4.59,4.63-6.34,11.39-6.24,17.77v43.95h-17.12V58.73h15.63c.05,5.01.11,10.02.14,15.03.83.24.98-.67,1.28-1.18,2.84-6.08,7.64-11.47,13.96-14.04Z"/>
  <path class="st0" d="M87,65.17c7.07-5.66,15.93-8.61,24.98-8.32,7.62.15,15.29,2.59,21.24,7.42,7.24,5.73,11.62,14.52,13.08,23.54,1.04,5.94.6,11.99.7,17.98-19.68.02-39.35.02-59.03,0,.67,5.19,3.31,9.91,7.38,13.2,6.17,5.04,14.64,6.79,22.42,5.53,6.88-1.15,12.87-5.22,17.61-10.16,3.39,3.36,6.75,6.74,10.14,10.08-3.33,4.22-7.42,7.77-12.07,10.46-12.97,7.47-29.95,7.52-42.87-.1-6.37-3.7-11.55-9.16-14.9-15.72-4.11-8.06-5.29-17.43-4.1-26.37,1.47-10.65,6.93-20.84,15.42-27.56ZM95.73,77.72c-4.36,3.7-7.15,8.93-7.78,14.62,14.12.02,28.25.02,42.37,0-.15-5.01-1.69-10.15-5.13-13.91-3.34-3.73-8.32-5.66-13.26-5.92-5.87-.43-11.68,1.44-16.2,5.2Z"/>
  <path class="st0" d="M212.64,63.48c11.23-7.81,26.82-8.93,38.95-2.54,6.16,3.34,11.13,8.51,14.22,14.8,3.12,6.2,4.51,13.18,4.55,20.1v9.94h-59.02c.66,5.22,3.33,9.97,7.43,13.26,6.17,5.01,14.62,6.74,22.38,5.48,6.88-1.15,12.85-5.22,17.6-10.15,3.37,3.38,6.76,6.72,10.13,10.1-3.26,4.13-7.25,7.62-11.78,10.29-13.22,7.75-30.72,7.72-43.79-.35-6.04-3.68-10.95-8.96-14.18-15.25-3.95-7.7-5.2-16.61-4.28-25.17,1.25-12.07,7.71-23.66,17.81-30.51h0ZM218.53,78.21c-4.05,3.67-6.61,8.7-7.19,14.14h42.36c-.15-5.27-1.86-10.7-5.66-14.47-3.49-3.55-8.5-5.26-13.41-5.39-5.91-.27-11.69,1.78-16.1,5.72h0Z"/>
  <path class="st0" d="M366.34,97.24h16.53c-.33,6.61,1.84,13.39,6.39,18.27,5.5,5.99,13.51,9.03,21.6,8.18,6.57-.69,12.56-4.08,16.54-9.35,3.67-4.81,5.1-10.98,4.83-16.95h16.79c.79,8.56-1.22,17.41-6.01,24.6-7.19,11.02-19.99,17.8-33.04,18.46-12.74.79-25.76-4.52-34.14-14.2-6.96-7.98-10.39-18.45-9.5-29h0Z"/>
</svg>