<?xml version="1.0" encoding="UTF-8"?>
<svg id="Capa_1" xmlns="http://www.w3.org/2000/svg" version="1.1" viewBox="0 0 700 169.55">
  <!-- Generator: Adobe Illustrator 29.0.1, SVG Export Plug-In . SVG Version: 2.1.0 Build 192)  -->
  <defs>
    <style>
      .st0 {
        opacity: .7;
      }

      .st0, .st1 {
        fill: #999;
      }
    </style>
  </defs>
  <g>
    <path class="st1" d="M161.7,91.53v.12c-.03,1.26-.49,2.53-1.34,3.49-.05.06-.12.12-.17.17-.11.11-.23.21-.35.32-.37.3-.8.56-1.3.78l-.48.2-57.62,25.02c-6.12,2.66-13.07,2.66-19.18,0l-57.6-25.01-.5-.21c-.82-.35-1.47-.85-1.96-1.42-.07-.07-.14-.16-.19-.23-.02-.02-.03-.04-.04-.05-.08-.12-.16-.22-.23-.35-.47-.82-.72-1.75-.74-2.7v-.1c.02-.95.28-1.88.74-2.7.09-.12.16-.23.23-.35.01-.01.02-.03.04-.04.05-.09.12-.17.19-.24.07-.1.16-.19.25-.29.46-.45,1.02-.84,1.7-1.14l.5-.21,16.59-7.2,41,17.8c6.11,2.66,13.06,2.66,19.18,0l41-17.8,16.61,7.21.48.2c.5.21.92.48,1.3.78.13.1.24.2.35.32.06.04.12.11.17.17.85.96,1.31,2.22,1.34,3.49Z"/>
    <path class="st0" d="M141.45,79.37l-41,17.8c-6.12,2.66-13.07,2.66-19.18,0l-41-17.8,28.14-12.22,12.86,5.58c6.11,2.66,13.06,2.66,19.18,0l12.86-5.58,28.14,12.22Z"/>
    <path class="st1" d="M40.25,54.93l28.15,12.22-28.14,12.22-16.59-7.21-.5-.21c-.82-.35-1.47-.85-1.96-1.42-.07-.07-.14-.16-.19-.23-.02-.02-.03-.04-.04-.05-.08-.12-.16-.22-.23-.35-.47-.82-.72-1.75-.74-2.7v-.1c.02-.95.28-1.88.74-2.7.09-.12.16-.23.23-.35.01-.01.02-.03.04-.04.05-.09.12-.17.19-.24.07-.1.16-.19.25-.29.46-.45,1.02-.84,1.7-1.14l.5-.21,16.58-7.2Z"/>
    <path class="st1" d="M161.7,67.09v.12c-.03,1.26-.49,2.53-1.34,3.49-.05.06-.12.12-.17.17-.11.11-.23.21-.35.32-.37.3-.8.56-1.3.78l-.48.2-16.61,7.22-28.14-12.22,28.14-12.22,16.61,7.21.48.2c.5.21.92.48,1.3.78.13.1.24.2.35.32.06.04.12.11.17.17.85.96,1.31,2.22,1.34,3.49Z"/>
    <path class="st0" d="M113.31,67.15l-12.86,5.58c-6.12,2.66-13.07,2.66-19.18,0l-12.86-5.58,12.86-5.59c6.11-2.66,13.06-2.66,19.18,0l12.86,5.59Z"/>
    <path class="st0" d="M141.45,54.93l-28.14,12.22-12.86-5.59c-6.12-2.66-13.07-2.66-19.18,0l-12.86,5.59-28.15-12.22,41.01-17.81c6.11-2.66,13.06-2.66,19.18,0l41,17.81Z"/>
    <path class="st1" d="M161.7,42.64v.12c-.03,1.26-.49,2.53-1.34,3.49-.05.06-.12.12-.17.17-.11.11-.23.21-.35.32-.37.3-.8.56-1.3.78l-.48.2-16.61,7.22-41-17.81c-6.12-2.66-13.07-2.66-19.18,0l-41.01,17.81-16.58-7.21-.5-.21c-.82-.35-1.47-.85-1.96-1.42-.07-.07-.14-.16-.19-.23-.02-.02-.03-.04-.04-.05-.08-.12-.16-.22-.23-.35-.47-.82-.72-1.75-.74-2.7v-.1c.02-.95.28-1.88.74-2.7.09-.12.16-.23.23-.35.01-.01.02-.03.04-.04.05-.09.12-.17.19-.24.07-.1.16-.19.25-.29.46-.45,1.02-.84,1.7-1.14l.5-.21,57.6-25.01c6.11-2.66,13.06-2.66,19.18,0l57.62,25.02.48.2c.5.21.92.48,1.3.78.13.1.24.2.35.32.06.04.12.11.17.17.85.96,1.31,2.22,1.34,3.49Z"/>
  </g>
  <g>
    <g>
      <path class="st1" d="M217.21,30.68l.8,38.26,18.7-38.26h18.7l-12.3,58.46h-11.58s6.77-39.33,6.77-39.33l-18.18,39.38s-9.78.02-11.67.02c.68-4.2-2.38-41.8-2.38-41.8l-8.33,41.73h-11.87s12.23-58.47,12.23-58.47h19.1Z"/>
      <path class="st1" d="M295.2,58.58l-5.94,28.73c-7.87,2-23.74,4.35-30.64-.46-8.14-5.69-3.31-24.09-1.24-32.26,2.75-10.86,7.24-22.96,19.98-24.63,12.12-1.59,23.74,1.51,21.02,16.27-.69,3.77-9.57,1.31-12.73,1.99,4.57-10.06-7.73-13.38-12.1-5.34-3,5.53-7.95,27.68-6.95,33.6s10.95,5.31,12.54,3.48c.8-.92,1.5-10.53,2.53-12.6h-6.37s1.59-8.77,1.59-8.77h18.31Z"/>
      <path class="st1" d="M518.84,48.21c-.22,0,.5,2.95-.39,3.19-7.9-8.33-17.45-3.93-21.48,5.59-5.61,13.3-10.28,39.4,13.12,28.69.27,3.18-.84,10.12-3.99,11.54-7.22,3.27-5.17-4.75-5.56-5.17-.39-.4-9.46.3-11.15,0-.67,6.32.41,10.31,7.12,11.61,10.71,2.07,20.76-.47,24.34-11.58,4.32-13.41,5.28-30.08,9.13-43.86h-11.14ZM512.3,77.13c-1.65,3.34-7.1,5.96-8.41,1.62-1.08-3.58,2.9-22.82,6.75-24.01,1.2-.37,3.91-.49,4.68.6,1.64,2.34-1.54,18.81-3.02,21.8Z"/>
      <path class="st1" d="M364.44,88.87h-11.14l6.3-30.79c.25-5.53-6.4-4.66-8.28-.3-3.62,8.39-6.77,31.09-6.77,31.09h-11.14l7.96-40.65h11.94s-.37,3.28-.37,3.28c0,0,5.01-3.55,5.89-3.73,5.47-1.11,10.92-.52,12.5,4.98.24.84.24,1.73.06,2.58l-6.94,33.54Z"/>
      <path class="st1" d="M407.02,69.74h21.09c2.99-14.44,2.49-23.42-14.75-22.35-8.9.55-12.97,4.38-16.18,12.49-3.02,7.61-7.11,25.34,2.89,28.78,10.65,3.67,23.31-2.9,26.41-14.02-.94,0-8.97-.01-10.6-.01s-1.91,6.35-6.07,7.55c-7.6,2.21-4.38-12.44-2.8-12.44ZM417.39,55.37c1.46,1.43,1.29,7.06.3,7.91-.72.62-8.47-.27-10.26.09,0-4.42,5.42-12.47,9.96-7.99Z"/>
      <path class="st1" d="M642.21,62.56h-11.14c-.43,0,1.4-6.8-2.16-7.84-5.68-1.66-7.48,5.37-8.59,9.42-1.24,4.49-5.37,23.54,4.35,17.11,3.32-2.2,3.58-7.53,4.02-7.53h11.14c-1.28,10.22-8.67,15.6-18.68,15.98-17.21.65-15.46-13.18-12.12-25.71,2.5-9.4,6.43-15.75,16.85-16.6,11.28-.92,19.35,2.42,16.34,15.17Z"/>
      <polygon class="st1" points="338.18 30.68 325.05 88.87 313.51 88.87 325.45 30.68 338.18 30.68"/>
      <path class="st1" d="M393.89,37.06l-2.39,11.15h5.57c.3.29-1.38,6.87-1.69,7.08-1.02.7-4.74-.79-5.9.86-.69.98-5.01,22.39-4.83,23.58.31,2.05,3.01,2.16,4.68,1.97,0,1.38.05,7.08.05,7.08,0,0-11.51,1.16-14.98-2.32-4.76-4.76,3.58-31.08,3.58-31.08h-3.98c-.36-.35.75-6.27,1.55-6.82,1.11-.75,3.44.15,4.44-1.13s.09-4.39,2.45-6.32c1.09-.89,10.76-4.6,11.45-4.06Z"/>
      <polygon class="st1" points="454.38 30.68 441.69 88.51 430.49 88.46 442.44 30.68 454.38 30.68"/>
      <polygon class="st1" points="474.28 30.68 462.34 88.87 451.19 88.87 463.13 30.68 474.28 30.68"/>
      <polygon class="st1" points="490.99 48.21 482.28 88.51 471.08 88.46 479.85 48.21 490.99 48.21"/>
      <polygon class="st1" points="494.97 30.68 493.38 39.44 481.44 39.44 483.03 30.68 494.97 30.68"/>
    </g>
    <path class="st1" d="M544.15,69.74h21.09c2.99-14.44,2.49-23.42-14.75-22.35-8.9.55-12.97,4.38-16.18,12.49-3.02,7.61-7.11,25.34,2.89,28.78,10.65,3.67,23.31-2.9,26.41-14.02-.94,0-8.97-.01-10.6-.01s-1.91,6.35-6.07,7.55c-7.6,2.21-4.38-12.44-2.8-12.44ZM554.51,55.37c1.46,1.43,1.29,7.06.3,7.91-.72.62-8.47-.27-10.26.09,0-4.42,5.42-12.47,9.96-7.99Z"/>
    <path class="st1" d="M657.52,69.74h21.09c2.99-14.44,2.49-23.42-14.75-22.35-8.9.55-12.97,4.38-16.18,12.49-3.02,7.61-7.11,25.34,2.89,28.78,10.65,3.67,23.31-2.9,26.41-14.02-.94,0-8.97-.01-10.6-.01s-1.91,6.35-6.07,7.55c-7.6,2.21-4.38-12.44-2.8-12.44ZM667.88,55.37c1.46,1.43,1.29,7.06.3,7.91-.72.62-8.47-.27-10.26.09,0-4.42,5.42-12.47,9.96-7.99Z"/>
    <g>
      <path class="st1" d="M186.43,137.82v-19.78h2.62v19.78h-2.62Z"/>
      <path class="st1" d="M193.56,137.82v-14.33h2.19v2.04c1.05-1.57,2.57-2.36,4.56-2.36.86,0,1.66.16,2.38.46.72.31,1.27.72,1.63,1.22s.61,1.1.76,1.79c.09.45.13,1.24.13,2.36v8.81h-2.43v-8.72c0-.99-.09-1.73-.28-2.22-.19-.49-.52-.88-1.01-1.17-.48-.29-1.05-.44-1.69-.44-1.03,0-1.93.33-2.68.98-.75.66-1.13,1.9-1.13,3.74v7.83h-2.43Z"/>
      <path class="st1" d="M214.21,135.65l.35,2.15c-.68.14-1.3.22-1.84.22-.88,0-1.57-.14-2.05-.42s-.83-.65-1.03-1.1c-.2-.45-.3-1.41-.3-2.87v-8.24h-1.78v-1.89h1.78v-3.55l2.42-1.46v5.01h2.44v1.89h-2.44v8.38c0,.69.04,1.14.13,1.34.09.2.23.35.42.47.19.12.47.18.83.18.27,0,.62-.03,1.07-.09Z"/>
      <path class="st1" d="M226.43,133.21l2.51.31c-.4,1.47-1.13,2.6-2.2,3.41s-2.44,1.21-4.1,1.21c-2.1,0-3.76-.65-4.99-1.94-1.23-1.29-1.84-3.1-1.84-5.43s.62-4.28,1.86-5.61c1.24-1.33,2.85-2,4.83-2s3.48.65,4.7,1.96,1.82,3.14,1.82,5.51c0,.14,0,.36-.01.65h-10.69c.09,1.57.54,2.78,1.34,3.62s1.8,1.25,3,1.25c.89,0,1.65-.23,2.28-.7s1.13-1.21,1.5-2.24ZM218.45,129.28h8c-.11-1.21-.41-2.11-.92-2.71-.77-.94-1.78-1.4-3.01-1.4-1.12,0-2.05.37-2.81,1.12-.76.75-1.18,1.74-1.26,3Z"/>
      <path class="st1" d="M232.24,137.82v-19.78h2.43v19.78h-2.43Z"/>
      <path class="st1" d="M238.58,120.84v-2.79h2.43v2.79h-2.43ZM238.58,137.82v-14.33h2.43v14.33h-2.43Z"/>
      <path class="st1" d="M244.6,139.01l2.36.35c.1.73.37,1.26.82,1.59.6.45,1.43.67,2.47.67,1.12,0,1.99-.23,2.6-.67s1.03-1.08,1.24-1.89c.13-.5.18-1.53.18-3.12-1.06,1.25-2.38,1.88-3.97,1.88-1.97,0-3.49-.71-4.57-2.13s-1.62-3.13-1.62-5.11c0-1.37.25-2.63.74-3.79.5-1.16,1.21-2.05,2.15-2.68.94-.63,2.04-.94,3.31-.94,1.69,0,3.09.68,4.18,2.05v-1.73h2.24v12.39c0,2.23-.23,3.81-.68,4.74-.45.93-1.17,1.67-2.16,2.21-.99.54-2.2.81-3.64.81-1.71,0-3.09-.39-4.14-1.15-1.05-.77-1.56-1.93-1.52-3.47ZM246.61,130.4c0,1.88.37,3.25,1.12,4.12s1.68,1.3,2.81,1.3,2.05-.43,2.81-1.29c.76-.86,1.13-2.21,1.13-4.04s-.39-3.08-1.17-3.97c-.78-.89-1.72-1.34-2.81-1.34s-2,.44-2.75,1.32c-.76.88-1.13,2.18-1.13,3.91Z"/>
      <path class="st1" d="M270.53,133.21l2.51.31c-.4,1.47-1.13,2.6-2.2,3.41s-2.44,1.21-4.1,1.21c-2.1,0-3.76-.65-4.99-1.94-1.23-1.29-1.84-3.1-1.84-5.43s.62-4.28,1.86-5.61,2.85-2,4.83-2,3.48.65,4.7,1.96c1.21,1.3,1.82,3.14,1.82,5.51,0,.14,0,.36-.01.65h-10.69c.09,1.57.54,2.78,1.34,3.62s1.8,1.25,3,1.25c.89,0,1.65-.23,2.28-.7s1.13-1.21,1.5-2.24ZM262.56,129.28h8c-.11-1.21-.41-2.11-.92-2.71-.77-.94-1.78-1.4-3.01-1.4-1.12,0-2.05.37-2.81,1.12-.76.75-1.18,1.74-1.26,3Z"/>
      <path class="st1" d="M276.34,137.82v-14.33h2.19v2.04c1.05-1.57,2.57-2.36,4.56-2.36.86,0,1.66.16,2.38.46.72.31,1.27.72,1.63,1.22s.61,1.1.76,1.79c.09.45.13,1.24.13,2.36v8.81h-2.43v-8.72c0-.99-.09-1.73-.28-2.22-.19-.49-.52-.88-1.01-1.17-.48-.29-1.05-.44-1.69-.44-1.03,0-1.93.33-2.68.98-.75.66-1.13,1.9-1.13,3.74v7.83h-2.43Z"/>
      <path class="st1" d="M301.26,132.58l2.39.31c-.26,1.65-.93,2.94-2,3.87-1.07.93-2.39,1.4-3.96,1.4-1.96,0-3.54-.64-4.73-1.92-1.19-1.28-1.79-3.12-1.79-5.51,0-1.55.26-2.9.77-4.06s1.29-2.03,2.34-2.61c1.05-.58,2.19-.87,3.42-.87,1.56,0,2.83.39,3.82,1.18.99.79,1.62,1.9,1.9,3.35l-2.36.36c-.23-.96-.62-1.69-1.19-2.17-.57-.49-1.26-.73-2.07-.73-1.22,0-2.22.44-2.98,1.32-.76.88-1.15,2.26-1.15,4.16s.37,3.32,1.11,4.2,1.7,1.31,2.89,1.31c.95,0,1.75-.29,2.39-.88s1.04-1.48,1.21-2.7Z"/>
      <path class="st1" d="M306.27,120.84v-2.79h2.43v2.79h-2.43ZM306.27,137.82v-14.33h2.43v14.33h-2.43Z"/>
      <path class="st1" d="M321.98,136.06c-.9.76-1.77,1.3-2.6,1.62-.83.31-1.73.47-2.68.47-1.57,0-2.78-.38-3.63-1.15-.85-.77-1.27-1.75-1.27-2.95,0-.7.16-1.34.48-1.92.32-.58.74-1.05,1.25-1.4.52-.35,1.1-.62,1.75-.8.48-.13,1.2-.25,2.16-.36,1.96-.23,3.4-.51,4.33-.84,0-.33.01-.54.01-.63,0-.99-.23-1.69-.69-2.09-.62-.55-1.54-.82-2.77-.82-1.14,0-1.99.2-2.53.6-.54.4-.95,1.11-1.21,2.12l-2.37-.32c.22-1.02.57-1.84,1.07-2.46.5-.62,1.21-1.11,2.15-1.44.94-.34,2.02-.51,3.25-.51s2.22.14,2.98.43,1.33.65,1.69,1.09c.36.44.61.99.76,1.65.08.41.12,1.16.12,2.24v3.24c0,2.26.05,3.69.15,4.28.1.6.31,1.17.61,1.72h-2.54c-.25-.5-.41-1.09-.49-1.77ZM321.78,130.63c-.88.36-2.2.67-3.97.92-1,.14-1.7.31-2.12.49s-.73.44-.96.79c-.23.35-.34.73-.34,1.15,0,.65.24,1.19.73,1.62.49.43,1.21.65,2.15.65s1.77-.2,2.5-.61c.73-.41,1.26-.97,1.61-1.68.26-.55.39-1.36.39-2.43v-.89Z"/>
      <path class="st1" d="M346.54,133.21l2.51.31c-.4,1.47-1.13,2.6-2.2,3.41s-2.44,1.21-4.1,1.21c-2.1,0-3.76-.65-4.99-1.94-1.23-1.29-1.84-3.1-1.84-5.43s.62-4.28,1.86-5.61,2.85-2,4.83-2,3.48.65,4.7,1.96c1.21,1.3,1.82,3.14,1.82,5.51,0,.14,0,.36-.01.65h-10.69c.09,1.57.54,2.78,1.34,3.62s1.8,1.25,3,1.25c.89,0,1.65-.23,2.28-.7s1.13-1.21,1.5-2.24ZM338.56,129.28h8c-.11-1.21-.41-2.11-.92-2.71-.77-.94-1.78-1.4-3.01-1.4-1.12,0-2.05.37-2.81,1.12-.76.75-1.18,1.74-1.26,3Z"/>
      <path class="st1" d="M352.35,137.82v-14.33h2.19v2.04c1.05-1.57,2.57-2.36,4.56-2.36.86,0,1.66.16,2.38.46.72.31,1.27.72,1.63,1.22s.61,1.1.76,1.79c.09.45.13,1.24.13,2.36v8.81h-2.43v-8.72c0-.99-.09-1.73-.28-2.22-.19-.49-.52-.88-1.01-1.17-.48-.29-1.05-.44-1.69-.44-1.03,0-1.93.33-2.68.98-.75.66-1.13,1.9-1.13,3.74v7.83h-2.43Z"/>
      <path class="st1" d="M376.46,120.84v-2.79h2.43v2.79h-2.43ZM376.46,137.82v-14.33h2.43v14.33h-2.43Z"/>
      <path class="st1" d="M382.78,137.82v-14.33h2.19v2.04c1.05-1.57,2.57-2.36,4.56-2.36.86,0,1.66.16,2.38.46.72.31,1.27.72,1.63,1.22s.61,1.1.76,1.79c.09.45.13,1.24.13,2.36v8.81h-2.43v-8.72c0-.99-.09-1.73-.28-2.22-.19-.49-.52-.88-1.01-1.17-.48-.29-1.05-.44-1.69-.44-1.03,0-1.93.33-2.68.98-.75.66-1.13,1.9-1.13,3.74v7.83h-2.43Z"/>
      <path class="st1" d="M403.43,135.65l.35,2.15c-.68.14-1.3.22-1.84.22-.88,0-1.57-.14-2.05-.42s-.83-.65-1.03-1.1c-.2-.45-.3-1.41-.3-2.87v-8.24h-1.78v-1.89h1.78v-3.55l2.42-1.46v5.01h2.44v1.89h-2.44v8.38c0,.69.04,1.14.13,1.34.09.2.23.35.42.47.19.12.47.18.83.18.27,0,.62-.03,1.07-.09Z"/>
      <path class="st1" d="M415.65,133.21l2.51.31c-.4,1.47-1.13,2.6-2.2,3.41-1.07.81-2.44,1.21-4.1,1.21-2.1,0-3.76-.65-4.99-1.94-1.23-1.29-1.84-3.1-1.84-5.43s.62-4.28,1.86-5.61c1.24-1.33,2.85-2,4.83-2s3.48.65,4.7,1.96c1.21,1.3,1.82,3.14,1.82,5.51,0,.14,0,.36-.01.65h-10.69c.09,1.57.54,2.78,1.34,3.62s1.8,1.25,3,1.25c.89,0,1.65-.23,2.28-.7s1.13-1.21,1.5-2.24ZM407.67,129.28h8c-.11-1.21-.41-2.11-.92-2.71-.77-.94-1.78-1.4-3.01-1.4-1.12,0-2.05.37-2.81,1.12-.76.75-1.18,1.74-1.26,3Z"/>
      <path class="st1" d="M421.11,139.01l2.36.35c.1.73.37,1.26.82,1.59.6.45,1.43.67,2.47.67,1.12,0,1.99-.23,2.6-.67s1.03-1.08,1.24-1.89c.13-.5.18-1.53.18-3.12-1.06,1.25-2.38,1.88-3.97,1.88-1.97,0-3.49-.71-4.57-2.13-1.08-1.42-1.62-3.13-1.62-5.11,0-1.37.25-2.63.74-3.79.5-1.16,1.21-2.05,2.15-2.68.94-.63,2.04-.94,3.31-.94,1.69,0,3.09.68,4.18,2.05v-1.73h2.24v12.39c0,2.23-.23,3.81-.68,4.74-.45.93-1.17,1.67-2.16,2.21-.99.54-2.2.81-3.64.81-1.71,0-3.09-.39-4.14-1.15-1.05-.77-1.56-1.93-1.52-3.47ZM423.12,130.4c0,1.88.37,3.25,1.12,4.12s1.68,1.3,2.81,1.3,2.05-.43,2.81-1.29c.76-.86,1.13-2.21,1.13-4.04s-.39-3.08-1.17-3.97c-.78-.89-1.72-1.34-2.81-1.34s-2,.44-2.75,1.32c-.76.88-1.13,2.18-1.13,3.91Z"/>
      <path class="st1" d="M437.13,137.82v-14.33h2.19v2.17c.56-1.02,1.07-1.69,1.55-2.01.47-.32.99-.49,1.56-.49.82,0,1.65.26,2.5.78l-.84,2.25c-.59-.35-1.19-.53-1.78-.53-.53,0-1.01.16-1.43.48-.42.32-.72.76-.9,1.33-.27.86-.4,1.81-.4,2.83v7.5h-2.43Z"/>
      <path class="st1" d="M456.03,136.06c-.9.76-1.77,1.3-2.6,1.62-.83.31-1.73.47-2.68.47-1.57,0-2.78-.38-3.63-1.15-.85-.77-1.27-1.75-1.27-2.95,0-.7.16-1.34.48-1.92.32-.58.74-1.05,1.25-1.4.52-.35,1.1-.62,1.75-.8.48-.13,1.2-.25,2.16-.36,1.96-.23,3.4-.51,4.33-.84,0-.33.01-.54.01-.63,0-.99-.23-1.69-.69-2.09-.62-.55-1.54-.82-2.77-.82-1.14,0-1.99.2-2.53.6-.54.4-.95,1.11-1.21,2.12l-2.37-.32c.22-1.02.57-1.84,1.07-2.46.5-.62,1.21-1.11,2.15-1.44.94-.34,2.02-.51,3.25-.51s2.22.14,2.98.43,1.33.65,1.69,1.09c.36.44.61.99.76,1.65.08.41.12,1.16.12,2.24v3.24c0,2.26.05,3.69.15,4.28.1.6.31,1.17.61,1.72h-2.54c-.25-.5-.41-1.09-.49-1.77ZM455.83,130.63c-.88.36-2.2.67-3.97.92-1,.14-1.7.31-2.12.49s-.73.44-.96.79c-.23.35-.34.73-.34,1.15,0,.65.24,1.19.73,1.62.49.43,1.21.65,2.15.65s1.77-.2,2.5-.61c.73-.41,1.26-.97,1.61-1.68.26-.55.39-1.36.39-2.43v-.89Z"/>
      <path class="st1" d="M471.51,132.58l2.39.31c-.26,1.65-.93,2.94-2,3.87-1.07.93-2.39,1.4-3.96,1.4-1.96,0-3.54-.64-4.73-1.92-1.19-1.28-1.79-3.12-1.79-5.51,0-1.55.26-2.9.77-4.06s1.29-2.03,2.34-2.61c1.05-.58,2.19-.87,3.42-.87,1.56,0,2.83.39,3.82,1.18.99.79,1.62,1.9,1.9,3.35l-2.36.36c-.23-.96-.62-1.69-1.19-2.17-.57-.49-1.26-.73-2.07-.73-1.22,0-2.22.44-2.98,1.32-.76.88-1.15,2.26-1.15,4.16s.37,3.32,1.11,4.2c.74.87,1.7,1.31,2.89,1.31.95,0,1.75-.29,2.39-.88s1.04-1.48,1.21-2.7Z"/>
      <path class="st1" d="M476.52,120.84v-2.79h2.43v2.79h-2.43ZM476.52,137.82v-14.33h2.43v14.33h-2.43Z"/>
      <path class="st1" d="M482.1,130.66c0-2.65.74-4.62,2.21-5.9,1.23-1.06,2.73-1.59,4.51-1.59,1.97,0,3.58.65,4.83,1.94,1.25,1.29,1.88,3.07,1.88,5.35,0,1.84-.28,3.29-.83,4.35-.55,1.06-1.36,1.88-2.42,2.46-1.06.58-2.21.88-3.46.88-2.01,0-3.63-.64-4.86-1.93-1.24-1.29-1.86-3.14-1.86-5.56ZM484.6,130.66c0,1.84.4,3.21,1.2,4.12.8.91,1.81,1.37,3.02,1.37s2.21-.46,3.01-1.38,1.2-2.32,1.2-4.2c0-1.77-.4-3.11-1.21-4.03-.8-.91-1.8-1.37-3-1.37s-2.22.45-3.02,1.36-1.2,2.28-1.2,4.12ZM487.48,121.71l1.79-3.78h3.18l-2.97,3.78h-2.01Z"/>
      <path class="st1" d="M498.7,137.82v-14.33h2.19v2.04c1.05-1.57,2.57-2.36,4.56-2.36.86,0,1.66.16,2.38.46.72.31,1.27.72,1.63,1.22s.61,1.1.76,1.79c.09.45.13,1.24.13,2.36v8.81h-2.43v-8.72c0-.99-.09-1.73-.28-2.22-.19-.49-.52-.88-1.01-1.17-.48-.29-1.05-.44-1.69-.44-1.03,0-1.93.33-2.68.98-.75.66-1.13,1.9-1.13,3.74v7.83h-2.43Z"/>
      <path class="st1" d="M528.1,135.65l.35,2.15c-.68.14-1.3.22-1.84.22-.88,0-1.57-.14-2.05-.42s-.83-.65-1.03-1.1c-.2-.45-.3-1.41-.3-2.87v-8.24h-1.78v-1.89h1.78v-3.55l2.42-1.46v5.01h2.44v1.89h-2.44v8.38c0,.69.04,1.14.13,1.34.09.2.23.35.42.47.19.12.47.18.83.18.27,0,.62-.03,1.07-.09Z"/>
      <path class="st1" d="M540.31,133.21l2.51.31c-.4,1.47-1.13,2.6-2.2,3.41s-2.44,1.21-4.1,1.21c-2.1,0-3.76-.65-4.99-1.94-1.23-1.29-1.84-3.1-1.84-5.43s.62-4.28,1.86-5.61c1.24-1.33,2.85-2,4.83-2s3.48.65,4.7,1.96c1.21,1.3,1.82,3.14,1.82,5.51,0,.14,0,.36-.01.65h-10.69c.09,1.57.54,2.78,1.34,3.62s1.8,1.25,3,1.25c.89,0,1.65-.23,2.28-.7s1.13-1.21,1.5-2.24ZM532.34,129.28h8c-.11-1.21-.41-2.11-.92-2.71-.77-.94-1.78-1.4-3.01-1.4-1.12,0-2.05.37-2.81,1.12-.76.75-1.18,1.74-1.26,3Z"/>
      <path class="st1" d="M555.54,132.58l2.39.31c-.26,1.65-.93,2.94-2,3.87-1.07.93-2.39,1.4-3.96,1.4-1.96,0-3.54-.64-4.73-1.92-1.19-1.28-1.79-3.12-1.79-5.51,0-1.55.26-2.9.77-4.06.51-1.16,1.29-2.03,2.34-2.61,1.05-.58,2.19-.87,3.42-.87,1.56,0,2.83.39,3.82,1.18.99.79,1.62,1.9,1.9,3.35l-2.36.36c-.23-.96-.62-1.69-1.19-2.17-.57-.49-1.26-.73-2.07-.73-1.22,0-2.22.44-2.98,1.32-.76.88-1.15,2.26-1.15,4.16s.37,3.32,1.11,4.2,1.7,1.31,2.89,1.31c.95,0,1.75-.29,2.39-.88s1.04-1.48,1.21-2.7Z"/>
      <path class="st1" d="M560.51,137.82v-14.33h2.19v2.04c1.05-1.57,2.57-2.36,4.56-2.36.86,0,1.66.16,2.38.46.72.31,1.27.72,1.63,1.22s.61,1.1.76,1.79c.09.45.13,1.24.13,2.36v8.81h-2.43v-8.72c0-.99-.09-1.73-.28-2.22-.19-.49-.52-.88-1.01-1.17-.48-.29-1.05-.44-1.69-.44-1.03,0-1.93.33-2.68.98-.75.66-1.13,1.9-1.13,3.74v7.83h-2.43Z"/>
      <path class="st1" d="M575.26,130.66c0-2.65.74-4.62,2.21-5.9,1.23-1.06,2.73-1.59,4.51-1.59,1.97,0,3.58.65,4.83,1.94,1.25,1.29,1.88,3.07,1.88,5.35,0,1.84-.28,3.29-.83,4.35-.55,1.06-1.36,1.88-2.42,2.46-1.06.58-2.21.88-3.46.88-2.01,0-3.63-.64-4.86-1.93-1.24-1.29-1.86-3.14-1.86-5.56ZM577.75,130.66c0,1.84.4,3.21,1.2,4.12.8.91,1.81,1.37,3.02,1.37s2.21-.46,3.01-1.38,1.2-2.32,1.2-4.2c0-1.77-.4-3.11-1.21-4.03-.8-.91-1.8-1.37-3-1.37s-2.22.45-3.02,1.36-1.2,2.28-1.2,4.12Z"/>
      <path class="st1" d="M591.81,137.82v-19.78h2.43v19.78h-2.43Z"/>
      <path class="st1" d="M597.42,130.66c0-2.65.74-4.62,2.21-5.9,1.23-1.06,2.73-1.59,4.51-1.59,1.97,0,3.58.65,4.83,1.94,1.25,1.29,1.88,3.07,1.88,5.35,0,1.84-.28,3.29-.83,4.35-.55,1.06-1.36,1.88-2.42,2.46-1.06.58-2.21.88-3.46.88-2.01,0-3.63-.64-4.86-1.93-1.24-1.29-1.86-3.14-1.86-5.56ZM599.92,130.66c0,1.84.4,3.21,1.2,4.12.8.91,1.81,1.37,3.02,1.37s2.21-.46,3.01-1.38,1.2-2.32,1.2-4.2c0-1.77-.4-3.11-1.21-4.03-.8-.91-1.8-1.37-3-1.37s-2.22.45-3.02,1.36-1.2,2.28-1.2,4.12ZM602.79,121.71l1.79-3.78h3.18l-2.97,3.78h-2.01Z"/>
      <path class="st1" d="M613.67,139.01l2.36.35c.1.73.37,1.26.82,1.59.6.45,1.43.67,2.47.67,1.12,0,1.99-.23,2.6-.67s1.03-1.08,1.24-1.89c.13-.5.18-1.53.18-3.12-1.06,1.25-2.38,1.88-3.97,1.88-1.97,0-3.49-.71-4.57-2.13-1.08-1.42-1.62-3.13-1.62-5.11,0-1.37.25-2.63.74-3.79.5-1.16,1.21-2.05,2.15-2.68.94-.63,2.04-.94,3.31-.94,1.69,0,3.09.68,4.18,2.05v-1.73h2.24v12.39c0,2.23-.23,3.81-.68,4.74-.45.93-1.17,1.67-2.16,2.21-.99.54-2.2.81-3.64.81-1.71,0-3.09-.39-4.14-1.15-1.05-.77-1.56-1.93-1.52-3.47ZM615.68,130.4c0,1.88.37,3.25,1.12,4.12s1.68,1.3,2.81,1.3,2.05-.43,2.81-1.29c.76-.86,1.13-2.21,1.13-4.04s-.39-3.08-1.17-3.97c-.78-.89-1.72-1.34-2.81-1.34s-2,.44-2.75,1.32c-.76.88-1.13,2.18-1.13,3.91Z"/>
      <path class="st1" d="M629.69,120.84v-2.79h2.43v2.79h-2.43ZM629.69,137.82v-14.33h2.43v14.33h-2.43Z"/>
      <path class="st1" d="M645.44,132.58l2.39.31c-.26,1.65-.93,2.94-2,3.87-1.07.93-2.39,1.4-3.96,1.4-1.96,0-3.54-.64-4.73-1.92-1.19-1.28-1.79-3.12-1.79-5.51,0-1.55.26-2.9.77-4.06s1.29-2.03,2.34-2.61c1.05-.58,2.19-.87,3.42-.87,1.56,0,2.83.39,3.82,1.18.99.79,1.62,1.9,1.9,3.35l-2.36.36c-.23-.96-.62-1.69-1.19-2.17-.57-.49-1.26-.73-2.07-.73-1.22,0-2.22.44-2.98,1.32-.76.88-1.15,2.26-1.15,4.16s.37,3.32,1.11,4.2,1.7,1.31,2.89,1.31c.95,0,1.75-.29,2.39-.88s1.04-1.48,1.21-2.7Z"/>
      <path class="st1" d="M660,136.06c-.9.76-1.77,1.3-2.6,1.62-.83.31-1.73.47-2.68.47-1.57,0-2.78-.38-3.63-1.15-.85-.77-1.27-1.75-1.27-2.95,0-.7.16-1.34.48-1.92.32-.58.74-1.05,1.25-1.4.52-.35,1.1-.62,1.75-.8.48-.13,1.2-.25,2.16-.36,1.96-.23,3.4-.51,4.33-.84,0-.33.01-.54.01-.63,0-.99-.23-1.69-.69-2.09-.62-.55-1.54-.82-2.77-.82-1.14,0-1.99.2-2.53.6-.54.4-.95,1.11-1.21,2.12l-2.37-.32c.22-1.02.57-1.84,1.07-2.46.5-.62,1.21-1.11,2.15-1.44.94-.34,2.02-.51,3.25-.51s2.22.14,2.98.43,1.33.65,1.69,1.09c.36.44.61.99.76,1.65.08.41.12,1.16.12,2.24v3.24c0,2.26.05,3.69.15,4.28.1.6.31,1.17.61,1.72h-2.54c-.25-.5-.41-1.09-.49-1.77ZM659.79,130.63c-.88.36-2.2.67-3.97.92-1,.14-1.7.31-2.12.49s-.73.44-.96.79c-.23.35-.34.73-.34,1.15,0,.65.24,1.19.73,1.62.49.43,1.21.65,2.15.65s1.77-.2,2.5-.61c.73-.41,1.26-.97,1.61-1.68.26-.55.39-1.36.39-2.43v-.89Z"/>
      <path class="st1" d="M666.77,137.82v-2.77h2.77v2.77h-2.77Z"/>
    </g>
  </g>
  <path class="st1" d="M597.86,88.87h-11.14l6.3-30.79c.25-5.53-6.4-4.66-8.28-.3-3.62,8.39-6.77,31.09-6.77,31.09h-11.14l7.96-40.65h11.94s-.37,3.28-.37,3.28c0,0,5.01-3.55,5.89-3.73,5.47-1.11,10.92-.52,12.5,4.98.24.84.24,1.73.06,2.58l-6.94,33.54Z"/>
</svg>