<?xml version="1.0" encoding="UTF-8"?>
<svg id="Capa_1" xmlns="http://www.w3.org/2000/svg" version="1.1" viewBox="0 0 405.71 169.55">
  <!-- Generator: Adobe Illustrator 29.0.1, SVG Export Plug-In . SVG Version: 2.1.0 Build 192)  -->
  <defs>
    <style>
      .st0 {
        fill: #fff;
      }

      .st1 {
        fill: #5e6a6f;
      }

      .st2 {
        fill: #999;
      }

      .st3 {
        fill: #221e1f;
      }
    </style>
  </defs>
  <g>
    <path class="st0" d="M69.46,21.86c-34.83,0-63.17,28.22-63.17,62.92s28.34,62.93,63.17,62.93,63.17-28.23,63.17-62.93-28.34-62.92-63.17-62.92ZM100.09,132.65c-.39.25-.77.49-1.16.72-1.18.72-2.38,1.39-3.6,2.01-7.77,3.95-16.56,6.18-25.87,6.18s-18.1-2.23-25.87-6.18c-1.22-.62-2.42-1.29-3.6-2.01-.39-.23-.77-.47-1.16-.72-15.86-10.08-26.4-27.77-26.4-47.87s10.54-37.79,26.4-47.87c.39-.25.77-.49,1.16-.72,1.18-.72,2.38-1.39,3.6-2.01,7.77-3.95,16.56-6.18,25.87-6.18s18.1,2.23,25.87,6.18c1.22.62,2.42,1.29,3.6,2.01.39.23.77.47,1.16.72,15.86,10.08,26.4,27.77,26.4,47.87s-10.54,37.79-26.4,47.87Z"/>
    <path class="st2" d="M85.52,56.41c.1.67-.35,1.29-1.02,1.39-2.24.35-4.15,1.1-5.68,2.24-.22.16-.48.24-.73.24-.37,0-.74-.17-.98-.49-.4-.54-.28-1.3.25-1.7,1.85-1.37,4.13-2.28,6.77-2.69.67-.09,1.28.35,1.39,1.01Z"/>
    <path class="st2" d="M100.09,36.91c-.39-.25-.77-.49-1.16-.72-1.18-.72-2.38-1.39-3.6-2.01-7.76-3.98-16.55-6.22-25.87-6.22s-18.11,2.24-25.87,6.22c-1.22.62-2.42,1.29-3.6,2.01-.39.23-.77.47-1.16.72-15.75,10.1-26.19,27.77-26.19,47.87s10.44,37.77,26.19,47.87c.39.25.77.49,1.16.72,1.18.72,2.38,1.39,3.6,2.01,7.76,3.98,16.55,6.22,25.87,6.22s18.11-2.24,25.87-6.22c1.22-.62,2.42-1.29,3.6-2.01.39-.23.77-.47,1.16-.72,15.75-10.1,26.19-27.77,26.19-47.87s-10.44-37.77-26.19-47.87ZM88.65,84.22c-.55-.38-1.31-.24-1.69.32l-3.2,4.68c-2.48,1.6-5.39,2.49-8.43,2.49s-6.17-.95-8.77-2.73c-6.85-4.66-8.82-13.86-4.52-20.87l6.66-9.72c2.89-4.24,7.69-6.77,12.84-6.77,3.13,0,6.16.94,8.75,2.72,4.24,2.88,6.76,7.67,6.76,12.81,0,3.14-.92,6.15-2.68,8.7l-5.72,8.37Z"/>
    <g>
      <g>
        <g>
          <path class="st3" d="M85.52,56.41c.1.67-.35,1.29-1.02,1.39-2.24.35-4.15,1.1-5.68,2.24-.22.16-.48.24-.73.24-.37,0-.74-.17-.98-.49-.4-.54-.28-1.3.25-1.7,1.85-1.37,4.13-2.28,6.77-2.69.67-.09,1.28.35,1.39,1.01Z"/>
          <path class="st1" d="M90.98,53.33c-2.89-1.98-6.18-2.93-9.44-2.93-3.01,0-5.99.81-8.6,2.36-.87.52-1.69,1.12-2.46,1.8-.26.23-.51.46-.76.71-.49.48-.95,1.01-1.39,1.57-.22.28-.43.56-.63.86l-6.67,9.72-17.44,25.53c-5.23,7.64-3.29,18.05,4.35,23.28,7.63,5.21,18.07,3.26,23.28-4.37l3.07-4.49,14.68-21.46s.02-.03.02-.04c.01-.02.03-.04.04-.06.04-.05.08-.11.12-.17l6.23-9.1c1.96-2.87,2.89-6.15,2.89-9.39,0-5.33-2.55-10.58-7.29-13.82ZM94.37,75.85l-5.72,8.37c-.55-.38-1.31-.24-1.69.32l-3.2,4.68c-2.48,1.6-5.39,2.49-8.43,2.49s-6.17-.95-8.77-2.73c-6.85-4.66-8.82-13.86-4.52-20.87l6.66-9.72c2.89-4.24,7.69-6.77,12.84-6.77,3.13,0,6.16.94,8.75,2.72,4.24,2.88,6.76,7.67,6.76,12.81,0,3.14-.92,6.15-2.68,8.7Z"/>
        </g>
        <path class="st0" d="M89.03,85.81s-.03.04-.04.06c0,.01-.01.03-.02.04l-14.68,21.46c-.23.34-.61.53-1,.53-.24,0-.48-.07-.69-.22-.55-.38-.69-1.13-.31-1.69l9.96-14.56h0s1.51-2.21,1.51-2.21l3.2-4.68c.38-.56,1.14-.7,1.69-.32.53.36.68,1.05.38,1.59Z"/>
        <g>
          <path class="st0" d="M85.52,56.41c.1.67-.35,1.29-1.02,1.39-2.24.35-4.15,1.1-5.68,2.24-.22.16-.48.24-.73.24-.37,0-.74-.17-.98-.49-.4-.54-.28-1.3.25-1.7,1.85-1.37,4.13-2.28,6.77-2.69.67-.09,1.28.35,1.39,1.01Z"/>
          <path class="st0" d="M90.98,53.33c-2.89-1.98-6.18-2.93-9.44-2.93-3.01,0-5.99.81-8.6,2.36-.87.52-1.69,1.12-2.46,1.8-.26.23-.51.46-.76.71-.49.48-.95,1.01-1.39,1.57-.22.28-.43.56-.63.86l-6.67,9.72c-4.62,7.55-2.56,17.52,4.84,22.57,2.9,1.98,6.19,2.93,9.46,2.93,1.33,0,2.66-.16,3.95-.47.65-.16,1.29-.35,1.91-.58.36-.14.71-.28,1.06-.44h0c.26-.12.52-.24.77-.37,1.49-.77,2.87-1.76,4.1-2.99.25-.24.49-.49.72-.76.41-.45.79-.93,1.15-1.44.01-.02.03-.04.04-.06.04-.05.08-.11.12-.17l6.23-9.1c1.96-2.87,2.89-6.15,2.89-9.39,0-5.33-2.55-10.58-7.29-13.82ZM94.37,75.85l-5.72,8.37c-.55-.38-1.31-.24-1.69.32l-3.2,4.68c-2.48,1.6-5.39,2.49-8.43,2.49s-6.17-.95-8.77-2.73c-6.85-4.66-8.82-13.86-4.52-20.87l6.66-9.72c2.89-4.24,7.69-6.77,12.84-6.77,3.13,0,6.16.94,8.75,2.72,4.24,2.88,6.76,7.67,6.76,12.81,0,3.14-.92,6.15-2.68,8.7Z"/>
          <path class="st1" d="M90.98,53.33c-2.89-1.98-6.18-2.93-9.44-2.93-3.01,0-5.99.81-8.6,2.36-.87.52-1.69,1.12-2.46,1.8-.26.23-.51.46-.76.71-.5.49-.96,1.01-1.39,1.57-.22.28-.43.56-.63.86l-6.67,9.72c-4.62,7.55-2.56,17.52,4.84,22.57,2.9,1.98,6.19,2.93,9.46,2.93,1.33,0,2.66-.16,3.95-.47.65-.16,1.29-.35,1.91-.58.36-.14.71-.28,1.06-.44.26-.12.52-.24.77-.37,1.49-.77,2.87-1.76,4.1-2.99.25-.24.49-.49.72-.76.41-.45.79-.93,1.15-1.44.01-.02.03-.04.04-.06.04-.05.08-.11.12-.17l6.23-9.1c1.96-2.87,2.89-6.15,2.89-9.39,0-5.33-2.55-10.58-7.29-13.82ZM94.37,75.85l-5.72,8.37-.5.73c-1.18,1.72-2.68,3.17-4.39,4.27-2.48,1.6-5.39,2.49-8.43,2.49s-6.17-.95-8.77-2.73c-6.85-4.66-8.82-13.86-4.52-20.87l6.66-9.72c2.89-4.24,7.69-6.77,12.84-6.77,3.13,0,6.16.94,8.75,2.72,4.24,2.88,6.76,7.67,6.76,12.81,0,3.14-.92,6.15-2.68,8.7Z"/>
        </g>
      </g>
      <path class="st2" d="M85.52,56.41c.1.67-.35,1.29-1.02,1.39-2.24.35-4.15,1.1-5.68,2.24-.22.16-.48.24-.73.24-.37,0-.74-.17-.98-.49-.4-.54-.28-1.3.25-1.7,1.85-1.37,4.13-2.28,6.77-2.69.67-.09,1.28.35,1.39,1.01Z"/>
    </g>
  </g>
  <g>
    <polygon class="st2" points="202.17 41.12 186.54 41.12 148.63 104.66 148.63 114.63 212.17 114.58 212.17 128.47 229.42 128.51 229.42 77.4 212.13 77.4 212.13 96.71 170.13 96.71 202.17 41.12"/>
    <polygon class="st2" points="372.18 41.12 356.54 41.12 318.63 104.66 318.63 114.63 382.17 114.58 382.17 128.47 399.43 128.51 399.43 77.4 382.13 77.4 382.13 96.71 340.14 96.71 372.18 41.12"/>
    <path class="st2" d="M274.61,40.25c-22.71,0-39.2,18.68-39.2,44.4s16.12,44.41,39.2,44.41c19.51,0,39.2-13.73,39.2-44.41s-19.69-44.4-39.2-44.4ZM274.61,114.47c-14.72,0-24.61-11.99-24.61-29.82s10.12-29.81,24.61-29.81,24.61,11.43,24.61,29.81-9.2,29.82-24.61,29.82Z"/>
  </g>
</svg>