<?xml version="1.0" encoding="UTF-8"?>
<svg id="Capa_1" xmlns="http://www.w3.org/2000/svg" version="1.1" viewBox="0 0 328.19 363.08">
  <!-- Generator: Adobe Illustrator 29.0.1, SVG Export Plug-In . SVG Version: 2.1.0 Build 192)  -->
  <defs>
    <style>
      .st0 {
        fill: #999;
      }
    </style>
  </defs>
  <g id="_x23_000000ff">
    <path class="st0" d="M34.3,14.94v256.8h259.6V14.94H34.3ZM272.9,252.94H53v-19.8c73.3-.1,146.6,0,219.9-.1v19.9ZM272.9,214.24H53v-21.6h217.3c.14.02.28.03.42.02.76,0,1.5-.17,2.18.08v21.5ZM273.1,54.44h-24s0,.07-.01.1c-.01.38-.11.82-.29,1.1-3.5,6.7-7.1,13.3-10.4,20.1-4.6,8.3-8.7,16.8-13.1,25.2-2.7,5.2-5.4,10.5-8,15.8-3.9,7.2-7.5,14.6-11.1,22,6.62-.2,13.23,0,19.85-.1h.25c2.4-4.9,4.8-9.8,7.4-14.6,1.1-1.8,1.9-3.7,2.8-5.6,2.5-5.2,5.3-10.2,7.8-15.3,2.2-4.4,4.4-8.8,6.6-13.2,2.38-5.17,5.06-10.23,7.65-15.3.02-.03.03-.07.05-.1h14.4v99.1H53.1v-99.2h14.5c10.9,21.4,21.8,42.9,32.7,64.3h20.2c-14.4-28.1-28.8-56.2-43.2-84.4h-24.3v-20.7h66.1c5.9,35.1,11.7,70.1,17.6,105.2h17.6c-1.45-8.77-2.9-17.54-4.35-26.31-4.34-26.3-8.67-52.56-12.95-78.89h53.1c-6,35.1-12,70.1-18,105.2h17.4c6.19-35.07,12.39-70.03,18.68-105.2.01-.03.01-.07.02-.1h64.9v20.9Z"/>
    <path class="st0" d="M164,284.94c5.3-3.6,12-4.2,18.2-3.6,2.8.3,5.5.9,8,2.1,2.7,1.3,5.1,3.4,6.9,5.8,2.5,3.3,3.5,7.5,3.6,11.5-5,.1-9.9.2-14.9.3-.1-2.1-1-4.1-2.1-5.8-1.8-1.6-4.5-2.3-6.9-1.9-1.4.1-2.8.5-3.8,1.7-1.5,1.2-2.4,3.1-2.1,5.1.3,1.5,1.5,2.6,2.7,3.5,3.3,2.3,7.3,3.3,10.9,4.8,1.4.7,2.9,1.1,4.3,1.8,3.9,1.7,7.8,4,10.2,7.6,2.6,3.8,3.2,8.6,2.6,13.1-.7,5.2-3.7,10.1-8.1,13.1-3.7,2.5-8.2,3.7-12.6,4.1h-6c-2.3-.2-4.6-.6-6.7-1.4-3.8-1.3-7-3.9-9.4-7.1-2.4-3.3-3.5-7.5-3.5-11.6h15.2c.1,1.3.5,2.6,1.2,3.7.3.5.6,1.1,1.2,1.3,1.5.8,3,1.5,4.7,1.7,2.4.2,5-.2,6.8-1.8,1.2-.8,2.1-2.2,2.1-3.7,0-1.8-1.2-3.6-2.7-4.4-2.3-1.3-4.7-2.4-7.2-3.5-4.8-1.7-9.6-3.4-13.9-6.2-2.3-1.5-3.6-3.9-4.8-6.3-1-2.7-1.7-5.5-1.7-8.3,0-5.9,2.6-12.2,7.8-15.6Z"/>
    <path class="st0" d="M55,282.24h16.1v64.6h-16.1v-64.6Z"/>
    <path class="st0" d="M92.3,282.24h23.4c3.5,0,7.1.4,10.4,1.6,3.9,1.4,7.5,3.7,9.9,7.1,3.7,4.9,4.6,11.6,3.2,17.5-.5,2.1-1.4,4.1-2.8,5.8-.8.9-1.5,2-2.5,2.8-2.4,2.1-5.5,3.1-8.6,3.6,5.7,8.7,11.4,17.5,17.1,26.2h-19.7c-4.7-9-9.4-18.1-14.1-27.2v27.2h-16.2c-.1-21.5-.1-43-.1-64.6h0ZM108.6,294.84v18.1c3.1-.1,6.2.4,9.2-.7,1.6-.6,3.1-1.6,4-3.1,1.6-2.6,1.9-5.9,1-8.8-.7-2.1-2.3-3.9-4.4-4.7-3.2-1-6.5-.8-9.8-.8Z"/>
    <path class="st0" d="M234.5,282.24h19.8c7.4,21.6,14.9,43.1,22.3,64.6h-17c-1-3.2-1.9-6.4-2.9-9.6h-24.6c-.9,3.2-1.8,6.4-2.7,9.6h-16.9c7.1-20.8,14.1-41.7,21.2-62.5.3-.7.5-1.4.8-2.1h0ZM244.4,295.74c-2.8,9.8-5.6,19.7-8.4,29.5h17c-2.9-9.9-5.7-19.7-8.6-29.5Z"/>
  </g>
  <g id="_x23_70a39aff">
    <path class="st0" d="M77,54.44h-24.3c.3-7,.3-13.9.3-20.8v20.7h24.3c14.4,28.2,28.8,56.3,43.2,84.4h-.35c-14.38-28.07-28.77-56.23-43.15-84.3Z"/>
    <path class="st0" d="M149.95,112.53c-4.35-26.3-8.7-52.56-13.05-78.89h.1c4.28,26.33,8.61,52.59,12.95,78.89Z"/>
    <path class="st0" d="M189.5,138.84h-.1c6.2-35.1,12.4-70.1,18.5-105.2h.28c-6.29,35.17-12.49,70.13-18.68,105.2Z"/>
    <path class="st0" d="M226.3,138.64h-.25c2.38-4.87,4.77-9.73,7.35-14.5,1-1.8,1.8-3.7,2.8-5.6,2.5-5.1,5.3-10.1,7.8-15.3,2.2-4.4,4.4-8.8,6.6-13.2,2.5-5.2,5.1-10.3,7.7-15.4h.25c-2.59,5.07-5.27,10.13-7.65,15.3-2.2,4.4-4.4,8.8-6.6,13.2-2.5,5.1-5.3,10.1-7.8,15.3-.9,1.9-1.7,3.8-2.8,5.6-2.6,4.8-5,9.7-7.4,14.6Z"/>
    <polygon class="st0" points="53.1 173.64 272.7 173.64 272.7 173.74 52.8 173.74 52.8 74.54 53.1 74.54 53.1 173.64"/>
    <path class="st0" d="M272.8,54.44v.1h-23.71s.01-.07.01-.1h23.7Z"/>
    <rect class="st0" x="53" y="252.94" width="219.9" height=".1"/>
  </g>
</svg>