<?xml version="1.0" encoding="UTF-8"?>
<svg id="Capa_1" xmlns="http://www.w3.org/2000/svg" version="1.1" viewBox="0 0 600 169.55">
  <!-- Generator: Adobe Illustrator 29.0.1, SVG Export Plug-In . SVG Version: 2.1.0 Build 192)  -->
  <defs>
    <style>
      .st0 {
        fill: #999;
      }
    </style>
  </defs>
  <g>
    <path class="st0" d="M68.88,74.63c0,5.98-4.07,8.42-8.69,8.42h-5.43v-16.02h6.25c4.34,0,7.87,1.08,7.87,7.6Z"/>
    <path class="st0" d="M77.58,91.2l9.5,17.3v-28.64c-1.48,5.1-4.9,8.74-9.5,11.34ZM87.08,67.13v12.73c.54-1.82.82-3.83.82-6.04,0-2.46-.26-4.7-.82-6.69ZM107.99,67.57h-1.9v35.03h3.26c6.79,0,13.85-3.25,13.85-18.19,0-16.03-8.15-16.84-15.21-16.84ZM107.99,67.57h-1.9v35.03h3.26c6.79,0,13.85-3.25,13.85-18.19,0-16.03-8.15-16.84-15.21-16.84ZM87.08,67.13v12.73c.54-1.82.82-3.83.82-6.04,0-2.46-.26-4.7-.82-6.69ZM77.58,91.2l9.5,17.3v-28.64c-1.48,5.1-4.9,8.74-9.5,11.34ZM77.58,91.2l9.5,17.3v-28.64c-1.48,5.1-4.9,8.74-9.5,11.34ZM87.08,67.13v12.73c.54-1.82.82-3.83.82-6.04,0-2.46-.26-4.7-.82-6.69ZM107.99,67.57h-1.9v35.03h3.26c6.79,0,13.85-3.25,13.85-18.19,0-16.03-8.15-16.84-15.21-16.84ZM143.3,109.67s-.27,0-.55-.28h-1.35v1.9h1.35q.28,0,.55-.27l.27-.27v-.54l-.27-.54ZM107.99,67.57h-1.9v35.03h3.26c6.79,0,13.85-3.25,13.85-18.19,0-16.03-8.15-16.84-15.21-16.84ZM87.08,79.86c.54-1.82.82-3.83.82-6.04,0-2.46-.26-4.7-.82-6.69v12.73ZM77.58,91.2l9.5,17.3v-28.64c-1.48,5.1-4.9,8.74-9.5,11.34ZM143.3,109.67s-.27,0-.55-.28h-1.35v1.9h1.35q.28,0,.55-.27l.27-.27v-.54l-.27-.54ZM155.52,58.88c0-8.69-3.8-15.48-11.41-19.83-15.21-8.69-30.41-17.65-45.62-26.34-7.34-4.07-14.67-3.8-21.73.27-15.21,8.69-30.15,17.38-45.35,26.07-7.61,4.35-11.41,11.14-11.41,19.83v51.87c0,8.69,3.8,15.21,11.13,19.56,15.21,8.96,30.42,17.92,45.9,26.61,7.06,3.8,14.4,3.8,21.19,0,15.2-8.42,30.14-17.38,45.35-26.07,8.15-4.62,11.95-11.68,11.95-20.91v-24.72c0-8.42.27-17.11,0-26.34ZM108.54,115.64h-17.54l.15.27h-20.64l-10.59-21.18h-5.16v21.18h-19.01v-61.38h27.16c14.46,0,21.86,4.25,24.17,12.6v-12.6h25.8c15.75,0,29.87,7.88,29.87,28.79,0,23.9-14.66,32.32-34.21,32.32ZM146.01,115.37c-1.08,1.08-2.44,1.63-3.8,1.63-1.63,0-2.71-.55-3.8-1.63-1.09-1.09-1.63-2.45-1.63-3.8,0-1.63.54-2.72,1.63-3.81,1.09-1.08,2.44-1.63,3.8-1.63,1.63,0,2.72.55,3.8,1.63,1.09,1.09,1.63,2.45,1.63,3.81,0,1.63-.54,2.71-1.63,3.8ZM142.21,106.95c-1.36,0-2.44.54-3.26,1.36-.81.81-1.36,2.17-1.36,3.26s.55,2.44,1.36,3.26c.82.81,1.9,1.35,3.26,1.35s2.45-.54,3.26-1.35c1.09-.82,1.36-1.91,1.36-3.26s-.54-2.45-1.36-3.26c-.81-.82-1.9-1.36-3.26-1.36ZM144.38,114.55l-2.17-2.17h-1.08v2.17h-1.09v-5.7h2.99c.27,0,.54,0,.81.27.27.27.54.27.54.55s.28.54.28.81,0,.81-.28,1.09c-.27.27-.54.54-1.08.54l2.44,2.44h-1.36ZM143.57,110.75v-.54l-.27-.54s-.27,0-.55-.28h-1.35v1.9h1.35q.28,0,.55-.27l.27-.27ZM107.99,67.57h-1.9v35.03h3.26c6.79,0,13.85-3.25,13.85-18.19,0-16.03-8.15-16.84-15.21-16.84ZM87.9,73.82c0-2.46-.26-4.7-.82-6.69v12.73c.54-1.82.82-3.83.82-6.04ZM77.58,91.2l9.5,17.3v-28.64c-1.48,5.1-4.9,8.74-9.5,11.34ZM77.58,91.2l9.5,17.3v-28.64c-1.48,5.1-4.9,8.74-9.5,11.34ZM87.08,67.13v12.73c.54-1.82.82-3.83.82-6.04,0-2.46-.26-4.7-.82-6.69ZM107.99,67.57h-1.9v35.03h3.26c6.79,0,13.85-3.25,13.85-18.19,0-16.03-8.15-16.84-15.21-16.84ZM107.99,67.57h-1.9v35.03h3.26c6.79,0,13.85-3.25,13.85-18.19,0-16.03-8.15-16.84-15.21-16.84ZM87.08,67.13v12.73c.54-1.82.82-3.83.82-6.04,0-2.46-.26-4.7-.82-6.69ZM77.58,91.2l9.5,17.3v-28.64c-1.48,5.1-4.9,8.74-9.5,11.34Z"/>
    <g>
      <path class="st0" d="M87.08,67.13v12.73c.54-1.82.82-3.83.82-6.04,0-2.46-.26-4.7-.82-6.69Z"/>
      <path class="st0" d="M87.08,67.13v12.73c.54-1.82.82-3.83.82-6.04,0-2.46-.26-4.7-.82-6.69Z"/>
    </g>
  </g>
  <g>
    <path class="st0" d="M184.85,88.48h0c1.09-1.09,2.44-2.72,3.53-3.8l12.49-13.04h4.35l-14.12,14.67,16.29,20.64h-4.35l-14.39-18.47-3.8,3.53v14.67h-3.53v-51.87h3.53v33.68Z"/>
    <path class="st0" d="M239.71,86.85c0-5.16-2.17-16.02-13.58-16.02-8.96,0-15.75,7.33-15.75,19.01,0,10.32,6.24,17.65,16.29,17.65,6.25,0,9.78-1.36,11.14-2.17l-.82-2.72c-1.9.82-4.61,1.91-9.77,1.91-7.06,0-13.31-4.62-13.31-15.76l25.8.28v-2.18ZM213.91,86.04c.54-5.43,4.07-12.49,11.68-12.49,8.69,0,10.59,7.6,10.59,12.49h-22.27Z"/>
    <path class="st0" d="M275.29,86.85c0-5.16-2.18-16.02-13.58-16.02-8.97,0-15.75,7.33-15.75,19.01,0,10.32,6.24,17.65,16.29,17.65,6.25,0,9.78-1.36,11.14-2.17l-.82-2.72c-1.9.82-4.62,1.91-9.78,1.91-7.06,0-13.3-4.62-13.3-15.76l25.8.28v-2.18ZM249.49,86.04c.54-5.43,4.07-12.49,11.67-12.49,8.69,0,10.6,7.6,10.6,12.49h-22.27Z"/>
    <path class="st0" d="M301.09,70.83c-6.25,0-10.6,2.99-13.04,7.6h-.27l-.27-6.79h-3.26c.27,3.26.27,6.79.27,11.14v38.56h3.53v-20.09h.27c2.45,4.34,7.06,6.51,11.95,6.51,8.42,0,16.02-6.51,16.02-19.01,0-10.32-6.24-17.92-15.2-17.92ZM300,104.51c-5.43,0-10.32-3.54-11.68-8.97-.27-.81-.27-1.63-.27-2.71v-6.79c0-.82.27-1.9.54-2.99,1.63-5.97,6.52-9.5,11.68-9.5,8.15,0,12.49,7.06,12.49,14.93,0,9.51-4.61,16.03-12.76,16.03Z"/>
    <path class="st0" d="M341.01,71.37v35.31h3.53v-35.31h-3.53ZM342.64,58.61c-1.36,0-2.72,1.36-2.72,2.99s1.09,2.98,2.72,2.98c1.9,0,2.99-1.36,2.99-2.98,0-1.91-1.09-3.26-2.99-2.99Z"/>
    <path class="st0" d="M361.11,61.32v10.32h10.05v2.72h-10.05v22.81c0,4.35,1.36,7.33,5.16,7.33,1.9,0,2.99-.27,4.07-.54l.54,2.72c-1.09.54-2.72.81-4.89.81-2.44,0-4.62-.81-5.97-2.44-1.63-1.9-2.17-4.89-2.17-8.42v-22.27h-5.97v-2.72h5.97v-8.96l3.26-1.36Z"/>
    <path class="st0" d="M393.7,102.06c1.9,1.09,4.62,2.44,7.88,2.44,5.43,0,8.15-2.99,8.15-6.79s-2.44-5.97-7.33-7.88c-5.7-2.17-8.96-5.43-8.96-9.51,0-5.16,4.07-9.51,10.86-9.51,3.26,0,5.97,1.09,7.88,2.17l-1.36,2.72c-1.09-.81-3.53-2.17-7.06-2.17-4.35,0-6.79,2.99-6.79,5.97,0,3.8,2.44,5.16,7.33,7.33,5.7,2.17,8.96,5.16,8.96,10.32,0,5.97-4.62,10.05-11.95,10.05-3.26,0-6.52-1.09-8.96-2.44l1.36-2.72Z"/>
    <path class="st0" d="M422.48,71.37v35.31h3.53v-35.31h-3.53ZM423.84,58.61c-1.36,0-2.71,1.36-2.71,2.99s1.08,2.98,2.71,2.98c1.9,0,2.99-1.36,2.99-2.98,0-1.91-1.09-3.26-2.99-2.99Z"/>
    <path class="st0" d="M437.69,80.06c0-3.26,0-5.7-.27-8.42h3.26l.27,6.25h.27c2.17-4.07,5.7-7.06,11.41-7.06,4.89,0,8.69,3.26,10.05,7.6h.27c1.09-2.17,2.17-3.53,3.53-4.89,2.17-1.9,4.62-2.99,8.42-2.99,3.53,0,11.41,1.9,11.41,15.21v20.64h-3.53v-20.37c0-7.88-2.99-12.49-9.23-12.49-4.35,0-7.88,3.26-9.23,7.06-.27,1.09-.54,2.17-.54,3.53v22.54h-3.53v-22c0-6.25-2.99-11.13-8.69-11.13-4.62,0-8.42,3.8-9.78,7.88-.27,1.09-.54,2.17-.54,3.26v21.73h-3.53v-26.34h0Z"/>
    <path class="st0" d="M514.28,70.83c-6.25,0-10.59,2.99-13.04,7.6h-.27l-.27-6.79h-3.26c.27,3.26.27,6.79.27,11.14v38.56h3.53v-20.09h.27c2.45,4.34,7.06,6.51,11.95,6.51,8.42,0,16.03-6.51,16.03-19.01,0-10.32-6.25-17.92-15.21-17.92ZM513.19,104.51c-5.43,0-10.32-3.54-11.68-8.97-.27-.81-.27-1.63-.27-2.71v-6.79c0-.82.27-1.9.54-2.99,1.63-5.97,6.52-9.5,11.68-9.5,8.15,0,12.5,7.06,12.5,14.93,0,9.51-4.62,16.03-12.77,16.03Z"/>
    <path class="st0" d="M538.18,54.8h3.53v52.14h-3.53v-52.14Z"/>
    <path class="st0" d="M580,86.85c0-5.16-2.17-16.02-13.58-16.02-8.96,0-15.75,7.33-15.75,19.01,0,10.32,6.25,17.65,16.29,17.65,6.25,0,9.78-1.36,11.14-2.17l-.82-2.72c-1.9.82-4.61,1.91-9.77,1.91-7.06,0-13.31-4.62-13.31-15.76l25.8.28v-2.18ZM554.47,86.04c.54-5.43,4.08-12.49,11.68-12.49,8.69,0,10.59,7.6,10.59,12.49h-22.27Z"/>
  </g>
</svg>