<?xml version="1.0" encoding="UTF-8"?>
<svg id="Capa_1" xmlns="http://www.w3.org/2000/svg" version="1.1" viewBox="0 0 340 169.55">
  <!-- Generator: Adobe Illustrator 29.0.1, SVG Export Plug-In . SVG Version: 2.1.0 Build 192)  -->
  <defs>
    <style>
      .st0 {
        fill: #999;
      }
    </style>
  </defs>
  <g>
    <path class="st0" d="M172.47,4.63c28.62,2.94,46.81,25.16,43.79,54.18-1.21,11.63-10.25,26.41-21,31.34-8.45-11.98-15.38-26.48-32.8-24.7v-2.3c18.33.38,32.98-15.21,24.54-33.39-3.9-8.4-14.94-15.11-24.15-15.11h-21.17l13.12-7.28c3.73-.83,8.58-2.47,12.29-2.73h5.39Z"/>
    <path class="st0" d="M134.75,54.67v8.47c19.61-1.15,27.06,22.35,38.49,34.26.7,1.65-1.81,1.19-2.72,1.18-38.09-.49-60.45-41.95-38.85-73.56,1.53-.74,17.77-.67,20.34-.31,12.18,1.68,16.11,18.98,7.34,26.45-.99.84-6.39,3.51-7.27,3.51h-17.32Z"/>
    <path class="st0" d="M180.55,127.81c-1.05-1-3.9-3.86-7.69-3.86h-19.63v40.03c12.54,1.59,29.89,3.16,31.56-13.48.65-6.45.74-17.98-4.23-22.7ZM161.69,157.83v-26.94c10.66-.97,15.36,1.58,15.47,12.71.1,11.26-4.19,15.1-15.47,14.23Z"/>
    <path class="st0" d="M46.22,148.2c10.79-4.89,8.98-24.24-3.47-24.24h-18.86v40.03h7.7v-14.63c2.2,0,6.74-.03,6.74-.03,0,0,5.57,10.01,8.22,14.67h8.91s-9.24-15.8-9.24-15.8ZM31.59,143.2v-12.32c9.35,0,13.16-.73,13.16,5.77,0,7.21-7.71,6.47-13.16,6.54Z"/>
    <path class="st0" d="M212.4,124.07l-12.13-.03-11.86,39.95h8.48s3.38-10.69,3.38-10.69l12.33.03,3.2,10.68h8.26s-11.66-39.93-11.66-39.93ZM202.5,146.28l4.23-13.85,4.23,13.85h-8.46Z"/>
    <path class="st0" d="M84.54,123.99l9.79,30.77,8.94-30.77h8.38s-11.65,40.01-11.65,40.01h-12.18l-11.96-40.01s8.15,0,8.67,0Z"/>
    <polygon class="st0" points="232.42 123.98 242.15 156.3 251.07 124.03 259.47 123.96 247.82 163.89 235.68 163.91 223.69 124 232.42 123.98"/>
    <rect class="st0" x="61.61" y="123.96" width="8.47" height="40.03"/>
    <rect class="st0" x="266.4" y="123.96" width="7.7" height="40.03"/>
  </g>
  <path class="st0" d="M135.33,124.02l-12.13-.03-11.86,39.95h8.48s3.38-10.69,3.38-10.69l12.33.03,3.2,10.68h8.26s-11.66-39.93-11.66-39.93ZM125.44,146.23l4.23-13.85,4.23,13.85h-8.46Z"/>
  <path class="st0" d="M304.45,124.02l-12.13-.03-11.86,39.95h8.48s3.38-10.69,3.38-10.69l12.33.03,3.2,10.68h8.26s-11.66-39.93-11.66-39.93ZM294.56,146.23l4.23-13.85,4.23,13.85h-8.46Z"/>
</svg>