<?xml version="1.0" encoding="UTF-8"?>
<svg id="Capa_1" xmlns="http://www.w3.org/2000/svg" version="1.1" viewBox="0 0 600 169.55">
  <!-- Generator: Adobe Illustrator 29.0.1, SVG Export Plug-In . SVG Version: 2.1.0 Build 192)  -->
  <defs>
    <style>
      .st0 {
        fill: #999;
      }
    </style>
  </defs>
  <g id="g14">
    <path id="path4" class="st0" d="M517.46,64.21c-14.57,0-26.11,13.01-26.11,30.97s11.45,32.62,26.11,32.62,24.46-14.93,24.46-32.62-10.08-30.97-24.46-30.97M516.64,154.91c-31.33,0-57.81-26.94-57.81-58.91s27.03-59.09,58.82-59.09,57.35,26.57,57.35,58.64c0,15.48-6.23,30.33-17.5,41.69-11.18,11.27-26.02,17.68-40.86,17.68"/>
    <path id="path6" class="st0" d="M164.18,154.27c-10.81,0-15.76-10.44-15.76-17.87v-54.33c0-1.37.37-13.56-14.11-13.56-12.19,0-15.58,3.94-15.76,13.93v55.89c0,1.01-.55,6.87-4.4,11.09-2.57,2.84-6.23,4.21-10.9,4.21-11.36,0-16.58-8.61-16.58-14.02v-58.18c0-4.03-2.02-13.1-14.84-13.1-12.09,0-15.03,6.78-15.03,13.1v60.65c-.55,4.31-6.32,12.37-16.86,12.37-9.25,0-14.93-7.88-14.93-15.21V57.06c0-1.28-.37-6.05,2.84-9.8,2.57-3.02,6.5-4.49,11.64-4.49h.64c1.92,0,7.6.46,11.82,5.96,3.85-3.76,11.91-10.08,25.74-10.35,17.96-.37,26.84,5.77,32.62,11.73,4.12-4.12,13.65-11.73,27.85-11.73,17.87,0,27.12,8.52,32.43,14.93,4.49,5.41,9.25,16.31,9.25,27.67v55.98c.09,5.96-3.3,17.32-15.67,17.32"/>
    <path id="path8" class="st0" d="M255.34,99.94c-1.74.37-4.03.73-6.96,1.28-5.22.92-11.82,1.92-19.15,3.76-5.13,1.19-10.99,6.78-11.27,12.83-.09,2.57.82,5.04,2.57,6.96,2.84,2.93,7.51,4.49,13.56,4.49h1.1c15.21-.46,18.32-8.25,19.51-14.02.92-5.41.82-11.45.64-15.3M227.67,154.27c-11.27,0-21.16-3.85-29.59-11.45l-.09-.09c-.55-.55-13.74-13.38-9.07-33.62v-.09c3.94-15.3,19.15-24.46,47.64-28.95l.55-.09c8.25-1.74,15.48-3.3,17.41-7.79,1.74-4.58,1.47-7.88-5.22-10.9-11.82-3.76-20.89-1.01-26.84,8.06-3.02,4.58-9.16,7.79-15.03,7.79s-10.72-3.48-12.19-9.16c-1.56-6.14-.46-11.91,3.3-16.77,6.96-8.98,22.81-14.57,41.5-14.57,26.94,0,44.34,11.45,44.34,29.13,0,14.66,1.1,69.36,1.19,71.83.09,1.01.37,7.33-3.48,11.64-2.38,2.66-5.68,4.03-9.8,4.12h-.73c-8.98,0-13.28-3.85-15.21-6.78-5.04,2.75-15.94,7.7-28.68,7.7"/>
    <path id="path10" class="st0" d="M309.86,154.18c-6.78,0-11.73-3.57-14.2-10.35-1.83-4.95-1.83-10.26-1.83-12.19V37.91c0-1.83-.73-13.38,4.03-18.69,2.57-2.93,5.96-4.49,10.26-4.58h1.47c4.86,0,15.94-.09,15.94,22.72v47.92l31.33-32.16s10.72-11.73,17.96-11.64c4.49.09,7.24,1.74,10.08,5.13,2.2,2.47,3.3,5.41,2.84,8.43-.73,5.22-8.61,12.19-9.99,13.56l-18.6,18.87,27.94,40.22c.64.82,5.13,6.87,4.21,13.47-.46,3.57-2.38,6.69-5.68,9.07-2.75,2.02-5.59,3.02-8.52,3.12-8.61.09-15.21-11.27-15.76-11.82l-22.63-32.07-13.1,12.83-.37,16.4c0,5.31-3.21,15.48-15.39,15.48"/>
    <path id="path12" class="st0" d="M416.04,154.09c-.55,0-5.59-.18-9.35-3.94-4.12-4.03-5.77-11.36-5.77-25.29V58.07c-.09-1.19-.37-9.25,4.49-14.57,2.66-2.93,6.41-4.4,10.9-4.4,6.96,0,11.27,4.49,13.56,7.97,1.92-2.02,4.76-4.4,8.34-6.23,3.85-1.92,7.6-2.93,11.09-2.93,4.49,0,10.72,1.74,14.84,9.89l.09.27c1.47,3.85,1.19,7.6-.64,10.9-1.83,3.21-6.05,7.33-15.94,9.16-15.48,2.66-15.67,18.78-15.67,19.42,0,5.41.27,39.03.27,40.68.09,1.28.64,14.57-5.96,21.53-2.66,2.84-6.14,4.31-10.26,4.31h0Z"/>
  </g>
</svg>