<?xml version="1.0" encoding="UTF-8"?>
<svg id="Capa_1" xmlns="http://www.w3.org/2000/svg" version="1.1" viewBox="0 0 600 169.55">
  <!-- Generator: Adobe Illustrator 29.0.1, SVG Export Plug-In . SVG Version: 2.1.0 Build 192)  -->
  <defs>
    <style>
      .st0 {
        fill: #5e6a6f;
      }

      .st1 {
        fill: none;
        stroke: #999;
        stroke-miterlimit: 10;
        stroke-width: 1.36px;
      }

      .st2 {
        fill: #999;
      }

      .st3 {
        fill: #99abb3;
      }

      .st4 {
        fill: #cedde4;
      }
    </style>
  </defs>
  <polygon class="st2" points="415.05 33.62 415.05 57.46 440.93 57.46 440.93 33.62 451.15 33.62 451.15 90.83 440.93 90.83 440.93 65.63 415.05 65.63 415.05 90.27 404.84 90.26 404.84 33.62 415.05 33.62"/>
  <path class="st2" d="M553.64,48.6c-5.88-.67-10.92.38-14.3,5.46,0-5.68-4.2-4.77-9.19-4.77v60.61h9.53v-21.79c2.57.41,4.11,2.53,6.77,3.11,26.23,5.58,29.57-40.04,7.19-42.6ZM550.88,83.3c-3.05.5-10.56-.97-11.21-4.38-.34-1.8-.29-16.08.15-17.57.62-2.14,5.75-4.82,7.87-5.12,13.63-1.9,13.27,25.43,3.19,27.07Z"/>
  <path class="st2" d="M475.1,49.07c-18.61,4.47-20.12,40.05,3.63,42.43,2.59.26,17.95-.03,17.95-2.12,0-1.25.09-5.82.09-7.4-9.66,1.92-24.89,4.49-25.2-9.53h27.24c1.33-15.23-7.15-27.35-23.71-23.37ZM487.92,64.95h-15.66c-.5-11.79,16.57-12.03,15.66,0Z"/>
  <path class="st2" d="M302.34,72.44h26.22v-9.87c0-1.13-3.19-7.55-4.19-8.75-5.28-6.33-15.88-6.75-22.73-3.18-14.34,7.47-14.27,35.29,2.94,39.99,4.44,1.22,18.52,1.43,22.22-1.08,1-.69.1-6.07.4-7.57-7.64,1.3-19.71,4.47-24.22-4.05-.44-.82-2.34-5.49-.64-5.49ZM318.34,64.95h-16.34c1.31-11.58,16.31-12.36,16.34,0Z"/>
  <path class="st2" d="M250.24,90.54c-3.35,0-6.68-.04-10.22-.04v-29.97c0-.22-2.26-2.95-2.88-3.25-2.82-1.32-6.95-.38-9.6.98-.9.46-4.54,3.54-4.54,4.31v27.93h-9.53v-41.21c1.36.24,7.74-.35,8.14.04.28.28.28,4.66,1.05,5.41,4.84-6.73,17.88-8.76,23.86-2.74,1.02,1.02,3.72,6.08,3.72,7.17v31.38Z"/>
  <path class="st2" d="M273.4,37.71v11.58h12.26v8.17h-11.24c-.07,0-1.02.95-1.02,1.02v21.11c0,4.28,9.31,4.3,12.25,3.07-.24,1.35.36,7.73-.03,8.14-.92.94-10.98.77-12.93.4-14.26-2.67-7.05-22.39-8.92-32.62-.68-2.08-6.23-.77-8.08-1.11v-8.18s8.18,0,8.18,0v-11.58h9.53Z"/>
  <path class="st2" d="M348.31,29.54v60.61h-10.22V29.54h10.22Z"/>
  <path class="st2" d="M370.78,29.54l-.17,60.78c-3.48,0-6.72-.06-10.05-.06V29.54h10.22Z"/>
  <polygon class="st2" points="518.57 29.54 518.57 90.78 508.35 90.83 508.35 29.54 518.57 29.54"/>
  <rect class="st2" x="190.31" y="33.62" width="10.9" height="56.53"/>
  <path class="st2" d="M391.9,49.29v41.01c-3.09,0-6.79-.04-10.22-.04v-40.97h10.22Z"/>
  <path class="st2" d="M392.58,39.75h-10.9v-10.9h9.87c.07,0,.34,0,1.02,0v10.89Z"/>
  <g>
    <path class="st2" d="M199.82,119.21c-.54.31-1.18.46-1.89.46-.78,0-1.48-.18-2.09-.54-.61-.35-1.1-.86-1.44-1.53-.34-.65-.52-1.42-.52-2.29s.18-1.64.52-2.3c.35-.65.83-1.16,1.44-1.51.61-.35,1.31-.53,2.09-.53.72,0,1.35.16,1.89.46.54.31.97.77,1.27,1.4h2.34c-.44-1.14-1.16-2.02-2.14-2.63-.98-.62-2.1-.93-3.36-.93-1.1,0-2.11.26-3.04.78-.93.52-1.65,1.23-2.2,2.15-.54.92-.8,1.96-.8,3.12s.27,2.19.8,3.11c.54.92,1.27,1.64,2.19,2.16.92.51,1.93.77,3.04.77,1.26,0,2.38-.31,3.36-.92.98-.61,1.7-1.48,2.14-2.62h-2.34c-.31.63-.73,1.09-1.27,1.4Z"/>
    <path class="st2" d="M216.75,112.19c-.53-.92-1.26-1.63-2.19-2.15-.93-.52-1.94-.78-3.06-.78s-2.11.26-3.04.78-1.65,1.23-2.2,2.15c-.54.92-.8,1.96-.8,3.12s.27,2.2.8,3.13c.54.92,1.27,1.64,2.2,2.16s1.94.78,3.04.78,2.13-.26,3.06-.78c.93-.52,1.66-1.24,2.19-2.16.54-.93.8-1.97.8-3.13s-.27-2.2-.8-3.12ZM215.04,117.62c-.35.66-.82,1.17-1.44,1.53-.61.35-1.31.53-2.1.53s-1.48-.18-2.09-.53c-.61-.36-1.1-.87-1.44-1.53-.34-.67-.52-1.44-.52-2.31s.18-1.64.52-2.3c.35-.65.83-1.16,1.44-1.51.61-.35,1.31-.53,2.09-.53s1.48.18,2.1.53c.61.35,1.09.86,1.44,1.51.35.66.52,1.43.52,2.3s-.17,1.64-.52,2.31Z"/>
    <path class="st2" d="M228.08,109.4v8.82l-5.84-8.82h-1.94v11.85h1.94v-8.83l5.84,8.83h1.94v-11.85h-1.94Z"/>
    <path class="st2" d="M240.81,116.1c-.35-.45-.77-.78-1.26-.99-.5-.22-1.14-.44-1.92-.65-.59-.16-1.06-.31-1.4-.44-.34-.14-.62-.32-.84-.55-.22-.24-.33-.53-.33-.9,0-.53.18-.94.52-1.23.35-.28.81-.42,1.36-.42.61,0,1.11.15,1.48.46s.58.68.61,1.11h2.15c-.08-1-.48-1.78-1.22-2.36-.73-.58-1.67-.86-2.82-.86-.8,0-1.51.14-2.12.41-.61.27-1.09.67-1.43,1.18s-.51,1.1-.51,1.78c0,.74.17,1.33.51,1.77.34.44.75.77,1.23.98.48.21,1.11.42,1.88.62.61.16,1.1.31,1.44.44.35.14.63.33.86.58.23.25.35.57.35.97,0,.51-.18.93-.56,1.25-.37.32-.9.48-1.57.48s-1.15-.16-1.51-.5c-.36-.33-.56-.75-.61-1.26h-2.08c0,.68.18,1.28.54,1.79s.86.91,1.5,1.18c.63.27,1.35.42,2.15.42.84,0,1.57-.16,2.19-.48.62-.33,1.09-.76,1.42-1.29.32-.54.48-1.1.48-1.7,0-.75-.18-1.35-.52-1.8Z"/>
    <path class="st2" d="M251.52,109.42v7.54c0,.9-.24,1.57-.71,2.03-.47.45-1.13.68-1.98.68s-1.5-.23-1.97-.68c-.47-.46-.71-1.13-.71-2.03v-7.54h-1.94v7.5c0,.97.2,1.78.61,2.45.41.67.96,1.17,1.66,1.5.69.33,1.47.5,2.32.5s1.63-.16,2.34-.5c.7-.33,1.26-.82,1.68-1.5.42-.67.63-1.48.63-2.45v-7.5h-1.94Z"/>
    <path class="st2" d="M258.76,119.68v-10.26h-1.94v11.83h5.95v-1.57h-4Z"/>
    <path class="st2" d="M263.06,109.42v1.58h3.17v10.25h1.94v-10.25h3.15v-1.58h-8.25Z"/>
    <path class="st2" d="M283.9,112.19c-.54-.92-1.27-1.63-2.19-2.15-.93-.52-1.95-.78-3.06-.78s-2.12.26-3.04.78c-.93.52-1.66,1.23-2.2,2.15-.54.92-.81,1.96-.81,3.12s.27,2.2.81,3.13c.54.92,1.27,1.64,2.2,2.16.92.52,1.93.78,3.04.78s2.13-.26,3.06-.78c.92-.52,1.65-1.24,2.19-2.16.53-.93.8-1.97.8-3.13s-.27-2.2-.8-3.12ZM282.19,117.62c-.35.66-.83,1.17-1.44,1.53-.61.35-1.31.53-2.09.53s-1.48-.18-2.1-.53c-.61-.36-1.09-.87-1.44-1.53-.35-.67-.52-1.44-.52-2.31s.17-1.64.52-2.3c.35-.65.82-1.16,1.44-1.51.61-.35,1.31-.53,2.1-.53s1.48.18,2.09.53c.61.35,1.1.86,1.44,1.51.34.66.52,1.43.52,2.3s-.18,1.64-.52,2.31Z"/>
    <path class="st2" d="M292.98,116.35c.93-.22,1.62-.65,2.07-1.28.44-.63.67-1.33.67-2.1,0-.66-.16-1.25-.46-1.79-.31-.53-.78-.96-1.42-1.27-.63-.32-1.4-.48-2.31-.48h-4.09v11.83h1.94v-4.73h1.48l2.72,4.73h2.32l-2.93-4.9ZM289.38,114.97v-3.97h2.15c.74,0,1.29.18,1.65.52.36.34.54.82.54,1.44s-.18,1.1-.55,1.46c-.37.36-.92.54-1.65.54h-2.15Z"/>
    <path class="st2" d="M298.77,109.42v11.83h1.94v-11.83h-1.94ZM297.72,107.31v1.43l3.77-1.86v-1.65l-3.77,2.08Z"/>
    <path class="st2" d="M309.53,109.4h-2.25l-4.24,11.85h2.03l.85-2.42h4.95l.86,2.42h2.04l-4.24-11.85ZM306.46,117.25l1.94-5.5,1.93,5.5h-3.87Z"/>
    <path class="st2" d="M328.27,110.99v-1.59h-6.53v11.85h6.53v-1.58h-4.6v-3.63h4.09v-1.58h-4.09v-3.47h4.6Z"/>
    <path class="st2" d="M339.03,109.4v8.82l-5.84-8.82h-1.94v11.85h1.94v-8.83l5.84,8.83h1.94v-11.85h-1.94Z"/>
    <path class="st2" d="M356.19,110.99v-1.59h-6.54v11.85h6.54v-1.58h-4.6v-3.63h4.09v-1.58h-4.09v-3.47h4.6Z"/>
    <path class="st2" d="M366.34,116.1c-.35-.45-.76-.78-1.26-.99-.49-.22-1.13-.44-1.91-.65-.59-.16-1.06-.31-1.4-.44-.34-.14-.62-.32-.84-.55-.22-.24-.33-.53-.33-.9,0-.53.18-.94.53-1.23.35-.28.8-.42,1.36-.42.61,0,1.1.15,1.48.46s.58.68.61,1.11h2.15c-.07-1-.48-1.78-1.21-2.36-.74-.58-1.68-.86-2.82-.86-.8,0-1.52.14-2.13.41-.61.27-1.09.67-1.43,1.18s-.51,1.1-.51,1.78c0,.74.17,1.33.51,1.77.34.44.76.77,1.24.98.48.21,1.11.42,1.88.62.61.16,1.09.31,1.44.44s.63.33.87.58c.23.25.35.57.35.97,0,.51-.19.93-.57,1.25-.37.32-.89.48-1.57.48s-1.14-.16-1.51-.5c-.35-.33-.56-.75-.61-1.26h-2.08c0,.68.18,1.28.54,1.79.37.51.86.91,1.5,1.18.64.27,1.36.42,2.15.42.84,0,1.57-.16,2.19-.48.61-.33,1.09-.76,1.41-1.29.33-.54.48-1.1.48-1.7,0-.75-.17-1.35-.52-1.8Z"/>
    <path class="st2" d="M368.87,109.42v1.58h3.17v10.25h1.94v-10.25h3.15v-1.58h-8.26Z"/>
    <path class="st2" d="M385.05,116.35c.93-.22,1.61-.65,2.06-1.28.45-.63.67-1.33.67-2.1,0-.66-.16-1.25-.47-1.79-.31-.53-.78-.96-1.41-1.27-.63-.32-1.4-.48-2.31-.48h-4.09v11.83h1.94v-4.73h1.48l2.72,4.73h2.32l-2.93-4.9ZM381.46,114.97v-3.97h2.15c.74,0,1.29.18,1.66.52.36.34.54.82.54,1.44s-.18,1.1-.56,1.46c-.37.36-.91.54-1.64.54h-2.15Z"/>
    <path class="st2" d="M396.66,109.4h-2.25l-4.24,11.85h2.02l.85-2.42h4.96l.85,2.42h2.04l-4.24-11.85ZM393.6,117.25l1.94-5.5,1.93,5.5h-3.87Z"/>
    <path class="st2" d="M401.31,109.42v1.58h3.17v10.25h1.94v-10.25h3.15v-1.58h-8.26Z"/>
    <path class="st2" d="M418.5,110.99v-1.59h-6.54v11.85h6.54v-1.58h-4.6v-3.63h4.09v-1.58h-4.09v-3.47h4.6Z"/>
    <path class="st2" d="M425.93,114.77v1.55h4.45c-.15,1.01-.55,1.81-1.21,2.4-.65.59-1.51.89-2.57.89-.78,0-1.48-.18-2.09-.53-.62-.35-1.1-.85-1.44-1.51-.35-.65-.52-1.4-.52-2.25s.17-1.6.52-2.25c.35-.65.82-1.15,1.44-1.5.61-.35,1.31-.53,2.09-.53.71,0,1.35.15,1.89.46.54.3.97.74,1.28,1.33h2.33c-.44-1.14-1.15-2.02-2.13-2.63-.98-.62-2.1-.93-3.36-.93-1.1,0-2.11.26-3.04.78-.93.52-1.66,1.23-2.2,2.15-.54.92-.81,1.96-.81,3.12s.27,2.19.81,3.11c.54.92,1.27,1.64,2.19,2.16.92.51,1.94.77,3.05.77,1.04,0,1.97-.22,2.82-.69.84-.46,1.53-1.08,2.06-1.85.53-.78.86-1.62.98-2.54v-1.51h-6.52Z"/>
    <path class="st2" d="M435.22,109.42v11.83h1.95v-11.83h-1.95Z"/>
    <path class="st2" d="M445.99,109.4h-2.25l-4.24,11.85h2.03l.85-2.42h4.95l.85,2.42h2.04l-4.24-11.85ZM442.92,117.25l1.94-5.5,1.92,5.5h-3.86Z"/>
    <path class="st2" d="M467.57,112.22c-.52-.9-1.25-1.59-2.2-2.08s-2.05-.72-3.31-.72h-3.87v11.83h3.87c1.26,0,2.36-.23,3.31-.7.95-.48,1.68-1.15,2.2-2.04.51-.89.77-1.93.77-3.13s-.26-2.25-.77-3.16ZM465.24,118.55c-.74.75-1.8,1.12-3.18,1.12h-1.93v-8.67h1.93c1.38,0,2.44.39,3.18,1.16.74.78,1.11,1.85,1.11,3.22s-.37,2.42-1.11,3.17Z"/>
    <path class="st2" d="M471.11,109.42v11.83h1.94v-11.83h-1.94Z"/>
    <path class="st2" d="M481.2,114.77v1.55h4.45c-.15,1.01-.55,1.81-1.21,2.4-.65.59-1.51.89-2.57.89-.78,0-1.48-.18-2.1-.53-.61-.35-1.09-.85-1.44-1.51-.35-.65-.52-1.4-.52-2.25s.17-1.6.52-2.25c.35-.65.82-1.15,1.44-1.5.61-.35,1.31-.53,2.1-.53.72,0,1.34.15,1.89.46.54.3.97.74,1.28,1.33h2.33c-.44-1.14-1.15-2.02-2.13-2.63-.98-.62-2.1-.93-3.36-.93-1.1,0-2.12.26-3.04.78-.93.52-1.66,1.23-2.2,2.15-.54.92-.81,1.96-.81,3.12s.27,2.19.81,3.11c.54.92,1.27,1.64,2.19,2.16.92.51,1.94.77,3.05.77,1.04,0,1.97-.22,2.82-.69.84-.46,1.53-1.08,2.06-1.85.53-.78.85-1.62.98-2.54v-1.51h-6.52Z"/>
    <path class="st2" d="M490.49,109.42v11.83h1.94v-11.83h-1.94Z"/>
    <path class="st2" d="M494.81,109.42v1.58h3.17v10.25h1.94v-10.25h3.15v-1.58h-8.26Z"/>
    <path class="st2" d="M509.99,109.4h-2.25l-4.24,11.85h2.02l.85-2.42h4.96l.85,2.42h2.04l-4.24-11.85ZM506.92,117.25l1.94-5.5,1.93,5.5h-3.87Z"/>
    <path class="st2" d="M518.5,119.68v-10.26h-1.94v11.83h5.94v-1.57h-4Z"/>
  </g>
  <g>
    <rect class="st4" x="83.97" y="53.43" width="93.33" height="94.34" transform="translate(-24.74 45.42) rotate(-18.05)"/>
    <rect class="st3" x="62.63" y="22.02" width="79.69" height="80.55" transform="translate(-14.26 34.81) rotate(-18.05)"/>
    <rect class="st0" x="51.74" y="69.7" width="61.55" height="62.21" transform="translate(-27.17 30.52) rotate(-18.05)"/>
    <line class="st1" x1="114.58" y1="-.35" x2="114.58" y2="169.91"/>
    <line class="st1" x1="31.51" y1="100.17" x2="519.8" y2="100.17"/>
  </g>
</svg>