<?xml version="1.0" encoding="UTF-8"?>
<svg id="Capa_1" xmlns="http://www.w3.org/2000/svg" version="1.1" viewBox="0 0 480 169.55">
  <!-- Generator: Adobe Illustrator 29.0.1, SVG Export Plug-In . SVG Version: 2.1.0 Build 192)  -->
  <defs>
    <style>
      .st0 {
        fill: #999;
      }
    </style>
  </defs>
  <path class="st0" d="M82.02,12.32c-20.43-10.23-43.29,5.05-52.17,23.58-7.32,15.29-11.96,40.92,1.29,54.16,15.16,15.15,38.73,8.76,51.87-5.59,16.07-17.55,24.9-59.19-.99-72.16ZM72.94,66.45c-3.99,9.27-10.28,17.96-21.7,15.61-14.27-2.93-9.4-23.82-6.26-33.6,2.82-8.78,8.57-21.84,19.02-23.11,23.22-2.81,14.04,29.23,8.94,41.09Z"/>
  <path class="st0" d="M395.5,39.35c-7.32-8.31-20.17-7.7-29.76-4.12-26.73,9.98-37.22,60.26-.29,62.62,13.96.89,22.06-5.52,29.2-16.65.56-.87,2.33-3.52,2.55-4.28.16-.54-.09-.37-.42-.42-4.72-.61-9.71-.64-14.47-1.09-2.43,3.14-4.14,6.61-7.73,8.77-7.89,4.75-14.91-1.63-15.25-9.81-.08-1.83.47-3.58.3-5.42l.43-.71h40.15c.8-1.54,1.08-3.78,1.28-5.55.98-8.86.08-16.47-5.97-23.34ZM385.24,58h-22.49c.8-8.54,13.42-19.95,20.65-11.1,2.88,3.53,2.24,6.84,1.85,11.1Z"/>
  <path class="st0" d="M280.46,68.25c1.55-7.12,2.38-14.72-.43-21.62-5.84-14.37-20.11-16.4-33.6-11.68-18.49,6.48-31.32,34-21.54,51.7,5.56,10.06,20.24,13,30.69,10.37,10.42-2.62,16.91-11.56,21.75-20.52l-15.18-1.14c-3.41,6.07-10.05,13.81-17.66,9.06-5.28-3.29-5.57-10.64-4.75-16.17h40.72ZM259.95,44.21c2.99,1.06,5.49,4.83,5.71,7.95.08,1.17-.09,3.98-.29,5.13-.06.32-.15.53-.43.71h-22.06c.62-7.21,9.46-16.49,17.08-13.8Z"/>
  <path class="st0" d="M329.72,96.42h-18.22c3.18-11.91,7.25-23.84,10.17-35.79.76-3.09,2.63-8.92.65-11.58-2.76-3.7-8.74-2.41-11.93.02-4.12,3.13-5.66,7.83-7.06,12.58-3.36,11.34-5.92,22.94-9.25,34.29l-.36.49h-17.23l16.8-62.04h16.23l-2.85,10.24c.49.13.57-.2.86-.42,2.25-1.77,4.31-4.64,6.54-6.55,7.88-6.75,22.93-7.11,26.78,4.26,1.88,5.58-1.39,15.87-2.77,21.73-2.58,10.97-5.57,21.86-8.35,32.78Z"/>
  <path class="st0" d="M188.49,75.93l3.03-11.92,28.29.25-8.86,34.11-5.64.02-.87-8.24-6.57,4.67c-13.08,8.58-32.76,3.66-36.74-12.46-5.03-20.38,10.52-46.71,32.34-48.28,9.55-.69,16.8-.1,23.08,7.69,2.84,3.52,3.49,8.47,4.12,12.81l-15.66,1.71c.3-12.65-10.93-14.44-18.51-5.84-5.47,6.2-11.86,23.22-8.21,30.99,3.74,7.98,14.49,7.04,19.6.88,1.48-1.78,2.51-4.18,3.14-6.4h-12.53Z"/>
  <path class="st0" d="M457.27,50.88l-13.94,2.28c-.34-7.69-10.88-9.72-16.72-7.45-3.43,1.33-4.66,6.79-1.61,8.83,3.34,2.23,13.65,2.6,18.51,4.55,9.61,3.85,11.3,14.27,7.71,23.18-6.24,15.5-29.35,18.79-43.12,12.78-7.19-3.14-9.52-7.19-10.91-14.85l15.66-2.56c.24,5.3,3.94,7.88,8.96,8.26,3.62.27,13.22-.39,14.27-4.83.76-3.25-.82-5.76-3.91-6.66-9.6-2.79-24.21-2.15-25.29-15.42-.79-9.72.93-15.51,8.9-21.26,8.98-6.48,26.69-6.75,35.49.23,3.97,3.15,5.44,8.06,6,12.92Z"/>
  <path class="st0" d="M124.43,34.95l-2.14,11.95c3.17-6.05,8.16-11.3,15.17-12.45,1.08-.18,3.48-.48,4.48-.36.37.04.53-.15.38.38l-4.51,17.55c-4.74-.54-10.65,1.85-13.81,5.4-2.3,2.58-4.86,6.99-5.98,10.25l-8.11,29.31h-18.22l16.51-62.04h16.23Z"/>
  <polygon class="st0" points="165.43 34.95 148.35 96.42 131.55 96.42 148.35 34.95 165.43 34.95"/>
  <path class="st0" d="M177.1,10.48c-5.47,6.81-11.53,13.25-17.23,19.92h-10.11l11.25-19.92h16.09Z"/>
  <path class="st0" d="M259.96,147.5c-.37-4.41-4.97-9.82-9.54-9.82h-12.67v22.48h11.81c6.48,0,10.9-6.56,10.39-12.66ZM252.47,155.38c-.68.42-3.07,1.37-3.76,1.37h-6.69v-15.65h7.54c.13,0,2.11.82,2.43.99,4.99,2.57,5.16,10.37.47,13.3Z"/>
  <path class="st0" d="M192.41,137.47c-4.73.64-8.84,5.01-9.32,9.75-1.68,16.62,22.95,17.59,24.2,2.84.75-8.88-6.58-13.71-14.87-12.59ZM195.19,156.87c-10.32,0-10.68-14.65-1.35-15.98,11.63-1.67,12.56,15.99,1.35,15.98Z"/>
  <path class="st0" d="M392.86,137.47c-4.73.64-8.84,5.01-9.32,9.75-1.68,16.62,22.95,17.59,24.2,2.84.75-8.88-6.58-13.71-14.87-12.59ZM395.63,156.87c-10.32,0-10.68-14.65-1.35-15.98,11.63-1.67,12.56,15.99,1.35,15.98Z"/>
  <path class="st0" d="M176.25,152.62c7.44-3.11,5.66-13.99-2.42-14.94-3.65-.43-8.08.32-11.82,0v22.48h3.99v-6.55h6.12l4.84,6.55h4.13l-4.85-7.54ZM174.56,149.51c-.26.14-1.71.7-1.87.7h-6.26l-.42-.43v-8.68h6.97c.1,0,1.65.62,1.83.73,2.82,1.71,2.67,6.14-.25,7.68Z"/>
  <path class="st0" d="M376.69,152.62c7.44-3.11,5.66-13.99-2.42-14.94-3.65-.43-8.08.32-11.82,0v22.48h3.99v-6.55h6.12l4.84,6.55h4.13l-4.85-7.54ZM375.01,149.51c-.26.14-1.72.7-1.87.7h-6.26l-.43-.43v-8.68h6.98c.1,0,1.65.62,1.83.73,2.82,1.71,2.67,6.14-.24,7.68Z"/>
  <path class="st0" d="M306.07,152.64c7.39-3.18,5.53-13.89-2.4-14.95-3.57-.48-8.14.36-11.82,0v22.48h3.99v-6.55h6.12l4.84,6.55h4.13l-4.85-7.53ZM304.16,149.56c-.24.11-1.82.64-1.92.64h-6.41v-9.11h6.98c.1,0,1.54.66,1.77.79,2.88,1.75,2.61,6.26-.42,7.67Z"/>
  <path class="st0" d="M129.84,156.46v-5.69h-5.13v-2.85h8.54v11.1c-5.11,1.67-11.91,2.63-16.23-1.28-5.04-4.55-4.56-15.21,1.33-18.88,4.12-2.56,11.26-2.55,14.82.94l-1.49,2.99c-4.79-3.9-12.94-2.92-13.78,4.16-.99,8.34,4.27,11.52,11.93,9.5Z"/>
  <polygon class="st0" points="110.76 137.68 110.76 141.1 98.52 141.1 98.52 147.07 109.34 147.07 109.34 150.2 98.52 150.2 98.52 156.75 111.33 156.75 111.33 160.16 94.25 160.16 94.25 137.68 110.76 137.68"/>
  <polygon class="st0" points="279.89 137.68 279.89 141.1 267.65 141.1 267.65 147.07 278.47 147.07 278.47 150.2 267.65 150.2 267.65 156.75 280.18 156.75 280.18 160.16 263.38 160.16 263.38 137.68 279.89 137.68"/>
  <polygon class="st0" points="330.86 137.68 330.86 141.1 318.33 141.1 318.33 146.64 318.76 147.07 329.43 147.07 329.43 150.2 318.76 150.2 318.33 150.63 318.33 156.32 318.76 156.75 331.14 156.75 331.14 160.16 314.34 160.16 314.34 137.68 330.86 137.68"/>
  <path class="st0" d="M141.51,137.68v14.09c0,.81,1.05,3.11,1.69,3.71,1.95,1.83,6.34,1.84,8.29,0,.57-.54,1.69-3.03,1.69-3.71v-14.09h3.99v14.66c0,.45-.83,2.93-1.09,3.47-2.95,6.04-13.63,6.29-17.08.75-.38-.61-1.48-3.09-1.48-3.65v-15.22h3.99Z"/>
  <path class="st0" d="M214.2,141.75c-2.28,2.09-.06,4.01,2.04,4.76,3.97,1.43,10.68,1.35,10.68,7.25,0,8.09-13.01,7.89-17.88,4.36-.31-.52,1.01-3.32,1.24-3.37,2.51,2.08,11.05,3.91,12.38.12,1.3-3.71-6.24-4.3-8.53-5.11-3.25-1.16-5.26-3.01-4.78-6.74.8-6.29,10.27-6.65,14.8-4.7,2.56,1.1,1.54,1.79.32,3.89-2.56-1.32-7.96-2.6-10.28-.46Z"/>
  <path class="st0" d="M90.25,139.13l-1.13,3.1c-3.09-1.06-6.9-2.69-10.05-.8-1.79,1.07-1.8,3.39,0,4.47,3.27,1.96,11.12,1.44,11.99,6.51,1.47,8.61-9.91,9.21-15.59,6.76-3.47-1.5-1.86-1.43-1.14-4.41,2.23.84,3.92,2.06,6.41,2.27s7.69-.24,6.18-3.91c-1.36-3.31-12.29-1.78-13.14-7.92-1.24-8.99,10.94-9.22,16.47-6.07Z"/>
  <polygon class="st0" points="351.07 137.68 351.07 141.1 343.67 141.1 343.67 160.16 339.68 160.16 339.68 141.1 332 141.1 332 137.68 351.07 137.68"/>
  <rect class="st0" x="353.35" y="137.68" width="3.99" height="22.48"/>
</svg>