<?xml version="1.0" encoding="UTF-8"?>
<svg id="Capa_1" xmlns="http://www.w3.org/2000/svg" version="1.1" viewBox="0 0 700 169.55">
  <!-- Generator: Adobe Illustrator 29.0.1, SVG Export Plug-In . SVG Version: 2.1.0 Build 192)  -->
  <defs>
    <style>
      .st0 {
        fill: #999;
      }
    </style>
  </defs>
  <path class="st0" d="M127.85,124.82c-.16-.74-.41-1.89-.87-2.61-.08-.12-1.3-2.89-4.24-2.89l-23.96.03c-1.36,0-2,.08-2.22-.35-.11-.24-.03-.52.17-.69.61-.53.95-.56,1.42-.91,1.96-1.49,4.02-3.1,5.76-5.09.55-.63,1.77-2.23,2.29-2.94,2.7-3.69,4.25-6.55,5.9-10.58.64-1.56.92-2.98,1.28-4.62.03-.15,1.21-6.22,1.21-11.73,0-4.19-.92-8.15-1.21-9.43-.83-3.71-1.62-6.74-3.24-10.14-2.62-5.48-7.3-11.58-12.12-15.57-.9-.74-2.1-1.37-2.89-2.28l-5.16-3.34C50.17,20.25,1.29,52.16,13.64,98.53c4.29,16.11,14.23,25.77,28.47,31.72,2.41,1.01,5.27,2.13,7.85,2.74.99.24,12.67,1.63,15.43,1.63h55.73c3.02,0,6.72-2.07,6.72-5.91,0-.16.03-3.74,0-3.89ZM96.07,90.27c-.44,1.85-.94,4.3-1.67,6.1-3.49,8.54-9.36,16.14-18.37,19.82-.91.37-2.97,1.33-3.82,1.53-.98.24-3.8.77-4.17.82-1.14.15-8.73.2-9.63-.02-.15-.04-1.5-.28-2.01-.4-1.6-.38-3.71-1.02-5.3-1.67-14.34-5.85-21.77-19.89-20.37-35.99,2.24-25.85,29.11-37.38,50.8-24.94l4.03,3.01,3.14,3.15c.32.77,1.2,1.44,1.67,2.09,1.63,2.25,3.19,5.25,3.71,7.61.09.43,1.1,2.24,1.2,2.68.89,3.93,1.16,8.47,1.23,12.84-.07,1.3-.17,2.31-.42,3.36Z"/>
  <path class="st0" d="M671.4,68.71l-1.06.82c-3.7,6.15-7.89,11.62-12.01,17.81-3.84,5.78-7.18,12.01-11.79,17.2-1.71,1.92-2.01,2.51-4.57,2.74-.98.09-2.41.08-2.82.08-.86,0-1.27-.07-2.17-.5-2.4-1.17-5.52-6.86-7.02-9.07-5.77-8.51-11.54-17.08-17.29-25.61-.44-.65-1.24-2.44-1.72-2.86-.25-.22-.35-.26-.7-.21-.15,1,.18,1.95.21,2.9.54,17.59-.43,35.26,0,52.86-.26,3.97-1.94,6.74-5.57,8.19-.68.27-.57.18-1.34.34-.16.03-3.22.02-3.49,0-.86-.05-1.2-.02-2.11-.43-2.72-1.22-4.57-4.23-4.79-7.32V45.09c.26-9.43,12.01-11.87,17.69-5.21.66.78,1.24,1.75,1.82,2.6,9.28,13.54,17.37,27.93,26.54,41.24.3.44,1.22,2.48,1.91,2.27l10.27-16.26c5.5-8.63,11.12-17.21,16.7-25.61,1.57-2.37,3.03-5.83,5.96-6.99,3.89-1.55,9.8-.72,12.47,2.66.97,1.23,1.11,2.48,1.77,3.69l-.02,84.15c0,.77-1.22,3.25-1.34,3.41-.81,1.1-2.57,1.84-3.77,2.32-.18.07-1.37.41-1.46.43-3.65.88-9.98-2.22-10.29-6.29-.05-.21-.03-.11-.03-.13v-58.66Z"/>
  <path class="st0" d="M387.66,43.5c1.08-10.22,15.4-10.26,17.27.23.52,27.01.08,54.1.22,81.14-.2,3.57-2.22,6.79-5.37,8.13-.96.41-5.04.67-6.15.41-.15-.04-.12-.36-.27-.4-.3-.07-.64.06-.93,0-.06-.01-.92-.39-1.08-.47-3.16-1.52-7.6-8.48-9.92-11.43-14.65-18.69-29.02-37-42.77-54.99l-1.06-1.02v62.28s-.36-.08-.41.13c-.06.28.07.63,0,.94-.02.1-.78,1.55-.86,1.68s-2.27,2.32-2.41,2.41c-.72.46-1.88.71-2.62.87-.15.03-.12.36-.27.4-.4.1-2.72.08-3.19.02-.37-.05-.27-.38-.42-.41-1.06-.23-1.93-.2-3.02-.87-.16-.1-.36-.56-.53-.67s-.52-.01-.68-.13c-.67-.51-.68-1.12-.93-1.48-.3-.44-1.42-1.73-1.54-2.21-.15-.62.33-1.31-.4-1.61l-.02-81.94c0-.77.02-2.27.07-2.44,1.43-5.41,9.01-7.06,14.16-5.12,3.92,1.48,5.59,4.95,7.99,7.98,14.77,18.67,29.49,37.67,43.96,56.59l1.2.96v-58.96Z"/>
  <path class="st0" d="M312.67,124.44c-.01-.11-.68-1.78-.75-1.96-.29-.7-.55-1.39-.8-2.01-1.47-3.6-3.09-6.72-4.56-10.32-.73-1.8-1.94-3.95-2.68-5.75-1.47-3.6-3.09-6.72-4.56-10.32-.73-1.8-1.94-3.95-2.68-5.76-1.47-3.59-3.09-6.72-4.56-10.31-1-2.44-2.4-5.14-3.48-7.57-3.73-8.35-7.44-16.95-11.26-25.11-1.24-2.65-2.97-6.96-5.78-8.7-3.89-2.4-9.77-2.38-13.45.33-3.04,2.25-5.98,9.55-7.63,13.11-8.74,18.92-17,37.99-25.47,56.93-2.04,4.56-4.94,9.73-6.57,14.33-1.71,4.82-1.11,9.31,3.85,11.31.07.03.64.26,1.13.34.15.02,4.54.03,4.7,0,.66-.14,1.15-.13,1.8-.48.84-.45,3.15-3.02,3.55-3.79l7.97-18.5.91-.55,46.16.02c.23.6.28.75.33.87.48.95.87,2.31,1.34,3.48,1.01,2.5,2.47,5.26,3.48,7.76.97,2.39,2.03,5.51,3.35,7.5.29.44,1.56,2.08,2.01,2.41.16.12,1.14,1.27,4.16,1.27,4.53,0,5.44-.4,6.17-.86.09-.06,1.52-1.49,1.61-1.61.45-.6.97-1.4,1.13-2.12.03-.15.32-1.17.42-1.58.03-.15.05-.24.08-.4.07-.31.11-1.62.06-1.98ZM280.88,94.02h-32.58c1.35-3.65,3.09-7.15,4.66-10.71.98-2.2,1.77-3.96,2.64-6.1,1.17-2.86,2.71-6.01,3.89-8.77,1.22-2.86,2.41-5.66,3.62-8.44.34-.78.59-1.98.88-2.59.13-.26.62-1.04.97-.96.14,0,.6,1.08.62,1.15.53,2.01,1.57,3.91,2.35,5.75,1.56,3.7,2.98,7.03,4.56,10.92,1.23,3.02,2.73,6.05,4.02,9.24,1.22,3.02,4.2,9.7,4.36,10.51Z"/>
  <path class="st0" d="M511.46,37.45c1.32.86,2.2,1.98,2.48,2.5.41.76.82,1.94.82,2.52.87,18.08.17,36.9.37,55.27,0,1.16.21,1.68.42,2.56.23.96.85,2.66,1.27,3.69.69,1.69,2.07,4.5,3.21,6.03.25.34,1.9,2.41,1.95,2.47s2.13,1.7,2.47,1.95c1.53,1.14,3.84,1.86,5.5,2.54.19.08,1.85.74,1.96.75,1.8.22,3.04.8,7.24.8,1.03,0,4.5-.16,5.6-.42.15-.04,2.76-.66,3.7-1.15,7.09-3.67,12.58-9.11,14.28-17.09,1.69-17.89-.68-36.74.45-54.59.76-11.97,15.44-12.91,17.31-1.61-.49,16.51.62,33.37,0,49.84-.53,14.25-5.7,28.03-18.18,35.38-3.9,2.3-9.41,3.9-13.54,4.89-1.43.34-3.72.54-5.35.69-2.81.25-6.57-.03-9.58-.1-1.07-.03-5.93-.75-6.91-.99-2.1-.5-4.65-1.53-6.64-2.34-8.83-3.6-16.03-9.54-19.69-18.48-1.03-2.51-1.79-5.55-2.43-8.24-.64-2.67-.75-5.9-.75-8.59v-52.06c0-.75-.02-1.07.14-1.76.03-.15.02-.11.07-.28,1.47-5.55,8.86-7.42,13.82-4.19Z"/>
  <path class="st0" d="M144.27,36.84c1.04.52,3.08,2.69,3.62,3.8.48.99.71,1.2.89,3.04l-.03,52.86c.63,1.95.77,4.18,1.23,6.18.31,1.35,2.18,4.89,3.22,6.42,2.65,3.9,5.57,5.81,9.58,7.45.63.26,2.52,1.07,3.17,1.15,1.44.18,5.66.75,6.03.8.42.06,2.23.06,2.59-.02.16-.04,3.1-.18,4.02-.4.15-.04,1.35-.29,1.81-.4.15-.04.4-.09.55-.12,10.49-2.27,15.48-11.25,16.08-22.48.89-16.6-.65-33.96,0-50.63.86-11.65,16.29-11.43,17.11-.2-.63,16.71.8,34,0,50.64-.7,14.46-6.66,28.21-19.69,34.83-3.02,1.54-6.85,2.87-10.02,3.63-1.12.27-4.2.78-4.57.82-.92.12-3.24.35-3.62.4-2.17.27-10.37-.28-11.29-.4-.49-.06-1.34-.29-2.21-.4-1.52-.2-3.69-1.03-5.25-1.62-3.61-1.36-7.51-2.77-10.79-5.16-1.86-1.36-5.51-5.09-5.63-5.23-1.65-1.95-2.29-2.55-3.57-4.72-.73-1.23-1.46-2.31-1.92-3.45-1.43-3.5-2.06-5.79-2.89-9.44-.06-.25-.85-62.39-.81-62.56,1.38-5.22,7.42-7.27,12.41-4.8Z"/>
  <path class="st0" d="M421.94,53.04c-.09,0-.33-.18-.6-.21-11.04-1.15-10.48-14.65-.38-16.04l58.29-.02c3.59.29,6.47,2.17,7.35,5.48.05.17.34,2.27.27,2.8-.05.37-.11,1.53-.14,1.7-.06.3-.07.64-.14.93-.01.06-.36.87-.41.99-2.19,4.57-8.4,4.32-12.75,4.32s-14.15,0-14.15,0c0,0-.02,2.81-.02,3.55v67.17c0,2.07.2,2.72-.55,5.05-.84,2.62-2.03,5.06-6.8,5.06-6.16.4-10.65-3.49-10.57-10.16V53.04h-19.41Z"/>
</svg>