<?xml version="1.0" encoding="UTF-8"?>
<svg id="Capa_1" xmlns="http://www.w3.org/2000/svg" version="1.1" viewBox="0 0 600 169.55">
  <!-- Generator: Adobe Illustrator 29.0.1, SVG Export Plug-In . SVG Version: 2.1.0 Build 192)  -->
  <defs>
    <style>
      .st0 {
        fill: #999;
      }
    </style>
  </defs>
  <g>
    <path class="st0" d="M481.31,75.34c0-.14.07-.2.2-.2h20.9c.14,0,.27-.14.27-.27v-10.04c0-.2-.14-.34-.34-.34h-20.83c-.2,0-.34-.14-.34-.34h0c-.07-6.9,0-13.59,0-20.21.07-5.6,2.19-11.88,7.92-14,12.16-4.58,12.64,15.84,25.61,12.09,7.17-2.05,7.31-10.86,3.21-15.57-5.87-6.69-15.85-7.72-24.52-6.56-17.28,2.25-27.73,15.16-29.64,31.96-.27,2.66-.55,5.46-.61,8.26-.14,3.69-3.14,4.3-6.15,4.37-2.6.07-5.12.07-7.51,0-.27,0-.48.2-.48.48l.14,9.76c0,.2.14.34.34.34l14.21-.07c.14,0,.27.14.27.27.07,17.34.07,34.62,0,51.97-.07,9.08-6.01,12.56-14.41,12.09-.27,0-.41.14-.41.41v7.85c0,.2.2.41.41.41h50.14c.2,0,.41-.14.41-.41h0v-7.85c0-.2-.2-.41-.41-.41h0c-3.14.2-6.22,0-9.36-.55-6.9-1.16-8.95-5.67-8.95-11.88-.14-16.25-.14-33.46-.07-51.56h0Z" vector-effect="non-scaling-stroke"/>
    <path class="st0" d="M375.82,135.57c-.03-.07-.07-.12-.14-.14h-.01c-.11-.03-.25-.01-.43.07-5.08,1.91-10.36,1.81-11.86-3.17-.06-.21-.12-.42-.17-.65-.07-.25-.11-.52-.15-.8-.01-.11-.03-.22-.04-.33-.02-.17-.04-.35-.05-.53-.02-.32-.03-.65-.03-1V20.58c0-.28-.13-.41-.41-.41-2.45-.14-4.85-.07-7.24.61-7.65,2.26-15.09,4.44-22.33,6.56-.34.07-.48.34-.48.68v4.71c0,.28.14.48.34.62l12.3,6.76c.34.2.47.48.47.82v24.24c0,.2-.2.41-.41.41h-.13c-3.49-1.03-6.97-1.78-10.59-2.32-3.76-.59-7.4-.77-10.91-.52-.33.02-.66.05-.98.08-.19.01-.39.03-.58.05-.32.04-.63.07-.95.11-.08,0-.17.02-.26.04-.34.04-.68.09-1.02.15-1.42.22-2.81.52-4.18.89-.24.06-.49.13-.74.21-.19.05-.39.1-.58.17-.36.1-.72.22-1.07.34-1.43.47-2.82,1.03-4.2,1.66-.53.25-1.06.51-1.59.78-.93.48-1.84.99-2.74,1.53-2.71,1.64-5.32,3.61-7.83,5.91-12.09,11.06-17.7,28.2-14.76,44.39,1.3,7.1,4.58,14.4,9.36,19.59,6.43,7.03,14.23,10.73,22.45,11.34.38.03.75.06,1.13.07,1.23.05,2.46.03,3.69-.05.39-.03.78-.06,1.17-.1.39-.04.79-.08,1.18-.14.39-.05.78-.11,1.18-.18,4.31-.72,8.66-2.24,12.91-4.52,3.69-1.98,6.97-4.23,9.91-6.83.48-.4.61-.34.61.14l-.07,11.27c0,.27.14.41.41.41,2.53-.07,4.99.14,7.45-.41,7.72-1.71,15.03-3.28,21.99-4.78.11-.03.2-.07.27-.13.09-.08.14-.19.14-.35l.07-8.4c0-.2-.04-.33-.1-.41ZM345.51,125.96c-.15.47-.39.9-.74,1.28-4.71,5.12-10.45,7.92-17.28,8.47-18.44,1.5-27.45-16.19-28.68-31.89-.07-.91-.11-1.83-.11-2.73,0-.34,0-.68.02-1.02,0-.16,0-.32.01-.47.02-.37.04-.73.07-1.09.04-.5.08-.99.14-1.48.06-.56.14-1.12.24-1.67.07-.44.15-.88.25-1.31.09-.49.2-.97.34-1.44.05-.24.11-.47.18-.7.02-.1.05-.19.09-.29.1-.36.21-.71.33-1.06,1.74-5.24,4.84-9.96,9.3-13.44,8.12-6.28,18.85-6.22,26.77.27,6.76,5.46,9.22,14.41,9.22,23.22v24.17c0,.39-.04.74-.12,1.07-.01.04-.02.07-.03.11Z"/>
    <path class="st0" d="M424.07,30.95c0-5.94-4.85-10.79-10.79-10.79s-10.79,4.85-10.79,10.79,4.85,10.79,10.79,10.79,10.79-4.85,10.79-10.79h0Z" vector-effect="non-scaling-stroke"/>
    <path class="st0" d="M584.59,21.87c.07-.07.14-.2,0-.34-.07-.07-.14-.07-.2-.07h-23.84c-.07,0-.14.07-.2.14l-18.51,28.95c-.07.14-.07.27.07.34.07,0,.07.07.14.07l7.24-.14c.07,0,.14,0,.14-.07l35.18-28.89h0Z" vector-effect="non-scaling-stroke"/>
    <path class="st0" d="M140.47,55.81c2.39,20.42,4.99,42.34,7.79,65.76,1.37,11.06-3.83,17.69-15.37,17.48-.34,0-.48.14-.48.48l.07,8.19c0,.14.14.27.27.27l56.15-.07c.2,0,.34-.14.34-.34v-8.06c0-.27-.2-.48-.48-.48-7.45-.61-14.34-3.07-16.94-10.58-.68-2.12-1.23-4.37-1.57-6.83-3.21-24.65-6.42-49.17-9.56-73.61-.41-3.28-.27-6.35.48-9.22,1.43-5.53,7.79-7.24,12.98-7.44.34,0,.55-.27.55-.61v-7.92c0-.2-.14-.34-.34-.34h-38.39c-.14,0-.27.14-.27.27v.07c1.5,6.49,1.09,13.52-1.37,21.1-1.71,5.26-3.96,11.06-6.83,17.41-8.61,18.98-17.83,37.42-27.19,56.2-.07.14-.2.14-.34.14-.07,0-.07-.07-.14-.14-1.91-5.33-4.1-10.52-6.49-15.64-7.1-15.09-15.1-29.98-21.79-45.62-4.64-10.79-8.13-22.06-8.81-33.26,0-.27-.14-.41-.48-.41H24.97c-.2,0-.34.14-.34.34l.07,7.99c0,.27.2.48.48.48,6.69.07,12.29,2.94,13.18,10.17.41,3.48.41,6.9-.14,10.24-4.03,26.77-7.72,50.46-10.93,71.22-.34,2.25-.96,4.51-1.78,6.76-2.66,7.03-7.58,9.29-14.41,9.15-.27,0-.41.14-.41.41v8.13c0,.34.14.48.48.48h43.51c.14,0,.27-.14.27-.27l-.07-8.19c0-.27-.2-.55-.55-.55-8.06-.27-15.03-2.94-15.98-12.02-.41-3.82-.27-8.19.48-13.18,3.01-20.49,5.94-40.77,8.74-60.77.07-.68.27-.75.55-.07,7.38,19.8,17.01,38.17,26.5,57.29,4.99,10.11,8.88,18.78,11.54,26.09,1.3,3.55,2.46,7.58,3.07,11.4,0,.2.2.34.34.27l9.56-.07c.2,0,.41-.14.48-.41.75-3.69,1.84-7.31,3.14-10.86,2.53-6.69,5.74-13.86,9.7-21.51,9.97-19.46,20.29-38.85,27.66-59.48.14-.48.27-.48.34.14h0Z" vector-effect="non-scaling-stroke"/>
    <path class="st0" d="M405.29,84.63c.07,14.34.07,28.2.07,41.65,0,8.74-4.23,13.11-12.7,13.18-.27,0-.41.14-.41.41v7.92c0,.14.14.27.27.27h40.85c.34,0,.55-.14.55-.55v-7.72c0-.2-.14-.34-.34-.34h0c-7.51.14-10.93-5.46-10.93-12.15V62.84c0-.2-.14-.34-.34-.34-2.66-.07-5.12-.07-7.72.89-7.65,2.8-15.16,5.53-22.61,8.19-.27.07-.41.27-.41.61v4.51c0,.41.2.75.61.96l12.64,6.28c.34.07.48.34.48.68h0Z" vector-effect="non-scaling-stroke"/>
    <path class="st0" d="M267.95,128.92h0c-.04-.07-.08-.13-.15-.18l-4.31-3.82c-.27-.27-.75-.27-1.02,0-9.15,8.26-22.54,11.2-33.81,6.21-8.64-3.84-14.04-10.83-16.66-19.18-.37-1.19-.69-2.41-.96-3.65-.23-1.1-.42-2.23-.57-3.37-.1-.76-.18-1.52-.24-2.29-.11-1.41-.16-2.84-.15-4.28v-.07s0-.05.01-.07c.02-.14.06-.24.13-.32.01-.01.03-.02.04-.03.08-.09.18-.13.3-.13h56.89c.2,0,.36-.11.43-.27.03-.06.05-.13.05-.21-.24-5.36-1.35-10.24-3.35-14.65-2-4.4-4.88-8.33-8.67-11.77-10.18-9.36-25.61-10.59-37.84-4.99-6.22,2.8-11.54,7.58-15.37,13.25-4.78,7.14-7.45,15.17-8.02,24.06-.18,2.69-.17,5.47.04,8.33.04.52.08,1.03.13,1.55,1.91,19.8,16.05,36.33,36.88,36.94,15.51.48,28.28-7.51,36.2-20.42.02-.03.03-.07.04-.11.01-.01.01-.02.01-.03.06-.17.06-.35-.03-.5ZM246.55,89.34h-.1l-34.66-.07h-.14s-.07,0-.07-.06l-.04-.04s-.03-.05-.03-.1v-.07c.05-.32.1-.64.16-.95.72-3.76,2.17-7.11,4.24-9.81.52-.68,1.09-1.31,1.69-1.9,3.44-3.35,8.14-5.24,13.79-4.96,1.21.06,2.34.25,3.4.57.18.05.36.1.53.16.62.21,1.21.46,1.77.74.19.1.37.2.55.3.36.2.7.42,1.04.65.17.11.33.23.5.36.25.19.49.39.74.61.13.11.27.23.39.35.12.11.23.22.35.33.25.24.49.5.72.77.01.02.03.04.05.06.24.27.47.55.69.84.41.54.8,1.11,1.15,1.7.13.2.24.4.35.6.12.21.23.42.34.63.06.11.12.22.17.32.05.1.09.19.13.29.1.21.2.42.29.63.04.08.08.16.11.23.06.13.1.26.15.38.03.07.06.14.09.22.09.19.16.39.24.59.06.17.12.34.18.52,0,0,.01,0,0,.02.08.22.16.44.23.67.07.22.14.45.2.67.02.06.04.12.05.17.03.11.06.22.09.33.08.29.15.58.22.87.25,1.06.44,2.12.58,3.18,0,.07-.07.2-.14.2Z"/>
    <path class="st0" d="M589.03,128.47l-4.23-3.76c-.28-.27-.75-.27-1.03,0-9.49,8.61-23.22,11.41-34.83,5.74-4.53-2.15-8.12-5.25-10.85-8.98-.22-.31-.44-.63-.66-.95-.21-.32-.42-.64-.62-.97-.18-.28-.35-.57-.52-.86-.01-.02-.02-.04-.03-.06-.02-.03-.04-.05-.05-.08-.02-.04-.05-.09-.07-.14h-.01c-.17-.29-.32-.58-.47-.87-.18-.35-.35-.69-.52-1.05-.17-.35-.33-.7-.48-1.06-.12-.27-.24-.54-.34-.82-.03-.07-.06-.13-.08-.2-.02-.05-.05-.11-.07-.16-.09-.22-.17-.44-.25-.66t-.01-.02c-.18-.47-.34-.95-.5-1.43-.12-.38-.23-.75-.34-1.13-.07-.24-.14-.48-.2-.72-.06-.22-.12-.43-.17-.65,0-.02-.01-.03-.01-.05-.08-.3-.15-.59-.21-.89-.09-.39-.17-.78-.25-1.18-.08-.39-.15-.78-.21-1.18-.07-.4-.13-.8-.18-1.2-.1-.72-.18-1.44-.23-2.16-.03-.27-.05-.54-.07-.82-.02-.31-.03-.61-.05-.91-.02-.33-.03-.65-.03-.98-.02-.7-.03-1.41-.01-2.12v-.07c0-.2.14-.34.34-.34h57.04c.27,0,.41-.14.41-.4,0-.53-.02-1.07-.05-1.6-.06-1.07-.16-2.12-.31-3.17-.03-.19-.06-.39-.09-.58-.05-.33-.11-.65-.17-.98-.09-.47-.19-.93-.29-1.4-3.27-14.38-15.17-25.93-30.58-27.04-10.59-.75-20.63,2.67-28.14,9.91-2.94,2.86-5.19,5.66-6.76,8.46-2.53,4.47-4.37,9.07-5.5,13.79-.35,1.41-.63,2.83-.84,4.27-.11.72-.21,1.44-.29,2.16-.04.36-.07.72-.1,1.09-.04.36-.06.73-.09,1.09-.07,1.14-.11,2.29-.11,3.45,0,.46.01.92.02,1.38v.16c.02.47.04.95.07,1.42.03.51.06,1.03.1,1.54.09,1.03.21,2.06.35,3.1.07.52.15,1.04.24,1.57.17,1.04.38,2.09.61,3.15,4.37,19.67,21.59,33.06,42.08,30.46,12.63-1.57,23.02-9.08,29.78-20.14.08-.13.13-.26.13-.39.02-.21-.06-.4-.27-.57ZM567.92,89.14s-.01.05-.02.07c-.01.03-.02.05-.04.06h-.21l-34.56-.06h-.14s-.06,0-.06-.07v-.07c-.11,0-.13,0-.13-.03h0c1.09-6.15,4.17-12.34,9.69-15.4,4.78-2.6,9.63-3.01,14.68-1.23,2.08.72,3.83,1.94,5.28,3.48.29.32.58.65.85.99.19.25.38.5.56.76.18.26.36.53.53.8.22.34.42.69.6,1.04.1.18.2.36.3.54.08.18.17.36.25.54.19.36.35.73.5,1.11.16.38.3.76.44,1.14.41,1.16.75,2.35,1.01,3.54.09.4.17.79.24,1.19.02.09.03.18.04.26,0,.05.02.11.03.16.07.37.12.73.17,1.09,0,.03,0,.06-.01.09Z"/>
    <path class="st0" d="M298.7,101.09c0,.9.04,1.82.11,2.73-.08-.91-.11-1.82-.11-2.73Z"/>
    <path class="st0" d="M345.51,125.96c-.14.51-.38.95-.74,1.35-4.71,5.12-10.45,7.92-17.28,8.47-18.44,1.5-27.45-16.19-28.68-31.89v-.07c1.23,15.7,10.24,33.39,28.68,31.89,6.83-.55,12.57-3.35,17.28-8.47.35-.38.59-.81.74-1.28Z"/>
    <path class="st0" d="M217.6,76.34c3.43-3.39,8.12-5.31,13.79-5.03,8.43.42,12.99,7.27,14.72,14.65-1.74-7.32-6.3-14.16-14.72-14.58-5.65-.28-10.35,1.61-13.79,4.96Z"/>
    <path class="st0" d="M246.55,89.41l-34.7-.07h-.13q0-.07-.07-.07h.14l34.66.07h.1c-.07,0-.13,0,0,.07Z"/>
    <path class="st0" d="M567.45,86.35c-.26-1.19-.6-2.38-1.01-3.54.42,1.15.76,2.34,1.01,3.54Z"/>
    <path class="st0" d="M567.79,89.27h.07q-.07.07-.21.14h-.13l-34.57-.07h-.13l-.07-.07v-.2s0-.02,0-.03c0,.03.02.03.13.03v.07c0,.07.06.07.06.07h.14l34.56.06h.14Z"/>
  </g>
  <path class="st0" d="M519.46,28.46h0c-.32-.6-.68-1.17-1.08-1.69-.1-.13-.21-.26-.32-.39-5.87-6.69-15.84-7.71-24.52-6.55-.4.05-.79.11-1.18.18-.23.03-.45.07-.67.11h-.02c-.4.07-.79.15-1.18.24-.44.08-.87.18-1.29.3-.21.05-.41.1-.61.16-.32.08-.64.17-.95.27-.13.04-.26.08-.39.13-.15.04-.3.09-.45.14-.14.03-.28.08-.41.13-.19.07-.39.14-.58.21-.08.02-.15.05-.23.08-.35.12-.69.26-1.03.4-.05.01-.09.03-.14.06-.33.13-.67.28-.99.43-.08.03-.15.06-.22.1-.11.05-.22.1-.33.16-.38.17-.76.36-1.12.55-.32.17-.64.34-.95.52-.06.04-.12.07-.18.11-.33.19-.65.38-.97.59-.2.12-.4.25-.59.38-.37.24-.73.49-1.09.75-.62.44-1.21.91-1.78,1.39-.17.14-.34.28-.5.43-.33.28-.64.57-.95.87-.08.07-.16.14-.23.22-.28.26-.55.54-.81.82-.03.03-.06.06-.08.09-.23.23-.45.46-.66.7-.28.31-.54.62-.8.93-.1.11-.18.23-.27.34-.78.96-1.5,1.96-2.17,3.01-.18.29-.36.58-.53.88-.07.1-.13.2-.17.29-.2.33-.39.67-.57,1.01-.16.28-.31.57-.45.86-.06.1-.11.21-.16.32-.13.25-.25.5-.36.75-.09.18-.17.36-.24.54-.12.24-.23.49-.33.74-.27.65-.53,1.3-.77,1.97-.22.63-.43,1.26-.62,1.91-.04.11-.07.21-.1.32-.02.06-.04.13-.06.2-.03.09-.06.18-.07.27-.05.15-.09.3-.13.45-.01.03-.02.06-.02.09-.08.28-.15.56-.22.85-.09.37-.18.74-.26,1.11-.09.41-.18.82-.25,1.23-.07.34-.12.69-.18,1.04-.07.38-.13.77-.18,1.15-.06.38-.11.78-.15,1.17-.34,2.67-.55,5.47-.62,8.27-.01.28-.04.55-.09.8-.01.12-.04.24-.07.36-.02.08-.04.16-.07.24-.02.08-.05.16-.09.24-.03.09-.07.18-.11.26-.05.13-.12.25-.19.37-.08.13-.17.25-.26.36-.07.08-.14.16-.22.23,0,.02-.03.04-.06.06-.06.07-.13.13-.2.18-.11.1-.22.18-.33.25-.01.01-.02.01-.03.01h-.01s-.03.04-.05.05c-.06.04-.11.07-.17.11-.03.01-.06.03-.09.04-.13.07-.26.13-.4.19-.14.07-.3.11-.45.16-.12.04-.25.08-.37.11-.05.02-.1.03-.15.04-.1.03-.2.05-.3.06-.01.01-.03.02-.04.01-.15.03-.3.06-.45.08-.16.03-.32.05-.48.06-.21.03-.42.05-.64.06-.27.02-.55.03-.82.04-2.6,0-5.13.07-7.52,0-.06,0-.11.01-.16.03-.04.01-.08.03-.12.07-.03.01-.06.03-.07.06-.04.03-.06.06-.07.1-.02.01-.02.03-.02.05-.03.05-.04.11-.04.17v9.83c0,.2.14.34.35.34l14.13-.07h.07c.14,0,.28.14.28.27.06,17.35.06,34.63,0,51.97,0,.38-.02.76-.04,1.12,0,.03,0,.05-.01.08-.01.23-.03.47-.06.69v.04s-.01.06-.01.09c-.03.22-.05.43-.09.63-.04.29-.1.57-.16.84-.06.27-.12.54-.2.8-.04.14-.08.28-.13.41-.04.15-.09.3-.15.45-.06.17-.12.34-.2.51-.05.14-.11.27-.18.4-.08.18-.17.36-.27.54-.07.12-.13.24-.2.35-.06.1-.12.19-.18.28-.13.21-.26.4-.41.59-.07.1-.14.19-.22.28-.07.1-.15.18-.23.27-.15.17-.31.34-.47.5-.17.17-.34.32-.52.47-.21.18-.44.35-.67.52-.35.25-.73.48-1.12.68-.51.27-1.05.51-1.62.71-.14.05-.28.1-.43.14-.05.02-.09.03-.14.05-.04.01-.09.02-.13.03-.02.01-.05.02-.07.03h-.01c-.12.04-.24.07-.37.1,0,.01-.01.01-.02,0-.35.09-.72.16-1.08.23h-.01c-.3.06-.61.1-.92.14-.05.01-.1.01-.14.02-.12,0-.23.03-.34.03-.06.01-.13.02-.19.02-.16.02-.31.03-.47.05-.04,0-.07,0-.11,0-.1,0-.2,0-.3,0-.31.02-.64.03-.96.03-.32,0-.63,0-.96,0-.23,0-.45,0-.68-.03h-.01s-.1.02-.14.03c-.01,0-.01.01-.02.01-.03.01-.05.02-.07.04l-.03.03s-.03.02-.03.04c-.05.06-.07.15-.07.26v7.85s.01.1.04.15c.04.1.13.18.22.23.05.02.1.03.15.03h50.14c.1,0,.2-.04.28-.1.08-.06.13-.14.13-.24v-7.92l-.02-.06s-.07-.1-.12-.15c0,0-.03-.03-.06-.04-.02-.02-.04-.03-.07-.03-.07,0-.14-.06-.21,0-3.07.14-6.21,0-9.36-.54-4.76-.8-7.21-3.21-8.26-6.67-.1-.31-.19-.63-.25-.96-.04-.17-.08-.34-.11-.5-.05-.27-.1-.55-.13-.84-.04-.28-.08-.58-.1-.88-.01-.13-.02-.27-.03-.4-.02-.22-.03-.44-.04-.67-.01-.34-.02-.68-.02-1.03-.04-8.95-.06-18.16-.05-27.65,0-3.49,0-7.01.01-10.57,0-2.18.01-4.37.02-6.57,0-2.25.01-4.5.02-6.77,0-.14.06-.2.2-.2h20.9c.1,0,.19-.07.24-.16.01,0,.02-.02.02-.02.01-.03.02-.07.02-.1v-10.03c0-.21-.14-.35-.35-.35h-20.83c-.2,0-.34-.13-.34-.34v-20.35c0-.26.02-.51.03-.78,0-.05.01-.09.01-.14l.03-.39c.01-.13.01-.25.03-.38.02-.18.04-.37.06-.55v-.05c.02-.13.04-.27.05-.4.03-.24.07-.49.11-.73.05-.27.11-.53.17-.8.05-.24.11-.48.17-.72.02-.08.04-.17.07-.25.58-2.12,1.53-4.12,2.96-5.72.11-.13.23-.26.35-.39.11-.13.24-.26.37-.37.21-.21.43-.41.66-.59.14-.11.28-.22.42-.32.73-.52,1.54-.95,2.43-1.28,12.16-4.57,12.64,15.84,25.62,12.09,1.35-.39,2.46-1.01,3.34-1.81.15-.13.29-.27.43-.42.14-.14.27-.29.4-.44.07-.08.13-.15.18-.23.23-.29.43-.6.6-.91.11-.2.21-.39.3-.59.01-.01.02-.02.02-.04.17-.39.31-.79.43-1.21,0,0,.01-.01.01-.02.11-.42.2-.85.26-1.29.28-2.23-.17-4.62-1.23-6.67ZM375.82,135.57c-.03-.07-.07-.12-.14-.14h-.01c-.1-.06-.25-.05-.43.01-5.06,1.89-10.31,1.8-11.86-3.11-.06-.21-.12-.42-.17-.65-.06-.26-.11-.52-.15-.8-.01-.11-.03-.22-.04-.33-.02-.17-.04-.35-.05-.53-.02-.32-.03-.65-.03-1V20.51c0-.27-.13-.41-.41-.41-2.45-.14-4.85-.07-7.24.61-7.65,2.26-15.09,4.44-22.33,6.56-.34.07-.48.34-.48.68v4.71c0,.28.14.48.34.62l12.3,6.76c.34.14.47.48.47.82v24.44c0,.07-.06.07-.06.14,0,0-.07,0-.07.07l-.07.07h-.34c-3.49-1.03-6.97-1.78-10.59-2.32-3.76-.59-7.4-.77-10.91-.52-.33.02-.66.05-.98.08-.19.01-.39.03-.58.05-.32.04-.63.07-.95.11-.08,0-.17.02-.26.04-.34.04-.68.09-1.02.15-1.42.22-2.81.52-4.18.89-.24.06-.49.13-.74.21-.19.05-.39.1-.58.17-.36.1-.72.22-1.07.34-1.43.47-2.82,1.03-4.2,1.66-.53.25-1.06.51-1.59.78-.93.48-1.84.99-2.74,1.53-2.7,1.65-5.28,3.62-7.77,5.91-12.09,11.06-17.69,28.2-14.75,44.39,1.3,7.1,4.58,14.4,9.36,19.59,6.42,7.01,14.19,10.71,22.38,11.34.38.03.75.06,1.13.07,1.23.05,2.46.03,3.69-.05.39-.03.78-.06,1.17-.1.39-.04.79-.08,1.18-.14.39-.05.78-.11,1.18-.18,4.34-.71,8.71-2.23,12.98-4.52,3.62-1.98,6.97-4.23,9.91-6.83.34-.27.47-.2.47.21l-.06,11.27c0,.27.13.41.41.41,2.52-.07,4.98.13,7.44-.41,7.72-1.71,15.03-3.28,22-4.78.15-.04.27-.1.33-.2.05-.07.08-.16.08-.28l.06-8.4c.02-.22.02-.38-.03-.48ZM298.72,100.07c0-.16,0-.32.01-.47.02-.37.04-.73.07-1.09.04-.5.08-.99.14-1.48.06-.56.14-1.12.24-1.67.07-.44.15-.88.25-1.31.09-.49.2-.97.34-1.44.05-.24.11-.47.18-.7.02-.1.05-.19.09-.29.1-.36.21-.71.33-1.06,1.72-5.27,4.82-10.02,9.3-13.51,8.06-6.28,18.85-6.15,26.77.27,6.83,5.53,9.29,14.48,9.29,23.29v24.17c-.03.38-.09.74-.19,1.07-.01.04-.02.07-.03.11-.15.47-.39.9-.74,1.28-4.71,5.12-10.45,7.92-17.28,8.47-18.44,1.5-27.45-16.19-28.68-31.89-.07-.91-.11-1.83-.11-2.73,0-.34,0-.68.02-1.02ZM423.23,26.76c-.55-1.29-1.34-2.44-2.32-3.42h0c-.12-.13-.24-.24-.37-.36h0s0-.01-.01-.01c-.15-.14-.31-.28-.47-.41-.09-.07-.18-.13-.27-.2-.07-.06-.15-.11-.23-.17-.08-.07-.17-.13-.25-.18-.14-.09-.28-.18-.43-.27h0s-.01,0-.01,0c-.15-.09-.29-.18-.45-.25-.07-.05-.15-.09-.23-.13-.06-.03-.12-.06-.18-.08-.17-.1-.35-.18-.53-.25-1.29-.55-2.71-.85-4.2-.85s-2.91.3-4.2.85c-2.57,1.1-4.64,3.17-5.74,5.74-.55,1.29-.85,2.71-.85,4.2s.3,2.91.85,4.2c1.1,2.57,3.17,4.64,5.74,5.74,1.29.55,2.71.85,4.2.85s2.91-.3,4.2-.85c.18-.07.36-.15.53-.25.06-.02.12-.05.18-.08.08-.04.16-.08.23-.13.16-.07.3-.16.45-.25h.01c.15-.1.29-.19.43-.28.04-.03.08-.06.13-.09.04-.03.08-.06.12-.09.08-.06.16-.11.23-.17.09-.07.18-.13.27-.2.16-.13.32-.27.47-.41h.01c.13-.13.25-.24.37-.36h0c.98-.99,1.77-2.14,2.32-3.43.55-1.29.85-2.71.85-4.2s-.3-2.91-.85-4.2ZM584.72,21.63s-.06-.03-.06-.03v-.03s-.01-.04-.07-.04h-23.9c-.07,0-.14.07-.21.14l-18.51,28.95v.28h.14l7.24-.14h.07c.06,0,.13,0,.13-.07l35.11-28.82c.07-.06.07-.13.07-.2,0-.02,0-.03-.01-.04ZM189.21,139.34s0-.03-.03-.04c-.1-.1-.24-.18-.41-.18-7.45-.61-14.35-3.07-16.94-10.58-.06-.18-.12-.38-.17-.56-.01-.04-.02-.07-.03-.11-.1-.3-.19-.6-.27-.9-.02-.04-.03-.08-.04-.12-.14-.52-.28-1.06-.41-1.6-.11-.48-.21-.96-.3-1.46-.02-.11-.04-.23-.06-.34-.03-.13-.05-.26-.07-.39-.05-.25-.09-.51-.13-.77-.03-.19-.06-.39-.09-.58-3.28-24.65-6.42-49.17-9.57-73.61-.04-.31-.07-.62-.1-.93-.03-.31-.05-.61-.07-.92-.04-.57-.06-1.13-.06-1.69,0-.49.02-.97.04-1.45.02-.27.04-.53.06-.79.04-.39.08-.78.14-1.17.04-.26.08-.52.13-.77.1-.5.21-1,.34-1.5,1.44-5.53,7.79-7.24,12.98-7.45.34,0,.55-.27.55-.61v-7.92c0-.21-.14-.34-.35-.34h-38.52s0,.07-.07.07v.13c1.51,6.49,1.1,13.52-1.36,21.1-1.71,5.26-3.96,11.07-6.83,17.42-8.54,18.98-17.83,37.42-27.19,56.2,0,.06-.07.06-.07.06h-.34v-.06s0-.07-.07-.07c-1.91-5.33-4.1-10.52-6.49-15.64-7.17-15.09-15.09-29.98-21.79-45.62-4.64-10.78-8.19-22.05-8.81-33.25,0-.27-.13-.41-.47-.41H24.97c-.2,0-.34.14-.34.34v.14l.07,7.85c0,.27.2.48.48.48,6.69.13,12.29,2.93,13.18,10.17.05.45.1.9.13,1.35.04.4.07.8.09,1.2.02.4.04.8.05,1.2.03.81.03,1.62-.01,2.42,0,.22-.02.45-.03.67-.01.26-.04.53-.06.79-.04.42-.07.85-.12,1.27-.03.23-.05.45-.08.67-.03.23-.07.46-.11.68-4.09,26.76-7.71,50.46-10.92,71.22-.35,2.25-.96,4.51-1.78,6.83-2.66,7.03-7.58,9.28-14.48,9.15-.27,0-.41.13-.41.41v8.12c0,.14.03.25.09.33,0,.01.01.03.02.04s.02.01.03.02h.01c.07.06.19.09.33.09h43.51c.13,0,.27-.14.27-.27l-.07-8.2s0-.07-.01-.1c0-.02-.01-.04-.02-.05-.01-.07-.04-.13-.09-.19-.01-.02-.02-.03-.03-.03-.09-.11-.23-.17-.39-.17-4.79-.17-9.19-1.17-12.18-3.86-.14-.14-.29-.27-.42-.41l-.08-.08c-.11-.12-.22-.24-.32-.35-.14-.16-.29-.33-.41-.5-.14-.17-.27-.34-.38-.52-1.17-1.64-1.93-3.71-2.2-6.3-.41-3.76-.27-8.2.48-13.18,3.01-20.49,5.94-40.77,8.74-60.77.02-.08.03-.15.04-.21.01-.02.02-.03.03-.05.09-.33.18-.39.33-.14l.02.02c.02.08.07.17.13.31,7.38,19.8,17.01,38.17,26.5,57.29,4.99,10.11,8.88,18.78,11.55,26.08,1.29,3.56,2.45,7.58,3.07,11.41,0,.11.06.2.14.26.01,0,.01.01.02.02.06.04.13.06.18.06h.07l9.49-.07s.07,0,.11-.01c.11-.03.2-.1.27-.2.01-.02.02-.04.03-.06.03-.04.06-.08.07-.14.75-3.69,1.85-7.3,3.14-10.86.53-1.4,1.09-2.83,1.7-4.29.17-.44.36-.89.55-1.33.26-.64.54-1.29.82-1.94.37-.88.77-1.77,1.17-2.67.4-.9.82-1.81,1.25-2.72.85-1.83,1.75-3.68,2.69-5.57.47-.94.95-1.89,1.45-2.85,2.14-4.18,4.3-8.36,6.44-12.55.98-1.91,1.95-3.82,2.91-5.73.74-1.47,1.48-2.94,2.2-4.41.5-.98.98-1.96,1.46-2.95,1.64-3.33,3.24-6.68,4.79-10.04.62-1.32,1.22-2.64,1.81-3.97.69-1.53,1.36-3.06,2.03-4.6.54-1.25,1.07-2.51,1.59-3.77,1.6-3.83,3.11-7.69,4.51-11.59,0-.02.01-.05.03-.07.18-.48.31-.45.38.13,2.39,20.42,4.98,42.34,7.85,65.76.67,5.42-.23,9.78-2.69,12.78-.02.02-.04.05-.06.07-.13.17-.27.33-.43.49-.15.16-.3.32-.46.47-.14.13-.28.26-.42.38-.22.2-.47.37-.71.54,0,0,0,0-.01,0-2.55,1.86-6.08,2.83-10.59,2.75-.19,0-.32.04-.39.14h0c-.07.08-.09.19-.09.33l.07,8.2c0,.13.14.27.28.27l56.14-.07c.09,0,.15-.02.2-.06h.01c.08-.06.13-.16.13-.28v-8.06s-.05-.09-.1-.12ZM433.6,139.4h-.03c-1.94.03-3.61-.32-5.02-.97-.25-.12-.49-.25-.73-.39-.24-.14-.46-.29-.68-.43-2.27-1.59-3.64-4.14-4.21-7.1-.03-.2-.07-.4-.1-.6v-.04c-.07-.46-.12-.93-.15-1.4-.03-.41-.04-.82-.04-1.23V62.78c0-.21-.13-.34-.34-.34-.09,0-.18-.01-.27-.01-2.56-.13-4.94-.03-7.45.89-7.65,2.8-15.16,5.54-22.61,8.2-.27.07-.41.27-.41.55v4.5c0,.34.15.64.44.84h.01s.11.09.17.12l12.63,6.28c.1.05.19.12.25.2.05.04.08.08.11.13.03.04.05.09.06.14.02.03.03.07.03.11.02.04.03.08.02.12.01.01.01.03.01.05v.07c.07,14.32.07,28.15.07,41.59,0,.57-.02,1.12-.05,1.65-.03.45-.07.88-.13,1.3-.02.21-.06.42-.09.62-.03.21-.07.41-.11.6-.96,4.72-3.74,7.58-8.34,8.6-.15.03-.3.06-.46.1-.08.02-.16.03-.25.04-.15.03-.31.05-.47.07-.2.03-.41.06-.62.08-.21.02-.42.04-.64.06-.48.04-.97.06-1.48.06h-.06s-.03,0-.04.01c-.01,0-.02,0-.03,0-.04.01-.07.02-.09.03-.02,0-.04.01-.05.03-.02,0-.03.02-.05.04-.01,0-.01.01-.01.02-.01-.02-.02-.01-.02,0-.02.01-.03.03-.04.05-.01,0-.02.03-.03.05-.01.02-.02.05-.03.09,0,.01,0,.02,0,.03s-.01.03-.01.04v7.92c0,.13.13.27.27.27h.07l40.78-.07c.34,0,.54-.14.54-.54v-7.72c0-.14-.13-.26-.31-.27ZM267.95,128.92h0c-.03-.1-.09-.18-.15-.25l-4.31-3.82c-.27-.27-.75-.27-1.02,0-9.15,8.26-22.54,11.2-33.81,6.21-8.62-3.83-14.01-10.79-16.66-19.11-.37-1.19-.69-2.41-.96-3.65-.23-1.1-.42-2.23-.57-3.37-.1-.76-.18-1.52-.24-2.29-.11-1.41-.16-2.84-.15-4.28v-.07s0-.05.01-.07c0-.15.04-.26.13-.32.01-.01.03-.02.04-.03.08-.04.17-.06.3-.06h56.89c.14,0,.28-.07.35-.14q.06-.07.06-.13s.01-.05.02-.07c.01-.05.03-.09-.02-.14-.47-10.72-4.44-19.53-11.95-26.43-10.18-9.35-25.61-10.58-37.84-4.98-6.22,2.8-11.61,7.58-15.37,13.25-4.77,7.11-7.43,15.12-8.02,23.99-.18,2.69-.17,5.47.04,8.33.03.54.08,1.08.13,1.62,1.91,19.8,16.05,36.32,36.88,36.94,15.51.48,28.28-7.51,36.2-20.42.02-.06.04-.12.04-.18.01-.01.01-.02.01-.03.04-.19.02-.36-.03-.5ZM211.51,89c.05-.32.1-.64.16-.95.69-3.77,2.14-7.12,4.24-9.81.52-.68,1.09-1.31,1.69-1.9,3.44-3.35,8.14-5.24,13.79-4.96,1.21.06,2.34.25,3.4.57.18.05.36.1.53.16.62.21,1.21.46,1.77.74.19.1.37.2.55.3.36.2.7.42,1.04.65.17.11.33.23.5.36.25.19.49.39.74.61.13.11.27.23.39.35.12.11.23.22.35.33.25.24.49.5.72.77.01.02.03.04.05.06.24.27.47.55.69.84.41.54.8,1.11,1.15,1.7.13.2.24.4.35.6.12.21.23.42.34.63.06.11.12.22.17.32.05.1.09.19.13.29.1.21.2.42.29.63.04.08.08.16.11.23.06.13.1.26.15.38.03.07.06.14.09.22.09.19.16.39.24.59.06.17.12.34.18.52,0,0,.01,0,0,.02.08.22.16.44.23.67.07.22.14.45.2.67.02.06.04.12.05.17.03.11.06.22.09.33.08.29.15.58.22.87.25,1.06.44,2.12.58,3.18,0,.07-.07.2-.14.2h-.1l-34.66-.07h-.14s-.07,0-.07-.06l-.04-.04-.03-.03s-.07-.07,0-.14ZM589.03,128.61l-4.23-3.76c-.28-.27-.75-.27-1.03,0-9.49,8.6-23.22,11.4-34.83,5.74-4.54-2.21-8.14-5.36-10.85-9.12-.23-.31-.45-.63-.66-.95-.22-.32-.42-.64-.62-.97-.19-.28-.36-.57-.52-.86-.01-.02-.02-.04-.03-.06-.02-.03-.04-.05-.05-.08-.04-.05-.06-.09-.07-.14h-.01c-.17-.29-.32-.58-.47-.87-.18-.35-.36-.7-.52-1.05-.18-.35-.34-.71-.48-1.06-.13-.27-.24-.55-.34-.82-.03-.07-.06-.13-.08-.2-.02-.05-.05-.11-.07-.16-.1-.22-.17-.44-.25-.66t-.01-.02c-.18-.47-.34-.95-.5-1.43-.12-.37-.24-.74-.34-1.13-.07-.24-.14-.48-.2-.72-.06-.22-.12-.43-.17-.65,0-.02-.01-.03-.01-.05-.08-.29-.15-.59-.21-.89-.1-.39-.18-.78-.25-1.18-.08-.39-.15-.78-.21-1.18-.07-.4-.13-.8-.18-1.2-.1-.72-.18-1.44-.23-2.16-.03-.28-.05-.55-.07-.82-.02-.31-.03-.61-.05-.91-.02-.33-.03-.65-.03-.98-.02-.7-.03-1.41-.01-2.12,0-.2.14-.34.34-.34h57.04c.27,0,.41-.14.41-.41v-.06c0-.53-.02-1.07-.05-1.6-.06-1.07-.16-2.12-.31-3.17-.03-.19-.06-.39-.09-.58-.05-.33-.11-.65-.17-.98-.09-.47-.19-.93-.29-1.4-3.3-14.33-15.19-25.87-30.58-26.97-10.59-.75-20.63,2.66-28.14,9.9-2.94,2.87-5.19,5.67-6.76,8.47-2.52,4.44-4.35,9.02-5.5,13.72-.34,1.41-.62,2.83-.84,4.27-.11.72-.21,1.44-.29,2.16-.04.36-.07.72-.1,1.09-.04.36-.06.73-.09,1.09-.07,1.14-.11,2.29-.11,3.45,0,.46.01.92.02,1.38v.16c.02.47.04.95.07,1.42.03.51.06,1.03.1,1.54.08,1.03.2,2.06.35,3.1.07.52.15,1.04.24,1.57.16,1.07.37,2.14.61,3.22,4.37,19.67,21.59,33.05,42.08,30.46,12.63-1.57,23.02-9.08,29.78-20.15.1-.14.15-.29.13-.45-.02-.15-.11-.3-.27-.43ZM542.45,73.57c4.71-2.6,9.63-3.08,14.68-1.23,2.09.75,3.84,1.99,5.28,3.55.29.32.58.65.85.99.19.25.38.5.56.76.18.26.36.53.53.8.22.34.42.69.6,1.04.1.18.2.36.3.54.08.18.17.36.25.54.19.36.35.73.5,1.11.16.38.3.76.44,1.14.41,1.16.75,2.35,1.01,3.54.09.4.17.79.24,1.19.02.09.03.18.04.26,0,.05.02.11.03.16.07.35.12.69.17,1.04v.05s0,.06-.01.09c0,.02-.01.05-.02.07-.01.03-.02.05-.04.06h-.21l-34.56-.06h-.14s-.06,0-.06-.07v-.07c-.11,0-.13,0-.13-.03h0s0-.03,0-.04c1.09-6.15,4.17-12.36,9.7-15.43Z"/>
  <path class="st0" d="M481.31,75.34c-.07,18.1-.07,35.3,0,51.62,0,6.21,2.05,10.72,8.95,11.88,3.14.55,6.28.75,9.36.55.2,0,.41.14.41.34h0v7.85c0,.2-.2.41-.41.41h-50.14c-.2,0-.41-.2-.41-.41h0v-7.85c0-.27.14-.41.41-.41,8.4.55,14.34-3,14.41-12.09.07-17.28.07-34.62,0-51.97,0-.14-.14-.27-.27-.27l-14.21.07c-.2,0-.34-.14-.34-.34l.07-9.83c0-.27.2-.48.48-.48h7.51c3.01-.07,6.01-.68,6.15-4.37.14-2.8.34-5.53.61-8.26,1.91-16.8,12.36-29.7,29.64-31.96,8.67-1.16,18.65-.14,24.52,6.56,4.1,4.71,3.96,13.59-3.21,15.57-13.05,3.69-13.52-16.66-25.61-12.09-5.74,2.19-7.86,8.4-7.92,14-.07,6.56-.07,13.32,0,20.21,0,.2.14.34.34.34h20.83c.2,0,.34.14.34.34v10.04c0,.14-.14.27-.27.27h-20.9c-.27.07-.34.14-.34.27Z"/>
  <path class="st0" d="M375.82,135.57c-.03-.07-.07-.12-.14-.14h-.01c-.1-.06-.25-.05-.43.01-5.06,1.89-10.31,1.8-11.86-3.11-.06-.21-.12-.42-.17-.65-.06-.26-.11-.52-.15-.8-.01-.11-.03-.22-.04-.33-.02-.17-.04-.35-.05-.53-.02-.32-.03-.65-.03-1V20.51c0-.27-.13-.41-.41-.41-2.45-.14-4.85-.07-7.24.61-7.65,2.26-15.09,4.44-22.33,6.56-.34.07-.48.34-.48.68v4.71c0,.28.14.48.34.62l12.3,6.76c.34.14.47.48.47.82v24.44c0,.07-.06.07-.06.14,0,0-.07,0-.07.07l-.07.07h-.34c-3.49-1.03-6.97-1.78-10.59-2.32-3.76-.59-7.4-.77-10.91-.52-.33.02-.66.05-.98.08-.19.01-.39.03-.58.05-.32.04-.63.07-.95.11-.08,0-.17.02-.26.04-.34.04-.68.09-1.02.15-1.42.22-2.81.52-4.18.89-.24.06-.49.13-.74.21-.19.05-.39.1-.58.17-.36.1-.72.22-1.07.34-1.43.47-2.82,1.03-4.2,1.66-.53.25-1.06.51-1.59.78-.93.48-1.84.99-2.74,1.53-2.7,1.65-5.28,3.62-7.77,5.91-12.09,11.06-17.69,28.2-14.75,44.39,1.3,7.1,4.58,14.4,9.36,19.59,6.42,7.01,14.19,10.71,22.38,11.34.38.03.75.06,1.13.07,1.23.05,2.46.03,3.69-.05.39-.03.78-.06,1.17-.1.39-.04.79-.08,1.18-.14.39-.05.78-.11,1.18-.18,4.34-.71,8.71-2.23,12.98-4.52,3.62-1.98,6.97-4.23,9.91-6.83.34-.27.47-.2.47.21l-.06,11.27c0,.27.13.41.41.41,2.52-.07,4.98.13,7.44-.41,7.72-1.71,15.03-3.28,22-4.78.15-.04.27-.1.33-.2.05-.07.08-.16.08-.28l.06-8.4c.02-.22.02-.38-.03-.48ZM298.72,100.07c0-.16,0-.32.01-.47.02-.37.04-.73.07-1.09.04-.5.08-.99.14-1.48.06-.56.14-1.12.24-1.67.07-.44.15-.88.25-1.31.09-.49.2-.97.34-1.44.05-.24.11-.47.18-.7.02-.1.05-.19.09-.29.1-.36.21-.71.33-1.06,1.72-5.27,4.82-10.02,9.3-13.51,8.06-6.28,18.85-6.15,26.77.27,6.83,5.53,9.29,14.48,9.29,23.29v24.17c-.03.38-.09.74-.19,1.07-.01.04-.02.07-.03.11-.15.47-.39.9-.74,1.28-4.71,5.12-10.45,7.92-17.28,8.47-18.44,1.5-27.45-16.19-28.68-31.89-.07-.91-.11-1.83-.11-2.73,0-.34,0-.68.02-1.02Z"/>
  <circle class="st0" cx="413.28" cy="30.95" r="10.79"/>
  <path class="st0" d="M584.59,21.87l-35.11,28.82c-.07,0-.07.07-.14.07l-7.24.14c-.14,0-.27-.14-.27-.2s0-.07.07-.14l18.51-28.95c.07-.07.14-.14.2-.14h23.84c.14,0,.27.07.27.2-.07.07-.07.14-.14.2Z"/>
  <path class="st0" d="M139.99,55.81c-7.38,20.55-17.69,40.02-27.66,59.48-3.96,7.65-7.17,14.89-9.7,21.51-1.37,3.55-2.39,7.17-3.14,10.86-.07.2-.27.41-.48.41l-9.56.07c-.2,0-.34-.14-.34-.27-.61-3.82-1.71-7.85-3.07-11.4-2.66-7.31-6.56-15.98-11.54-26.09-9.49-19.12-19.13-37.49-26.5-57.29-.27-.68-.41-.61-.55.07-2.8,20.01-5.74,40.29-8.74,60.77-.75,4.98-.89,9.36-.48,13.18,1.09,9.01,8.06,11.68,16.12,11.95.27,0,.55.27.55.55l.07,8.19c0,.14-.14.27-.27.27H11.17c-.34,0-.48-.14-.48-.48v-8.13c0-.27.14-.41.41-.41,6.9.2,11.82-2.12,14.41-9.15.89-2.32,1.43-4.58,1.78-6.76,3.21-20.69,6.83-44.45,10.93-71.22.48-3.35.55-6.76.14-10.24-.89-7.24-6.49-10.11-13.18-10.17-.27,0-.48-.2-.48-.48l-.07-8.06c0-.2.14-.34.34-.34h37.29c.27,0,.48.14.48.41.68,11.2,4.23,22.4,8.81,33.26,6.69,15.71,14.69,30.59,21.79,45.62,2.46,5.12,4.58,10.38,6.49,15.64.07.14.2.2.34.14.07,0,.14-.07.14-.14,9.36-18.78,18.65-37.22,27.19-56.2,2.87-6.35,5.12-12.15,6.83-17.41,2.46-7.58,2.94-14.61,1.37-21.1,0-.14.07-.27.2-.34h38.46c.2,0,.34.14.34.34v7.92c0,.34-.27.55-.55.61-5.19.2-11.54,1.91-12.98,7.44-.75,2.87-.89,5.94-.48,9.22,3.14,24.45,6.35,48.96,9.56,73.61.34,2.46.82,4.71,1.57,6.83,2.6,7.51,9.43,9.97,16.94,10.58.27,0,.48.2.48.48v8.06c0,.2-.14.34-.34.34l-56.15.07c-.14,0-.27-.14-.27-.27l-.07-8.19c0-.34.14-.48.48-.48,11.54.2,16.67-6.42,15.37-17.48-2.8-23.42-5.46-45.34-7.79-65.76-.07-.61-.2-.61-.48,0Z"/>
  <path class="st0" d="M404.88,83.87l-12.64-6.28c-.34-.2-.61-.55-.61-.96v-4.51c0-.27.14-.48.41-.61,7.45-2.66,14.96-5.39,22.61-8.19,2.6-.96,4.99-.96,7.72-.89.2,0,.34.14.34.34v64.46c0,6.69,3.42,12.36,10.93,12.15.2,0,.34.14.34.34h0v7.72c0,.34-.14.55-.55.55h-40.85c-.14,0-.27-.14-.27-.27v-7.92c0-.27.14-.41.41-.41,8.47-.07,12.7-4.44,12.7-13.18,0-13.45,0-27.31-.07-41.65-.07-.27-.2-.55-.48-.68Z"/>
  <path class="st0" d="M267.95,128.92h0c-.03-.1-.09-.18-.15-.25l-4.31-3.82c-.27-.27-.75-.27-1.02,0-9.15,8.26-22.54,11.2-33.81,6.21-8.62-3.83-14.01-10.79-16.66-19.11-.37-1.19-.69-2.41-.96-3.65-.23-1.1-.42-2.23-.57-3.37-.1-.76-.18-1.52-.24-2.29-.11-1.41-.16-2.84-.15-4.28v-.07s0-.05.01-.07c0-.15.04-.26.13-.32.01-.01.03-.02.04-.03.08-.04.17-.06.3-.06h56.89c.14,0,.28-.07.35-.14q.06-.07.06-.13s.01-.05.02-.07c.01-.05.03-.09-.02-.14-.47-10.72-4.44-19.53-11.95-26.43-10.18-9.35-25.61-10.58-37.84-4.98-6.22,2.8-11.61,7.58-15.37,13.25-4.77,7.11-7.43,15.12-8.02,23.99-.18,2.69-.17,5.47.04,8.33.03.54.08,1.08.13,1.62,1.91,19.8,16.05,36.32,36.88,36.94,15.51.48,28.28-7.51,36.2-20.42.02-.06.04-.12.04-.18.01-.01.01-.02.01-.03.04-.19.02-.36-.03-.5ZM211.51,89c.05-.32.1-.64.16-.95.69-3.77,2.14-7.12,4.24-9.81.52-.68,1.09-1.31,1.69-1.9,3.44-3.35,8.14-5.24,13.79-4.96,1.21.06,2.34.25,3.4.57.18.05.36.1.53.16.62.21,1.21.46,1.77.74.19.1.37.2.55.3.36.2.7.42,1.04.65.17.11.33.23.5.36.25.19.49.39.74.61.13.11.27.23.39.35.12.11.23.22.35.33.25.24.49.5.72.77.01.02.03.04.05.06.24.27.47.55.69.84.41.54.8,1.11,1.15,1.7.13.2.24.4.35.6.12.21.23.42.34.63.06.11.12.22.17.32.05.1.09.19.13.29.1.21.2.42.29.63.04.08.08.16.11.23.06.13.1.26.15.38.03.07.06.14.09.22.09.19.16.39.24.59.06.17.12.34.18.52,0,0,.01,0,0,.02.08.22.16.44.23.67.07.22.14.45.2.67.02.06.04.12.05.17.03.11.06.22.09.33.08.29.15.58.22.87.25,1.06.44,2.12.58,3.18,0,.07-.07.2-.14.2h-.1l-34.66-.07h-.14s-.07,0-.07-.06l-.04-.04-.03-.03s-.07-.07,0-.14Z"/>
  <path class="st0" d="M589.03,128.61l-4.23-3.76c-.28-.27-.75-.27-1.03,0-9.49,8.6-23.22,11.4-34.83,5.74-4.54-2.21-8.14-5.36-10.85-9.12-.23-.31-.45-.63-.66-.95-.22-.32-.42-.64-.62-.97-.19-.28-.36-.57-.52-.86-.01-.02-.02-.04-.03-.06-.02-.03-.04-.05-.05-.08-.04-.05-.06-.09-.07-.14h-.01c-.17-.29-.32-.58-.47-.87-.18-.35-.36-.7-.52-1.05-.18-.35-.34-.71-.48-1.06-.13-.27-.24-.55-.34-.82-.03-.07-.06-.13-.08-.2-.02-.05-.05-.11-.07-.16-.1-.22-.17-.44-.25-.66t-.01-.02c-.18-.47-.34-.95-.5-1.43-.12-.37-.24-.74-.34-1.13-.07-.24-.14-.48-.2-.72-.06-.22-.12-.43-.17-.65,0-.02-.01-.03-.01-.05-.08-.29-.15-.59-.21-.89-.1-.39-.18-.78-.25-1.18-.08-.39-.15-.78-.21-1.18-.07-.4-.13-.8-.18-1.2-.1-.72-.18-1.44-.23-2.16-.03-.28-.05-.55-.07-.82-.02-.31-.03-.61-.05-.91-.02-.33-.03-.65-.03-.98-.02-.7-.03-1.41-.01-2.12,0-.2.14-.34.34-.34h57.04c.27,0,.41-.14.41-.41v-.06c0-.53-.02-1.07-.05-1.6-.06-1.07-.16-2.12-.31-3.17-.03-.19-.06-.39-.09-.58-.05-.33-.11-.65-.17-.98-.09-.47-.19-.93-.29-1.4-3.3-14.33-15.19-25.87-30.58-26.97-10.59-.75-20.63,2.66-28.14,9.9-2.94,2.87-5.19,5.67-6.76,8.47-2.52,4.44-4.35,9.02-5.5,13.72-.34,1.41-.62,2.83-.84,4.27-.11.72-.21,1.44-.29,2.16-.04.36-.07.72-.1,1.09-.04.36-.06.73-.09,1.09-.07,1.14-.11,2.29-.11,3.45,0,.46.01.92.02,1.38v.16c.02.47.04.95.07,1.42.03.51.06,1.03.1,1.54.08,1.03.2,2.06.35,3.1.07.52.15,1.04.24,1.57.16,1.07.37,2.14.61,3.22,4.37,19.67,21.59,33.05,42.08,30.46,12.63-1.57,23.02-9.08,29.78-20.15.1-.14.15-.29.13-.45-.02-.15-.11-.3-.27-.43ZM542.45,73.57c4.71-2.6,9.63-3.08,14.68-1.23,2.09.75,3.84,1.99,5.28,3.55.29.32.58.65.85.99.19.25.38.5.56.76.18.26.36.53.53.8.22.34.42.69.6,1.04.1.18.2.36.3.54.08.18.17.36.25.54.19.36.35.73.5,1.11.16.38.3.76.44,1.14.41,1.16.75,2.35,1.01,3.54.09.4.17.79.24,1.19.02.09.03.18.04.26,0,.05.02.11.03.16.07.35.12.69.17,1.04v.05s0,.06-.01.09c0,.02-.01.05-.02.07-.01.03-.02.05-.04.06h-.21l-34.56-.06h-.14s-.06,0-.06-.07v-.07c-.11,0-.13,0-.13-.03h0s0-.03,0-.04c1.09-6.15,4.17-12.36,9.7-15.43Z"/>
</svg>