<?xml version="1.0" encoding="UTF-8"?>
<svg id="Capa_1" xmlns="http://www.w3.org/2000/svg" version="1.1" viewBox="0 0 405.71 169.55">
  <!-- Generator: Adobe Illustrator 29.0.1, SVG Export Plug-In . SVG Version: 2.1.0 Build 192)  -->
  <defs>
    <style>
      .st0 {
        fill: #999;
      }
    </style>
  </defs>
  <path class="st0" d="M76.62,12.82c62.36-3.34,99.73,68.4,60.3,117.37-33.69,41.84-101.3,32.88-123.08-16.06C-7.14,67,25.89,15.54,76.62,12.82ZM14.74,96.7v-10.04c0-1.51,3.65-3.73,4.9-4.43,5.22-2.93,11.03-4.28,17.02-3.62,4.76.52,9.21,2.72,14.15,2.54,6.75-.25,11.8-3.83,17.68-6.5v20.78c-2.05,1.74-5.11,2.94-7.65,3.95-1.61.64-3.51,1.46-5.15,1.92-8.93,2.48-16.32-2.16-25.26-1.5-3.26.24-9.39,2.17-12.1,4.02-1.3.88-1.57,1.55-1.25,3.14.37,1.9,2.83,6.69,3.84,8.6,13.79,25.98,42.58,39.59,71.66,34.49,35.34-6.19,59.88-40.47,53.94-76.06-.06-.33-.09-1.32-.52-1.31l-.5,12.36c-.53,1.33-5.65,3.61-7.14,4.17-10.21,3.84-14.17,1.4-23.94.19-7.32-.91-13.06.26-19.31,4.08-1.03.63-1.91,1.76-3.14,1.81v-19.93c4.68-5.03,11.14-7.12,17.96-6.92,8.44.25,14.78,3.24,23.46,1.11,3.97-.97,7.36-2.9,10.91-4.8-7.36-22.01-23.67-37.9-46.27-43.78-28.61-7.45-53.88,1.62-71.79,24.6-10.86,13.94-15.27,32.34-12.01,49.82.07.35.06,1.32.52,1.32Z"/>
  <path class="st0" d="M348.79,67.3v-26.01h5.66v37.74c-1.09.85-3.23.47-4.44-.09-1.91-.88-8.45-9.2-10.41-11.37-3.93-4.36-7.99-8.61-11.89-13-.64-.72-1.15-2.09-2.12-2.26v26.72l-.42.42h-5.23v-38.16c2.33-.55,4.72-.11,6.52,1.54,3.26,3,6.88,8.03,10.03,11.46,4.02,4.4,8.08,8.82,12.31,13Z"/>
  <path class="st0" d="M242.44,41.57c4.11.28,8.22-.32,12.32-.3.81,0,1.48.28,2.24.31,4.99.18,9.36-.52,11.4,5.28,3.03,8.58-3.28,11.35-9.73,14.19-.27.12-.49-.16-.39.44l14.14,17.96h-8.34c-.16,0-.94-.64-1.14-.84l-13.14-16.41v16.96h-7.35v-37.6ZM249.79,43.55v15.12c.85.76,3.16.32,4.31.07,5.42-1.19,9.69-6.94,5.99-12.07-.85-1.17-3.68-3.13-5.07-3.13h-5.23Z"/>
  <path class="st0" d="M398.01,79.45h-7.78c-2.83-4.26-4.14-9.54-6.12-14.24-.21-.34-.52-.66-.88-.81-.87-.37-8.11-.37-9.41-.22-1.48.17-1.5.74-2.05,1.91-1.7,3.65-2.6,8.5-4.39,12.01-.21.41-.67,1.35-1.19,1.35h-5.8l16.59-37.57c.56-1.65,2.71-1.22,4.06-1.02l16.97,38.59ZM382.45,61.36l-3.96-10.18-4.52,10.18h8.49Z"/>
  <path class="st0" d="M237.34,79.45h-7.78c-.21,0-.95-.62-1.05-.93l-5.6-13.91c-.37-.32-.8-.38-1.26-.44-1.13-.13-8.85-.13-9.48.15-.34.15-.72.73-.91,1.07-1.87,3.41-2.89,8.92-4.62,12.63-.21.45-.49,1.42-1.12,1.42h-6.08l17.26-38.3c1.43-.82,3.69-.72,4.39.96l16.25,37.33ZM221.79,61.36c-1.41-3.06-2.31-6.56-3.9-9.53-.14-.26-.28-.62-.62-.65l-3.96,10.18h8.49Z"/>
  <path class="st0" d="M312.87,79.45h-7.78c-.57-.46-.9-.95-1.24-1.59-2.13-3.98-3.15-9.24-5.42-13.24-.36-.33-.79-.39-1.26-.44-1.13-.13-8.86-.13-9.48.15-.34.15-.73.73-.91,1.07-1.91,3.5-2.76,9.01-4.61,12.64-.16.32-.91,1.41-1.13,1.41h-6.08l16.89-37.8c.99-1.38,3.97-1.45,4.67.29l16.35,37.51ZM297.31,61.36c-1.33-2.96-2.24-6.26-3.71-9.15-.19-.37-.35-.91-.81-1.03l-3.96,10.18h8.49Z"/>
  <path class="st0" d="M181.62,62.21v16.96h-7.64v-37.6c4.19.29,8.45-.32,12.6-.3,2.15.01,5.81.09,7.88.33,7.96.92,8.73,12.42,3.13,16.92-2.17,1.75-7.14,3.68-9.89,3.68h-6.08ZM181.62,43.55v15.41c.88.68,2.92.52,4.07.39,9.25-1.02,10.54-15.65.31-16.08-1.49-.06-2.88.46-4.38.28Z"/>
  <path class="st0" d="M353.26,97.91c10.98-.77,19.77,5.62,18.72,17.3-1.65,18.41-33.1,18.44-34.51.58-.85-10.77,5.25-17.14,15.79-17.88ZM353.54,99.89c-11,1.3-13.52,21.36-3.44,26.18,7.74,3.69,14.99-3.26,15.66-10.85.65-7.3-3.82-16.32-12.22-15.32Z"/>
  <path class="st0" d="M307.78,98.82c.25-.4.56-.39.98-.44,3.01-.35,7.15.09,10.2.29,3.68.24,7.3-.18,8.96,4.05,2.48,6.3-2.5,9.62-7.7,11.38l10.76,14.26h-5.8c-.58,0-1.56-.99-1.98-1.41-2.87-2.89-5.25-7.27-8.06-10.31l-1.69-1.56v13h-5.66v-29.26ZM313.72,100.37v11.73c.57.47,2.34.18,3.13.02,5.33-1.08,8.16-7.59,2.91-10.85-1.84-1.14-3.97-.89-6.04-.89Z"/>
  <path class="st0" d="M269.31,98.68h5.37v18.8c0,4.21,2.85,8.86,7.29,9.4,13.32,1.6,8.48-20.55,9.44-28.02l.23-.34c.81-.1,3.95-.49,4.22.34-.3,6.31.54,13.22.04,19.46-.82,9.99-8.28,11.22-16.84,10.62-8.13-.57-9.67-4.97-10.04-12.3-.3-5.96.15-12.01.29-17.96Z"/>
  <path class="st0" d="M258.28,125.68c-.27,1.83-1.4,2.08-3,2.37-10.89,1.97-25.99,1.49-26.71-12.82-.85-16.89,17.04-20.77,29.7-14.84.4.58-2.38,3.37-2.95,3.89-4.35-3.98-8.49-5.62-14.09-2.72-11.19,5.79-7.12,27.04,7.02,25.67.94-.09,4.39-.97,4.39-2.12v-10.6h5.66c-.36,3.44.48,7.84,0,11.17Z"/>
  <path class="st0" d="M192.65,99.81l-3.83,3.67h-.41c-3.11-7.59-11.64-.02-6.93,4.81,3.53,3.63,11.13,2.99,11.99,9.5,1.41,10.55-11.89,14.08-19.2,8.86l2.7-4.2c.5-.09,2.03,2.15,2.65,2.67,5.86,4.9,11.17-4.44,6.23-8.49-4.07-3.34-11.42-2.99-11.33-10.44.09-7.83,8.09-8.89,14.27-8.05,1.51.21,2.46,1.29,3.84,1.67Z"/>
  <path class="st0" d="M387.48,97.91c3.45-.37,7.08-.26,9.67,2.32l-3.82,3.2c-2.11-3.89-6.89-4.49-8.36.18-2.27,7.22,10.44,6.73,12.69,12.51,2.7,6.95-3.87,13.09-10.55,13.09-1.34,0-8.08-1.37-8.07-2.96l2.7-4.1c2.08,2.89,4.55,6.05,8.33,3.51,2.35-1.58,3.12-4.72,1.92-7.26-2.11-4.48-11.54-4.14-12.59-10.32-.95-5.64,2.58-9.58,8.08-10.17Z"/>
  <polygon class="st0" points="220.37 98.96 220.37 101.5 209.06 101.5 209.06 111.4 219.24 111.4 219.24 113.94 209.06 113.94 209.06 125.82 220.66 125.53 220.66 128.36 203.12 128.36 203.12 98.96 220.37 98.96"/>
  <path class="st0" d="M97.61,44.96v21.34c-3.94,3.08-9.66,5.54-14.64,6.28-7.75,1.15-13.85-2.54-21.42-2.18-4.16.2-8.94,1.66-12.69,3.43-1.67.79-3.22,2.17-4.99,2.5v-19.36c0-1.36,2.53-2.83,3.59-3.48,2.56-1.56,5.64-2.92,8.57-3.59,11.9-2.71,20.59,4.68,33.09-.28,3.03-1.2,5.55-3.31,8.49-4.66Z"/>
  <path class="st0" d="M63.67,124.69c-.06-.62-.25-1.2-.3-1.83-.31-4.05-.49-13.38.04-17.23.39-2.86,5.17-5.22,7.62-6.23,11.98-4.94,19.61,1.13,30.93.1,5.64-.52,10.51-3.56,15.17-6.47.08,5.7-.09,11.41,0,17.11.03,1.89.86,3-.84,4.79-2.37,2.49-11.12,5.24-14.57,5.51-7.95.63-14.32-2.95-22.31-1.94-5.68.72-10.91,3.27-15.73,6.18Z"/>
</svg>