<?xml version="1.0" encoding="UTF-8"?>
<svg id="Capa_1" xmlns="http://www.w3.org/2000/svg" version="1.1" viewBox="0 0 931.43 169.55">
  <!-- Generator: Adobe Illustrator 29.0.1, SVG Export Plug-In . SVG Version: 2.1.0 Build 192)  -->
  <defs>
    <style>
      .st0 {
        fill: #999;
      }
    </style>
  </defs>
  <path class="st0" d="M57.3,21.45v20.47h-20.56v62.1h62.03v-20.47h20.56v22.72c0,8.8-10.59,18.23-19.35,18.21-21.24,0-43.08,0-64.46,0-10.01,0-17.96-7.99-19.34-17.87l.03-67.61c1.39-8.07,7.18-14.74,15.22-16.76l4.25-.8h21.61Z"/>
  <path class="st0" d="M99.47,21.45c8.09.66,15.45,5.46,18.39,13.09.42,1.08,1.48,4.15,1.48,5.12v33.13h-20.56v-30.88h-31.01v-20.47c10.28.62,21.55-.83,31.71,0Z"/>
  <rect class="st0" x="301.93" y="21.45" width="14.98" height="92.63"/>
  <path class="st0" d="M694.66,53.72v10.76h-7.67c.79,2.03,2.04,3.54,2.35,5.81,1.81,13.34-8.44,23.44-21.33,24.38-2.88.21-8.43-.69-10.64-.19-2.19.49-8.01,3.86-9.21,5.75-2.03,3.19,1.68,5.1,4.32,5.73,5.03,1.19,11.71.5,16.91.85,10.44.71,23.73,3.72,26.16,15.59,2.64,12.93-6.3,21.04-17.89,24.21-13.11,3.58-45.38,3.29-44.93-16.28.15-6.62,6.02-12.23,11.4-15.36-1.68-.99-3.44-1.12-5.23-2.08-2.79-1.48-5.48-4.06-5.88-7.33-1.02-8.44,6.53-11.5,12.85-14.53-5.47-3.24-9.85-8.77-10.44-15.27-2.08-23.02,26.48-28.05,43.02-20.46l16.22-1.57ZM660.08,61.79c-13.73,1.86-12.87,22.45,1.99,23.17,17.59.85,16.98-25.74-1.99-23.17ZM657.59,116.96c-2.68.27-8.57,6.58-9.12,9.25-3.25,15.66,27.75,16.06,31.74,3.49,2.79-8.8-7.34-11.38-13.95-12.14-1.85-.21-7.11-.75-8.66-.6Z"/>
  <path class="st0" d="M230.5,109.4c-17.26,6.95-39.43,10.28-54.71-2.77-19.88-16.98-20.29-51.93-.35-69.05,13.23-11.36,30.69-12.19,47.11-8.39,1.09.25,4.47.94,5.17,1.46.45.33.29.45.21.87-.59,3.21-3.2,7.3-3.73,10.71-9.14-1.29-17.59-2.95-26.64.02-29.74,9.79-25.64,57.99,5.92,59.7,3.66.2,8.71-.15,12.04-1.58v-18.56l-16.73-1.04v-13.18h31.71v41.81Z"/>
  <path class="st0" d="M516.24,99.17c3.87,1.01,7.67,2.31,11.68,2.77,6.63.77,18.49.33,21.84-6.7,5.69-11.95-11.2-16.99-18.77-21.34-7.57-4.35-15.64-10.59-16.49-20.01-2.32-25.97,23.94-29.56,43.63-24.7.99.25,5.98,1.57,6.17,2.2l-3.79,10.74c-.6.41-5.03-.94-6.22-1.13-7.01-1.13-20.24-1.97-23.48,6.24-4.37,11.07,13.12,16.66,20.17,20.65,12.05,6.83,19.34,16.51,14.56,30.92-5.64,17.02-26.95,18.51-41.91,15.39-1.4-.29-10.29-2.6-10.72-3.22-.74-1.07,3.33-9.85,3.34-11.81Z"/>
  <path class="st0" d="M834.33,52.09c23.44-1.64,36.25,17.69,32.32,39.47-5.63,31.22-51.94,32.51-59.33,2.14-4.92-20.24,4.82-40.05,27.01-41.6ZM834.31,63.52c-18.95,2.58-15.75,46.92,6.86,40.14,15.51-4.65,13.96-42.97-6.86-40.14Z"/>
  <path class="st0" d="M718.01,53.72v38.34c0,.79.77,3.93,1.12,4.78,3.85,9.55,18.07,3.43,23.97-.97v-42.15h14.98v60.37h-14.29l-.35-7.98c-.3-.33-6.7,4.31-7.56,4.79-17.2,9.68-31.77,4.04-32.86-16.42-.71-13.37.53-27.33,0-40.76h14.98Z"/>
  <path class="st0" d="M486.97,114.09h-13.59l-.87-7.28c-2.24,1.69-4.06,3.86-6.48,5.35-14.99,9.2-30.56-1.12-28.89-18.36,1.45-14.95,23.79-17.63,35.54-17.17.08-2.41-.14-4.97-.89-7.27-3.49-10.68-19.03-4.83-26.45-2.11l-3.66-8.85c11.75-5.65,31.06-11.28,40.75.71,3.3,4.08,4.08,8.77,4.55,13.86v41.13ZM472.68,97.61v-11.45c-.31-.48-.7-.51-1.22-.55-.87-.08-4.45.3-5.53.42-6.88.8-18.18,4.12-14.52,13.33,3.5,8.81,16.68,3.45,21.27-1.75Z"/>
  <path class="st0" d="M289.04,114.09h-13.07c-.34-.22-.46-.48-.52-.87-.32-1.84-.21-4.5-.35-6.42-.6-.16-.7.25-1.05.52-2.61,2-4.5,4.32-7.67,5.89-14.15,7.01-28.43-2.9-27.17-18.38,1.32-16.12,22.91-18.48,35.54-18.22,1.54-18.64-16.32-13.7-27.53-9.37l-3.12-9c12.01-5.8,32.64-11.35,41.53,2.15,1.41,2.14,3.4,7.3,3.4,9.8v43.89ZM274.75,85.64c-6.36.19-20.84,1.18-21.62,9.52-.33,3.51.76,6.23,3.96,7.89,5.9,3.05,13.44-1.24,17.66-5.44v-11.97Z"/>
  <path class="st0" d="M589.07,84.94c-.18,3.23.5,6.53,1.79,9.49,5.42,12.47,19.7,11.32,30.1,6.16l4.32,7.73c-10.1,6.54-25.32,9.87-36.63,4.62-14.61-6.78-18.61-25.82-13.52-39.98,9.51-26.46,44.99-29.82,51.47.81.38,1.8,1.67,9.17.83,10.32-.11.16-1.16.84-1.25.84h-37.11ZM589.77,75.57l22.84.37,1.16-.56c-1.48-17.52-21.22-15.17-24,.2Z"/>
  <path class="st0" d="M401.23,100.56l3.85,7.97c-6.03,3.09-12.87,6.32-19.73,6.9-33.56,2.82-39.06-42.85-14.74-58.73,10.03-6.55,21.84-5.38,32.58-1.26l-3.68,9.94c-7.4-2.03-15.29-1.97-21.27,3.43-8.59,7.76-9.66,25.54.94,32.03,6.45,3.94,15.29,2.03,22.04-.27Z"/>
  <path class="st0" d="M871.68,111.31l3.82-9.21c5.79,2.52,19.49,5.07,23.31-1.42,4.63-7.86-8.87-11.61-13.66-14.05-8.14-4.14-13.05-9.12-12.07-18.86.68-6.74,7.19-12.18,13.31-14.15,7.24-2.33,14.18-1.75,21.47-.01,1.07.26,5.01,1.17,5.64,1.67.35.28.41.54.29.95l-3.25,8.58c-5.82-2.92-18.52-4.55-22.14,2.26-2.81,5.3,2.82,8.28,6.67,10.38,10.5,5.71,24.82,10.51,18.69,26.33-5.73,14.8-30.25,13.34-42.08,7.54Z"/>
  <path class="st0" d="M782.82,53.72c.19,2.91.2,6.33.71,9.18.07.41.19.82.67.88,2.95-5.55,10.13-11.31,16.56-11.79,2.14-.16,3.99.44,6.09.34l-3.49,14.22c-7.47-1.43-15.02,3.23-19.51,8.85v38.68h-14.98v-60.37h13.94Z"/>
  <rect class="st0" x="330.86" y="53.72" width="14.98" height="60.37"/>
  <rect class="st0" x="412.75" y="53.72" width="14.98" height="60.37"/>
  <path class="st0" d="M337.04,23.28c12.09-1.49,13.06,16.78,1.64,17.26-10.92.46-11.92-15.99-1.64-17.26Z"/>
  <path class="st0" d="M418.59,23.28c12.25-1.73,13.3,16.61,1.99,17.26-10.85.63-11.93-15.86-1.99-17.26Z"/>
</svg>