<?xml version="1.0" encoding="UTF-8"?>
<svg id="Capa_1" xmlns="http://www.w3.org/2000/svg" version="1.1" viewBox="0 0 600 169.55">
  <!-- Generator: Adobe Illustrator 29.0.1, SVG Export Plug-In . SVG Version: 2.1.0 Build 192)  -->
  <defs>
    <style>
      .st0 {
        fill: #999;
      }
    </style>
  </defs>
  <g id="g8">
    <path id="path6" class="st0" d="M95.66,80.93c-.23-3.5-1.17-7-3.03-10.03l-15.86-27.76c-1.17-2.1-2.1-4.43-2.57-6.76l-.7,1.17c-3.97,6.76-3.97,15.4,0,22.16l12.83,22.16c3.97,6.76,3.97,15.4,0,22.16l-.7,1.17c-.47-2.33-1.4-4.67-2.57-6.76l-11.66-20.29-7.46-13.06c-1.17-2.1-2.1-4.43-2.57-6.76l-.7,1.17c-3.97,6.76-3.97,15.16,0,22.16h0l12.83,22.16c3.97,6.76,3.97,15.4,0,22.16l-.7,1.17c-.47-2.33-1.4-4.67-2.57-6.76l-16.09-27.76c-2.1-3.73-3.03-7.93-3.03-12.13-17.03,4.43-28.92,14-28.92,24.96,0,15.4,22.86,27.76,51.08,27.76s51.08-12.36,51.08-27.76c.23-10.5-11.43-20.06-28.69-24.49ZM143.95,128.28c.23-3.97.7-6.53,1.87-9.8,5.36,2.57,12.36,3.73,17.49,3.73,8.86,0,14-2.8,14-8.63s-3.73-8.16-12.6-12.13l-4.9-1.87c-9.1-3.97-15.16-9.1-15.16-19.13,0-10.96,7.7-17.96,23.09-17.96,6.3,0,12.13.93,17.49,2.8-.23,3.73-.93,6.76-1.87,9.56-5.13-1.87-11.43-2.8-15.86-2.8-8.4,0-12.13,3.27-12.13,8.4s3.73,7.93,10.5,10.73l5.13,2.1c12.13,5.13,17.26,10.73,17.26,20.06,0,10.96-8.4,18.66-24.73,18.66-7.7,0-14.23-1.17-19.59-3.73ZM239.82,82.33v48.05h-9.8l-.47-5.83c-2.8,4.2-6.76,7-13.53,7-12.6,0-21.23-9.33-21.23-25.43s9.1-26.59,26.82-26.59c7,.23,12.83.93,18.19,2.8ZM229.32,119.42v-30.09c-2.1-.47-4.67-.47-7.7-.47-10.96,0-16.09,6.76-16.09,17.49,0,9.8,3.97,16.79,13.3,16.79,4.43-.23,7.7-1.63,10.5-3.73ZM293.94,98.19v32.19h-10.5v-30.32c0-7.7-2.57-11.2-13.06-11.2-2.57,0-5.36.23-8.4.7v40.82h-10.5v-48.05c6.76-1.63,14.23-2.8,19.13-2.8,17.73.23,23.33,7,23.33,18.66ZM323.33,122.68c3.03,0,6.06-.47,8.16-1.4-.23,2.8-.7,6.06-1.17,8.86-2.8,1.17-6.06,1.63-8.86,1.63-10.26,0-16.79-4.67-16.79-16.33v-50.62c3.27-1.17,7.23-1.63,10.5-1.63v18.19h16.79c-.23,3.27-.47,6.3-.93,9.1h-15.86v23.56c0,6.06,3.03,8.63,8.16,8.63ZM380.01,82.33v48.05h-9.8l-.47-5.83c-2.8,4.2-6.76,7-13.53,7-12.6,0-21.23-9.33-21.23-25.43s9.1-26.59,26.82-26.59c7,.23,12.6.93,18.19,2.8h0ZM369.28,119.42v-30.09c-2.1-.47-4.67-.47-7.7-.47-10.96,0-16.09,6.76-16.09,17.49,0,9.8,3.97,16.79,13.3,16.79,4.43-.23,7.93-1.63,10.5-3.73ZM434.12,98.19v32.19h-10.73v-30.32c0-7.7-2.57-11.2-13.06-11.2-2.57,0-5.36.23-8.4.7v40.82h-10.5v-48.05c6.76-1.63,14.23-2.8,19.13-2.8,17.73.23,23.56,7,23.56,18.66h0ZM487.54,63.2v67.18h-9.8l-.47-6.06c-2.8,4.43-6.76,7.23-13.76,7.23-12.6,0-21.23-9.33-21.23-25.43s9.1-26.59,26.82-26.59c2.8,0,5.36.23,7.93.7v-15.86c3.27-.93,7-1.17,10.5-1.17ZM477.04,119.42v-29.62c-2.8-.47-5.6-.93-8.4-.93-10.5,0-15.4,6.53-15.4,17.49,0,9.8,3.97,16.79,13.3,16.79,4.2-.23,7.7-1.63,10.5-3.73h0ZM540.72,109.85h-33.82c1.4,8.63,6.3,12.6,15.86,12.6,5.83,0,11.66-1.17,16.79-3.73-.47,2.8-.93,6.53-1.63,9.56-4.9,2.1-9.8,3.03-15.63,3.03-17.73,0-26.13-9.8-26.13-26.13,0-14.23,6.53-25.66,23.33-25.66,15.16,0,21.69,9.8,21.69,21.93,0,3.27,0,5.6-.47,8.4h0ZM506.9,100.99h23.79c0-7.93-4.2-12.6-11.43-12.6-7.7.23-11.66,4.43-12.36,12.6ZM577.81,80.23c0,3.27-.47,7-.93,9.1-2.57-.23-4.9-.47-7.93-.47-2.57,0-5.13.23-7.7.47v41.05h-10.5v-48.05c4.43-1.63,12.13-2.8,17.96-2.8,3.03.23,6.76.23,9.1.7Z"/>
  </g>
</svg>