<?xml version="1.0" encoding="UTF-8"?>
<svg id="Capa_1" xmlns="http://www.w3.org/2000/svg" version="1.1" viewBox="0 0 460 169.55">
  <!-- Generator: Adobe Illustrator 29.0.1, SVG Export Plug-In . SVG Version: 2.1.0 Build 192)  -->
  <defs>
    <style>
      .st0 {
        fill: #999;
      }
    </style>
  </defs>
  <path class="st0" d="M326.45,4.57c7.45,19.28,15.97,58.36-4.01,101.28-.23.56.48,1.05,1.24.56,23.93-15.67,44.8-45.73,51.67-70.28-23.82-12.2-38.16-24.8-46.83-32.88-1.15-1.11-2.57.1-2.07,1.33"/>
  <path class="st0" d="M43.16,139.33c-6.82-2.34-8.81-3.46-8.81-6.37,0-2.65,2.88-4.64,6.68-4.64,3.58,0,7.35,1.05,11.48,3.2.07.05.16.07.23.07.09,0,.18-.02.25-.07.14-.07.24-.21.28-.38l1.11-7.09c.03-.22-.09-.45-.3-.54-3.76-1.69-8.3-2.61-12.79-2.61-8.85,0-15.04,5.35-15.04,13,0,7.03,4.72,9.97,14.02,13.23,6.17,2.11,8.21,3.35,8.21,6.62s-3.1,5.4-7.95,5.4c-4.01,0-9.47-1.49-13.87-3.79-.08-.05-.16-.07-.24-.07s-.16.02-.23.06c-.16.08-.26.22-.28.38l-1.12,6.93c-.03.22.09.45.31.55,5.01,2.11,10.38,3.29,15.08,3.29,9.83,0,16.42-5.5,16.42-13.68,0-7.4-4.72-10.45-13.43-13.48"/>
  <path class="st0" d="M101.02,121.5h-7.78c-.28,0-.51.23-.51.51v26.35c0,7.05-3.31,10.79-9.58,10.79s-9.49-3.89-9.49-10.97v-26.17c0-.28-.23-.51-.52-.51h-7.7c-.27,0-.5.23-.5.51v26.52c0,11.42,6.78,18.23,18.13,18.23s18.49-6.95,18.49-18.58v-26.17c0-.28-.23-.51-.52-.51"/>
  <path class="st0" d="M127.02,141.87h-4.96v-12.85h5.14c3.75,0,8.21,1.13,8.21,6.42,0,4.32-2.73,6.43-8.39,6.43M127.97,121.5h-14.13c-.28,0-.49.23-.49.51v43.38c0,.28.21.52.49.52h7.71c.28,0,.51-.24.51-.52v-16.1h4.96c10.77,0,16.93-5.1,16.93-14.02s-6.12-13.77-15.98-13.77"/>
  <path class="st0" d="M180.57,158.13h-19.33v-11.4h15.99c.15,0,.3-.07.39-.17.11-.12.14-.28.11-.42l-1.1-6.76c-.05-.24-.25-.43-.52-.43h-14.87v-9.67h18.73c.27,0,.51-.22.51-.52v-6.75c0-.28-.24-.51-.51-.51h-26.96c-.27,0-.51.23-.51.51v43.38c0,.28.24.52.51.52h27.55c.28,0,.5-.24.5-.52v-6.76c0-.28-.23-.5-.5-.5"/>
  <path class="st0" d="M212.57,135.44c0,4.3-2.93,6.67-8.22,6.67h-5.14v-12.91h5.14c3.75,0,8.22,1.09,8.22,6.24M212.53,147.92c5.66-2.18,8.76-6.62,8.76-12.56,0-8.7-6.3-13.87-16.85-13.87h-13.44c-.27,0-.49.23-.49.51v43.38c0,.28.22.52.49.52h7.72c.28,0,.5-.24.5-.52v-16.25h3.94l11.97,17.07c.1.14.26.2.42.2,0,0,.06,0,.09-.01l7.97-1.8c.16-.03.29-.16.36-.31.06-.17.04-.35-.07-.49l-11.38-15.88Z"/>
  <path class="st0" d="M267.93,121.54h-7.76c-.23,0-.42.13-.48.34l-12.18,32.49-11.96-32.51c-.07-.21-.27-.36-.48-.36h-8.46c-.16.03-.27.13-.34.26-.07.13-.09.29-.04.42l16.92,43.35c.09.2.25.31.47.31h7.14c.21,0,.4-.12.46-.31l17.2-43.3c.07-.17.05-.35-.05-.49-.09-.14-.27-.21-.43-.21"/>
  <path class="st0" d="M284.75,121.5h-7.78c-.28,0-.53.23-.53.51v43.38c0,.28.25.52.53.52h7.78c.29,0,.52-.24.52-.52v-43.38c0-.28-.23-.51-.52-.51"/>
  <path class="st0" d="M327.45,158.13h-19.33v-11.4h16c.16,0,.29-.07.39-.17.09-.12.14-.28.11-.42l-1.11-6.76c-.03-.24-.26-.43-.49-.43h-14.89v-9.67h18.72c.3,0,.52-.22.52-.52v-6.75c0-.28-.23-.51-.52-.51h-26.94c-.27,0-.5.23-.5.51v43.38c0,.28.23.52.5.52h27.55c.28,0,.51-.24.51-.52v-6.76c0-.28-.24-.5-.51-.5"/>
  <path class="st0" d="M397.91,158.2h-15.94v-36.19c0-.28-.23-.51-.49-.51h-7.71c-.28,0-.5.23-.5.51v43.38c0,.28.22.52.5.52h25.25c.13,0,.29-.06.38-.19.1-.12.14-.26.12-.41l-1.12-6.68c-.03-.24-.25-.43-.49-.43"/>
  <path class="st0" d="M434.72,158.13h-19.36v-11.4h16.02c.14,0,.29-.07.38-.17.1-.12.14-.28.12-.42l-1.13-6.76c-.03-.24-.23-.43-.5-.43h-14.89v-9.67h18.75c.27,0,.51-.22.51-.52v-6.75c0-.28-.24-.51-.51-.51h-26.95c-.29,0-.51.23-.51.51v43.38c0,.28.22.52.51.52h27.55c.27,0,.5-.24.5-.52v-6.76c0-.28-.23-.5-.5-.5"/>
  <path class="st0" d="M434.26,55.18c-19.83-3.12-39.14-9.62-51.71-15.59-7.28,19.08-21.34,39.54-36.05,53.6-.8.69-.16,1.88,1.15.95,31.42-21.74,64.17-32.17,86.65-36.53,1.23-.28,1.25-2.09-.03-2.44"/>
  <path class="st0" d="M364.06,158.2h-15.91v-36.19c0-.28-.22-.51-.51-.51h-7.7c-.28,0-.5.23-.5.51v43.38c0,.28.23.52.5.52h25.25c.14,0,.3-.06.39-.19.1-.12.13-.26.12-.41l-1.12-6.68c-.04-.24-.25-.43-.5-.43"/>
</svg>