<svg width="231" height="138" viewBox="0 0 231 138" fill="none" xmlns="http://www.w3.org/2000/svg">
<path d="M65.484 50.0512C65.484 52.8816 65.79 55.1764 66.3255 56.8593C66.9374 58.5422 67.7024 60.3781 68.7733 62.367C69.1558 62.979 69.3088 63.5909 69.3088 64.1264C69.3088 64.8914 68.8498 65.6563 67.8554 66.4213L63.0362 69.6341C62.3477 70.0931 61.6593 70.3225 61.0473 70.3225C60.2823 70.3225 59.5174 69.9401 58.7524 69.2516C57.6815 68.1042 56.7635 66.8802 55.9986 65.6563C55.2336 64.3559 54.4687 62.9025 53.6272 61.1431C47.6606 68.1807 40.164 71.6995 31.1375 71.6995C24.7119 71.6995 19.5867 69.8636 15.8384 66.1918C12.0901 62.52 10.1777 57.6243 10.1777 51.5046C10.1777 45.0025 12.4726 39.7243 17.1388 35.7465C21.8051 31.7688 28.0012 29.7799 35.8802 29.7799C38.4811 29.7799 41.1584 30.0094 43.9888 30.3919C46.8191 30.7743 49.7259 31.3863 52.7858 32.0748V26.4906C52.7858 20.6769 51.5618 16.6227 49.1905 14.2513C46.7426 11.8799 42.6119 10.7325 36.7217 10.7325C34.0443 10.7325 31.2905 11.0385 28.4602 11.7269C25.6298 12.4154 22.876 13.2568 20.1987 14.3278C18.9747 14.8633 18.0568 15.1692 17.5213 15.3222C16.9858 15.4752 16.6034 15.5517 16.2974 15.5517C15.2264 15.5517 14.691 14.7868 14.691 13.1804V9.43207C14.691 8.20814 14.844 7.29019 15.2264 6.75472C15.6089 6.21925 16.2974 5.68379 17.3683 5.14832C20.0457 3.7714 23.2585 2.62396 27.0068 1.70602C30.755 0.711574 34.7328 0.2526 38.9401 0.2526C48.043 0.2526 54.6982 2.31798 58.9819 6.44874C63.1892 10.5795 65.331 16.8521 65.331 25.2667V50.0512H65.484ZM34.4268 61.6785C36.9512 61.6785 39.552 61.2196 42.3059 60.3016C45.0597 59.3837 47.5076 57.7008 49.573 55.4059C50.7969 53.9525 51.7148 52.3461 52.1738 50.5102C52.6328 48.6743 52.9388 46.4559 52.9388 43.8551V40.6423C50.7204 40.1068 48.349 39.6478 45.9012 39.3418C43.4533 39.0359 41.0819 38.8829 38.7106 38.8829C33.5854 38.8829 29.8371 39.8773 27.3127 41.9427C24.7884 44.0081 23.5645 46.9149 23.5645 50.7397C23.5645 54.335 24.4824 57.0123 26.3948 58.8482C28.2307 60.7606 30.908 61.6785 34.4268 61.6785ZM95.8528 69.9401C94.4759 69.9401 93.5579 69.7106 92.9459 69.1751C92.334 68.7161 91.7985 67.6452 91.3395 66.1918L73.3631 7.06071C72.9041 5.53079 72.6746 4.53635 72.6746 4.00088C72.6746 2.77695 73.2866 2.08849 74.5105 2.08849H82.0071C83.4605 2.08849 84.4549 2.31798 84.9904 2.85345C85.6024 3.31242 86.0613 4.38336 86.5203 5.83678L99.3716 56.4768L111.305 5.83678C111.687 4.30687 112.146 3.31242 112.758 2.85345C113.37 2.39448 114.441 2.08849 115.818 2.08849H121.938C123.391 2.08849 124.386 2.31798 124.998 2.85345C125.61 3.31242 126.145 4.38336 126.451 5.83678L138.537 57.0888L151.771 5.83678C152.23 4.30687 152.765 3.31242 153.301 2.85345C153.913 2.39448 154.907 2.08849 156.284 2.08849H163.398C164.622 2.08849 165.311 2.70046 165.311 4.00088C165.311 4.38336 165.234 4.76584 165.158 5.22481C165.081 5.68379 164.928 6.29575 164.622 7.1372L146.187 66.2683C145.728 67.7982 145.192 68.7926 144.58 69.2516C143.968 69.7106 142.974 70.0166 141.674 70.0166H135.095C133.642 70.0166 132.647 69.7871 132.035 69.2516C131.423 68.7161 130.888 67.7217 130.582 66.1918L118.725 16.8521L106.945 66.1153C106.562 67.6452 106.103 68.6396 105.491 69.1751C104.879 69.7106 103.808 69.9401 102.431 69.9401H95.8528ZM194.15 72.0054C190.172 72.0054 186.194 71.5465 182.369 70.6285C178.544 69.7106 175.561 68.7161 173.572 67.5687C172.348 66.8802 171.507 66.1153 171.201 65.4268C170.895 64.7384 170.742 63.9734 170.742 63.285V59.3837C170.742 57.7773 171.354 57.0123 172.501 57.0123C172.96 57.0123 173.419 57.0888 173.878 57.2418C174.337 57.3948 175.026 57.7008 175.791 58.0068C178.391 59.1542 181.222 60.0721 184.205 60.6841C187.265 61.2961 190.248 61.602 193.308 61.602C198.127 61.602 201.876 60.7606 204.476 59.0777C207.077 57.3948 208.454 54.9469 208.454 51.8106C208.454 49.6687 207.766 47.9093 206.389 46.4559C205.012 45.0025 202.411 43.7021 198.663 42.4782L187.571 39.0359C181.987 37.2765 177.856 34.6756 175.332 31.2333C172.807 27.8675 171.507 24.1192 171.507 20.1414C171.507 16.9286 172.195 14.0983 173.572 11.6504C174.949 9.20258 176.785 7.06071 179.08 5.3778C181.375 3.61841 183.976 2.31798 187.035 1.40003C190.095 0.482087 193.308 0.0996094 196.674 0.0996094C198.357 0.0996094 200.116 0.176105 201.799 0.405592C203.559 0.635078 205.165 0.941061 206.771 1.24704C208.301 1.62952 209.755 2.012 211.132 2.47097C212.508 2.92995 213.579 3.38892 214.344 3.84789C215.415 4.45986 216.18 5.07182 216.639 5.76028C217.098 6.37225 217.328 7.2137 217.328 8.28464V11.8799C217.328 13.4863 216.716 14.3278 215.568 14.3278C214.956 14.3278 213.962 14.0218 212.661 13.4098C208.301 11.421 203.406 10.4265 197.974 10.4265C193.614 10.4265 190.172 11.115 187.8 12.5684C185.429 14.0218 184.205 16.2402 184.205 19.3765C184.205 21.5184 184.97 23.3543 186.5 24.8077C188.03 26.2611 190.86 27.7145 194.915 29.0149L205.777 32.4572C211.285 34.2166 215.262 36.6645 217.634 39.8008C220.005 42.9371 221.153 46.5324 221.153 50.5102C221.153 53.7995 220.464 56.7828 219.164 59.3837C217.787 61.9845 215.951 64.2794 213.579 66.1153C211.208 68.0277 208.378 69.4046 205.088 70.399C201.646 71.47 198.051 72.0054 194.15 72.0054Z" fill="#252F3E"/>
<path fill-rule="evenodd" clip-rule="evenodd" d="M208.607 109.183C183.44 127.772 146.876 137.64 115.436 137.64C71.3744 137.64 31.6732 121.346 1.6869 94.2669C-0.68446 92.125 1.45742 89.2181 4.28775 90.9011C36.7219 109.719 76.7291 121.117 118.113 121.117C146.034 121.117 176.709 115.303 204.936 103.37C209.143 101.457 212.738 106.124 208.607 109.183Z" fill="#FF9900"/>
<path fill-rule="evenodd" clip-rule="evenodd" d="M219.087 97.2495C215.874 93.1187 197.821 95.2606 189.636 96.255C187.188 96.561 186.806 94.4191 189.024 92.8127C203.405 82.7153 227.043 85.6221 229.796 88.988C232.55 92.4303 229.031 116.067 215.568 127.389C213.503 129.148 211.514 128.23 212.432 125.935C215.492 118.362 222.3 101.304 219.087 97.2495Z" fill="#FF9900"/>
</svg>
