<svg width="60" height="60" viewBox="0 0 60 60" fill="none" xmlns="http://www.w3.org/2000/svg">
<g clip-path="url(#clip0_40000797_1765)">
<path d="M29.209 49.5381C29.209 43.8708 31.1808 39.0653 35.1217 35.1217C39.0653 31.1781 43.8708 29.209 49.5381 29.209C43.8708 29.209 39.0653 27.2372 35.1217 23.2962C31.1781 19.3526 29.209 14.5472 29.209 8.87988C29.209 14.5472 27.2372 19.3526 23.2962 23.2962C19.3526 27.2399 14.5472 29.209 8.87988 29.209C14.5472 29.209 19.3526 31.1808 23.2962 35.1217C27.2399 39.0653 29.209 43.8708 29.209 49.5381ZM42.1553 51.1199C42.1553 48.6217 43.0253 46.5026 44.7626 44.7653C46.4999 43.0281 48.619 42.1581 51.1172 42.1581C48.619 42.1581 46.4999 41.2881 44.7626 39.5508C43.0253 37.8135 42.1553 35.6944 42.1553 33.1962C42.1553 35.6944 41.2853 37.8135 39.5481 39.5508C37.8108 41.2881 35.6917 42.1581 33.1935 42.1581C35.6917 42.1581 37.8108 43.0281 39.5481 44.7653C41.2853 46.5026 42.1553 48.6217 42.1553 51.1199Z" fill="url(#paint0_linear_40000797_1765)"/>
</g>
<defs>
<linearGradient id="paint0_linear_40000797_1765" x1="8.87988" y1="29.9999" x2="51.1199" y2="29.9999" gradientUnits="userSpaceOnUse">
<stop stop-color="#4AA734"/>
<stop offset="1" stop-color="#58DAFF"/>
</linearGradient>
<clipPath id="clip0_40000797_1765">
<rect width="60" height="60" fill="white"/>
</clipPath>
</defs>
</svg>
