<svg width="60" height="60" viewBox="0 0 60 60" fill="none" xmlns="http://www.w3.org/2000/svg">
<g clip-path="url(#clip0_40001025_544)">
<path d="M39.6786 25.6309C39.0077 25.6309 38.3859 25.74 37.8186 25.9555C37.2514 26.1709 36.7577 26.4764 36.3377 26.8746C35.9177 27.27 35.5905 27.7336 35.3586 28.26C35.1268 28.7891 35.0095 29.3673 35.0095 30C35.0095 30.6327 35.1241 31.2109 35.3586 31.74C35.5905 32.2691 35.9177 32.73 36.3377 33.1255C36.7577 33.5209 37.2514 33.8264 37.8186 34.0446C38.3859 34.26 39.0077 34.3691 39.6786 34.3691C40.3496 34.3691 40.9796 34.26 41.5441 34.0446C42.1086 33.8291 42.5968 33.5236 43.0141 33.1336C43.4314 32.7409 43.7559 32.28 43.9932 31.7482C44.2305 31.2164 44.3477 30.6355 44.3477 30.0027C44.3477 29.37 44.2305 28.7918 43.9932 28.2627C43.7559 27.7336 43.4314 27.2727 43.0141 26.8773C42.5968 26.4818 42.1086 26.1764 41.5441 25.9582C40.9796 25.74 40.3577 25.6336 39.6786 25.6336V25.6309ZM39.6786 32.4C39.3596 32.4 39.0596 32.3455 38.7841 32.2309C38.5086 32.1191 38.2686 31.9582 38.0641 31.7455C37.8596 31.5327 37.6986 31.2791 37.5841 30.9846C37.4695 30.69 37.4095 30.36 37.4095 30C37.4095 29.64 37.4668 29.3018 37.5841 29.01C37.6986 28.7182 37.8596 28.4673 38.0641 28.2546C38.2686 28.0418 38.5086 27.8809 38.7841 27.7691C39.0596 27.6573 39.3568 27.6 39.6786 27.6C40.0005 27.6 40.2977 27.6573 40.5732 27.7691C40.8486 27.8809 41.0886 28.0418 41.2932 28.2546C41.4977 28.4673 41.6559 28.7182 41.7732 29.01C41.8877 29.3018 41.9477 29.6318 41.9477 30C41.9477 30.3682 41.8905 30.6873 41.7732 30.9846C41.6559 31.2818 41.4977 31.5355 41.2932 31.7455C41.0886 31.9582 40.8486 32.1191 40.5732 32.2309C40.2977 32.3427 40.0005 32.4 39.6786 32.4ZM33.9077 25.8H31.9523L29.0777 30.6546L26.1214 25.8H24.1632V34.2H26.3614V29.8718L28.5077 33.3736H29.5632L31.7259 29.7464L31.7477 34.2H33.9323L33.9077 25.8ZM19.4914 25.8H15.6514V34.2H18.0268V32.0046H19.4914C20.2577 32.0046 20.9205 31.8791 21.4768 31.6282C22.0332 31.3746 22.4614 31.0173 22.7668 30.5536C23.0696 30.09 23.2223 29.5418 23.2223 28.9091C23.2223 28.2764 23.0696 27.7146 22.7668 27.2482C22.4614 26.7791 22.0332 26.4218 21.4768 26.1736C20.9205 25.9255 20.2577 25.8 19.4914 25.8ZM18.0268 30.1336V27.6736H19.3468C19.8432 27.6736 20.2114 27.78 20.4568 27.9982C20.6995 28.2136 20.8223 28.5164 20.8223 28.9091C20.8223 29.3018 20.6995 29.5936 20.4568 29.8091C20.2114 30.0246 19.8432 30.1336 19.3468 30.1336H18.0268Z" fill="url(#paint0_linear_40001025_544)"/>
<path d="M29.9995 10.83C40.5705 10.83 49.1695 19.4291 49.1695 30C49.1695 40.5709 40.5705 49.17 29.9995 49.17C19.4286 49.17 10.8295 40.5709 10.8295 30C10.8295 19.4291 19.4286 10.83 29.9995 10.83ZM29.9995 5.37543C16.4014 5.37543 5.375 16.3991 5.375 30C5.375 43.6009 16.3986 54.6245 29.9995 54.6245C43.6005 54.6245 54.6241 43.6009 54.6241 30C54.6241 16.3991 43.5977 5.37543 29.9995 5.37543Z" fill="url(#paint1_linear_40001025_544)"/>
</g>
<defs>
<linearGradient id="paint0_linear_40001025_544" x1="15.6514" y1="30" x2="44.3477" y2="30" gradientUnits="userSpaceOnUse">
<stop stop-color="#4AA734"/>
<stop offset="1" stop-color="#58DAFF"/>
</linearGradient>
<linearGradient id="paint1_linear_40001025_544" x1="5.375" y1="30" x2="54.6241" y2="30" gradientUnits="userSpaceOnUse">
<stop stop-color="#4AA734"/>
<stop offset="1" stop-color="#58DAFF"/>
</linearGradient>
<clipPath id="clip0_40001025_544">
<rect width="60" height="60" fill="white"/>
</clipPath>
</defs>
</svg>
