<svg width="60" height="60" viewBox="0 0 60 60" fill="none" xmlns="http://www.w3.org/2000/svg">
<path d="M48.7749 12.51C47.5749 11.31 46.1185 10.71 44.4031 10.71C42.6876 10.71 41.2312 11.31 40.0312 12.51C38.8312 13.71 38.2312 15.1664 38.2312 16.8818C38.2312 18.5973 38.8312 20.0536 40.0312 21.2536C41.2312 22.4536 42.6876 23.0536 44.4031 23.0536C46.1185 23.0536 47.5749 22.4536 48.7749 21.2536C49.9749 20.0536 50.5749 18.5973 50.5749 16.8818C50.5749 15.1664 49.9749 13.71 48.7749 12.51ZM45.8703 18.3491C45.4749 18.7418 44.9867 18.9382 44.4031 18.9382C43.8194 18.9382 43.3312 18.7418 42.9385 18.3491C42.5431 17.9536 42.3467 17.4655 42.3467 16.8818C42.3467 16.2982 42.5431 15.81 42.9385 15.4145C43.3312 15.0218 43.8194 14.8255 44.4031 14.8255C44.9867 14.8255 45.4749 15.0218 45.8703 15.4145C46.2631 15.81 46.4621 16.2982 46.4621 16.8818C46.4621 17.4655 46.2631 17.9536 45.8703 18.3491ZM27.4285 8.13818L24.5485 11.07L28.304 14.8255H21.4094C20.9649 13.6227 20.2176 12.6382 19.1731 11.8664C18.1258 11.0945 16.934 10.71 15.5976 10.71C13.8821 10.71 12.4258 11.31 11.2258 12.51C10.0258 13.71 9.42578 15.1664 9.42578 16.8818C9.42578 18.2182 9.81033 19.41 10.5821 20.4573C11.354 21.5018 12.3385 22.2491 13.5385 22.6936V39.9273C12.3385 40.3718 11.354 41.1109 10.5821 42.1391C9.81033 43.1673 9.42578 44.3509 9.42578 45.6873C9.42578 47.4027 10.0258 48.8591 11.2258 50.0591C12.4258 51.2618 13.8821 51.8618 15.5976 51.8618C17.3131 51.8618 18.7694 51.2618 19.9694 50.0591C21.1694 48.8591 21.7694 47.4027 21.7694 45.6873C21.7694 44.3509 21.3849 43.1591 20.6131 42.1118C19.8412 41.0673 18.854 40.32 17.654 39.8755V22.6936C18.5458 22.3855 19.3176 21.9055 19.9694 21.2536C20.6212 20.6018 21.1012 19.83 21.4094 18.9382H28.304L24.5485 22.6936L27.4285 25.6255L36.1721 16.8818L27.4285 8.13818ZM17.0621 47.1545C16.6694 47.5473 16.1812 47.7464 15.5976 47.7464C15.014 47.7464 14.5258 47.5473 14.1303 47.1545C13.7376 46.7591 13.5385 46.2709 13.5385 45.6873C13.5385 45.1036 13.7376 44.6155 14.1303 44.2227C14.5258 43.8273 15.014 43.6309 15.5976 43.6309C16.1812 43.6309 16.6694 43.8273 17.0621 44.2227C17.4576 44.6155 17.654 45.1036 17.654 45.6873C17.654 46.2709 17.4576 46.7591 17.0621 47.1545ZM17.0621 18.3491C16.6694 18.7418 16.1812 18.9382 15.5976 18.9382C15.014 18.9382 14.5258 18.7418 14.1303 18.3491C13.7376 17.9536 13.5385 17.4655 13.5385 16.8818C13.5385 16.2982 13.7376 15.81 14.1303 15.4145C14.5258 15.0218 15.014 14.8255 15.5976 14.8255C16.1812 14.8255 16.6694 15.0218 17.0621 15.4145C17.4576 15.81 17.654 16.2982 17.654 16.8818C17.654 17.4655 17.4576 17.9536 17.0621 18.3491ZM50.2667 32.34C50.0621 31.8409 49.7703 31.3882 49.394 30.9764L46.8712 28.4045C46.4621 27.9927 46.0067 27.6845 45.5103 27.4773C45.0112 27.2727 44.4903 27.1691 43.9394 27.1691C43.3885 27.1691 42.8676 27.2727 42.3712 27.4773C41.8749 27.6845 41.4194 27.9927 41.0076 28.4045L25.8849 43.4236V51.8618H34.3203L49.3421 36.7364C49.7185 36.3273 50.0185 35.8718 50.2421 35.3755C50.4658 34.8764 50.5749 34.3718 50.5749 33.8564C50.5749 33.3409 50.474 32.8364 50.2667 32.34ZM32.5721 47.7464H30.0003V45.1745L38.3349 36.84L39.6194 38.1273L40.9067 39.4118L32.5721 47.7464Z" fill="url(#paint0_linear_40000797_1553)"/>
<defs>
<linearGradient id="paint0_linear_40000797_1553" x1="9.42578" y1="30" x2="50.5749" y2="30" gradientUnits="userSpaceOnUse">
<stop stop-color="#4AA734"/>
<stop offset="1" stop-color="#58DAFF"/>
</linearGradient>
</defs>
</svg>
