<svg width="60" height="60" viewBox="0 0 60 60" fill="none" xmlns="http://www.w3.org/2000/svg">
<path d="M2.72754 52.3145V47.3563H57.273V52.3145H2.72754ZM10.1648 44.8772C8.80118 44.8772 7.6339 44.3918 6.66299 43.4209C5.69208 42.45 5.20663 41.2827 5.20663 39.9191V12.6436C5.20663 11.28 5.69208 10.1127 6.66299 9.14179C7.6339 8.17088 8.80118 7.68542 10.1648 7.68542H49.833C51.1966 7.68542 52.3639 8.17088 53.3348 9.14179C54.3057 10.1127 54.7912 11.28 54.7912 12.6436V39.9163C54.7912 41.28 54.3057 42.4472 53.3348 43.4181C52.3639 44.3891 51.1966 44.8745 49.833 44.8745H10.1648V44.8772ZM10.1648 39.9163H49.833V12.6436H10.1648V39.9163Z" fill="url(#paint0_linear_40001025_1016)"/>
<path d="M16.5575 30.8836C15.3166 30.8836 14.3484 30.5427 13.6529 29.8636C12.9575 29.1845 12.6084 28.2191 12.6084 26.9727V22.3173H14.9839V26.9018C14.9839 27.6218 15.1257 28.1373 15.4093 28.4509C15.6929 28.7645 16.0829 28.92 16.5793 28.92C17.0757 28.92 17.4629 28.7645 17.7439 28.4509C18.0248 28.14 18.1639 27.6218 18.1639 26.9018V22.3173H20.5039V26.9727C20.5039 28.2218 20.1548 29.1845 19.4593 29.8636C18.7639 30.5427 17.7957 30.8836 16.5548 30.8836H16.5575ZM26.7766 26.3727L29.7002 22.3145H27.1311L25.4811 24.7418L23.7957 22.3145H21.1202L24.0493 26.4627L20.9866 30.7145H23.7002L25.4129 28.1154L27.1557 30.7145H29.8911L26.7766 26.3727ZM29.6348 31.9145L33.5948 20.61H35.6239L31.6639 31.9145H29.6348ZM39.5675 30.8836C38.3266 30.8836 37.3584 30.5427 36.6629 29.8636C35.9675 29.1845 35.6184 28.2191 35.6184 26.9727V22.3173H37.9939V26.9018C37.9939 27.6218 38.1357 28.1373 38.4193 28.4509C38.7029 28.7645 39.0929 28.92 39.5893 28.92C40.0857 28.92 40.4729 28.7645 40.7539 28.4509C41.0348 28.14 41.1739 27.6218 41.1739 26.9018V22.3173H43.5139V26.9727C43.5139 28.2218 43.1648 29.1845 42.4693 29.8636C41.7739 30.5427 40.8057 30.8836 39.5648 30.8836H39.5675ZM45.0139 30.7145V22.3145H47.3893V30.7145H45.0139Z" fill="url(#paint1_linear_40001025_1016)"/>
<defs>
<linearGradient id="paint0_linear_40001025_1016" x1="2.72754" y1="30" x2="57.273" y2="30" gradientUnits="userSpaceOnUse">
<stop stop-color="#4AA734"/>
<stop offset="1" stop-color="#58DAFF"/>
</linearGradient>
<linearGradient id="paint1_linear_40001025_1016" x1="12.6111" y1="26.2636" x2="47.3893" y2="26.2636" gradientUnits="userSpaceOnUse">
<stop stop-color="#4AA734"/>
<stop offset="1" stop-color="#58DAFF"/>
</linearGradient>
</defs>
</svg>
