<svg width="61" height="60" viewBox="0 0 61 60" fill="none" xmlns="http://www.w3.org/2000/svg">
<g clip-path="url(#clip0_40000797_1786)">
<path d="M24.0829 34.2791H37.9865C39.4838 34.2791 40.7492 33.7528 41.7829 32.7028C42.8165 31.65 43.3347 30.3764 43.3347 28.8791C43.3347 27.3818 42.8001 26.1164 41.7311 25.0828C40.662 24.0491 39.3774 23.5309 37.8801 23.5309C37.5938 21.7118 36.7565 20.1982 35.3656 18.9846C33.9747 17.7737 32.352 17.1655 30.5002 17.1655C29.0383 17.1655 27.702 17.5582 26.4883 18.3409C25.2747 19.1237 24.3665 20.1764 23.7611 21.4964C22.0483 21.5673 20.6056 22.2191 19.4302 23.4491C18.2547 24.6791 17.6656 26.1491 17.6656 27.8618C17.6656 29.5746 18.2902 31.1591 19.5365 32.4082C20.7856 33.6573 22.2992 34.2791 24.0829 34.2791ZM24.0829 30C23.4774 30 22.9674 29.7955 22.5583 29.3837C22.1492 28.9718 21.942 28.4646 21.942 27.8591C21.942 27.2537 22.1465 26.7437 22.5583 26.3346C22.9701 25.9255 23.4774 25.7182 24.0829 25.7182H26.7556V25.1837C26.7556 24.15 27.1211 23.2664 27.852 22.5355C28.5829 21.8046 29.4665 21.4391 30.5002 21.4391C31.5338 21.4391 32.4174 21.8046 33.1483 22.5355C33.8792 23.2664 34.2447 24.15 34.2447 25.1837V27.8564H37.9892C38.2756 27.8564 38.5238 27.9628 38.7392 28.1782C38.9547 28.3937 39.0611 28.6418 39.0611 28.9282C39.0611 29.2146 38.9547 29.4628 38.7392 29.6782C38.5238 29.8937 38.2756 30 37.9892 30H24.0856H24.0829ZM21.942 49.2519V44.9728H26.2211V40.6937H13.3865C12.2111 40.6937 11.202 40.2737 10.3647 39.4364C9.52742 38.5991 9.10742 37.59 9.10742 36.4146V15.0246C9.10742 13.8491 9.52742 12.84 10.3647 12.0028C11.202 11.1655 12.2111 10.7455 13.3865 10.7455H47.6138C48.7892 10.7455 49.7983 11.1655 50.6356 12.0028C51.4729 12.84 51.8929 13.8491 51.8929 15.0246V36.4173C51.8929 37.5928 51.4729 38.6018 50.6356 39.4391C49.7983 40.2764 48.7892 40.6964 47.6138 40.6964H34.7792V44.9755H39.0583V49.2546H21.9447L21.942 49.2519ZM13.3865 36.4173H47.6138V15.0246H13.3865V36.4173Z" fill="url(#paint0_linear_40000797_1786)"/>
</g>
<defs>
<linearGradient id="paint0_linear_40000797_1786" x1="9.10742" y1="30" x2="51.8929" y2="30" gradientUnits="userSpaceOnUse">
<stop stop-color="#4AA734"/>
<stop offset="1" stop-color="#58DAFF"/>
</linearGradient>
<clipPath id="clip0_40000797_1786">
<rect width="60" height="60" fill="white" transform="translate(0.5)"/>
</clipPath>
</defs>
</svg>
