<svg width="60" height="60" viewBox="0 0 60 60" fill="none" xmlns="http://www.w3.org/2000/svg">
<g clip-path="url(#clip0_40000797_1737)">
<path d="M42.4393 50.1709C42.1229 50.1709 41.8066 50.1327 41.4902 50.0536C41.1738 49.9745 40.8793 49.8354 40.6011 49.6391L33.4938 45.4936C32.9402 45.1772 32.5175 44.7518 32.2202 44.22C31.9229 43.6882 31.7756 43.1045 31.7756 42.4718V34.1182C31.7756 33.4854 31.9229 32.9045 32.2202 32.37C32.5175 31.8354 32.9402 31.4127 33.4938 31.0963L40.6011 26.9509C40.8766 26.7545 41.1738 26.6154 41.4902 26.5363C41.8066 26.4572 42.1229 26.4191 42.4393 26.4191C42.7556 26.4191 43.0611 26.4682 43.3584 26.5663C43.6556 26.6645 43.942 26.7927 44.2175 26.9509L51.3247 31.0963C51.8784 31.4127 52.312 31.8382 52.6284 32.37C52.9447 32.9018 53.1029 33.4854 53.1029 34.1182V42.4718C53.1029 43.1045 52.9447 43.6854 52.6284 44.22C52.312 44.7518 51.8784 45.1772 51.3247 45.4936L44.2175 49.6391C43.942 49.7972 43.6556 49.9254 43.3584 50.0236C43.0611 50.1218 42.7556 50.1709 42.4393 50.1709ZM25.8547 28.7863C23.2475 28.7863 21.0166 27.8591 19.162 26.0018C17.3047 24.1445 16.3775 21.9136 16.3775 19.3091C16.3775 16.7045 17.3047 14.4709 19.162 12.6163C21.0193 10.7591 23.2502 9.83179 25.8547 9.83179C28.4593 9.83179 30.6929 10.7591 32.5475 12.6163C34.4047 14.4736 35.332 16.7045 35.332 19.3091C35.332 21.9136 34.4047 24.1472 32.5475 26.0018C30.6902 27.8591 28.4593 28.7863 25.8547 28.7863ZM6.89746 47.7409V41.1054C6.89746 39.8018 7.23292 38.5772 7.90382 37.4318C8.57473 36.2863 9.50201 35.4191 10.6884 34.8245C12.7011 33.7991 14.9729 32.9291 17.5011 32.2172C20.0293 31.5054 22.8138 31.1509 25.8547 31.1509H26.6838C26.9211 31.1509 27.1584 31.1891 27.3956 31.2682C27.0793 31.98 26.812 32.7191 26.5966 33.4909C26.3784 34.26 26.212 35.0618 26.092 35.8909H25.8547C23.0511 35.8909 20.5338 36.2454 18.3029 36.9572C16.072 37.6691 14.2447 38.3782 12.8238 39.09C12.4693 39.2863 12.1829 39.5645 11.9647 39.9191C11.7466 40.2736 11.6402 40.6691 11.6402 41.1027V42.9982H26.5666C26.8038 43.8272 27.1202 44.6482 27.5156 45.4554C27.9111 46.2654 28.3447 47.0263 28.8193 47.7354H6.89746V47.7409ZM25.8547 24.0463C27.1584 24.0463 28.2738 23.5827 29.2011 22.6554C30.1284 21.7282 30.592 20.6127 30.592 19.3091C30.592 18.0054 30.1284 16.89 29.2011 15.9627C28.2738 15.0354 27.1584 14.5718 25.8547 14.5718C24.5511 14.5718 23.4356 15.0354 22.5084 15.9627C21.5811 16.89 21.1175 18.0054 21.1175 19.3091C21.1175 20.6127 21.5811 21.7282 22.5084 22.6554C23.4356 23.5827 24.5511 24.0463 25.8547 24.0463ZM36.8729 33.1691L42.442 36.4282L48.0111 33.1691L42.442 29.97L36.8729 33.1691ZM44.2175 45.4909L49.5493 42.4118V35.8963L44.2175 39.0354V45.4936V45.4909ZM35.332 42.4091L40.6638 45.5481V39.09L35.332 35.9509V42.4091Z" fill="url(#paint0_linear_40000797_1737)"/>
</g>
<defs>
<linearGradient id="paint0_linear_40000797_1737" x1="6.89746" y1="30" x2="53.1029" y2="30" gradientUnits="userSpaceOnUse">
<stop stop-color="#4AA734"/>
<stop offset="1" stop-color="#58DAFF"/>
</linearGradient>
<clipPath id="clip0_40000797_1737">
<rect width="60" height="60" fill="white"/>
</clipPath>
</defs>
</svg>
