<svg width="61" height="60" viewBox="0 0 61 60" fill="none" xmlns="http://www.w3.org/2000/svg">
<g clip-path="url(#clip0_40000797_1890)">
<path d="M14.6328 36.9409C12.98 36.9409 11.5755 36.3627 10.4191 35.2064C9.26275 34.05 8.68457 32.6454 8.68457 30.9927C8.68457 29.34 9.26275 27.9354 10.4191 26.7791C11.5755 25.6227 12.98 25.0445 14.6328 25.0445V21.0764C14.6328 19.9854 15.02 19.0527 15.7973 18.2754C16.5746 17.4982 17.5073 17.1109 18.5982 17.1109H24.5491C24.5491 15.4582 25.1273 14.0536 26.2837 12.8973C27.44 11.7409 28.8446 11.1627 30.4973 11.1627C32.15 11.1627 33.5546 11.7409 34.7109 12.8973C35.8673 14.0536 36.4455 15.4582 36.4455 17.1109H42.3964C43.4873 17.1109 44.42 17.4982 45.1973 18.2754C45.9746 19.0527 46.3618 19.9854 46.3618 21.0764V25.0445C48.0146 25.0445 49.4191 25.6227 50.5755 26.7791C51.7318 27.9354 52.31 29.34 52.31 30.9927C52.31 32.6454 51.7318 34.05 50.5755 35.2064C49.4191 36.3627 48.0146 36.9409 46.3618 36.9409V44.8745C46.3618 45.9654 45.9746 46.8982 45.1973 47.6754C44.42 48.4527 43.4873 48.84 42.3964 48.84H18.5955C17.5046 48.84 16.5718 48.4527 15.7946 47.6754C15.0173 46.8982 14.63 45.9654 14.63 44.8745V36.9409H14.6328ZM24.5491 32.9754C25.3755 32.9754 26.0791 32.6864 26.6573 32.1082C27.2355 31.53 27.5246 30.8264 27.5246 30C27.5246 29.1736 27.2355 28.47 26.6573 27.8918C26.0791 27.3136 25.3755 27.0245 24.5491 27.0245C23.7228 27.0245 23.0191 27.3136 22.4409 27.8918C21.8628 28.47 21.5737 29.1736 21.5737 30C21.5737 30.8264 21.8628 31.53 22.4409 32.1082C23.0191 32.6864 23.7228 32.9754 24.5491 32.9754ZM36.4509 32.9754C37.2773 32.9754 37.9809 32.6864 38.5591 32.1082C39.1373 31.53 39.4264 30.8264 39.4264 30C39.4264 29.1736 39.1373 28.47 38.5591 27.8918C37.9809 27.3136 37.2773 27.0245 36.4509 27.0245C35.6246 27.0245 34.9209 27.3136 34.3428 27.8918C33.7646 28.47 33.4755 29.1736 33.4755 30C33.4755 30.8264 33.7646 31.53 34.3428 32.1082C34.9209 32.6864 35.6246 32.9754 36.4509 32.9754ZM22.5664 40.9091H38.4337V36.9409H22.5664V40.9091ZM18.5982 44.8773H42.3991V21.0764H18.5982V44.8773Z" fill="url(#paint0_linear_40000797_1890)"/>
</g>
<defs>
<linearGradient id="paint0_linear_40000797_1890" x1="8.68184" y1="30" x2="52.3182" y2="30" gradientUnits="userSpaceOnUse">
<stop stop-color="#4AA734"/>
<stop offset="1" stop-color="#58DAFF"/>
</linearGradient>
<clipPath id="clip0_40000797_1890">
<rect width="60" height="60" fill="white" transform="translate(0.5)"/>
</clipPath>
</defs>
</svg>
