<svg width="60" height="60" viewBox="0 0 60 60" fill="none" xmlns="http://www.w3.org/2000/svg">
<path d="M6.86182 45.0382V40.41H30V45.0382H6.86182ZM6.86182 33.4718V28.8437H18.4309V33.4718H6.86182ZM6.86182 21.9027V17.2746H18.4309V21.9027H6.86182ZM49.8982 45.0382L40.9909 36.1309C40.0664 36.7855 39.0545 37.2791 37.9555 37.6064C36.8564 37.9337 35.7491 38.0973 34.6282 38.0973C31.4264 38.0973 28.6991 36.9682 26.4436 34.7127C24.1882 32.4573 23.0591 29.73 23.0591 26.5282C23.0591 23.3264 24.1882 20.5991 26.4436 18.3437C28.6991 16.0882 31.4264 14.9591 34.6282 14.9591C37.83 14.9591 40.5573 16.0882 42.8127 18.3437C45.0682 20.5991 46.1973 23.3264 46.1973 26.5282C46.1973 27.6464 46.0336 28.7564 45.7064 29.8555C45.3791 30.9546 44.8882 31.9664 44.2309 32.8909L53.1382 41.7982L49.8982 45.0382ZM34.6282 33.4718C36.5564 33.4718 38.1955 32.7982 39.5455 31.4482C40.8955 30.0982 41.5691 28.4591 41.5691 26.5309C41.5691 24.6027 40.8955 22.9637 39.5455 21.6137C38.1955 20.2637 36.5564 19.59 34.6282 19.59C32.7 19.59 31.0609 20.2637 29.7109 21.6137C28.3609 22.9637 27.6873 24.6027 27.6873 26.5309C27.6873 28.4591 28.3609 30.0982 29.7109 31.4482C31.0609 32.7982 32.7 33.4718 34.6282 33.4718Z" fill="url(#paint0_linear_40001025_1219)"/>
<defs>
<linearGradient id="paint0_linear_40001025_1219" x1="6.86182" y1="30" x2="53.1382" y2="30" gradientUnits="userSpaceOnUse">
<stop stop-color="#4AA734"/>
<stop offset="1" stop-color="#58DAFF"/>
</linearGradient>
</defs>
</svg>
