<svg width="60" height="60" viewBox="0 0 60 60" fill="none" xmlns="http://www.w3.org/2000/svg">
<path d="M4.92285 50.6126V44.2008C4.92285 42.9408 5.2474 41.7572 5.89649 40.6499C6.54558 39.5426 7.44285 38.7026 8.58831 38.1299C10.5356 37.1372 12.731 36.2972 15.1719 35.6099C17.6156 34.9226 20.3047 34.579 23.2447 34.579C26.1847 34.579 28.8738 34.9226 31.3174 35.6099C33.761 36.2972 35.9538 37.1372 37.901 38.1299C39.0465 38.7026 39.9438 39.5426 40.5928 40.6499C41.2419 41.7572 41.5665 42.9408 41.5665 44.2008V50.6126H4.92285ZM9.50194 46.0308H36.9847V44.1981C36.9847 43.7781 36.881 43.3963 36.671 43.0526C36.461 42.709 36.1856 42.4417 35.8419 42.2508C34.4674 41.5635 32.7029 40.8763 30.5456 40.189C28.3883 39.5017 25.9556 39.1581 23.2447 39.1581C20.5338 39.1581 18.101 39.5017 15.9438 40.189C13.7865 40.8763 12.0219 41.5635 10.6474 42.2508C10.3038 42.4417 10.0283 42.709 9.81831 43.0526C9.60831 43.3963 9.50467 43.7781 9.50467 44.1981V46.0308H9.50194ZM23.2447 32.2908C20.7247 32.2908 18.5701 31.3935 16.7756 29.599C14.981 27.8044 14.0838 25.6472 14.0838 23.1299H13.511C13.1674 23.1299 12.8919 23.0263 12.6819 22.8163C12.4719 22.6063 12.3683 22.3308 12.3683 21.9872C12.3683 21.6435 12.4719 21.3681 12.6819 21.1581C12.8919 20.9481 13.1674 20.8444 13.511 20.8444H14.0838C14.0838 19.1263 14.5038 17.5799 15.3438 16.2081C16.1838 14.8335 17.291 13.7453 18.6656 12.9435V15.1199C18.6656 15.4635 18.7692 15.739 18.9792 15.949C19.1892 16.159 19.4647 16.2626 19.8083 16.2626C20.1519 16.2626 20.4274 16.159 20.6374 15.949C20.8474 15.739 20.951 15.4635 20.951 15.1199V12.0272C21.2947 11.9126 21.6574 11.8281 22.0392 11.7708C22.421 11.7135 22.8219 11.6863 23.2419 11.6863C23.6619 11.6863 24.0629 11.7135 24.4447 11.7708C24.8265 11.8281 25.1892 11.9126 25.5329 12.0272V15.1199C25.5329 15.4635 25.6365 15.739 25.8465 15.949C26.0565 16.159 26.3319 16.2626 26.6756 16.2626C27.0192 16.2626 27.2947 16.159 27.5047 15.949C27.7147 15.739 27.8183 15.4635 27.8183 15.1199V12.9435C29.1929 13.7453 30.3001 14.8335 31.1401 16.2081C31.9801 17.5826 32.4001 19.129 32.4001 20.8444H32.9729C33.3165 20.8444 33.5919 20.9481 33.8019 21.1581C34.0119 21.3681 34.1156 21.6435 34.1156 21.9872C34.1156 22.3308 34.0119 22.6063 33.8019 22.8163C33.5919 23.0263 33.3165 23.1299 32.9729 23.1299H32.4001C32.4001 25.6499 31.5029 27.8044 29.7083 29.599C27.9138 31.3935 25.7565 32.2908 23.2392 32.2908H23.2447ZM23.2447 27.709C24.5047 27.709 25.5819 27.2617 26.4792 26.3644C27.3765 25.4672 27.8238 24.3899 27.8238 23.1299H18.6629C18.6629 24.3899 19.1101 25.4672 20.0074 26.3644C20.9047 27.2617 21.9819 27.709 23.2419 27.709H23.2447ZM40.421 36.8699L40.0774 35.1517C39.8483 35.0753 39.6301 34.9908 39.4201 34.8953C39.2101 34.7999 39.011 34.6581 38.8201 34.4672L37.2165 35.0399L36.071 32.9781L37.331 31.8326V30.4581L36.071 29.3126L37.2165 27.2508L38.8201 27.8235C38.9729 27.6708 39.1638 27.5372 39.3929 27.4226C39.6219 27.3081 39.851 27.2126 40.0801 27.1363L40.4238 25.4181H42.7147L43.0583 27.1363C43.2874 27.2126 43.5165 27.3081 43.7456 27.4226C43.9747 27.5372 44.1656 27.6708 44.3183 27.8235L45.9219 27.2508L47.0674 29.3126L45.8074 30.4581V31.8326L47.0674 32.9781L45.9219 35.0399L44.3183 34.4672C44.1274 34.6581 43.9283 34.7999 43.7183 34.8953C43.5083 34.9908 43.2901 35.0753 43.061 35.1517L42.7174 36.8699H40.4265H40.421ZM41.5665 32.8635C42.0247 32.8635 42.4256 32.6917 42.7692 32.3481C43.1129 32.0044 43.2847 31.6035 43.2847 31.1453C43.2847 30.6872 43.1129 30.2863 42.7692 29.9426C42.4256 29.599 42.0247 29.4272 41.5665 29.4272C41.1083 29.4272 40.7074 29.599 40.3638 29.9426C40.0201 30.2863 39.8483 30.6872 39.8483 31.1453C39.8483 31.6035 40.0201 32.0044 40.3638 32.3481C40.7074 32.6917 41.1083 32.8635 41.5665 32.8635ZM45.6874 25.4208L45.2292 23.0153C44.8856 22.9008 44.5719 22.759 44.2856 22.5872C43.9992 22.4153 43.7429 22.2163 43.5138 21.9872L41.1083 22.789L39.5047 20.0399L41.4519 18.3217C41.3756 18.1308 41.3374 17.9781 41.3374 17.8635V16.9472C41.3374 16.8326 41.3756 16.6799 41.4519 16.489L39.5047 14.7708L41.1083 12.0217L43.5138 12.8235C43.7429 12.5944 43.9992 12.3953 44.2856 12.2235C44.5719 12.0517 44.8856 11.9099 45.2292 11.7953L45.6874 9.38989H48.8947L49.3529 11.7953C49.6965 11.9099 50.0101 12.0517 50.2965 12.2235C50.5829 12.3953 50.8392 12.5944 51.0683 12.8235L53.4738 12.0217L55.0774 14.7708L53.1301 16.489C53.2065 16.6799 53.2447 16.8326 53.2447 16.9472V17.8635C53.2447 17.9781 53.2065 18.1308 53.1301 18.3217L55.0774 20.0399L53.4738 22.789L51.0683 21.9872C50.8392 22.2163 50.5829 22.4153 50.2965 22.5872C50.0101 22.759 49.6965 22.9008 49.3529 23.0153L48.8947 25.4208H45.6874ZM47.291 20.2663C48.0928 20.2663 48.7692 19.9908 49.3229 19.4372C49.8765 18.8835 50.1519 18.2072 50.1519 17.4053C50.1519 16.6035 49.8765 15.9272 49.3229 15.3735C48.7692 14.8199 48.0928 14.5444 47.291 14.5444C46.4892 14.5444 45.8129 14.8199 45.2592 15.3735C44.7056 15.9272 44.4301 16.6035 44.4301 17.4053C44.4301 18.2072 44.7056 18.8835 45.2592 19.4372C45.8129 19.9908 46.4892 20.2663 47.291 20.2663Z" fill="url(#paint0_linear_40000797_1733)"/>
<defs>
<linearGradient id="paint0_linear_40000797_1733" x1="4.92285" y1="29.9999" x2="55.0774" y2="29.9999" gradientUnits="userSpaceOnUse">
<stop stop-color="#4AA734"/>
<stop offset="1" stop-color="#58DAFF"/>
</linearGradient>
</defs>
</svg>
