<svg width="36" height="22" viewBox="0 0 36 22" fill="none" xmlns="http://www.w3.org/2000/svg">
<path d="M28.6005 3.50919H35.2142V17.5018H31.716C30.7321 17.5018 29.9669 16.7366 29.9669 15.7528H26.7967C26.6874 16.2447 26.4688 16.6273 26.1955 17.0099L24.7743 18.8136C23.8998 19.8522 22.4787 20.1801 21.2762 19.6882C20.511 20.6174 19.5818 21 18.5979 21C17.778 21 17.0128 20.7267 16.3569 20.1801C14.6078 21.328 12.2575 21.328 10.5631 19.9615L5.97172 15.7528H5.42513C5.42513 16.7366 4.65991 17.5018 3.73071 17.5018H0.23255V3.50919H6.68229L9.25125 0.940228C9.85249 0.338982 10.6177 0.0110292 11.4376 0.0110292H23.8451C24.665 0.0110292 25.4302 0.393641 25.9768 0.940228L28.6005 3.50919ZM2.85617 15.7528C3.29344 15.7528 3.73071 15.3701 3.73071 14.8782C3.73071 14.3863 3.29344 14.0037 2.85617 14.0037C2.36424 14.0037 1.98163 14.3863 1.98163 14.8782C1.98163 15.3701 2.36424 15.7528 2.85617 15.7528ZM24.1731 15.3701C24.2824 15.2062 24.2824 14.9329 24.0638 14.7689L18.1606 9.95893L17.7234 10.3962C15.537 12.3639 12.968 10.9974 12.1482 10.1229C10.727 8.5378 10.7817 6.07815 12.4215 4.60237L14.5531 2.63465H11.4376C11.3283 2.68931 11.219 2.74397 11.1096 2.79863L7.7208 6.13281H5.47979V13.1291H6.95558L12.3121 17.9391C13.1867 18.6497 14.5531 18.5404 15.3184 17.6112L16.1383 16.5726L18.1606 18.2671C18.3246 18.3764 18.8165 18.5404 19.1445 18.1577L20.7843 16.1354L22.0961 17.2285C22.3147 17.3379 22.588 17.3379 22.6973 17.1192L24.1731 15.3701ZM29.9669 13.1291V6.13281H27.5073L24.1184 2.79863C24.0638 2.68931 23.9545 2.63465 23.8451 2.63465L19.2538 2.68931C18.7072 2.68931 18.1606 2.85329 17.778 3.2359L14.1705 6.51542C13.6786 7.00735 13.624 7.82723 14.1159 8.37382C14.6078 8.92041 15.4823 8.86575 16.0289 8.37382L19.0352 5.64088C19.3631 5.31293 19.9644 5.31293 20.2923 5.69554L20.8389 6.29679C21.1669 6.6794 21.1669 7.22599 20.7843 7.55394L20.1283 8.15519L25.7582 12.7465C25.8675 12.8558 26.0315 13.0198 26.1408 13.1291H29.9669ZM32.5905 15.7528C33.0278 15.7528 33.4651 15.3701 33.4651 14.8782C33.4651 14.3863 33.0278 14.0037 32.5905 14.0037C32.0986 14.0037 31.716 14.3863 31.716 14.8782C31.716 15.3701 32.0986 15.7528 32.5905 15.7528Z" fill="url(#paint0_linear_40000073_2153)" fill-opacity="0.8"/>
<defs>
<linearGradient id="paint0_linear_40000073_2153" x1="0" y1="10.9926" x2="35.4467" y2="10.9926" gradientUnits="userSpaceOnUse">
<stop stop-color="#4BA634"/>
<stop offset="1" stop-color="#6FC8ED"/>
</linearGradient>
</defs>
</svg>
