<svg width="25" height="29" viewBox="0 0 25 29" fill="none" xmlns="http://www.w3.org/2000/svg">
<path d="M17.308 17.1291C21.3527 17.1291 24.6869 20.4633 24.6869 24.5081V25.8745C24.6869 27.3503 23.4844 28.4982 22.0633 28.4982H2.82338C1.34759 28.4982 0.199754 27.3503 0.199754 25.8745V24.5081C0.199754 20.4633 3.47928 17.1291 7.52403 17.1291C9.10913 17.1291 9.8197 18.0037 12.4433 18.0037C15.0123 18.0037 15.7228 17.1291 17.308 17.1291ZM22.0633 25.8745V24.5081C22.0633 21.8844 19.9316 19.7528 17.308 19.7528C16.4881 19.7528 15.2309 20.6273 12.4433 20.6273C9.60106 20.6273 8.34391 19.7528 7.52403 19.7528C4.90041 19.7528 2.82338 21.8844 2.82338 24.5081V25.8745H22.0633ZM12.4433 16.2546C8.07062 16.2546 4.57246 12.7564 4.57246 8.38373C4.57246 4.06569 8.07062 0.512867 12.4433 0.512867C16.7614 0.512867 20.3142 4.06569 20.3142 8.38373C20.3142 12.7564 16.7614 16.2546 12.4433 16.2546ZM12.4433 3.13649C9.5464 3.13649 7.19608 5.54148 7.19608 8.38373C7.19608 11.2806 9.5464 13.631 12.4433 13.631C15.2856 13.631 17.6906 11.2806 17.6906 8.38373C17.6906 5.54148 15.2856 3.13649 12.4433 3.13649Z" fill="url(#paint0_linear_40000073_2143)" fill-opacity="0.8"/>
<defs>
<linearGradient id="paint0_linear_40000073_2143" x1="0" y1="14.9926" x2="24.8866" y2="14.9926" gradientUnits="userSpaceOnUse">
<stop stop-color="#4BA634"/>
<stop offset="1" stop-color="#6FC8ED"/>
</linearGradient>
</defs>
</svg>
