<svg width="28" height="29" viewBox="0 0 28 29" fill="none" xmlns="http://www.w3.org/2000/svg">
<path d="M13.7617 0.950138C21.1953 0.950138 27.3171 7.07192 27.3171 14.5055C27.3171 21.9938 21.1953 28.0609 13.7617 28.0609C6.27348 28.0609 0.206352 21.9938 0.206352 14.5055C0.206352 7.07192 6.27348 0.950138 13.7617 0.950138ZM18.2437 20.518C18.681 20.0807 19.009 19.4248 19.009 18.7142C19.009 18.277 18.7903 17.8397 18.517 17.5664L17.7518 16.8012C17.4239 16.4732 16.9866 16.2546 16.4947 16.2546H12.8872C12.3406 16.036 11.6847 14.5055 11.1381 14.5055C10.5369 14.5055 9.99027 14.3962 9.44369 14.1229L8.84244 13.8496C8.6238 13.7403 8.51449 13.5217 8.51449 13.2484C8.51449 12.9751 8.67846 12.7018 8.95176 12.6471L10.6462 12.0459C10.7008 12.0459 10.8102 12.0459 10.9195 12.0459C11.1381 12.0459 11.3567 12.1005 11.4661 12.2098L12.0126 12.7018C12.0673 12.7564 12.1766 12.7564 12.2859 12.7564H12.6139C12.9418 12.7564 13.1058 12.4285 12.9965 12.1552L12.122 10.4608C12.122 10.4061 12.0673 10.2968 12.0673 10.2421C12.0673 10.1328 12.122 10.0235 12.2313 9.91418L12.7779 9.42225C12.8325 9.31293 12.9418 9.25827 13.0512 9.25827H13.5431C13.6524 9.25827 13.7617 9.25827 13.871 9.14895L14.3083 8.71168C14.4723 8.54771 14.4723 8.27441 14.3083 8.11044L14.035 7.83714C13.871 7.67317 13.871 7.39987 14.035 7.2359L14.6363 6.63465L14.8549 6.41602C15.1829 6.08806 15.1829 5.48682 14.8549 5.15886L13.3245 3.62842C12.8872 3.62842 12.3953 3.68308 12.0126 3.73774V4.39364C12.0126 5.04955 11.3021 5.43216 10.7008 5.15886L9.38903 4.50296C6.87472 5.59613 4.90701 7.56385 3.75917 10.0782C4.30576 10.898 5.12564 12.1005 5.67223 12.8658C5.94552 13.303 6.27348 13.631 6.65609 14.0136H6.71075C7.20268 14.5055 7.80392 14.8881 8.40517 15.2161C9.17039 15.5987 10.3182 16.1999 11.0834 16.6372C11.63 16.9652 12.0126 17.5664 12.0126 18.1677V19.9167C12.0126 20.4087 12.1766 20.8459 12.5046 21.1739C13.3245 21.9938 13.8164 23.2509 13.7617 23.9615V25.4373C14.527 25.4373 15.2922 25.3826 16.0574 25.2186L17.0413 22.6497C17.1506 22.3217 17.2052 22.0484 17.2599 21.7205C17.3145 21.5018 17.4239 21.2832 17.5878 21.1192C17.8065 20.9553 18.0251 20.7366 18.2437 20.518ZM22.9991 15.544L24.5842 15.9266C24.6388 15.4894 24.6935 14.9974 24.6935 14.5055C24.6935 12.7564 24.2562 11.1167 23.491 9.64088L22.7804 10.0235C22.5618 10.1328 22.3978 10.2421 22.2885 10.4608L21.1953 12.0459C21.086 12.2645 20.9767 12.5378 20.9767 12.8111C20.9767 13.0297 21.086 13.303 21.1953 13.5217L22.1792 14.9974C22.3978 15.2707 22.6711 15.4347 22.9991 15.544Z" fill="url(#paint0_linear_40000073_2148)" fill-opacity="0.8"/>
<defs>
<linearGradient id="paint0_linear_40000073_2148" x1="0" y1="14.9926" x2="27.5235" y2="14.9926" gradientUnits="userSpaceOnUse">
<stop stop-color="#4BA634"/>
<stop offset="1" stop-color="#6FC8ED"/>
</linearGradient>
</defs>
</svg>
