<svg width="28" height="29" viewBox="0 0 28 29" fill="none" xmlns="http://www.w3.org/2000/svg">
<path d="M14.2033 0.950138C21.6369 0.950138 27.7587 7.07192 27.7587 14.5055C27.7587 21.9938 21.6369 28.0609 14.2033 28.0609C6.71508 28.0609 0.647956 21.9938 0.647956 14.5055C0.647956 7.07192 6.71508 0.950138 14.2033 0.950138ZM14.2033 3.57376C8.13621 3.57376 3.27158 8.49305 3.27158 14.5055C3.27158 20.5726 8.13621 25.4373 14.2033 25.4373C20.2158 25.4373 25.1351 20.5726 25.1351 14.5055C25.1351 8.49305 20.2158 3.57376 14.2033 3.57376ZM21.8556 10.7341C22.0742 10.9527 22.0742 11.39 21.8556 11.6633L12.3996 21.0099C12.1263 21.2832 11.7437 21.2832 11.4704 21.0099L6.49645 15.9813C6.27781 15.7627 6.27781 15.3254 6.49645 15.0521L7.7536 13.8496C8.02689 13.5763 8.4095 13.5763 8.6828 13.8496L11.9623 17.1291L19.6692 9.47691C19.9425 9.20361 20.3798 9.20361 20.5984 9.47691L21.8556 10.7341Z" fill="url(#paint0_linear_40000073_2159)" fill-opacity="0.8"/>
<defs>
<linearGradient id="paint0_linear_40000073_2159" x1="0" y1="14.9926" x2="28.4067" y2="14.9926" gradientUnits="userSpaceOnUse">
<stop stop-color="#4BA634"/>
<stop offset="1" stop-color="#6FC8ED"/>
</linearGradient>
</defs>
</svg>
