<svg width="282" height="73" viewBox="0 0 282 73" fill="none" xmlns="http://www.w3.org/2000/svg">
<g clip-path="url(#clip0_40000836_2619)">
<path d="M0 72.146V0H50.0824V72.146H0ZM3.14772 2.45973V69.5531C3.44363 69.5531 3.63227 69.5716 3.81351 69.5531C14.6955 68.2474 25.5664 66.864 36.4632 65.6878C38.4976 65.4696 38.9156 64.826 38.9045 62.9026C38.8268 44.9558 38.8601 27.009 38.8601 9.06217C38.8601 8.3335 38.8601 7.60483 38.8601 6.70601C26.8869 5.28195 15.0617 3.87639 3.14772 2.45973Z" fill="white"/>
<path d="M154.294 47.3011C151.609 44.4271 151.705 43.3766 154.956 40.2104C152.319 38.5163 151.205 36.0418 151.52 32.9865C151.971 28.6293 154.575 26.2805 159.853 26.1067C164.011 25.9698 168.19 26.4618 172.359 26.6726C172.648 28.5516 171.653 29.8672 169.374 30.6193C169.555 31.3775 169.822 32.1284 169.903 32.9015C170.41 37.5546 167.758 40.854 163.008 41.4495C161.858 41.5938 160.652 41.3829 159.524 41.6048C158.836 41.738 158.248 42.3853 157.615 42.7996C158.148 43.2656 158.614 43.9018 159.236 44.1571C159.887 44.4234 160.685 44.3605 161.425 44.3753C162.842 44.4049 164.262 44.3531 165.679 44.3938C168.93 44.4899 171.22 45.9288 171.997 48.3109C172.984 51.3402 171.96 54.7062 169.356 56.5445C168.416 57.2103 167.332 57.7651 166.23 58.0906C162.502 59.1929 158.696 59.3112 154.9 58.4605C151.819 57.7688 149.996 55.7159 149.844 53.1009C149.704 50.6485 150.787 48.9692 152.951 47.9225C153.391 47.7079 153.835 47.5082 154.294 47.2937V47.3011ZM160.575 55.1093C162.006 54.684 163.848 54.3696 165.472 53.5928C167.173 52.7791 167.288 50.4488 165.727 49.9457C162.761 48.9914 159.654 48.788 156.72 50.0419C156.018 50.3415 155.322 51.5584 155.33 52.3463C155.337 53.0343 156.21 53.9701 156.931 54.3289C157.882 54.7986 159.058 54.8134 160.575 55.1093ZM164.029 33.7892C164.011 31.126 162.916 29.8647 160.674 29.9165C158.536 29.9646 157.508 31.2222 157.501 33.7966C157.49 36.4154 158.618 37.7876 160.782 37.7839C162.964 37.7839 164.048 36.4487 164.029 33.7892Z" fill="white"/>
<path d="M62.5771 19.6523H68.7653V31.0078H80.3353V19.6856H86.5087V48.9435H80.3686V36.4747H68.8763V48.9065H62.5809V19.6523H62.5771Z" fill="white"/>
<path d="M148.982 48.9838H142.816C142.816 45.3996 142.834 41.9042 142.805 38.4088C142.793 37.055 142.742 35.6975 142.597 34.3549C142.409 32.6053 141.628 31.3144 139.675 31.1036C137.548 30.8743 135.817 31.6658 135.174 33.5226C134.7 34.8949 134.445 36.3966 134.404 37.8503C134.297 41.4825 134.371 45.1222 134.371 48.9135H128.242V26.75C132.03 25.9067 132.71 26.1989 133.624 28.777C135.488 27.9189 137.286 26.665 139.257 26.2655C145.135 25.0708 148.897 28.2333 148.974 34.1921C149.037 39.0561 148.989 43.9201 148.989 48.9801L148.982 48.9838Z" fill="white"/>
<path d="M281.937 48.9653H278.652C278.652 46.058 278.652 43.2358 278.652 40.4136C278.652 38.5013 278.682 36.589 278.645 34.6767C278.582 31.3551 277.302 29.7313 274.606 29.4798C271.284 29.1654 268.806 30.7448 268.347 33.8444C267.989 36.2672 268.055 38.7565 267.996 41.2162C267.941 43.6205 267.974 46.0284 267.959 48.4364C267.959 48.5547 267.896 48.6731 267.826 48.9357H264.593C264.593 46.5537 264.593 44.1753 264.593 41.7969C264.593 39.2669 264.649 36.7332 264.556 34.2069C264.449 31.307 263.213 29.8497 260.809 29.5205C257.791 29.1099 255.416 30.3268 254.625 32.953C254.185 34.4066 253.996 35.975 253.959 37.4989C253.867 41.2569 253.929 45.0149 253.929 48.9283H250.667V27.1051H253.267C253.474 27.9004 253.682 28.7067 253.907 29.5649C258.054 24.9783 265.137 25.8438 267.401 30.0938C269.568 27.1347 272.52 26.2063 276.026 26.6206C279.496 27.0311 281.722 28.9028 281.874 32.4204C282.111 37.891 281.937 43.3763 281.937 48.969V48.9653Z" fill="white"/>
<path d="M182.809 19.8889C186.826 19.8889 190.787 19.5486 194.663 19.9814C198.828 20.4474 200.874 22.7629 201.325 26.2657C201.891 30.6858 200.382 33.5709 196.502 35.4721C196.287 35.5794 196.069 35.6829 195.625 35.9012C198.211 40.2029 200.759 44.4418 203.326 48.7103C200.286 49.6572 199.531 49.3724 198.04 46.8128C196.369 43.9425 194.656 41.0907 193.058 38.1797C192.507 37.1773 191.852 36.7741 190.724 36.837C189.27 36.9221 187.806 36.8592 186.197 36.8592V48.9581H182.809V19.8889ZM186.249 33.9667C189.034 33.7522 191.641 33.778 194.153 33.2972C196.609 32.8274 197.733 30.9484 197.804 28.2002C197.867 25.6591 196.949 23.7949 194.734 23.3214C191.974 22.7333 189.104 22.663 186.249 22.3634V33.963V33.9667Z" fill="white"/>
<path d="M224.664 38.1059C224.335 39.7888 224.194 41.5347 223.643 43.1437C222.09 47.6933 218.125 49.9422 212.943 49.4021C208.323 48.9176 204.912 45.5664 204.354 40.6544C204.124 38.657 204.113 36.5597 204.45 34.5883C205.349 29.3581 209.251 26.3435 214.54 26.4989C219.797 26.6542 223.499 29.9277 224.246 35.1172C224.387 36.09 224.424 37.0776 224.505 38.0615C224.557 38.0763 224.605 38.0911 224.657 38.1059H224.664ZM207.546 38.3093C207.779 39.4929 207.92 41.0427 208.397 42.4853C209.303 45.2224 211.411 46.6021 214.3 46.6095C217.174 46.6169 219.242 45.215 220.218 42.5001C221.187 39.811 221.18 37.0554 220.485 34.3182C219.656 31.0374 217.363 29.3655 214.004 29.4654C210.786 29.5652 208.685 31.3592 208.016 34.6622C207.797 35.7423 207.727 36.852 207.542 38.313L207.546 38.3093Z" fill="white"/>
<path d="M226.669 37.8615C226.754 36.9442 226.776 35.8863 226.954 34.858C227.849 29.6686 231.337 26.6836 236.663 26.4949C241.694 26.3174 245.611 29.2432 246.643 34.3032C247.486 38.4422 247.408 42.5886 244.594 46.1136C242.141 49.1874 237.71 50.2896 233.638 49.0135C229.417 47.6893 227.531 44.5046 226.876 40.3841C226.75 39.5963 226.743 38.7862 226.673 37.8615H226.669ZM243.669 37.6987C243.391 36.3746 243.225 34.7656 242.707 33.2786C241.819 30.7301 239.678 29.4503 236.785 29.4614C233.911 29.4688 231.877 30.8078 230.963 33.4155C230.024 36.1008 230.009 38.8602 230.675 41.6047C231.463 44.8412 233.693 46.6056 236.87 46.6093C240.051 46.6167 242.293 44.8597 243.084 41.6306C243.373 40.4433 243.451 39.2079 243.669 37.7024V37.6987Z" fill="white"/>
<path d="M101.518 26.5655H106.164C106.467 27.7195 106.76 28.8403 107.044 29.924C108.354 28.8551 109.515 27.5013 110.984 26.8244C112.448 26.1475 114.224 26.1512 116.177 25.7998C115.999 28.1523 115.866 29.9536 115.733 31.7623C114.387 31.8807 113.155 31.8659 111.979 32.1174C109.264 32.6982 107.81 34.3737 107.74 37.159C107.644 41.0317 107.714 44.908 107.714 48.9324H101.515V26.5692L101.518 26.5655Z" fill="white"/>
<path d="M91.2871 26.5947H97.2866V48.9579H91.2871V26.5947Z" fill="white"/>
<path d="M117.867 26.6172H123.996V48.9545H117.867V26.6172Z" fill="white"/>
<path d="M94.3579 23.7505C92.0498 23.769 90.8847 22.7111 90.9106 20.625C90.9365 18.6535 92.0979 17.6511 94.332 17.6622C96.555 17.6733 97.6869 18.6942 97.6795 20.6879C97.6721 22.7 96.5513 23.732 94.3579 23.7505Z" fill="white"/>
<path d="M120.941 17.673C123.208 17.6582 124.344 18.6273 124.377 20.6025C124.414 22.6517 123.201 23.7576 120.93 23.7465C118.674 23.7354 117.656 22.7885 117.66 20.7024C117.66 18.6088 118.655 17.6915 120.937 17.673H120.941Z" fill="white"/>
</g>
<defs>
<clipPath id="clip0_40000836_2619">
<rect width="282" height="72.146" fill="white"/>
</clipPath>
</defs>
</svg>
