<svg width="37" height="37" viewBox="0 0 37 37" fill="none" xmlns="http://www.w3.org/2000/svg">
<path d="M13.2433 6.50427C12.0046 6.56272 11.1587 6.7604 10.4192 7.05099C9.65381 7.34927 9.00511 7.74952 8.35967 8.3973C7.71422 9.04507 7.31676 9.69424 7.02058 10.4608C6.73395 11.2019 6.53976 12.0485 6.48504 13.288C6.43032 14.5274 6.41821 14.9258 6.42427 18.0873C6.43032 21.2489 6.44429 21.6452 6.50437 22.8872C6.56351 24.1257 6.76049 24.9714 7.05108 25.7111C7.34982 26.4765 7.74962 27.1249 8.39762 27.7706C9.04563 28.4163 9.69433 28.8128 10.4627 29.1095C11.2032 29.3956 12.05 29.5908 13.2892 29.645C14.5284 29.6993 14.9273 29.7118 18.0879 29.7058C21.2485 29.6997 21.6464 29.6858 22.8882 29.6269C24.13 29.5679 24.9712 29.3696 25.7112 29.0804C26.4766 28.7809 27.1255 28.3818 27.7707 27.7336C28.4159 27.0854 28.8132 26.4357 29.1091 25.6687C29.396 24.9283 29.5909 24.0814 29.6446 22.8432C29.6989 21.6005 29.7117 21.2037 29.7056 18.0426C29.6996 14.8815 29.6854 14.4852 29.6265 13.2437C29.5676 12.0022 29.3703 11.1591 29.08 10.4188C28.7808 9.65349 28.3815 9.00549 27.7337 8.35934C27.0859 7.7132 26.4358 7.3162 25.6691 7.02096C24.9282 6.73432 24.0818 6.53897 22.8426 6.48541C21.6034 6.43186 21.2045 6.41812 18.0427 6.42418C14.8809 6.43023 14.4851 6.44373 13.2433 6.50427ZM13.3793 27.5506C12.2442 27.5012 11.6279 27.3126 11.2171 27.1547C10.6732 26.9452 10.2858 26.6919 9.87641 26.2865C9.46707 25.8811 9.2156 25.4922 9.00325 24.9495C8.84375 24.5387 8.65165 23.9231 8.59857 22.788C8.54082 21.5611 8.52871 21.1928 8.52196 18.0845C8.51521 14.9763 8.52708 14.6084 8.58087 13.3811C8.6293 12.2469 8.81907 11.6299 8.9767 11.2194C9.18626 10.6747 9.43867 10.288 9.84498 9.87888C10.2513 9.46978 10.639 9.21784 11.1822 9.00549C11.5925 8.84529 12.2081 8.65482 13.3428 8.6008C14.5705 8.54259 14.9384 8.53095 18.0462 8.5242C21.154 8.51744 21.5228 8.52909 22.7511 8.58311C23.8852 8.63247 24.5025 8.82037 24.9126 8.97894C25.4567 9.1885 25.8439 9.44021 26.253 9.84722C26.6621 10.2542 26.9143 10.6405 27.1267 11.1849C27.2871 11.594 27.4776 12.2094 27.5311 13.3448C27.5896 14.5726 27.6028 14.9407 27.6084 18.0482C27.614 21.1558 27.6031 21.5248 27.5493 22.7517C27.4997 23.8868 27.3115 24.5034 27.1534 24.9146C26.9439 25.4582 26.6912 25.8459 26.2847 26.2548C25.8782 26.6637 25.4909 26.9156 24.9475 27.128C24.5377 27.2879 23.9213 27.4789 22.7876 27.5329C21.5598 27.5906 21.1919 27.6027 18.083 27.6095C14.9741 27.6162 14.6073 27.6037 13.3796 27.5506M22.8703 11.8427C22.8707 12.119 22.9531 12.389 23.107 12.6185C23.261 12.848 23.4795 13.0267 23.735 13.132C23.9904 13.2373 24.2714 13.2645 24.5423 13.2101C24.8133 13.1557 25.062 13.0222 25.257 12.8264C25.4521 12.6307 25.5847 12.3815 25.6381 12.1103C25.6915 11.8392 25.6633 11.5583 25.557 11.3033C25.4508 11.0482 25.2713 10.8303 25.0412 10.6772C24.8112 10.5242 24.5409 10.4427 24.2645 10.4433C23.8941 10.444 23.5391 10.5919 23.2777 10.8543C23.0162 11.1167 22.8697 11.4722 22.8703 11.8427ZM12.0873 18.0766C12.0938 21.3784 14.7752 24.0488 18.0763 24.0426C21.3773 24.0363 24.0496 21.3551 24.0433 18.0533C24.0371 14.7516 21.3549 12.0804 18.0534 12.0869C14.7519 12.0935 12.081 14.7754 12.0873 18.0766ZM14.1843 18.0724C14.1827 17.3049 14.4089 16.5541 14.834 15.9151C15.2592 15.276 15.8643 14.7774 16.5729 14.4823C17.2814 14.1872 18.0615 14.1088 18.8146 14.257C19.5677 14.4053 20.26 14.7735 20.8038 15.3152C21.3476 15.8568 21.7186 16.5476 21.8698 17.3001C22.021 18.0526 21.9457 18.8331 21.6534 19.5428C21.3611 20.2525 20.8649 20.8596 20.2275 21.2873C19.5902 21.7149 18.8403 21.944 18.0728 21.9456C17.5631 21.9466 17.0582 21.8473 16.587 21.6532C16.1157 21.4591 15.6873 21.1741 15.3262 20.8145C14.9651 20.4548 14.6784 20.0275 14.4825 19.557C14.2865 19.0866 14.1852 18.5821 14.1843 18.0724Z" fill="#B1BECA"/>
</svg>
