<svg width="57" height="57" viewBox="0 0 57 57" fill="none" xmlns="http://www.w3.org/2000/svg">
<path d="M20.6184 10.1268C18.6899 10.2177 17.3729 10.5255 16.2216 10.9779C15.0301 11.4423 14.0202 12.0654 13.0153 13.0739C12.0105 14.0824 11.3917 15.093 10.9306 16.2864C10.4843 17.4402 10.182 18.7582 10.0968 20.6878C10.0116 22.6174 9.99278 23.2377 10.0022 28.1597C10.0116 33.0817 10.0334 33.6987 10.1269 35.6323C10.219 37.5604 10.5257 38.877 10.9781 40.0287C11.4431 41.2202 12.0656 42.2298 13.0744 43.235C14.0832 44.2402 15.0932 44.8575 16.2894 45.3193C17.4422 45.7649 18.7606 46.0686 20.6898 46.1531C22.619 46.2376 23.24 46.2571 28.1606 46.2477C33.0811 46.2383 33.7006 46.2165 35.6339 46.1248C37.5671 46.0331 38.8768 45.7243 40.0288 45.274C41.2203 44.8079 42.2306 44.1865 43.2351 43.1773C44.2396 42.1681 44.858 41.1568 45.3188 39.9627C45.7654 38.8099 46.0688 37.4915 46.1525 35.5637C46.237 33.6291 46.2569 33.0114 46.2475 28.0901C46.2381 23.1688 46.216 22.5518 46.1242 20.619C46.0325 18.6861 45.7255 17.3735 45.2735 16.2211C44.8076 15.0296 44.186 14.0207 43.1775 13.0148C42.169 12.0089 41.1569 11.3908 39.9632 10.9311C38.8097 10.4849 37.492 10.1808 35.5628 10.0974C33.6336 10.014 33.0126 9.99264 28.0902 10.0021C23.1678 10.0115 22.5516 10.0325 20.6184 10.1268ZM20.8301 42.8924C19.0629 42.8156 18.1034 42.5219 17.4639 42.2762C16.6171 41.9499 16.0139 41.5555 15.3766 40.9244C14.7394 40.2933 14.3479 39.6879 14.0173 38.8429C13.7689 38.2035 13.4699 37.245 13.3872 35.4778C13.2973 33.5678 13.2785 32.9943 13.268 28.1553C13.2575 23.3163 13.2759 22.7436 13.3597 20.8328C13.4351 19.0671 13.7305 18.1065 13.9759 17.4674C14.3022 16.6195 14.6951 16.0174 15.3277 15.3805C15.9603 14.7436 16.5638 14.3513 17.4095 14.0207C18.0483 13.7713 19.0067 13.4748 20.7732 13.3907C22.6846 13.3001 23.2574 13.282 28.0957 13.2714C32.934 13.2609 33.5082 13.2791 35.4203 13.3632C37.1861 13.44 38.1471 13.7325 38.7854 13.9794C39.6326 14.3057 40.2354 14.6975 40.8723 15.3312C41.5093 15.9648 41.9018 16.5662 42.2324 17.4137C42.4822 18.0506 42.7787 19.0087 42.8621 20.7763C42.9531 22.6877 42.9738 23.2609 42.9825 28.0988C42.9912 32.9367 42.9741 33.5113 42.8904 35.4213C42.8132 37.1885 42.5203 38.1484 42.2741 38.7885C41.9479 39.635 41.5546 40.2385 40.9216 40.8751C40.2887 41.5116 39.6859 41.9039 38.8398 42.2345C38.2018 42.4835 37.2423 42.7808 35.4773 42.8649C33.5658 42.9548 32.993 42.9736 28.1529 42.9841C23.3128 42.9946 22.7419 42.9751 20.8304 42.8924M35.6059 18.4378C35.6067 18.868 35.7349 19.2883 35.9746 19.6456C36.2142 20.0029 36.5544 20.2811 36.9521 20.4451C37.3499 20.609 37.7873 20.6513 38.2091 20.5666C38.6309 20.4819 39.0181 20.2741 39.3217 19.9693C39.6254 19.6645 39.8318 19.2766 39.9149 18.8545C39.9981 18.4324 39.9542 17.9951 39.7888 17.598C39.6234 17.2008 39.3439 16.8617 38.9858 16.6234C38.6276 16.3851 38.2068 16.2583 37.7766 16.2592C37.1999 16.2603 36.6472 16.4905 36.2402 16.899C35.8331 17.3076 35.605 17.8611 35.6059 18.4378ZM18.8186 28.143C18.8287 33.2833 23.0033 37.4408 28.1424 37.431C33.2816 37.4212 37.442 33.247 37.4322 28.1068C37.4224 22.9665 33.2468 18.8079 28.1069 18.8181C22.967 18.8282 18.8088 23.0035 18.8186 28.143ZM22.0832 28.1365C22.0809 26.9415 22.4329 25.7727 23.0948 24.7778C23.7567 23.783 24.6988 23.0067 25.8019 22.5472C26.905 22.0878 28.1195 21.9657 29.292 22.1965C30.4644 22.4273 31.5421 23.0006 32.3887 23.8439C33.2354 24.6872 33.8129 25.7626 34.0484 26.9341C34.2838 28.1056 34.1666 29.3207 33.7115 30.4256C33.2564 31.5305 32.4839 32.4756 31.4916 33.1414C30.4994 33.8073 29.3319 34.1639 28.137 34.1663C27.3435 34.168 26.5575 34.0133 25.8239 33.7112C25.0902 33.409 24.4232 32.9653 23.8611 32.4054C23.2989 31.8454 22.8526 31.1802 22.5475 30.4478C22.2425 29.7153 22.0847 28.9299 22.0832 28.1365Z" fill="#8E8E8E"/>
</svg>
