<svg width="60" height="60" viewBox="0 0 60 60" fill="none" xmlns="http://www.w3.org/2000/svg">
<path d="M29.805 59.9001C28.7809 59.9001 27.856 59.6544 27.0288 59.1617C26.2016 58.6689 25.552 58.0104 25.0799 57.1832C23.7806 57.1832 22.6678 56.72 21.7429 55.7951C20.818 54.8702 20.3548 53.7574 20.3548 52.4581V44.0705C18.0315 42.5344 16.1714 40.5071 14.773 37.9869C13.3745 35.4668 12.6761 32.7291 12.6761 29.7769C12.6761 25.0119 14.3394 20.9661 17.6675 17.638C20.9956 14.3098 25.0414 12.6465 29.8064 12.6465C34.5714 12.6465 38.6173 14.3098 41.9454 17.638C45.2735 20.9661 46.9368 25.0119 46.9368 29.7769C46.9368 32.8091 46.2383 35.566 44.8399 38.0461C43.4415 40.5263 41.5813 42.5359 39.258 44.072V52.4596C39.258 53.7588 38.7948 54.8717 37.87 55.7966C36.9451 56.7214 35.8323 57.1846 34.533 57.1846C34.0609 58.0118 33.4113 58.6718 32.5841 59.1631C31.7568 59.6559 30.8319 59.9016 29.8079 59.9016L29.805 59.9001ZM25.0799 52.4566H34.5315V50.3301H25.0799V52.4566ZM25.0799 47.9683H34.5315V45.7234H25.0799V47.9683ZM24.6063 40.9984H28.0321V34.6189L22.8335 29.4203L25.3152 26.9386L29.805 31.4284L34.2947 26.9386L36.7764 29.4203L31.5778 34.6189V40.9984H35.0036C37.1301 39.9743 38.8629 38.4679 40.2022 36.479C41.5414 34.4901 42.2103 32.2556 42.2103 29.7739C42.2103 26.3082 41.0087 23.3752 38.6069 20.972C36.2052 18.5702 33.2707 17.3686 29.805 17.3686C26.3392 17.3686 23.4062 18.5702 21.003 20.972C18.6012 23.3737 17.3996 26.3082 17.3996 29.7739C17.3996 32.2556 18.0685 34.4901 19.4077 36.479C20.747 38.4679 22.4798 39.9743 24.6063 40.9984ZM27.236 7.7069V0H32.3739V7.7069H27.236ZM47.0167 14.9003L43.4208 11.3043L48.0452 6.6799L51.6412 10.2759L47.0167 14.9003ZM12.5932 14.9003L7.96875 10.2759L11.5647 6.6799L16.1891 11.3043L12.5932 14.9003Z" fill="url(#paint0_linear_40000797_1626)"/>
<defs>
<linearGradient id="paint0_linear_40000797_1626" x1="7.96875" y1="29.95" x2="51.6412" y2="29.95" gradientUnits="userSpaceOnUse">
<stop stop-color="#4BA634"/>
<stop offset="1" stop-color="#6FC8ED"/>
</linearGradient>
</defs>
</svg>
