<svg width="57" height="57" viewBox="0 0 57 57" fill="none" xmlns="http://www.w3.org/2000/svg">
<path d="M41.7279 10H14.2875C11.9208 10 10 11.9208 10 14.2875V41.7279C10 44.0946 11.9208 46.0154 14.2875 46.0154H41.7279C44.0946 46.0154 46.0154 44.0946 46.0154 41.7279V14.2875C46.0154 11.9208 44.0946 10 41.7279 10ZM21.1476 23.7202V40.0128H16.0026V23.7202H21.1476ZM16.0026 18.9781C16.0026 17.7776 17.0316 16.8601 18.5751 16.8601C20.1186 16.8601 21.0876 17.7776 21.1476 18.9781C21.1476 20.1786 20.1872 21.1476 18.5751 21.1476C17.0316 21.1476 16.0026 20.1786 16.0026 18.9781ZM40.0128 40.0128H34.8678C34.8678 40.0128 34.8678 32.0723 34.8678 31.4377C34.8678 29.7227 34.0103 28.0077 31.8665 27.9734H31.7979C29.7227 27.9734 28.8652 29.7399 28.8652 31.4377C28.8652 32.2181 28.8652 40.0128 28.8652 40.0128H23.7202V23.7202H28.8652V25.9154C28.8652 25.9154 30.5202 23.7202 33.8473 23.7202C37.2517 23.7202 40.0128 26.0612 40.0128 30.8032V40.0128Z" fill="#8E8E8E"/>
</svg>
