<svg width="37" height="37" viewBox="0 0 37 37" fill="none" xmlns="http://www.w3.org/2000/svg">
<path d="M27.0506 6.49805H9.42491C7.9047 6.49805 6.6709 7.73185 6.6709 9.25206V26.8778C6.6709 28.398 7.9047 29.6318 9.42491 29.6318H27.0506C28.5708 29.6318 29.8046 28.398 29.8046 26.8778V9.25206C29.8046 7.73185 28.5708 6.49805 27.0506 6.49805ZM13.8313 15.3109V25.7761H10.5265V15.3109H13.8313ZM10.5265 12.265C10.5265 11.4938 11.1875 10.9045 12.1789 10.9045C13.1704 10.9045 13.7928 11.4938 13.8313 12.265C13.8313 13.0361 13.2144 13.6585 12.1789 13.6585C11.1875 13.6585 10.5265 13.0361 10.5265 12.265ZM25.949 25.7761H22.6442C22.6442 25.7761 22.6442 20.6757 22.6442 20.2681C22.6442 19.1665 22.0934 18.0649 20.7164 18.0429H20.6723C19.3394 18.0429 18.7886 19.1775 18.7886 20.2681C18.7886 20.7694 18.7886 25.7761 18.7886 25.7761H15.4837V15.3109H18.7886V16.7209C18.7886 16.7209 19.8516 15.3109 21.9887 15.3109C24.1754 15.3109 25.949 16.8146 25.949 19.8605V25.7761Z" fill="#B1BECA"/>
</svg>
