<svg width="150" height="150" viewBox="0 0 150 150" fill="none" xmlns="http://www.w3.org/2000/svg">
<path d="M52.091 10.2242H92.7754L50.541 135.36C50.1069 136.646 49.2805 137.763 48.1781 138.555C47.0757 139.346 45.7528 139.772 44.3957 139.773H12.7332C11.7049 139.773 10.6914 139.528 9.77646 139.059C8.86154 138.589 8.07151 137.909 7.47173 137.074C6.87195 136.239 6.47967 135.273 6.32733 134.256C6.17499 133.239 6.26698 132.2 6.59568 131.226L45.9441 14.6367C46.378 13.3503 47.2045 12.2325 48.3073 11.4406C49.41 10.6487 50.7334 10.2243 52.091 10.2242Z" fill="url(#paint0_linear_40000455_1525)"/>
<path d="M111.212 94.1582H46.6963C46.0965 94.1575 45.5104 94.3375 45.0143 94.6747C44.5183 95.0119 44.1353 95.4907 43.9152 96.0487C43.6952 96.6066 43.6483 97.2179 43.7806 97.803C43.913 98.388 44.2184 98.9196 44.6572 99.3285L86.1135 138.022C87.3205 139.148 88.9097 139.774 90.5603 139.774H127.092L111.212 94.1582Z" fill="#0078D4"/>
<path d="M52.0905 10.2247C50.7181 10.2194 49.3799 10.6531 48.2715 11.4624C47.1631 12.2717 46.3425 13.4142 45.9296 14.7231L6.64365 131.12C6.29284 132.098 6.1827 133.146 6.32256 134.175C6.46241 135.205 6.84815 136.185 7.44713 137.034C8.04612 137.883 8.84073 138.575 9.76374 139.052C10.6868 139.528 11.711 139.776 12.7499 139.773H45.2296C46.4393 139.557 47.5699 139.024 48.506 138.228C49.4421 137.431 50.1501 136.401 50.5577 135.242L58.3921 112.153L86.3765 138.254C87.5492 139.224 89.0203 139.761 90.5421 139.773H126.937L110.975 94.1575L64.4421 94.1684L92.9218 10.2247H52.0905Z" fill="url(#paint1_linear_40000455_1525)"/>
<path d="M104.054 14.6309C103.621 13.3465 102.795 12.2305 101.694 11.44C100.593 10.6496 99.2718 10.2245 97.9164 10.2246H52.5742C53.9296 10.2247 55.2508 10.6499 56.3518 11.4403C57.4529 12.2308 58.2782 13.3467 58.7117 14.6309L98.0617 131.225C98.3907 132.199 98.4829 133.238 98.3307 134.255C98.1785 135.272 97.7862 136.239 97.1865 137.074C96.5867 137.91 95.7966 138.59 94.8815 139.06C93.9665 139.53 92.9527 139.775 91.9242 139.775H137.268C138.296 139.774 139.31 139.529 140.225 139.059C141.14 138.59 141.93 137.909 142.529 137.074C143.129 136.238 143.521 135.272 143.673 134.255C143.825 133.238 143.733 132.199 143.404 131.225L104.054 14.6309Z" fill="url(#paint2_linear_40000455_1525)"/>
<defs>
<linearGradient id="paint0_linear_40000455_1525" x1="66.9191" y1="19.8242" x2="24.6675" y2="144.646" gradientUnits="userSpaceOnUse">
<stop stop-color="#114A8B"/>
<stop offset="1" stop-color="#0669BC"/>
</linearGradient>
<linearGradient id="paint1_linear_40000455_1525" x1="80.1171" y1="77.995" x2="70.3437" y2="81.2997" gradientUnits="userSpaceOnUse">
<stop stop-opacity="0.3"/>
<stop offset="0.071" stop-opacity="0.2"/>
<stop offset="0.321" stop-opacity="0.1"/>
<stop offset="0.623" stop-opacity="0.05"/>
<stop offset="1" stop-opacity="0"/>
</linearGradient>
<linearGradient id="paint2_linear_40000455_1525" x1="74.7414" y1="16.184" x2="121.121" y2="139.748" gradientUnits="userSpaceOnUse">
<stop stop-color="#3CCBF4"/>
<stop offset="1" stop-color="#2892DF"/>
</linearGradient>
</defs>
</svg>
