<svg width="223" height="112" viewBox="0 0 223 112" fill="none" xmlns="http://www.w3.org/2000/svg">
<path d="M0 111.503V96.8675C0 90.2062 3.40669 84.7869 10.2201 80.6046C17.0334 76.4223 26.0165 74.3337 37.1643 74.3337C39.1769 74.3337 41.1134 74.3743 42.9739 74.4503C44.8344 74.5263 46.6138 74.719 48.3171 75.0333C46.1474 78.2879 44.5252 81.6946 43.4403 85.2533C42.3554 88.8172 41.813 92.5331 41.813 96.4011V111.498H0V111.503ZM55.7541 111.503V96.4062C55.7541 91.4482 57.1076 86.9212 59.8198 82.8149C62.5319 78.7086 66.3645 75.1093 71.3173 72.0119C76.2753 68.9144 82.1964 66.5926 89.0858 65.0414C95.9753 63.4952 103.448 62.7195 111.503 62.7195C119.558 62.7195 127.259 63.4952 134.153 65.0414C141.043 66.5875 146.969 68.9144 151.922 72.0119C156.88 75.1093 160.672 78.7086 163.303 82.8149C165.934 86.9212 167.252 91.4482 167.252 96.4062V111.503H55.749H55.7541ZM181.193 111.503V96.4062C181.193 92.381 180.691 88.584 179.682 85.0252C178.674 81.4614 177.168 78.1358 175.15 75.0384C176.854 74.7291 178.598 74.5365 180.377 74.4554C182.156 74.3793 183.976 74.3388 185.837 74.3388C196.985 74.3388 205.968 76.3919 212.781 80.4931C219.594 84.5994 223.001 90.0541 223.001 96.8675V111.503H181.188H181.193ZM75.4997 92.9235H147.745C146.199 89.826 141.9 87.1138 134.853 84.792C127.806 82.4702 120.025 81.3093 111.508 81.3093C102.991 81.3093 95.2098 82.4702 88.1632 84.792C81.1166 87.1138 76.8988 89.826 75.5047 92.9235H75.4997ZM37.1694 65.0464C32.0593 65.0464 27.6844 63.2265 24.0445 59.5866C20.4046 55.9467 18.5847 51.5718 18.5847 46.4617C18.5847 41.3517 20.4046 36.7841 24.0445 33.2203C27.6844 29.6564 32.0593 27.877 37.1694 27.877C42.2794 27.877 46.847 29.6564 50.4108 33.2203C53.9747 36.7841 55.7541 41.1946 55.7541 46.4617C55.7541 51.7289 53.9747 55.9467 50.4108 59.5866C46.847 63.2265 42.4366 65.0464 37.1694 65.0464ZM185.837 65.0464C180.727 65.0464 176.352 63.2265 172.712 59.5866C169.072 55.9467 167.252 51.5718 167.252 46.4617C167.252 41.3517 169.072 36.7841 172.712 33.2203C176.352 29.6564 180.727 27.877 185.837 27.877C190.947 27.877 195.514 29.6564 199.078 33.2203C202.642 36.7841 204.421 41.1946 204.421 46.4617C204.421 51.7289 202.642 55.9467 199.078 59.5866C195.514 63.2265 191.104 65.0464 185.837 65.0464ZM111.503 55.7541C103.762 55.7541 97.1767 53.0419 91.7574 47.6226C86.3382 42.2034 83.626 35.6232 83.626 27.877C83.626 20.1309 86.3382 13.3581 91.7574 8.01484C97.1767 2.67161 103.757 0 111.503 0C119.249 0 126.022 2.67161 131.365 8.01484C136.708 13.3581 139.38 19.9788 139.38 27.877C139.38 35.7753 136.708 42.2034 131.365 47.6226C126.022 53.0419 119.401 55.7541 111.503 55.7541ZM111.503 37.1694C114.134 37.1694 116.344 36.2772 118.124 34.4978C119.903 32.7184 120.795 30.5081 120.795 27.877C120.795 25.246 119.903 23.0357 118.124 21.2563C116.344 19.4769 114.134 18.5847 111.503 18.5847C108.872 18.5847 106.662 19.4769 104.882 21.2563C103.103 23.0357 102.211 25.246 102.211 27.877C102.211 30.5081 103.103 32.7184 104.882 34.4978C106.662 36.2772 108.872 37.1694 111.503 37.1694Z" fill="url(#paint0_linear_40000797_457)"/>
<defs>
<linearGradient id="paint0_linear_40000797_457" x1="0" y1="55.7541" x2="223.006" y2="55.7541" gradientUnits="userSpaceOnUse">
<stop stop-color="#4BA634"/>
<stop offset="1" stop-color="#6FC8ED"/>
</linearGradient>
</defs>
</svg>
