<svg width="230" height="56" viewBox="0 0 230 56" fill="none" xmlns="http://www.w3.org/2000/svg">
<g clip-path="url(#clip0_40000073_2274)">
<path d="M71.3066 27.5997L87.2594 9.19922H92.1231L80.9385 23.9254L92.2603 43.6997H85.3387L76.4031 30.1793L71.3 37.9904V45.9992H64.4004V9.20032H71.3V27.6008H71.3066V27.5997Z" fill="#999999"/>
<path d="M94.6785 39.1003C94.6785 34.163 97.9378 31.2902 103.713 30.8345L110.401 30.28V29.7254C110.401 29.7254 109.048 24.988 105.984 24.988C102.431 24.988 100.454 26.5023 100.454 29.9011H95.3198C95.3198 23.7295 99.6651 20.2012 106.276 20.2012C112.887 20.2012 117.3 30.7357 117.3 30.7357V46.001H111.604L111.158 42.1806C110.121 44.7491 106.812 46.5127 103.016 46.5127C97.8334 46.5127 94.6719 43.439 94.6719 39.1003H94.6774H94.6785ZM110.4 35.7773V34.4683L105.315 34.8735C101.562 35.2293 100.133 36.4878 100.133 38.5018C100.133 40.7705 101.617 41.8808 104.327 41.8808C108.025 41.8808 110.401 39.612 110.401 35.7839V35.7773H110.4Z" fill="#999999"/>
<path d="M124.2 46.0006V25.3006H119.6V20.7004H124.2V13.8008H131.099V20.7004H135.7V25.3006H131.099V46.0006H124.2Z" fill="#999999"/>
<path d="M138.017 39.1003C138.017 34.163 141.277 31.2902 147.051 30.8345L154.101 30.28V29.7254C154.101 29.7254 152.387 24.988 149.322 24.988C145.769 24.988 143.792 26.5023 143.792 29.9011H138.658C138.658 23.7295 143.003 20.2012 149.614 20.2012C156.225 20.2012 160.999 30.7357 160.999 30.7357V46.001H154.942L154.496 42.1806C153.458 44.7491 150.151 46.5127 146.353 46.5127C141.171 46.5127 138.01 43.439 138.01 39.1003H138.015H138.017ZM154.101 35.7773V34.4683L149.016 34.8735C145.262 35.2293 143.834 36.4878 143.834 38.5018C143.834 40.7705 145.318 41.8808 148.028 41.8808C151.727 41.8808 154.102 39.612 154.102 35.7839V35.7773H154.101Z" fill="#999999"/>
<path d="M165.6 46.0002V9.2002H172.499V46.0002H165.6Z" fill="#999999"/>
<path d="M190.139 20.2549C197.69 20.2549 203.171 25.5974 203.171 33.358C203.171 41.1186 197.69 46.461 190.139 46.461C182.588 46.461 177.107 41.1186 177.107 33.358C177.107 25.5974 182.588 20.2549 190.139 20.2549ZM190.139 40.9703C194.284 40.9703 197.146 37.8966 197.146 33.3591C197.146 28.8215 194.284 25.7478 190.139 25.7478C185.995 25.7478 183.132 28.8215 183.132 33.3591C183.132 37.8966 185.995 40.9703 190.139 40.9703Z" fill="#999999"/>
<path d="M207 46.0003V20.7001H212.542L213.033 23.9803C214.555 21.4216 217.496 19.9336 220.783 19.9336C226.864 19.9336 230.001 23.8792 230.001 30.4341V46.0003H225.401V32.1362C225.401 27.9534 223.302 25.9339 220.083 25.9339C216.252 25.9339 213.901 28.5518 213.901 32.5853V46.0003H207.001H207Z" fill="#999999"/>
<path d="M36.8009 36.7998H18.4004V55.2003H36.8009V36.7998Z" fill="#999999"/>
<path d="M18.4027 0L0 18.4005V36.8011H18.4027L36.8 18.4005V0H18.4027Z" fill="#999999"/>
</g>
<defs>
<clipPath id="clip0_40000073_2274">
<rect width="230" height="55.2005" fill="white"/>
</clipPath>
</defs>
</svg>
