<svg width="230" height="28" viewBox="0 0 230 28" fill="none" xmlns="http://www.w3.org/2000/svg">
<g clip-path="url(#clip0_40000073_2284)">
<path d="M174.03 13.3423C174.306 13.4892 174.501 13.5916 174.695 13.696C176.31 14.5721 177.257 15.8857 177.405 17.7526C177.586 20.0292 177.255 22.1578 175.675 23.9285C174.361 25.4014 172.643 26.0996 170.736 26.3706C170.024 26.4719 169.295 26.5112 168.574 26.5133C163.802 26.5257 159.029 26.5195 154.255 26.5195H153.522C153.522 26.2806 153.522 26.0975 153.522 25.9134C153.522 17.6595 153.526 9.40672 153.512 1.15288C153.512 0.681227 153.633 0.5478 154.112 0.548834C158.782 0.566417 163.45 0.526079 168.119 0.581932C169.363 0.596413 170.638 0.753629 171.837 1.07634C174.643 1.83139 176.375 4.09654 176.542 6.99987C176.615 8.28139 176.552 9.54325 176.064 10.7586C175.647 11.7939 174.994 12.6359 174.03 13.3423ZM161.781 20.6053C163.199 20.6053 164.575 20.6084 165.95 20.6022C166.276 20.6011 166.608 20.6001 166.927 20.5422C168.116 20.3239 168.629 19.6423 168.623 18.3391C168.617 17.1744 168.08 16.4484 166.9 16.348C165.48 16.227 164.046 16.2756 162.618 16.2529C162.348 16.2487 162.078 16.2529 161.781 16.2529V20.6053ZM161.785 10.6965C163.381 10.6965 164.963 10.7586 166.537 10.6769C167.741 10.6138 168.322 9.89492 168.354 8.71477C168.386 7.51392 167.813 6.7144 166.618 6.62855C165.042 6.51477 163.456 6.56752 161.874 6.55201C161.847 6.55201 161.819 6.58924 161.755 6.63579C161.755 7.84594 161.755 9.08402 161.756 10.3211C161.756 10.4379 161.775 10.5558 161.786 10.6965H161.785Z" fill="#999999"/>
<path d="M38.9163 26.9264C36.8032 26.9285 34.7222 26.7092 32.7083 26.0328C29.1637 24.8433 26.8893 22.4457 25.9873 18.8174C25.1258 15.3493 25.133 11.8554 25.9708 8.38317C26.8779 4.61929 29.2113 2.11521 32.9162 1.01987C37.0638 -0.205796 41.2487 -0.202693 45.3735 1.14812C48.8126 2.2745 50.9992 4.66377 51.8918 8.1639C52.8113 11.7664 52.8206 15.4 51.8753 18.9973C50.812 23.0405 48.0721 25.4194 44.0796 26.342C42.3978 26.7309 40.6519 26.8447 38.936 27.0826C38.9287 27.0298 38.9225 26.9781 38.9153 26.9254L38.9163 26.9264ZM34.1191 13.6282C34.2505 14.5549 34.3281 15.5706 34.5494 16.5553C34.9218 18.2154 35.9747 19.2394 37.6855 19.4773C38.3454 19.5693 39.0239 19.591 39.69 19.5569C41.5683 19.4597 42.8633 18.416 43.3235 16.5925C43.8376 14.5549 43.819 12.4956 43.3173 10.458C42.9594 9.00273 42.0668 7.98289 40.5516 7.72535C39.6817 7.57744 38.7663 7.54951 37.8872 7.63226C35.9923 7.81016 34.8545 8.91998 34.4915 10.7735C34.3136 11.6816 34.2474 12.6104 34.1191 13.6282Z" fill="#999999"/>
<path d="M192.121 26.9807C189.74 26.9549 187.411 26.6828 185.182 25.7954C182.225 24.6194 180.224 22.5259 179.337 19.4706C178.195 15.5422 178.201 11.5808 179.35 7.65348C180.318 4.34677 182.533 2.17677 185.785 1.13418C189.951 -0.201123 194.17 -0.19802 198.337 1.09488C201.901 2.20056 204.172 4.65086 205.077 8.28338C205.928 11.6987 205.939 15.143 205.15 18.5686C204.174 22.8021 201.444 25.3206 197.288 26.3663C196.589 26.5422 195.876 26.688 195.16 26.7666C194.151 26.8773 193.135 26.9125 192.122 26.9797L192.121 26.9807ZM196.935 13.6918C196.785 12.5892 196.717 11.587 196.501 10.6189C196.099 8.82019 195.054 7.89551 193.241 7.64727C192.682 7.57073 192.106 7.54591 191.543 7.57487C189.41 7.68347 188.153 8.6609 187.679 10.652C187.2 12.6575 187.206 14.6817 187.721 16.6841C188.095 18.1383 189.007 19.0972 190.492 19.4447C191.476 19.6743 192.467 19.6836 193.463 19.4923C194.978 19.2016 196.003 18.3256 196.392 16.8465C196.669 15.7905 196.769 14.6879 196.935 13.6929V13.6918Z" fill="#999999"/>
<path d="M79.3624 0.559406H79.9074C82.4064 0.559406 84.9053 0.573886 87.4042 0.546994C87.8996 0.541823 87.9989 0.70421 87.9948 1.16034C87.9741 3.46997 87.9855 5.7796 87.9855 8.0882V8.79153C88.8398 7.8441 89.5824 7.01975 90.3261 6.1954C91.9417 4.405 93.5532 2.61046 95.1791 0.829363C95.3012 0.694902 95.5184 0.570784 95.6911 0.570784C98.7765 0.556303 101.861 0.56044 104.946 0.563543C104.991 0.563543 105.036 0.588367 105.162 0.624568C101.948 4.20434 98.7682 7.74584 95.5773 11.2998C98.7786 16.3648 101.957 21.3926 105.196 26.5177H104.581C101.927 26.5177 99.273 26.5073 96.6189 26.529C96.1948 26.5321 95.9787 26.377 95.7739 26.0315C94.0517 23.1292 92.3141 20.2362 90.5795 17.3412C90.4833 17.1798 90.3789 17.0226 90.2351 16.7951C89.4945 17.6587 88.7726 18.482 88.0806 19.3281C87.9793 19.4512 87.9896 19.685 87.9886 19.868C87.9824 21.8674 87.9844 23.8667 87.9844 25.866V26.4721H79.3613V0.559406H79.3624Z" fill="#999999"/>
<path d="M127.182 26.4888H107.078V0.594727H127.175V6.97336H115.733V10.2821H116.363C119.293 10.2821 122.224 10.2945 125.154 10.2708C125.644 10.2666 125.754 10.4197 125.748 10.881C125.724 12.8441 125.737 14.8073 125.737 16.8387H115.737V20.0916H127.181V26.4878L127.182 26.4888Z" fill="#999999"/>
<path d="M9.87269 14.9789C10.183 15.1568 10.5119 15.3068 10.7953 15.5188C11.1583 15.7909 11.4459 15.7412 11.7324 15.4237C11.8813 15.2582 12.0448 15.1072 12.2433 14.9086C12.7388 15.7329 12.8888 16.6049 12.8557 17.6309C13.8362 16.911 14.3927 16.0412 14.4609 14.9593C14.5054 14.2559 14.3627 13.5268 14.2023 12.8327C14.1258 12.5028 14.1237 12.2639 14.2747 11.9701C15.4994 9.59014 16.0238 7.09123 15.5252 4.42373C15.3928 3.71419 15.3091 3.6604 14.6471 3.89416C12.1678 4.77126 10.2657 6.3848 8.80734 8.53928C8.54877 8.92197 8.27157 9.11953 7.81337 9.22503C6.22776 9.58911 5.09104 10.5014 4.59561 12.1056C4.57078 12.1873 4.55216 12.2721 4.53665 12.3569C4.52113 12.4397 4.51389 12.5235 4.49217 12.6962C5.34548 12.2556 6.16156 11.8781 7.07486 11.9339C7.05418 12.4045 6.87214 12.9413 7.05728 13.2702C7.2569 13.624 7.80302 13.7812 8.24157 14.0522C8.14952 14.1742 8.06988 14.2963 7.97472 14.4059C6.74802 15.8281 5.51408 17.2431 4.29772 18.6735C4.09396 18.9135 3.89951 18.9817 3.59128 18.9373C3.03172 18.8566 2.46388 18.8318 1.85156 18.779C1.69848 18.0726 1.41198 17.3237 0.691059 17.0331C-0.0112421 16.7486 -0.000898896 16.2956 0.000135421 15.7081C0.0146159 10.882 0.00840996 6.05588 0.00840996 1.22976C0.00840996 1.02703 0.00840996 0.824308 0.00840996 0.559523H0.609348C5.00416 0.559523 9.40001 0.521253 13.7938 0.583312C15.1053 0.60193 16.4603 0.740528 17.7149 1.10564C20.973 2.05204 22.7148 4.43304 23.3509 7.66528C23.7646 9.76391 23.7201 11.847 22.7375 13.8226C21.9659 15.373 20.824 16.5894 19.3915 17.544C19.2498 17.6382 19.106 17.7302 18.9271 17.8481C19.8776 18.6394 20.2521 19.7523 20.762 20.7804C21.6184 22.5077 22.4583 24.2423 23.3043 25.9737C23.3778 26.1247 23.4429 26.2788 23.5402 26.4919C23.3116 26.5033 23.1461 26.5178 22.9816 26.5178C20.3276 26.5188 17.6735 26.5136 15.0184 26.525C14.6833 26.526 14.4557 26.4412 14.2303 26.1682C13.559 25.3552 12.6581 25.1794 11.7158 25.3676C11.3714 24.8711 11.1025 24.3592 10.7157 23.962C10.3764 23.6144 9.92647 23.2059 9.48896 23.1583C8.42568 23.0435 8.17434 22.1943 7.72028 21.5117C7.64994 21.4051 7.64167 21.2097 7.68511 21.0824C8.36569 19.0976 9.05972 17.1169 9.75271 15.1362C9.76822 15.0917 9.81167 15.0575 9.87372 14.9779L9.87269 14.9789Z" fill="#999999"/>
<path d="M77.4343 9.02557C76.3276 8.67804 75.2953 8.29844 74.2341 8.03056C72.2162 7.52064 70.1662 7.3448 68.0903 7.64476C65.0866 8.07814 63.4483 9.85613 63.3107 12.9167C63.2745 13.7193 63.3066 14.5426 63.4431 15.3339C63.8434 17.66 65.3535 18.9302 67.5917 19.3553C70.6895 19.9438 73.689 19.4835 76.6079 18.3644C76.8437 18.2744 77.0816 18.1907 77.3919 18.0769C77.3919 18.3158 77.3919 18.4854 77.3919 18.654C77.3919 20.7909 77.3774 22.9278 77.4043 25.0647C77.4095 25.5115 77.2461 25.6884 76.852 25.8239C74.2259 26.7289 71.517 26.9886 68.7605 26.9244C66.4923 26.8717 64.2643 26.5872 62.1274 25.7836C57.6819 24.1111 55.2513 20.8426 54.6297 16.1934C54.3152 13.8382 54.3783 11.48 54.9762 9.16624C56.0881 4.85934 58.8704 2.13185 63.1059 0.983756C67.7345 -0.27087 72.3693 -0.150889 76.9409 1.38611C77.2967 1.50609 77.4488 1.66847 77.4446 2.07393C77.4229 4.38149 77.4343 6.69008 77.4343 9.02764V9.02557Z" fill="#999999"/>
<path d="M144.717 26.4922H136.062V6.91877H129.145V0.608398H151.667C151.677 0.754237 151.698 0.917659 151.699 1.08212C151.701 2.84045 151.682 4.59879 151.712 6.3561C151.721 6.83499 151.556 6.9229 151.122 6.91773C149.192 6.89601 147.261 6.90842 145.331 6.90842C145.144 6.90842 144.959 6.90842 144.718 6.90842V26.4922H144.717Z" fill="#999999"/>
<path d="M230 0.601562V6.89952H223.079V26.4729H214.423V6.92331H207.508V0.601562H230Z" fill="#999999"/>
<path d="M11.6374 11.6221C10.7376 11.6314 10.0322 10.9291 10.0332 10.0272C10.0353 9.13664 10.7624 8.41262 11.6436 8.42296C12.5032 8.4333 13.2127 9.14595 13.223 10.0086C13.2334 10.9095 12.5425 11.6128 11.6364 11.6221H11.6374Z" fill="#999999"/>
</g>
<defs>
<clipPath id="clip0_40000073_2284">
<rect width="230" height="26.9667" fill="white" transform="translate(0 0.117188)"/>
</clipPath>
</defs>
</svg>
