<svg width="103" height="113" viewBox="0 0 103 113" fill="none" xmlns="http://www.w3.org/2000/svg">
<path d="M52.1717 0C57.79 0 62.5396 1.93883 66.4172 5.81955C70.2979 9.70026 72.2368 14.4467 72.2368 20.0651C72.2368 24.7018 70.8558 28.7837 68.0908 32.3047C65.3259 35.8288 61.8049 38.2127 57.5218 39.4626V50.8334H89.6253V72.2368H103.002V109.693H65.5453V72.2368H78.9221V61.5366H25.4152V72.9074C29.6952 74.1573 33.2193 76.5412 35.9842 80.0653C38.7492 83.5893 40.1302 87.6682 40.1302 92.3049C40.1302 97.9233 38.1913 102.673 34.3106 106.55C30.4299 110.428 25.6834 112.37 20.0651 112.37C14.4467 112.37 9.69721 110.431 5.81955 106.55C1.94188 102.67 0 97.9233 0 92.3049C0 87.6682 1.38096 83.5863 4.14593 80.0653C6.9109 76.5412 10.4319 74.1573 14.715 72.9074V50.8364H46.8185V39.4656C42.5385 38.2157 39.0144 35.8318 36.2495 32.3078C33.4845 28.7837 32.1035 24.7049 32.1035 20.0681C32.1035 14.4498 34.0424 9.70026 37.9231 5.8226C41.8038 1.94188 46.5503 0.00305146 52.1686 0.00305146L52.1717 0ZM20.0681 82.9369C17.483 82.9369 15.2759 83.8515 13.4468 85.6806C11.6178 87.5097 10.7032 89.7167 10.7032 92.3019C10.7032 94.887 11.6178 97.0941 13.4468 98.9232C15.2759 100.752 17.483 101.667 20.0681 101.667C22.6532 101.667 24.8603 100.752 26.6894 98.9232C28.5185 97.0941 29.4331 94.887 29.4331 92.3019C29.4331 89.7167 28.5185 87.5097 26.6894 85.6806C24.8603 83.8515 22.6532 82.9369 20.0681 82.9369ZM92.3049 82.9369H76.2516V98.9902H92.3049V82.9369ZM52.1717 10.7032C49.5866 10.7032 47.3795 11.6178 45.5504 13.4468C43.7213 15.2759 42.8067 17.483 42.8067 20.0681C42.8067 22.6533 43.7213 24.8604 45.5504 26.6894C47.3795 28.5185 49.5866 29.4331 52.1717 29.4331C54.7568 29.4331 56.9639 28.5185 58.793 26.6894C60.6221 24.8604 61.5366 22.6533 61.5366 20.0681C61.5366 17.483 60.6221 15.2759 58.793 13.4468C56.9639 11.6178 54.7568 10.7032 52.1717 10.7032Z" fill="url(#paint0_linear_40001161_2824)"/>
<defs>
<linearGradient id="paint0_linear_40001161_2824" x1="0.00304848" y1="56.1835" x2="103.005" y2="56.1835" gradientUnits="userSpaceOnUse">
<stop stop-color="#4BA634"/>
<stop offset="1" stop-color="#6FC8ED"/>
</linearGradient>
</defs>
</svg>
