<svg width="50" height="50" viewBox="0 0 50 50" fill="none" xmlns="http://www.w3.org/2000/svg">
<path d="M45.9523 14.4688C45.7034 13.5438 45.2159 12.7005 44.5385 12.0232C43.8612 11.3459 43.0179 10.8583 42.093 10.6094C38.6867 9.6875 24.9992 9.6875 24.9992 9.6875C24.9992 9.6875 11.3117 9.6875 7.90547 10.6094C6.98053 10.8583 6.13721 11.3459 5.4599 12.0232C4.78259 12.7005 4.29506 13.5438 4.0461 14.4688C3.41007 17.9426 3.10143 21.4685 3.12422 25C3.10143 28.5315 3.41007 32.0574 4.0461 35.5313C4.29506 36.4562 4.78259 37.2995 5.4599 37.9768C6.13721 38.6541 6.98053 39.1417 7.90547 39.3906C11.3117 40.3125 24.9992 40.3125 24.9992 40.3125C24.9992 40.3125 38.6867 40.3125 42.093 39.3906C43.0179 39.1417 43.8612 38.6541 44.5385 37.9768C45.2159 37.2995 45.7034 36.4562 45.9523 35.5313C46.5884 32.0574 46.897 28.5315 46.8742 25C46.897 21.4685 46.5884 17.9426 45.9523 14.4688ZM20.6242 31.5625V18.4375L31.9836 25L20.6242 31.5625Z" fill="#1E1E1E" fill-opacity="0.5"/>
</svg>
