<svg width="33" height="33" viewBox="0 0 33 33" fill="none" xmlns="http://www.w3.org/2000/svg">
<path d="M29.6482 9.30063C29.4883 8.70651 29.1751 8.16482 28.74 7.72977C28.305 7.29471 27.7633 6.98156 27.1692 6.82164C24.9813 6.22949 16.1894 6.22949 16.1894 6.22949C16.1894 6.22949 7.39751 6.22949 5.20958 6.82164C4.61547 6.98156 4.07378 7.29471 3.63872 7.72977C3.20367 8.16482 2.89051 8.70651 2.7306 9.30063C2.32206 11.532 2.12381 13.7967 2.13845 16.0651C2.12381 18.3335 2.32206 20.5983 2.7306 22.8297C2.89051 23.4238 3.20367 23.9655 3.63872 24.4005C4.07378 24.8356 4.61547 25.1487 5.20958 25.3087C7.39751 25.9008 16.1894 25.9008 16.1894 25.9008C16.1894 25.9008 24.9813 25.9008 27.1692 25.3087C27.7633 25.1487 28.305 24.8356 28.74 24.4005C29.1751 23.9655 29.4883 23.4238 29.6482 22.8297C30.0567 20.5983 30.255 18.3335 30.2403 16.0651C30.255 13.7967 30.0567 11.532 29.6482 9.30063ZM13.3792 20.2804V11.8499L20.6756 16.0651L13.3792 20.2804Z" fill="#B1BECA"/>
</svg>
